<?xml version="1.0" encoding="UTF-8"?>
<!DOCTYPE svg PUBLIC "-//W3C//DTD SVG 1.1//EN" "http://www.w3.org/Graphics/SVG/1.1/DTD/svg11.dtd">
<svg xmlns="http://www.w3.org/2000/svg" version="1.1" width="1600px" height="930px" style="shape-rendering:geometricPrecision; text-rendering:geometricPrecision; image-rendering:optimizeQuality; fill-rule:evenodd; clip-rule:evenodd" xmlns:xlink="http://www.w3.org/1999/xlink">
<g><path style="opacity:0.87" fill="#000000" d="M 1388.5,5.5 C 1389.69,5.97041 1390.36,6.97041 1390.5,8.5C 1377,89.3619 1363.33,170.195 1349.5,251C 1356.47,258.638 1356.13,265.971 1348.5,273C 1360.69,270.275 1372.86,267.108 1385,263.5C 1427.47,281.65 1468.97,301.817 1509.5,324C 1517.95,328.639 1525.78,334.139 1533,340.5C 1535,343.5 1535,346.5 1533,349.5C 1516.78,369.012 1496.62,383.179 1472.5,392C 1465.4,394.399 1458.24,396.566 1451,398.5C 1436.02,396.048 1421.19,392.881 1406.5,389C 1360.05,375.68 1313.88,361.514 1268,346.5C 1201.5,409 1135,471.5 1068.5,534C 1242.53,614.35 1416.53,694.683 1590.5,775C 1557.45,802.341 1521.45,825.341 1482.5,844C 1471.22,848.872 1459.55,852.539 1447.5,855C 1443.17,855.667 1438.83,855.667 1434.5,855C 1299.4,812.744 1164.73,769.078 1030.5,724C 1009.81,714.883 989.313,705.383 969,695.5C 943.517,704.662 918.017,713.828 892.5,723C 901,736.833 909.5,750.667 918,764.5C 918.689,765.357 919.522,766.023 920.5,766.5C 924.776,763.529 929.442,761.363 934.5,760C 954.961,759.141 974.961,755.641 994.5,749.5C 1003.39,751.244 1007.73,756.744 1007.5,766C 1006.02,782.798 999.351,797.131 987.5,809C 980.618,814.883 973.452,820.383 966,825.5C 962.039,836.277 955.539,845.111 946.5,852C 933.779,857.925 922.279,856.092 912,846.5C 898.62,850.122 890.62,845.122 888,831.5C 886.681,814.6 890.514,798.933 899.5,784.5C 886.516,767.52 873.183,750.854 859.5,734.5C 829.796,744.901 800.129,755.401 770.5,766C 732.225,788.55 691.892,806.884 649.5,821C 648.715,823.443 648.881,825.943 650,828.5C 652.516,841.431 649.849,853.098 642,863.5C 631.333,872.833 620.667,882.167 610,891.5C 606.584,905.209 598.75,915.376 586.5,922C 576.783,924.09 567.783,922.256 559.5,916.5C 541.628,920.968 532.295,913.968 531.5,895.5C 533.153,876.696 540.819,860.863 554.5,848C 527.428,851.534 501.428,847.867 476.5,837C 465.01,831.425 454.01,825.091 443.5,818C 431.094,816.599 418.76,814.765 406.5,812.5C 407.269,801.526 410.269,791.192 415.5,781.5C 404.491,762.333 402.658,742.333 410,721.5C 413.567,715.264 417.9,709.597 423,704.5C 451.513,674.3 482.68,647.467 516.5,624C 517.451,623.282 517.617,622.449 517,621.5C 461.598,553.934 406.764,485.934 352.5,417.5C 337.875,410.903 323.208,404.403 308.5,398C 214.5,344 120.5,290 26.5,236C 13.1945,222.232 12.0278,207.399 23,191.5C 39.3338,175.241 58.5004,163.408 80.5,156C 98.7087,148.784 117.375,143.45 136.5,140C 361.656,222.415 583.989,311.748 803.5,408C 809.085,409.186 814.751,409.852 820.5,410C 845.514,411.233 870.514,412.233 895.5,413C 952.5,390.667 1009.5,368.333 1066.5,346C 1091.43,330.728 1116.1,315.062 1140.5,299C 1141.83,298 1141.83,297 1140.5,296C 1113,277.418 1085.34,259.085 1057.5,241C 1051.21,236.792 1048.38,230.958 1049,223.5C 1063.7,208.498 1081.2,197.998 1101.5,192C 1114.31,188.755 1127.15,185.588 1140,182.5C 1168.87,191.57 1197.7,200.404 1226.5,209C 1250.68,154.472 1274.18,99.6386 1297,44.5C 1311.61,31.2726 1328.44,21.7726 1347.5,16C 1361.28,12.4184 1374.94,8.91837 1388.5,5.5 Z M 411.5,444.5 C 464.852,467.342 517.852,491.009 570.5,515.5C 553.961,542.589 541.794,571.589 534,602.5C 492.545,550.225 451.712,497.558 411.5,444.5 Z M 908.5,668.5 C 920.513,673.897 932.513,679.397 944.5,685C 924.014,693.16 903.347,700.493 882.5,707C 880.229,703.124 878.229,699.124 876.5,695C 885.167,688.667 893.833,682.333 902.5,676C 905.094,673.914 907.094,671.414 908.5,668.5 Z M 832.5,725.5 C 835.439,722.082 839.106,719.582 843.5,718C 845.809,717.244 847.809,717.744 849.5,719.5C 843.959,721.902 838.292,723.902 832.5,725.5 Z"/></g>
<g><path style="opacity:1" fill="#c1cbd9" d="M 1384.5,10.5 C 1385.24,10.369 1385.91,10.5357 1386.5,11C 1385.44,14.7161 1383.1,17.3828 1379.5,19C 1358.84,32.3313 1336.84,42.9979 1313.5,51C 1295.27,55.0892 1293.61,51.4225 1308.5,40C 1322.49,30.0043 1337.83,22.6709 1354.5,18C 1364.67,15.6713 1374.67,13.1713 1384.5,10.5 Z"/></g>
<g><path style="opacity:1" fill="#c1cbd9" d="M 1382.5,20.5 C 1383.5,20.4701 1384.16,20.9701 1384.5,22C 1371.28,99.4854 1358.11,176.985 1345,254.5C 1344.67,254.167 1344.33,253.833 1344,253.5C 1326.91,261.295 1309.74,268.962 1292.5,276.5C 1312.4,197.593 1332.9,118.593 1354,39.5C 1354.47,38.0692 1355.3,36.9025 1356.5,36C 1365.73,31.5624 1374.39,26.3957 1382.5,20.5 Z"/></g>
<g><path style="opacity:1" fill="#dbe1e9" d="M 1347.5,40.5 C 1348.59,40.62 1349.25,41.2867 1349.5,42.5C 1328.98,121.253 1308.15,199.92 1287,278.5C 1186.48,323.678 1085.64,368.178 984.5,412C 977.25,413.023 976.584,411.356 982.5,407C 1046.82,364.169 1111.49,321.836 1176.5,280C 1187.56,272.937 1198.06,265.103 1208,256.5C 1215.59,241.654 1222.92,226.654 1230,211.5C 1252.72,160.066 1274.88,108.399 1296.5,56.5C 1314.78,55.5422 1331.78,50.2089 1347.5,40.5 Z"/></g>
<g><path style="opacity:1" fill="#dbe1e9" d="M 132.5,143.5 C 267.053,191.947 400.386,243.447 532.5,298C 520.196,301.162 507.862,303.829 495.5,306C 374.914,256.804 254.247,207.804 133.5,159C 136.417,157.767 139.084,156.267 141.5,154.5C 141,154.167 140.5,153.833 140,153.5C 103.413,166.975 68.4132,182.975 35,201.5C 32.4133,205.761 29.4133,209.761 26,213.5C 24.2932,215.909 23.4598,218.575 23.5,221.5C 24.5,221.5 25.5,221.5 26.5,221.5C 26.3398,219.801 26.5065,218.134 27,216.5C 29.964,212.534 33.2974,208.867 37,205.5C 137.925,262.047 239.092,318.214 340.5,374C 416.741,404.287 492.408,435.954 567.5,469C 579.779,474.473 591.779,480.473 603.5,487C 591.374,491.408 581.708,499.408 574.5,511C 485.926,472.887 397.593,433.887 309.5,394C 216.337,340.919 123.337,287.586 30.5,234C 19.1079,224.931 16.2745,213.764 22,200.5C 28.8078,190.66 37.3078,182.493 47.5,176C 74.5868,161.697 102.92,150.863 132.5,143.5 Z"/></g>
<g><path style="opacity:1" fill="#fefefe" d="M 129.5,159.5 C 249.997,208.91 370.664,258.076 491.5,307C 491.167,307.333 490.833,307.667 490.5,308C 485.631,308.836 480.964,310.169 476.5,312C 559.362,350.098 642.695,387.098 726.5,423C 730,424.167 733.5,425.333 737,426.5C 755.959,421.441 775.126,417.275 794.5,414C 799.833,413.333 805.167,413.333 810.5,414C 840.06,423.742 869.393,434.075 898.5,445C 909.26,449.791 919.093,455.957 928,463.5C 928.667,465.167 928.667,466.833 928,468.5C 923.897,471.427 919.397,473.593 914.5,475C 900.388,479.778 886.055,483.778 871.5,487C 949.684,522.591 1028.02,557.924 1106.5,593C 1120.99,599.744 1135.32,606.744 1149.5,614C 1156.24,613.725 1162.41,611.558 1168,607.5C 1286.09,663.128 1404.26,718.628 1522.5,774C 1501.09,783.869 1480.09,794.536 1459.5,806C 1451.33,811.253 1443.33,816.753 1435.5,822.5C 1299.61,774.038 1163.61,725.871 1027.5,678C 933.739,634.119 839.739,590.786 745.5,548C 782.288,524.938 821.288,506.771 862.5,493.5C 862.167,492.5 861.5,491.833 860.5,491.5C 818.066,504.302 778.233,522.636 741,546.5C 739.088,545.308 737.088,544.308 735,543.5C 733.39,545.731 731.557,547.731 729.5,549.5C 687.167,530 644.833,510.5 602.5,491C 604.67,489.414 607.004,488.08 609.5,487C 607.833,485.833 606.167,484.667 604.5,483.5C 640.478,460.013 679.145,442.18 720.5,430C 721.337,428.989 721.67,427.822 721.5,426.5C 690.068,435.046 660.068,447.213 631.5,463C 620.997,469.419 610.33,475.586 599.5,481.5C 514.759,442.796 429.093,406.296 342.5,372C 241.833,316.333 141.167,260.667 40.5,205C 39.1667,204.333 39.1667,203.667 40.5,203C 55.1939,193.65 70.5272,185.317 86.5,178C 100.923,171.782 115.256,165.615 129.5,159.5 Z"/></g>
<g><path style="opacity:1" fill="#c1cbd9" d="M 1137.5,186.5 C 1166.29,194.819 1194.96,203.653 1223.5,213C 1223.96,213.414 1224.29,213.914 1224.5,214.5C 1219.17,225.833 1213.83,237.167 1208.5,248.5C 1207.28,249.614 1205.94,249.781 1204.5,249C 1167.83,232.333 1131.17,215.667 1094.5,199C 1108.76,194.354 1123.09,190.188 1137.5,186.5 Z"/></g>
<g><path style="opacity:1" fill="#dee4eb" d="M 1088.5,200.5 C 1127.61,217.885 1166.61,235.552 1205.5,253.5C 1186.67,268.84 1166.84,282.84 1146,295.5C 1116.77,275.275 1087.27,255.442 1057.5,236C 1054.24,233.196 1052.74,229.696 1053,225.5C 1063.65,215.329 1075.48,206.996 1088.5,200.5 Z"/></g>
<g><path style="opacity:1" fill="#fefefe" d="M 1345.5,255.5 C 1348.71,256.54 1350.71,258.707 1351.5,262C 1348.76,267.156 1345.1,271.489 1340.5,275C 1322.98,282.925 1305.31,290.591 1287.5,298C 1275.18,303.824 1263.18,310.157 1251.5,317C 1244.62,321.05 1239.28,326.55 1235.5,333.5C 1236.25,334.736 1236.58,336.07 1236.5,337.5C 1245.01,339.725 1253.51,342.058 1262,344.5C 1263.26,344.85 1263.59,345.517 1263,346.5C 1196.35,408.317 1129.85,470.317 1063.5,532.5C 1035.68,519.757 1008.02,506.757 980.5,493.5C 991.811,476.707 989.478,462.207 973.5,450C 964.379,443.105 954.379,437.772 943.5,434C 923.206,433.097 903.039,433.931 883,436.5C 879.183,435.005 875.35,433.505 871.5,432C 891.858,431.81 912.191,431.31 932.5,430.5C 934.569,430.176 934.902,429.342 933.5,428C 922.423,424.197 911.423,420.197 900.5,416C 950.093,396.078 999.76,376.245 1049.5,356.5C 1027.38,372.645 1004.38,388.478 980.5,404C 979,405.5 977.5,407 976,408.5C 974.244,413.406 975.911,416.073 981,416.5C 983.185,416.079 985.351,415.579 987.5,415C 1105.5,363 1223.5,311 1341.5,259C 1343.54,258.502 1344.88,257.335 1345.5,255.5 Z"/></g>
<g><path style="opacity:1" fill="#c1cbd9" d="M 1383.5,267.5 C 1419.87,282.685 1455.54,299.519 1490.5,318C 1502.66,324.245 1514.33,331.245 1525.5,339C 1528.41,340.858 1529.91,343.358 1530,346.5C 1524.69,354.312 1518.19,360.979 1510.5,366.5C 1445.79,341.098 1381.13,315.598 1316.5,290C 1321.72,287.48 1327.05,285.147 1332.5,283C 1349.58,277.691 1366.58,272.525 1383.5,267.5 Z"/></g>
<g><path style="opacity:1" fill="#dee4eb" d="M 1310.5,291.5 C 1375.92,317.041 1441.25,342.874 1506.5,369C 1489.63,380.85 1471.13,389.35 1451,394.5C 1431.27,391.027 1411.77,386.527 1392.5,381C 1341.53,365.341 1290.53,349.841 1239.5,334.5C 1242.56,328.269 1247.23,323.436 1253.5,320C 1272.03,309.4 1291.03,299.9 1310.5,291.5 Z"/></g>
<g><path style="opacity:1" fill="#c1cbd9" d="M 535.5,299.5 C 623.825,334.659 711.492,371.493 798.5,410C 777.933,414.099 757.433,418.599 737,423.5C 722.679,418.424 708.512,412.924 694.5,407C 624.046,376.295 554.046,344.628 484.5,312C 501.734,308.259 518.734,304.092 535.5,299.5 Z"/></g>
<g><path style="opacity:1" fill="#c5c5c5" d="M 926.5,427.5 C 905.006,428.497 883.34,428.831 861.5,428.5C 847.498,423.777 833.498,418.943 819.5,414C 844.476,414.749 869.476,415.416 894.5,416C 905.088,420.14 915.754,423.973 926.5,427.5 Z"/></g>
<g><path style="opacity:1" fill="#c1cbd9" d="M 360.5,420.5 C 374.474,426.819 388.474,433.152 402.5,439.5C 445.18,495.518 488.347,551.185 532,606.5C 532.66,609.534 532.16,612.367 530.5,615C 526.973,617.591 523.306,619.591 519.5,621C 520.28,619.927 520.113,618.76 519,617.5C 465.171,552.518 412.338,486.851 360.5,420.5 Z"/></g>
<g><path style="opacity:1" fill="#454545" d="M 926.5,427.5 C 927.289,427.783 927.956,428.283 928.5,429C 905.996,429.83 883.663,429.663 861.5,428.5C 883.34,428.831 905.006,428.497 926.5,427.5 Z"/></g>
<g><path style="opacity:1" fill="#c5c5c5" d="M 911.5,435.5 C 923.229,435.088 934.896,435.588 946.5,437C 959.987,442.822 971.821,450.989 982,461.5C 985.812,467.476 986.479,473.81 984,480.5C 982.361,485.112 980.194,489.446 977.5,493.5C 961.869,487.01 946.535,479.843 931.5,472C 931.273,469.631 931.107,467.131 931,464.5C 926.943,458.722 921.777,454.222 915.5,451C 906.407,446.12 897.073,441.786 887.5,438C 895.717,437.826 903.717,436.993 911.5,435.5 Z"/></g>
<g><path style="opacity:0.919" fill="#0d0d0d" d="M 703.5,456.5 C 711.005,455.988 718.339,456.822 725.5,459C 729.644,462.979 729.31,466.645 724.5,470C 704.83,479.445 684.83,488.112 664.5,496C 657.332,496.988 650.332,496.322 643.5,494C 638.46,491.804 637.293,488.304 640,483.5C 641.558,481.641 643.391,480.141 645.5,479C 664.82,471.162 684.154,463.662 703.5,456.5 Z"/></g>
<g><path style="opacity:1" fill="#c5c5c5" d="M 703.5,458.5 C 710.66,458.089 717.66,458.922 724.5,461C 727.215,464.72 726.215,467.387 721.5,469C 702.399,477.884 683.066,486.217 663.5,494C 656.777,494.128 650.11,493.461 643.5,492C 640.278,490.01 639.778,487.51 642,484.5C 643.41,483.213 644.91,482.046 646.5,481C 665.639,473.571 684.639,466.071 703.5,458.5 Z"/></g>
<g><path style="opacity:1" fill="#c1cbd9" d="M 924.5,473.5 C 1012.63,512.562 1100.29,552.728 1187.5,594C 1177.99,599.587 1168.33,604.92 1158.5,610C 1155.59,611.318 1152.59,611.652 1149.5,611C 1059.67,568.837 969.338,527.837 878.5,488C 894.417,484.637 909.75,479.804 924.5,473.5 Z"/></g>
<g><path style="opacity:0.908" fill="#0f0f0f" d="M 766.5,481.5 C 774.212,481.29 781.545,482.79 788.5,486C 791.22,489.818 790.553,493.151 786.5,496C 770.883,503.475 755.55,511.475 740.5,520C 735.58,522.196 730.58,524.196 725.5,526C 720.828,526.168 716.161,525.834 711.5,525C 698.937,522.92 697.271,517.586 706.5,509C 721.623,501.939 736.623,494.605 751.5,487C 756.412,484.527 761.412,482.694 766.5,481.5 Z"/></g>
<g><path style="opacity:1" fill="#c6c6c6" d="M 761.5,484.5 C 768.896,484.2 776.229,484.7 783.5,486C 787.821,487.795 788.488,490.461 785.5,494C 770.55,501.142 755.883,508.808 741.5,517C 730.09,523.893 718.09,525.226 705.5,521C 701.473,517.689 701.807,514.689 706.5,512C 724.925,502.787 743.259,493.621 761.5,484.5 Z"/></g>
<g><path style="opacity:1" fill="#c6c6c6" d="M 597.5,492.5 C 640.816,512.491 684.149,532.491 727.5,552.5C 721.924,560.718 719.758,569.718 721,579.5C 722.122,581.624 723.622,583.457 725.5,585C 730.326,587.246 734.992,589.746 739.5,592.5C 739.833,594.5 740.167,596.5 740.5,598.5C 739.529,617.502 738.529,636.502 737.5,655.5C 716.186,667.107 693.519,670.607 669.5,666C 646.101,649.961 621.434,635.961 595.5,624C 576.31,615.993 556.31,611.827 535.5,611.5C 543.752,575.556 557.918,542.223 578,511.5C 583.733,504.265 590.233,497.932 597.5,492.5 Z"/></g>
<g><path style="opacity:1" fill="#dbe1e9" d="M 735.5,546.5 C 833.433,590.649 931.1,635.483 1028.5,681C 1163.64,728.741 1298.64,776.741 1433.5,825C 1427.78,829.531 1424.45,835.364 1423.5,842.5C 1424.5,842.5 1425.5,842.5 1426.5,842.5C 1426.34,840.801 1426.51,839.134 1427,837.5C 1429.45,833.385 1432.28,829.552 1435.5,826C 1447.31,816.411 1460.65,807.744 1475.5,800C 1499.47,788.177 1523.47,776.677 1547.5,765.5C 1539.98,766.891 1532.65,769.558 1525.5,773.5C 1412.78,719.808 1299.78,666.641 1186.5,614C 1181.34,611.588 1176.34,608.921 1171.5,606C 1177.33,602.919 1183,599.585 1188.5,596C 1190.17,595.333 1191.83,595.333 1193.5,596C 1323.53,656.017 1453.53,716.017 1583.5,776C 1556.04,797.238 1527.04,816.238 1496.5,833C 1478.44,842.909 1459.27,849.409 1439,852.5C 1303.51,809.831 1168.34,765.998 1033.5,721C 931.167,674.5 828.833,628 726.5,581.5C 723.168,576.828 722.668,571.828 725,566.5C 727.733,559.364 731.233,552.698 735.5,546.5 Z"/></g>
<g><path style="opacity:0.999" fill="#848484" d="M 580.5,555.5 C 580.862,565.081 581.862,574.581 583.5,584C 580.833,584.667 578.167,584.667 575.5,584C 577.134,583.506 578.801,583.34 580.5,583.5C 580.5,574.167 580.5,564.833 580.5,555.5 Z"/></g>
<g><path style="opacity:1" fill="#dbe1e9" d="M 744.5,594.5 C 747.516,595.562 750.516,596.729 753.5,598C 751.432,644.425 750.766,690.925 751.5,737.5C 752.328,732.868 752.828,728.202 753,723.5C 753.613,685.16 754.447,646.827 755.5,608.5C 755.833,605.5 756.167,602.5 756.5,599.5C 758.323,600.747 760.323,601.414 762.5,601.5C 762.528,615.848 763.028,630.182 764,644.5C 767.77,647.583 771.937,647.749 776.5,645C 789.606,638.697 802.773,632.53 816,626.5C 845.893,639.863 875.726,653.363 905.5,667C 896.409,675.428 886.742,683.095 876.5,690C 865.263,691.3 854.929,694.967 845.5,701C 840.34,704.97 838.007,709.97 838.5,716C 832.549,719.95 827.216,724.617 822.5,730C 798.397,739.229 774.064,747.562 749.5,755C 739.91,762.024 735.077,771.191 735,782.5C 709.067,794.145 682.734,804.811 656,814.5C 655.5,814.167 655,813.833 654.5,813.5C 660.785,800.936 664.618,787.603 666,773.5C 667.931,759.396 669.098,745.229 669.5,731C 669.885,714.155 665.052,698.988 655,685.5C 622.175,644.532 579.342,623.366 526.5,622C 531.09,617.039 536.756,614.873 543.5,615.5C 560.888,616.18 577.555,620.014 593.5,627C 602.622,631.061 611.622,635.394 620.5,640C 636.5,649.667 652.5,659.333 668.5,669C 694.243,674.737 718.41,670.904 741,657.5C 742.903,636.59 744.069,615.59 744.5,594.5 Z"/></g>
<g><path style="opacity:1" fill="#c5c5c5" d="M 767.5,603.5 C 782.747,609.79 797.747,616.624 812.5,624C 798.739,631.465 784.572,637.965 770,643.5C 768.893,643.415 767.893,643.081 767,642.5C 766.501,638.179 766.334,633.846 766.5,629.5C 766.174,620.651 766.507,611.984 767.5,603.5 Z"/></g>
<g><path style="opacity:1" fill="#343434" d="M 767.5,603.5 C 766.507,611.984 766.174,620.651 766.5,629.5C 765.178,620.658 765.178,611.658 766.5,602.5C 767.107,602.624 767.44,602.957 767.5,603.5 Z"/></g>
<g><path style="opacity:1" fill="#fefefe" d="M 521.5,624.5 C 572.531,624.881 615.031,643.881 649,681.5C 658.832,693.833 664.832,707.833 667,723.5C 667.663,729.548 667.33,735.548 666,741.5C 635.915,761.794 603.748,778.294 569.5,791C 557.939,795.187 546.105,798.354 534,800.5C 513.973,763.496 483.806,738.33 443.5,725C 434.01,722.259 424.51,722.092 415,724.5C 414.5,724.167 414,723.833 413.5,723.5C 415.506,719.487 418.006,715.82 421,712.5C 442.943,688.886 466.443,667.053 491.5,647C 501.684,639.637 511.684,632.137 521.5,624.5 Z"/></g>
<g><path style="opacity:1" fill="#c1cad8" d="M 949.5,686.5 C 954.02,688.926 958.687,691.093 963.5,693C 900.094,716.248 836.427,738.914 772.5,761C 761.705,766.565 751.038,772.398 740.5,778.5C 739.165,774.13 739.998,770.13 743,766.5C 746.921,761.586 751.754,757.753 757.5,755C 764.713,754.223 771.713,752.557 778.5,750C 832.423,730.137 886.423,710.47 940.5,691C 943.859,689.953 946.859,688.453 949.5,686.5 Z"/></g>
<g><path style="opacity:1" fill="#9daec4" d="M 869.5,694.5 C 870.675,694.281 871.675,694.614 872.5,695.5C 874.5,699.833 876.5,704.167 878.5,708.5C 878.291,709.086 877.957,709.586 877.5,710C 869.905,712.642 862.405,715.475 855,718.5C 851.095,714.703 846.595,713.037 841.5,713.5C 842.363,709.607 844.363,706.44 847.5,704C 854.336,699.409 861.669,696.242 869.5,694.5 Z"/></g>
<g><path style="opacity:1" fill="#9daec4" d="M 885.5,724.5 C 887.144,724.286 888.644,724.62 890,725.5C 898.582,740.333 907.415,754.999 916.5,769.5C 911.47,772.684 906.804,776.351 902.5,780.5C 889.63,764.614 876.63,748.781 863.5,733C 871.033,730.389 878.366,727.556 885.5,724.5 Z"/></g>
<g><path style="opacity:1" fill="#dbe1e9" d="M 419.5,726.5 C 438.558,726.129 456.224,730.962 472.5,741C 497.405,755.236 516.071,775.236 528.5,801C 521.013,801.942 513.68,801.275 506.5,799C 502.737,794.147 498.737,789.48 494.5,785C 489,780.833 483.5,776.667 478,772.5C 472.423,762.588 464.59,755.088 454.5,750C 450.628,749.109 446.962,749.609 443.5,751.5C 437.015,746.958 430.015,745.458 422.5,747C 418.324,751.557 417.491,756.724 420,762.5C 420.896,765.14 422.396,767.307 424.5,769C 422.333,771.833 420.167,774.667 418,777.5C 409.708,762.744 407.374,747.077 411,730.5C 413.564,728.376 416.397,727.042 419.5,726.5 Z"/></g>
<g><path style="opacity:1" fill="#c1cbd9" d="M 665.5,744.5 C 665.495,765.866 661.995,786.866 655,807.5C 653.167,810.667 651.333,813.833 649.5,817C 619.688,827.493 589.355,836.159 558.5,843C 548.005,843.605 537.505,844.105 527,844.5C 521.752,844.585 516.585,844.085 511.5,843C 529.429,835.636 536.762,822.469 533.5,803.5C 581.26,791.927 625.26,772.26 665.5,744.5 Z"/></g>
<g><path style="opacity:1" fill="#738baa" d="M 425.5,749.5 C 430.725,749.297 435.392,750.797 439.5,754C 434.699,757.799 430.199,761.966 426,766.5C 422.826,761.94 421.826,756.94 423,751.5C 423.995,750.934 424.828,750.267 425.5,749.5 Z"/></g>
<g><path style="opacity:1" fill="#9daec4" d="M 448.5,752.5 C 452.985,752.717 456.985,754.217 460.5,757C 473.655,767.808 480.488,781.642 481,798.5C 479.65,803.185 476.817,806.685 472.5,809C 460.527,813.248 448.194,814.581 435.5,813C 427.036,812.145 418.702,810.645 410.5,808.5C 415.248,784.301 427.915,765.634 448.5,752.5 Z"/></g>
<g><path style="opacity:1" fill="#c1cbd9" d="M 991.5,753.5 C 997.308,752.652 1001.14,754.985 1003,760.5C 1003.77,765.904 1003.44,771.238 1002,776.5C 979.431,794.376 954.597,808.543 927.5,819C 919.591,821.982 911.425,823.815 903,824.5C 898.982,824.715 895.315,823.715 892,821.5C 893.55,792.957 907.716,773.791 934.5,764C 954.145,763.284 973.145,759.784 991.5,753.5 Z"/></g>
<g><path style="opacity:1" fill="#738baa" d="M 482.5,780.5 C 493.547,786.54 500.88,795.54 504.5,807.5C 503.706,812.422 500.706,814.755 495.5,814.5C 489.2,813.943 483.2,812.443 477.5,810C 484.139,803.544 486.306,795.71 484,786.5C 483.187,784.564 482.687,782.564 482.5,780.5 Z"/></g>
<g><path style="opacity:1" fill="#9daec4" d="M 998.5,783.5 C 999.043,783.56 999.376,783.893 999.5,784.5C 993.993,796.338 985.993,806.172 975.5,814C 958.041,827.062 938.708,836.395 917.5,842C 911.558,843.406 905.558,843.739 899.5,843C 893.324,838.809 890.824,832.976 892,825.5C 900.316,828.665 908.816,828.832 917.5,826C 947.172,816.502 974.172,802.335 998.5,783.5 Z"/></g>
<g><path style="opacity:1" fill="#dbe1e9" d="M 507.5,802.5 C 514.802,804.165 522.136,804.498 529.5,803.5C 532.796,824.563 523.963,837.23 503,841.5C 484.058,836.777 466.558,828.944 450.5,818C 458.058,817.121 465.391,815.288 472.5,812.5C 481.754,816.731 491.421,818.231 501.5,817C 507.769,813.959 509.769,809.126 507.5,802.5 Z"/></g>
<g><path style="opacity:1" fill="#dee4eb" d="M 642.5,822.5 C 644.825,823.655 645.992,825.655 646,828.5C 646.667,832.167 646.667,835.833 646,839.5C 623.489,862.684 597.656,881.184 568.5,895C 557.811,899.279 546.811,900.445 535.5,898.5C 536.476,874.518 547.143,856.518 567.5,844.5C 593.2,839.151 618.2,831.818 642.5,822.5 Z"/></g>
<g><path style="opacity:1" fill="#9dadc3" d="M 645.5,844.5 C 645.554,848.543 644.388,852.543 642,856.5C 638.535,860.967 634.702,865.133 630.5,869C 616.737,880.766 602.403,891.766 587.5,902C 575.931,908.968 563.431,913.134 550,914.5C 543.265,913.6 538.765,909.933 536.5,903.5C 550.768,904.079 564.435,901.246 577.5,895C 602.606,881.386 625.272,864.553 645.5,844.5 Z"/></g>
</svg>
