<svg viewBox="0 0 240 748" xmlns="http://www.w3.org/2000/svg" xml:space="preserve" style="fill-rule:evenodd;clip-rule:evenodd;stroke-linejoin:round;stroke-miterlimit:2">
  <path style="fill:#fefefe" d="M-.5-.5h240v748H-.5z"/>
  <path d="M65.797 675.863c3.081.476 6.283-.062 6.283 3.437 0 3.664.763 2.748-1.679 5.954-2.443 3.206-5.802 4.58-3.97 6.412 1.832 1.832 3.206 2.9 3.97.458.763-2.443 1.984-4.886 2.595-2.443.611 2.443 0 5.343.153 7.939.152 2.595 1.221 3.664.305 6.565-.916 2.9-1.832 5.343-3.359 3.969-1.526-1.374-4.427-3.511-3.816.458.61 3.969 2.748 2.901 2.9 5.801.12 2.272-.229 5.479-.385 6.764a55.173 55.173 0 0 1-1.455-1.596c-3.34-3.817-5.964-8.588-5.964-8.588s-.716-.954-.238-4.294c.477-3.339.715-11.45 3.339-20.037 1.688-5.523 1.599-7.494 1.321-10.799Z" style="fill:#7d652e"/>
  <path d="M177.438 241.145c-.112 2.619-.565 8.612-.846 11.896-.169 1.973-1.984 12.764-2.772 18.783-.761 5.809-.884 9.49-.884 12.088 0 .59-.236 5.493 1.345 8.646 1.149 2.292 2.966 5.093 3.742 7.423.955 4.532 1.193 3.101 1.432 11.211.118 4.02.763 10.794 1.501 17.504-1.768-.028-22.255 3.965-31.796 4.204-9.542.238-13.836 0-29.103-2.386-15.267-2.385-19.322-4.293-31.011-7.394-11.688-3.101-23.377-7.157-31.011-11.212 4.347-8.693 7.849-15.311 8.351-25.349.36-7.183 1.144-13.526-.159-19.848a28.61 28.61 0 0 0-1.901-5.927c-2.835-6.359-7.54-12.495-12.627-18.082 7.664-5.869 12.298-3.871 24.704-2.357 8.778 1.071 11.596.703 14.317.703 5.964 0 19.557 2.875 30.053 3.59 10.496.716 20.515-1.908 23.854-2.146 3.34-.239 20.038-3.579 26.24-3.579 1.378 0 2.461.106 3.313.271.137.201 2.023 1.242 1.989.658 1.068.581 1.139 1.218 1.139 1.218l.13.085Z" style="fill:#cd7a63"/>
  <path d="M180.956 328.696c.75 6.83 1.596 13.594 2.077 17.324.954 7.395 3.101 28.148 3.817 36.974.715 8.826 2.146 40.553 2.624 49.618.477 9.064.954 22.184.954 22.184s-14.551 4.055-22.662 5.248c-8.111 1.193-28.148 3.101-39.837 2.624-11.689-.477-15.505-1.67-29.818-3.339-14.313-1.67-26.001-4.533-33.158-5.487-7.156-.954-19.56-5.964-19.56-5.964s.954-24.093 2.147-35.543c1.192-11.45 2.862-36.974 2.385-42.699-.477-5.725 0-21.946 1.908-32.442 1.909-10.496 4.771-20.754 6.202-25.286 7.634 4.055 19.323 8.111 31.011 11.212 11.689 3.101 15.744 5.009 31.011 7.394 15.267 2.386 19.561 2.624 29.103 2.386 9.541-.239 30.028-4.232 31.796-4.204Z" style="fill:#a44633;stroke:#000;stroke-width:.95px"/>
  <path d="M137.384 144.017c-.11-.489-.654-1.945-3.273-2.651-3.175-.855-4.641-2.687-9.038-2.198-4.264.474-7.609.718-10.369 2.292a9.575 9.575 0 0 0-.257.151c-2.478 1.508-5.406 5.342-6.062 6.224-1.25-.336-2.747-.825-4.7-1.56-.29-.11-.585-.223-.885-.339-1.439-.557-2.945-1.2-4.689-1.725-11.653-3.503-23.955-6.08-35.782-8.826a107.694 107.694 0 0 0-12.692-2.142c-2.843-.31-6.719-.242-9.578-.175 0 0 8.436-4.526 8.069-8.434-.366-3.908-.488-3.176 1.344-6.351 1.832-3.176 6.595-10.137 8.183-14.412 1.587-4.275 4.152-9.404 2.809-17.71-1.344-8.305-1.588-14.167-2.321-19.297-.733-5.13-1.099-12.702-1.71-17.465-.61-4.763-2.198-11.603-1.587-13.435.61-1.832 1.954-5.007 1.954-5.007s.488 2.076 2.32.488c1.832-1.588 1.832-6.717 3.787-7.572 1.954-.855 2.198.122 4.274-.977 2.077-1.1 2.077-4.153 3.664-4.153 1.588 0 3.298 1.099 5.618.122 2.321-.977 5.619-6.229 7.573-5.496 1.954.733 3.175 3.908 5.129 3.053 1.955-.854 5.13-4.641 6.962-3.786 1.832.855 4.031 3.664 5.863 3.42 1.832-.244 3.542-1.832 4.885-1.343 1.344.488 1.696 2.982 7.328 4.519 1.344.366 10.748 36.884 10.748 36.884s3.053 7.573 3.542 14.779c.355 5.241-.733 8.183-.733 8.183s1.466 3.908 1.71 7.694.977 15.389.977 15.389l6.937 41.856Z" style="fill:#f7b740"/>
  <path d="m40.059 133.068 22.27 2.317c2.078 3.204 4.16 6.415 5.964 9.78 1.165 2.174 1.761 4.622 2.922 6.799 4.384 8.219 12.221 12.253 16.877 19.918.212.349 1.767 7.55 3.589 9.024 4.41 3.566 10.188 4.586 15.657 6.246a154.91 154.91 0 0 1 5.698 2.188c.276.139.549.283.819.433 8.464 4.708 17.108 9.149 25.166 14.522 6.633 4.421 14.673 10.073 20.982 16.011a164.792 164.792 0 0 1 3.206 3.213c.334.36.661.721.979 1.082 4.093 4.647 7.808 9.615 11.586 14.523.098.127.175.238.235.334a9.069 9.069 0 0 0-1.802-.306c-.035-.003-.042.009-.027.032-.852-.165-1.935-.271-3.313-.271-6.202 0-22.9 3.34-26.24 3.579-3.339.238-13.358 2.862-23.854 2.146-10.496-.715-24.089-3.59-30.053-3.59-2.721 0-5.539.368-14.317-.703-12.406-1.514-17.04-3.512-24.704 2.357-3.349-3.678-6.864-7.118-10.12-10.228-6.868-6.561-12.816-8.524-18.371-17.177-2.903-4.522-4.604-9.758-6.123-14.913-1.519-5.157-2.346-10.515-2.942-15.859-1.799-16.137-4.457-44.719 17.061-50.391 3.195-.842 5.551-1.066 8.855-1.066Z" style="fill:#a69e96"/>
  <path d="M207.603 192.636c-4.045-2.64-28.148-8.588-28.148-8.588s-12.405-5.009-17.891-6.202c-5.487-1.193-12.882-1.908-21.708-3.101-8.826-1.193-11.45-4.055-19.56-2.863-8.111 1.193-2.863 2.863-8.827 5.964-5.963 3.101-15.028 5.725-15.028 5.725 2.971.914 6.658 2.048 10.897 3.581-5.469-1.66-11.247-2.68-15.657-6.246-1.822-1.474-3.377-8.675-3.589-9.024-4.656-7.665-12.493-11.699-16.877-19.918-1.161-2.177-1.757-4.625-2.922-6.799-1.804-3.365-3.886-6.576-5.964-9.78 11.827 2.746 24.129 5.323 35.782 8.826 1.744.525 3.25 1.168 4.689 1.725.3.116.595.229.885.339l4.565 1.743.135-.183c2.599.701 4.129.744 6.464.98 4.524.457 4.863-.099 7.979-.538 4.442-.625 2.133-.575 6.52-1.525 2.751-.596 5.381-1.91 8.123-2.541 5.832-1.089 10.708 1.165 15.267 4.532 0-2.243 4.334 1.398 6.172 2.684 2.992 2.095 5.363 4.963 8.14 7.335 7.709 6.586 7.904 6.419 16.698 11.928 6.589 4.126 9.802 5.37 15.267 11.211 3.131 3.346 5.368 7.474 8.588 10.735Z" style="fill:#f7f3ea"/>
  <path d="M177.209 239.883c-4.617-6.101-9.308-11.529-14-16.364a68.822 68.822 0 0 0-3.206-3.213c-17.055-16.621-33.895-25.646-46.967-30.966-1.807-.911-3.733-1.591-5.698-2.188-4.239-1.533-7.926-2.667-10.897-3.581 0 0 9.065-2.624 15.028-5.725 5.964-3.101.716-4.771 8.827-5.964 8.11-1.192 10.734 1.67 19.56 2.863 8.826 1.193 16.221 1.908 21.708 3.101 5.486 1.193 17.891 6.202 17.891 6.202s24.103 5.948 28.148 8.588c3.478 3.522 6.016 5.156 8.118 6.676a49.74 49.74 0 0 1 7.025 9.061c1.242 2.879 1.647 6.055 2.509 9.071.85 2.971 2.732 7.479 3.247 11.648-.387 4.232-2.019 7.818-5.035 10.16-2.601 1.493-5.627 2.462-8.231 3.955-.965.554-1.851 1.279-2.757 1.954-8.491 2.974-18.609 3.428-28.288-.489-2.631-1.641-4.468-3.7-6.982-4.789Z" style="fill:#e8dfd5"/>
  <path d="M79.372 327.286c-2.16 7.291-5.57 106.179-4.676 122.326" style="fill:none;stroke:#000;stroke-width:1px;stroke-linecap:round;stroke-miterlimit:1.5"/>
  <path d="M70.112 86.65c-1.329-.547-2.948.011-4.274.565-5.077 2.122-5.27 4.797-2.809 8.839 2.494 4.098 5.767 10.25 11.007 11.176 1.087.192 2.485-.229 3.16-1.161.711-.979 1.222-3.419 1.222-3.419l24.382 43.286 5.45 2.082s3.388-4.697 6.197-6.407c.085-.052.171-.102.257-.151 2.76-1.574 6.105-1.818 10.369-2.292 4.397-.489 5.863 1.343 9.038 2.198 3.176.855 3.3 2.814 3.3 2.814l-6.964-42.019s-.733-11.603-.977-15.389c-.244-3.786-1.71-7.694-1.71-7.694s1.088-2.942.733-8.183c-.489-7.206-3.542-14.779-3.542-14.779s-9.404-36.518-10.748-36.884c-5.632-1.537-5.984-4.031-7.328-4.519-1.343-.489-3.053 1.099-4.885 1.343-1.832.244-4.031-2.565-5.863-3.42-1.832-.855-5.007 2.932-6.962 3.786-1.954.855-3.175-2.32-5.129-3.053-1.954-.733-5.252 4.519-7.573 5.496-2.32.977-4.03-.122-5.618-.122-1.587 0-1.587 3.053-3.664 4.153-2.076 1.099-2.32.122-4.274.977-1.955.855-1.955 5.984-3.787 7.572-1.832 1.588-2.32-.488-2.32-.488s-1.344 3.175-1.954 5.007c-.611 1.832.977 8.672 1.587 13.435.611 4.763.977 12.335 1.71 17.465.733 5.13.977 10.992 2.321 19.297 1.343 8.306-1.222 13.435-2.809 17.71-1.588 4.275-6.351 11.236-8.183 14.412-1.832 3.175-1.71 2.443-1.344 6.351.367 3.908-8.069 8.434-8.069 8.434l22.27 2.317c2.078 3.204 4.16 6.415 5.964 9.78 1.165 2.174 1.761 4.622 2.922 6.799 4.384 8.219 12.221 12.253 16.877 19.918.212.349 1.767 7.55 3.589 9.024 6.237 5.043 15.21 4.994 22.174 8.867 8.464 4.708 17.108 9.149 25.166 14.522 8.219 5.478 18.596 12.846 25.167 20.306 4.093 4.647 7.808 9.615 11.586 14.523 1.548 2.01-1.982-.001-1.567.028 4.605.325 6.696 3.716 10.734 5.964 6.29 3.499 17.472 3.651 24.302 1.808 2.27-.613 3.954-2.547 5.993-3.717 3.866-2.217 8.664-3.278 11.617-6.616 4.206-4.755-.165-14.136-1.598-19.147-.874-3.059-1.279-6.283-2.563-9.194-4.129-9.359-7.173-7.599-15.089-15.614-3.22-3.261-5.457-7.389-8.588-10.735-5.465-5.841-8.678-7.085-15.267-11.211-8.794-5.509-8.989-5.342-16.698-11.928-2.777-2.372-5.148-5.24-8.14-7.335-1.838-1.286-6.172-4.927-6.172-2.684-4.559-3.367-9.435-5.621-15.267-4.532-2.742.631-5.372 1.945-8.123 2.541-4.387.95-2.078.9-6.52 1.525-3.116.439-3.455.995-7.979.538-3.623-.366-5.307-.268-12.049-2.879-1.439-.557-2.945-1.2-4.689-1.725-11.653-3.503-23.955-6.08-35.782-8.826a107.694 107.694 0 0 0-12.692-2.142c-2.843-.31-6.719-.242-9.578-.175-3.304 0-5.66.224-8.855 1.066-21.518 5.672-18.86 34.254-17.061 50.391.596 5.344 1.423 10.702 2.942 15.859 1.519 5.155 3.22 10.391 6.123 14.913 5.555 8.653 11.503 10.616 18.371 17.177 8.201 7.832 18.046 17.765 22.747 28.31a28.61 28.61 0 0 1 1.901 5.927c1.303 6.322.519 12.665.159 19.848-.502 10.038-4.004 16.656-8.351 25.349-.076-3.685 22.176-34.95-6.679-68.939 7.872-6.195 12.457-4.161 25.047-2.624 8.778 1.071 11.596.703 14.317.703 5.964 0 19.557 2.875 30.053 3.59 10.496.716 20.515-1.908 23.854-2.146 3.34-.239 20.038-3.579 26.24-3.579 6.202 0 6.441 2.147 6.441 2.147 16.14 10.578 35.073 6.803 46.159-1.808 11.086-8.61 3.467-34.002-15.864-46.616-4.045-2.64-28.148-8.588-28.148-8.588s-12.405-5.009-17.891-6.202c-5.487-1.193-12.882-1.908-21.708-3.101-8.826-1.193-11.45-4.055-19.56-2.863-8.111 1.193-2.863 2.863-8.827 5.964-5.963 3.101-15.028 5.725-15.028 5.725 15.377 4.731 49.923 15.361 81.023 56.65 0 1.699-.549 9.048-.872 12.82-.169 1.973-1.984 12.764-2.772 18.783-.761 5.809-.884 9.49-.884 12.088 0 .59-.236 5.493 1.345 8.646 1.149 2.292 2.966 5.093 3.742 7.423.955 4.532 1.193 3.101 1.432 11.211.238 8.111 2.624 27.433 3.578 34.828.954 7.395 3.101 28.148 3.817 36.974.715 8.826 2.146 40.553 2.624 49.618.477 9.064.954 22.184.954 22.184s-14.551 4.055-22.662 5.248c-8.111 1.193-28.148 3.101-39.837 2.624-11.689-.477-15.505-1.67-29.818-3.339-14.313-1.67-26.001-4.533-33.158-5.487-7.156-.954-19.56-5.964-19.56-5.964s.954-24.093 2.147-35.543c1.192-11.45 2.862-36.974 2.385-42.699-.477-5.725 0-21.946 1.908-32.442 1.909-10.496 4.771-20.754 6.202-25.286 7.634 4.055 19.323 8.111 31.011 11.212 11.689 3.101 15.744 5.009 31.011 7.394 15.267 2.386 19.561 2.624 29.103 2.386 9.541-.239 30.028-4.232 31.796-4.204" style="fill:none;stroke:#000;stroke-width:1px;stroke-linecap:round;stroke-miterlimit:1.5"/>
  <path d="M65.441 320.416c-3.084 8.457-8.653 130.853-7.061 127.669m38.358-117.364-2.134 57.05-.538 65.657m24.236-117.554c-2.193 41.981-3.341 81.871-3.626 120.035m25.191-118.127c-1.122 40.624-1.042 80.048.381 118.127m18.511-117.745c3.471 38.234 3.607 77.729 2.624 116.6l8.063-.572m6.489-117.746c3.907 39.772 5.316 77.402 4.771 113.357M61.563 43.536c0-4.274-.489-15.877-.489-15.877m6.962 14.412c7.328-5.741 10.748-7.573 10.748-7.573M98.57 56.849c-.855-2.565-.977-11.481-4.519-24.06m-2.687 39.327c5.007-1.71 9.282-1.832 11.603-1.221 2.32.61 5.862 1.465 6.595 4.396m8.183 2.687c.366-1.832 1.71-4.03 4.275-5.74 2.565-1.71 3.664-.366 4.885-.488m-12.458 5.984c1.222 3.42 1.344 5.374 3.542 7.939 2.199 2.565 3.42 3.542 3.42 3.542m-.733 2.076s-1.832 0-5.007.122c-3.176.122-4.397.245-4.397.245M92.585 78.589c2.077-1.343 1.954-2.076 4.641-2.198 2.687-.122 2.687-1.832 5.13-.122 2.443 1.709 3.542 2.687 3.542 2.687m3.175 19.785c1.832-.977 5.741-1.343 8.672-1.221 2.931.122 2.687-.366 4.885.122" style="fill:none;stroke:#000;stroke-width:1px;stroke-linecap:round;stroke-miterlimit:1.5"/>
  <path d="M108.646 514.511c2.23-7.228 4.445-15.009 5.447-17.731.477-1.294 1.148-2.782 1.909-4.399-2.356 6.742-4.16 11.99-4.091 12.06.196.195 1.564 4.787 4.69 6.742 3.127 1.954 3.616 2.345 8.794 3.028 5.179.684 9.869 2.443 11.334.978 1.466-1.466-.097-2.443 2.15-4.397 2.247-1.954 4.885-3.322 8.598-3.811 3.565-.469 11.365-1.569 11.98-1.655-.628 2.396-.938 4.678-1.471 9.345-.955 8.349-3.578 10.734-5.01 18.129-1.431 7.395-4.294 4.771-3.339 17.891.954 13.12.477 16.698-2.147 26.24-2.624 9.542-.716 7.395-5.487 18.607-4.771 11.211-5.725 8.11-7.633 16.936-1.909 8.826-3.817 15.744-4.771 21.946-.954 6.202-3.34 12.166-3.34 19.084 0 6.918-1.192 9.542 0 17.891 1.193 8.349-1.056 7.587 3.954 13.55 5.009 5.964 4.97 6.066 10.218 9.406 5.248 3.339 3.527 3.89 9.252 6.753 5.725 2.862 4.765 3.067 9.734 6.39 4.935 3.3 4.9 3.444 8.877 6.373 4.11 3.028 5.837 5.268 2.992 8.037-2.667 2.596-1.048 2.351-4.963 3.578-5.13 1.607-5.468.243-9.053-.176-5.354-.626-9.746-2.362-14.551-3.101-4.015-.618-11.705-4.857-11.705-4.857l-8.248-2.967c-3.178-3.765-8.189-8.659-11.01-10.963-8.828-8.188-17.063-16.385-19.434-33.923 0 0 4.988-13.208 5.943-19.697.954-6.488.381-16.602.381-26.526 0-9.923.191-21.755-.954-28.434-.911-5.314-1.097-8.333-1.135-9.345.04-.225.08-.455.123-.69 2.147-11.927 3.816-14.074 3.101-22.185-.689-7.804-1.603-5.72-.765-13.802.76-.947 3.775-4.799 5.928-8.939 2.481-4.771 3.244-6.488 4.007-12.404.579-4.488.5-10.402.427-12.997 2.324-.212-.045-1.316-.045-1.316s.022.49.045 1.316a8.814 8.814 0 0 1-.732.035Z" style="fill:#53504d"/>
  <path d="M64.329 497.724c1.755 1.784 7.373 7.251 9.086 8.964 1.954 1.954 4.201.586 9.184 1.075 4.983.488 4.202-.88 5.081 2.345.879 3.224.977 1.954 4.104 4.69 3.126 2.736 3.908-.098 8.598-.489 4.569-.381 5.336.259 8.264.202-1.483 4.806-2.972 9.369-4.115 12.036-2.863 6.679-4.743 15.219-5.408 21.27l-.107.999-.179.221-2.29 36.068s0 .128.01.388c-1.978 11.225-.864 11.079-2.501 26.981-1.67 16.221-2.147 31.25-2.147 39.36 0 6.124-.136 11.84.413 17.661.179 1.888.429 3.788.78 5.716 1.431 7.872 4.532 11.928 7.872 16.937 3.339 5.01 6.44 8.111 9.78 10.496.289.206.626.467 1.002.774 3.695 3.428 7.494 6.854 11.01 10.963 1.233 1.46 1.107 1.29 2.027 2.826 1.96 3.27 4.919 6.682 6.726 7.43 0 0-.16 3.86-1.591 5.769-1.432 1.908-7.259 1.669-7.259 1.669-.15.754-4.131 3.146-5.474 3.488-1.274.324-5.689-1.346-5.244-2.045 0 0-3.328 1.323-6.906 1.8-3.578.477-5.741.007-11.228-1.186-5.486-1.193-8.11-4.294-8.11-4.294s-4.056 1.193-6.918-.238c-2.863-1.432-8.111-6.203-11.45-10.019-3.34-3.817-5.964-8.588-5.964-8.588s-.716-.954-.238-4.294c.477-3.339.715-11.45 3.339-20.037 2.624-8.588.954-8.588.954-18.368 0-9.781-3.816-17.891-5.725-29.103-1.908-11.211-4.294-26.478-6.202-37.213-1.908-10.734-4.055-20.276-3.817-31.011.239-10.734 1.432-15.266 5.01-29.341 3.578-14.074 4.055-8.826 6.441-16.221 2.385-7.394 3.816-11.688 3.339-24.808-.033-.914-.083-1.874-.147-2.873Z" style="fill:#252a2d"/>
  <path d="M178.023 458.136s-13.597 32.68-16.221 40.075c-1.157 3.262-1.85 5.224-2.345 7.115-.615.086-8.415 1.186-11.98 1.655-3.713.489-6.351 1.857-8.598 3.811-2.247 1.954-.684 2.931-2.15 4.397-1.465 1.465-6.155-.294-11.334-.978-5.178-.683-5.667-1.074-8.794-3.028-3.126-1.955-4.494-6.547-4.69-6.742-.069-.07 1.735-5.318 4.091-12.06 1.902-4.045 4.361-8.89 5.725-13.492 1.908-6.44 4.657-15.936 4.657-15.936 17.533.584 45.33-3.286 51.639-4.817Z" style="fill:#965742"/>
  <path d="M126.384 462.953s-6.102 17.179-10.382 29.428c-.761 1.617-1.432 3.105-1.909 4.399-1.002 2.722-3.217 10.503-5.447 17.731-2.928.057-3.695-.583-8.264-.202-4.69.391-5.472 3.225-8.598.489-3.127-2.736-3.225-1.466-4.104-4.69-.879-3.225-.098-1.857-5.081-2.345-4.983-.489-7.23.879-9.184-1.075-1.712-1.712-7.322-7.172-9.082-8.96-.491-7.958-1.816-18.335-2.896-27.765-.559-7.158-1.068-13.711-1.345-16.698l8.796.713 28.302 5.12s11.662 3.271 29.194 3.855Z" style="fill:#5e2928"/>
  <path d="M92.322 669.495s4.988-13.208 5.943-19.697c.954-6.488.381-16.602.381-26.526 0-9.923.191-21.755-.954-28.434-1.145-6.68-1.145-9.733-1.145-9.733l2.29-36.068s3.626-4.389 6.107-9.16c2.481-4.771 3.244-6.488 4.007-12.404.764-5.916.382-14.313.382-14.313s2.676 1.247-.45 1.345c-3.127.097-3.811-.587-8.501-.196-4.69.391-5.472 3.225-8.598.489-3.127-2.736-3.225-1.466-4.104-4.69-.879-3.225-.098-1.857-5.081-2.345-4.983-.489-7.23.879-9.184-1.075-1.955-1.954-8.99-8.794-9.576-9.478-.586-.684-4.4-55.886-3.923-43.959.477 11.927 4.083 34.226 4.56 47.346.477 13.12-.954 17.414-3.339 24.808-2.386 7.395-2.863 2.147-6.441 16.221-3.578 14.075-4.771 18.607-5.01 29.341-.238 10.735 1.909 20.277 3.817 31.011 1.908 10.735 4.294 26.002 6.202 37.213 1.909 11.212 5.725 19.322 5.725 29.103 0 9.78 1.67 9.78-.954 18.368-2.624 8.587-2.862 16.698-3.339 20.037-.478 3.34.238 4.294.238 4.294s2.624 4.771 5.964 8.588c3.339 3.816 8.587 8.587 11.45 10.019 2.862 1.431 6.918.238 6.918.238s2.624 3.101 8.11 4.294c5.487 1.193 7.65 1.663 11.228 1.186 3.578-.477 6.906-1.8 6.906-1.8-.445.699 3.97 2.369 5.244 2.045 1.343-.342 5.324-2.734 5.474-3.488 0 0 5.827.239 7.259-1.669 1.431-1.909 1.591-5.769 1.591-5.769-1.807-.748-4.766-4.16-6.726-7.43-.92-1.536-.794-1.366-2.027-2.826-3.602-4.267-9.558-9.984-12.012-11.737-3.34-2.385-6.441-5.486-9.78-10.496-3.34-5.009-6.441-9.065-7.872-16.937-1.432-7.872-1.193-15.266-1.193-23.377 0-8.11.477-23.139 2.147-39.36s.477-15.744 2.624-27.671c2.147-11.927 3.816-14.074 3.101-22.185-.716-8.11-1.675-5.541-.658-14.801.665-6.051 2.545-14.591 5.408-21.27 2.862-6.679 7.893-25.235 9.562-29.767 1.67-4.532 5.726-11.45 7.634-17.891 1.908-6.44 4.657-15.936 4.657-15.936s-14.668 41.292-14.473 41.488c.196.195 1.564 4.787 4.69 6.742 3.127 1.954 3.616 2.345 8.794 3.028 5.179.684 9.869 2.443 11.334.978 1.466-1.466-.097-2.443 2.15-4.397 2.247-1.954 4.885-3.322 8.598-3.811a1862.27 1862.27 0 0 0 12.018-1.661l18.528-47.184s-13.597 32.68-16.221 40.075c-2.624 7.395-2.862 8.111-3.816 16.46-.955 8.349-3.578 10.734-5.01 18.129-1.431 7.395-4.294 4.771-3.339 17.891.954 13.12.477 16.698-2.147 26.24-2.624 9.542-.716 7.395-5.487 18.607-4.771 11.211-5.725 8.11-7.633 16.936-1.909 8.826-3.817 15.744-4.771 21.946-.954 6.202-3.34 12.166-3.34 19.084 0 6.918-1.192 9.542 0 17.891 1.193 8.349-1.056 7.587 3.954 13.55 5.009 5.964 4.97 6.066 10.218 9.406 5.248 3.339 3.527 3.89 9.252 6.753 5.725 2.862 4.765 3.067 9.734 6.39 4.935 3.3 4.9 3.444 8.877 6.373 4.11 3.028 5.837 5.268 2.992 8.037-2.667 2.596-1.048 2.351-4.963 3.578-5.13 1.607-5.468.243-9.053-.176-5.354-.626-9.746-2.362-14.551-3.101-4.015-.618-11.705-4.857-11.705-4.857l-8.248-2.967c-11.915-13.924-27.081-20.007-30.444-44.886Z" style="fill:none;stroke:#000;stroke-width:1px;stroke-linecap:round;stroke-miterlimit:1.5"/>
  <path d="M178.023 458.136c-6.309 1.531-34.106 5.401-51.639 4.817-17.532-.584-29.194-3.855-29.194-3.855l-28.302-5.12-8.972-.727" style="fill:none;stroke:#000;stroke-width:.95px;stroke-linecap:round;stroke-miterlimit:1.5"/>
  <path d="M51.356 242.969c4.899-3.511 8.111-4.533 11.212-4.056 3.101.477 13.835 1.432 13.835 1.432s1.193 9.78 4.771 14.312c3.578 4.533 1.67 3.34 2.386 5.248.715 1.909-9.542-5.963-8.111-2.862 1.432 3.101 10.141 11.348 12.405 16.698 2.624 6.202 3.101 5.963-2.624 3.101-6.035-3.017-9.304-4.771-10.496-1.193-1.193 3.578 4.532 15.029 8.826 18.607 4.294 3.578 6.679 8.11 11.927 11.211 5.248 3.101 15.028 7.157 8.826 5.487s-12.643-3.578-21.23-7.157c-8.588-3.578-17.891-5.725-18.13-7.156-.238-1.431 1.432-10.734 1.432-16.937 0-6.202.954-9.78-1.193-15.982-2.147-6.202-4.486-10.111-6.441-12.881-1.725-2.445-1.415-1.393-3.062-2.887-.859-.779-5.209-4.357-4.333-4.985Z" style="fill:#4f3d36;stroke:#000;stroke-width:1px;stroke-linecap:round;stroke-miterlimit:1.5"/>
  <path d="M68.721 721.741s.611-4.427.458-7.328c-.152-2.9-2.29-1.832-2.9-5.801-.611-3.969 2.29-1.832 3.816-.458 1.527 1.374 2.443-1.069 3.359-3.969.916-2.901-.153-3.97-.305-6.565-.153-2.596.458-5.496-.153-7.939-.611-2.443-1.832 0-2.595 2.443-.764 2.442-2.138 1.374-3.97-.458-1.832-1.832 1.527-3.206 3.97-6.412 2.442-3.206 1.679-2.29 1.679-5.954 0-3.664-2.91-3.185-6.276-3.355" style="fill:none;stroke:#000;stroke-width:1px;stroke-linecap:round;stroke-miterlimit:1.5"/>
  <path d="M87.5 711.36c-2.29 1.069-4.275-.458-5.649 3.969-1.374 4.428-2.748 4.733-.458 5.344 2.29.61 1.527 1.679 3.664.61 2.137-1.068 1.679-1.374 4.122-1.526 2.443-.153 3.359-2.138 1.985-4.275-1.374-2.137-1.374-5.191-3.664-4.122Zm10.534 2.137c1.374 1.68 3.358 2.138 3.053 4.122-.305 1.985-1.069 4.122-2.595 3.512-1.527-.611-2.29.61-2.901-2.596-.611-3.206-.305-3.969-1.527-5.343-1.221-1.374-1.832-1.221-3.358-3.206-1.527-1.985-2.901-3.359-1.374-3.969 1.526-.611 4.427-.916 5.343.916.916 1.832 1.985 4.885 3.359 6.564Zm-11.908-10.992c.458 4.275.763 7.023-.916 5.802-1.68-1.222-2.29-4.275-4.122-4.886-1.833-.61-.764 2.901-2.901-.61-2.138-3.512-1.832-2.901.305-5.954 2.138-3.054 3.206-6.26 4.275-4.428 1.069 1.832 1.221 1.832.458 4.58-.763 2.748 1.374 3.664 1.374 3.664s1.069-2.442 1.527 1.832Zm46.563 15.572c1.985-.763 1.985-.61 3.817-2.748 1.832-2.137-.152-2.442 2.443-3.511s4.427-1.221 2.901-3.664c-1.527-2.443 0-2.443-3.97-2.443-3.969 0-6.87-3.664-7.175-.916-.306 2.748.305 3.664-1.374 5.191-1.68 1.527-4.122 5.191-4.122 5.191m15.877 4.732c1.527-.458 2.748-.916 5.038.153s3.817 1.527 6.565 1.221c2.748-.305 2.29.458 1.527-2.595-.764-3.053-1.069-3.511-.306-5.038.764-1.527 3.512-3.664-.763-3.969-4.275-.306-4.733-3.664-5.496.152-.763 3.817 1.679 5.954-1.069 5.344-2.748-.611-3.664-2.443-4.427-.611-.763 1.832-2.595 5.801-1.069 5.343Zm-22.595-17.404c1.222-1.374-.61-2.9 2.138-2.748 2.748.153 4.427-1.679 5.343.764.916 2.442 1.221 2.137 2.901 1.374 1.679-.764 3.511-1.222 3.358-3.817-.152-2.596 1.374-6.87-1.832-6.107-3.206.763-3.053 6.565-5.801 3.97-2.748-2.596-2.748-4.581-4.58-3.207-1.832 1.374-3.206 1.68-3.053 3.817.152 2.138.305 7.328 1.526 5.954Zm-9.923-10.076c1.374 0 2.901-.916 2.443-2.748-.458-1.832-2.138-3.053-2.138-3.053s-2.29-1.527-2.29 1.374c0 2.9.611 4.427 1.985 4.427Zm-2.29-11.755s.763-.153.763-4.275c0-4.122 2.138-7.023 1.374-9.924-.763-2.9-1.374-6.564-2.901-2.748-1.526 3.817-3.206 8.245-3.511 10.382-.305 2.137 1.527 5.649 1.527 5.649l2.748.916Zm.916 26.869c-.153 2.138-2.748 5.038-.764 5.649 1.985.611 3.207 3.969 4.886 1.221 1.679-2.748 3.817-6.106 2.29-7.328-1.527-1.221-4.427-2.442-4.427-2.442s-1.833.763-1.985 2.9Z" style="fill:#7d652e;stroke:#000;stroke-width:1px;stroke-linecap:round;stroke-miterlimit:1.5"/>
  <path d="M98.034 671.972c-.306 2.595 1.374 6.564 1.374 6.564l3.358 5.038s2.748 2.748.916 2.901c-1.832.153-3.969 2.595-5.19-.611-1.222-3.206-2.748-4.885-3.206-7.633-.458-2.748.458-5.343.458-5.343s2.595-3.512 2.29-.916Z" style="fill:#4f3d36;stroke:#000;stroke-width:1px;stroke-linecap:round;stroke-miterlimit:1.5"/>
</svg>
