<?xml version="1.0" encoding="UTF-8" standalone="no"?>
<!DOCTYPE svg PUBLIC "-//W3C//DTD SVG 1.1//EN" "http://www.w3.org/Graphics/SVG/1.1/DTD/svg11.dtd">
<svg width="100%" height="100%" viewBox="0 0 240 748" version="1.1" xmlns="http://www.w3.org/2000/svg" xmlns:xlink="http://www.w3.org/1999/xlink" xml:space="preserve" xmlns:serif="http://www.serif.com/" style="fill-rule:evenodd;clip-rule:evenodd;stroke-linecap:round;stroke-linejoin:round;stroke-miterlimit:1.5;">
    <g id="new_fill">
        <path d="M122.921,716.898L128.607,722.084L131.355,730.328L122.958,732.77L105.86,734.908L86.623,730.633L78.732,730.722L67.69,721.579L59.448,710.175L65.25,674.146L61.128,643.001L50.441,583.003L52.426,550.332L57.922,530.485L63.57,495.524L76.7,506.668L95.478,510.027L112.73,506.363L116.318,512.03L137.085,514.875L141.632,509.553L147.996,508.806L158.683,505.294L158.377,515.218L153.034,534.759L149.675,539.645L150.744,548.347L149.828,565.446L139.599,603.002L130.286,633.841L126.164,652.314L127.996,680.1L134.136,690.304L144.027,696.893L155.629,704.985L168.148,713.382L172.576,721.168L166.927,725.595L157.614,725.595L138.531,722.694L130.897,716.893L122.921,716.898L117.313,711.783L109.749,704.56L97.948,688.36L93.628,669.906L97.995,648.925L98.5,614.326L98.071,592.777L98.782,581.77L102.318,546.988L102.649,543.983L110.13,523.465L111.473,506.755L106.98,509.344L105.085,523.486L102.639,543.831L102.318,546.988L99.195,575.367L98.782,581.77L98.448,585.059L95.009,599.934L91.623,641.363L93.047,670.021L97.938,688.479L109.524,704.679L117.313,711.783L122.668,716.898L122.921,716.898Z" style="fill:rgb(46,48,49);"/>
        <path d="M122.24,480.745L120.56,495.706L123.919,498.76L128.652,513.721L116.133,511.889L112.927,506.851L107.584,507.156L122.24,480.745Z" style="fill:rgb(139,51,44);"/>
        <path d="M59.188,452.501L73.233,455.86L78.729,500.134L76.897,507.004L63.615,495.554L59.188,452.501Z" style="fill:rgb(139,51,44);"/>
        <path d="M170.103,461.109L177.658,459.676L158.422,505.477L148.499,508.836L141.476,509.446L137.201,514.637L128.652,513.568L124.377,499.218L123.943,498.836L123.919,498.76L120.574,495.719L120.7,494.459L122.24,480.745L122.035,481.114L122.087,480.592L114.728,494.281L107.63,507.073L95.37,510.362L76.967,506.742L77.498,504.749L79.295,500.104L74.394,465.212L73.237,455.889L107.199,462.242L117.925,464.374L159.67,463.419L170.103,461.109Z" style="fill:rgb(202,125,95);"/>
        <path d="M180.424,326.972L190.681,450.3L193.067,456.025L159.67,463.419L117.925,464.374L44.692,449.822L48.747,352.496L56.858,311.467L59.243,310.035L63.298,294.053L63.298,265.905L47.402,243.109L60.684,237.766L124.041,243.109L172.59,238.529L177.933,241.888L173.659,276.544L174.575,289.978L179.002,302.039L180.376,313.031L180.424,326.972Z" style="fill:rgb(202,125,95);"/>
        <path d="M63.386,294.715L63.355,265.909L47.703,243.189L60.725,238.088L117.632,242.871L116.732,247.06L111.246,262.803L100.75,261.134L95.263,277.116L104.805,290.236L103.928,311.88L97.682,309.566L92.982,323.737L83.959,320.213L80.275,326.483L74.365,447.805L79.706,456.734L44.672,449.891L48.733,352.437L56.795,311.406L59.42,310.456L63.386,294.715Z" style="fill:rgb(139,51,44);"/>
        <path d="M180.712,240.16L172.84,238.251L125.131,243.261L85.772,239.205L60.486,237.774L47.604,242.784L33.292,228.232L15.162,196.506L10.869,156.908L19.933,137.585L48.081,128.759L73.606,139.017L90.781,141.402L105.094,147.127L124.654,147.843L137.536,142.118L153.518,147.366L167.592,159.054L193.594,177.184L205.521,189.35L219.834,201.992L226.99,221.076L228.66,233.957L211.485,247.554L189.061,248.509L180.712,240.16Z" style="fill:rgb(154,164,175);"/>
        <path d="M56.908,31.672L64.541,22.845L67.642,22.368L71.22,18.075L76.707,18.313L82.67,12.588L87.441,16.405L96.267,12.588L101.754,16.405L106.763,13.781L114.397,19.744L128.232,70.554L128.471,80.335L129.902,92.978L136.104,136.87L137.536,142.356L124.416,148.081L105.332,148.558L92.451,142.118L74.083,139.732L61.44,134.007L47.604,129.236L46.889,120.41L54.999,108.722L60.724,95.363L59.293,78.903L57.146,60.058L54.522,36.204L56.908,31.672Z" style="fill:rgb(255,179,0);"/>
        <path d="M138.764,693.317L147.101,699.049L146.58,702.176L142.021,702.176L134.074,698.137L138.764,693.317Z" style="fill:rgb(210,166,101);stroke:black;stroke-width:0.98px;"/>
        <path d="M124.303,699.831L118.701,701.655L115.965,694.359L121.176,691.884L125.866,694.359L127.299,692.014L130.556,693.838L130.296,698.528L129.775,705.172L125.866,704.781L124.303,699.831Z" style="fill:rgb(210,166,101);"/>
        <path d="M65.157,673.906L71.28,680.289L65.678,689.669L66.981,693.838L73.886,688.757L74.277,700.743L72.713,706.214L68.023,705.954L70.108,715.594L69.066,723.281L59.686,709.862L65.157,673.906Z" style="fill:rgb(210,166,101);"/>
        <path d="M107.628,687.455L101.374,683.416L101.765,677.554L105.673,664.656L108.539,670.388L115.184,674.687L114.532,684.849L107.628,687.455Z" style="fill:rgb(210,166,101);"/>
        <path d="M96.815,684.198L97.336,687.324L101.635,693.187L96.554,695.923L90.04,696.704L87.825,687.845L90.952,683.155L96.815,684.198Z" style="fill:rgb(210,166,101);"/>
        <path d="M86.523,696.313L90.822,700.352L96.554,703.609L93.558,709.341L86.132,711.947L81.963,709.081L79.618,703.218L80.921,699.18L86.523,696.313Z" style="fill:rgb(210,166,101);"/>
        <path d="M83.526,716.246L89.389,724.062L83.396,725.365L76.752,724.844L73.886,717.549L79.879,714.161L83.526,716.246Z" style="fill:rgb(210,166,101);"/>
        <path d="M103.198,716.246L106.325,723.151L110.624,726.407L111.666,733.963L104.631,733.573L103.459,730.707L97.987,730.055L97.336,727.319L93.427,723.802L92.515,716.246L103.198,716.246Z" style="fill:rgb(210,166,101);"/>
        <path d="M170.03,723.281L167.034,725.495L163.126,726.407L158.045,724.974L154.658,718.461L158.305,715.594L168.727,720.284L170.03,723.281Z" style="fill:rgb(210,166,101);"/>
        <path d="M132.901,718.721L130.947,717.027L123.652,716.897L111.796,706.214L114.532,701.394L118.18,705.172L123.782,705.563L124.042,711.686L129.384,711.686L131.077,706.736L135.116,706.736L140.848,707.257L143.714,711.686L136.288,714.422L132.901,718.721Z" style="fill:rgb(210,166,101);"/>
    </g>
    <g id="outline">
        <g id="clay">
            <path d="M86.523,696.313L80.921,699.18L79.618,703.218L81.963,709.081L86.132,711.947L93.558,709.341L96.554,703.609L90.822,700.352L86.523,696.313Z" style="fill:none;stroke:black;stroke-width:0.98px;"/>
            <path d="M103.198,716.246L92.515,716.246L93.427,723.802L97.336,727.319L97.987,730.055L103.459,730.707L104.631,733.573L111.666,733.963L110.624,726.407L106.325,723.151L103.198,716.246Z" style="fill:none;stroke:black;stroke-width:0.98px;"/>
            <path d="M83.526,716.246L79.879,714.161L73.886,717.549L76.752,724.844L83.396,725.365L89.389,724.062L83.526,716.246Z" style="fill:none;stroke:black;stroke-width:0.98px;"/>
            <path d="M107.628,687.455L101.374,683.416L101.765,677.554L105.673,664.656L108.539,670.388L115.184,674.687L114.532,684.849L107.628,687.455Z" style="fill:none;stroke:black;stroke-width:0.98px;"/>
            <path d="M96.815,684.198L90.952,683.155L87.825,687.845L90.04,696.704L96.554,695.923L101.635,693.187L97.336,687.324L96.815,684.198Z" style="fill:none;stroke:black;stroke-width:0.98px;"/>
            <path d="M170.03,723.281L168.727,720.284L158.305,715.594L154.658,718.461L158.045,724.974L163.126,726.407L167.034,725.495L170.03,723.281Z" style="fill:none;stroke:black;stroke-width:0.98px;"/>
            <path d="M132.901,718.721L130.947,717.027L123.652,716.897L111.796,706.214L114.532,701.394L118.18,705.172L123.782,705.563L124.042,711.686L129.384,711.686L131.077,706.736L135.116,706.736L140.848,707.257L143.714,711.686L136.288,714.422L132.901,718.721Z" style="fill:none;stroke:black;stroke-width:0.98px;"/>
            <path d="M124.303,699.831L125.866,704.781L129.775,705.172L130.296,698.528L130.556,693.838L127.299,692.014L125.866,694.359L121.176,691.884L115.965,694.359L118.701,701.655L124.303,699.831Z" style="fill:none;stroke:black;stroke-width:0.98px;"/>
            <path d="M65.157,673.906L71.28,680.289L65.678,689.669L66.981,693.838L73.886,688.757L74.277,700.743L72.713,706.214L68.023,705.954L70.108,715.594L69.066,723.281L59.686,709.862L65.157,673.906Z" style="fill:none;stroke:black;stroke-width:0.98px;"/>
        </g>
        <g id="iron">
            <path d="M76.7,506.668L95.478,510.027L112.73,506.363L116.318,512.03L137.085,514.875L141.632,509.553L147.996,508.806L158.683,505.294L158.377,515.218L153.034,534.759L149.675,539.645L150.744,548.347L149.828,565.446L139.599,603.002L130.286,633.841L126.164,652.314L127.996,680.1L134.136,690.304L144.027,696.893L155.629,704.985L168.148,713.382L172.576,721.168L166.927,725.595L157.614,725.595L138.531,722.694L130.897,716.893L122.668,716.898L109.749,704.56L97.948,688.36L93.628,669.906L97.995,648.925L98.5,614.326L98.071,592.777L99.195,575.367L102.649,543.983L110.13,523.465L111.473,506.755L106.98,509.344L105.085,523.486L102.639,543.831L98.448,585.059L95.009,599.934L91.623,641.363L93.047,670.021L97.938,688.479L109.524,704.679L128.607,722.084L131.355,730.328L122.958,732.77L105.86,734.908L86.623,730.633L78.732,730.722L67.69,721.579L59.448,710.175L65.25,674.146L61.128,643.001L50.441,583.003L52.426,550.332L57.922,530.485L63.57,495.524L76.7,506.668Z" style="fill:none;stroke:black;stroke-width:0.98px;"/>
        </g>
        <g id="bronze">
            <path d="M58.289,310.751L95.502,324.587C95.502,324.587 118.641,332.22 135.577,333.174C152.514,334.128 176.607,330.073 180.662,328.403" style="fill:none;stroke:black;stroke-width:1px;"/>
            <path d="M63.06,295.007C69.023,297.392 92.162,309.32 109.576,313.375C126.99,317.43 141.541,320.054 153.468,318.861C165.395,317.669 180.185,311.944 180.185,311.944" style="fill:none;stroke:black;stroke-width:1px;"/>
            <path d="M66.399,321.963L59.482,444.813" style="fill:none;stroke:black;stroke-width:1px;"/>
            <path d="M79.996,326.256L74.033,447.676" style="fill:none;stroke:black;stroke-width:1px;"/>
            <path d="M99.557,331.743L97.649,448.63" style="fill:none;stroke:black;stroke-width:1px;"/>
            <path d="M120.072,336.514L119.356,452.446" style="fill:none;stroke:black;stroke-width:1px;"/>
            <path d="M140.587,337.468L142.018,449.584" style="fill:none;stroke:black;stroke-width:1px;"/>
            <path d="M158.478,337.945L163.964,452.685" style="fill:none;stroke:black;stroke-width:1px;"/>
            <path d="M174.699,336.991L182.332,447.676" style="fill:none;stroke:black;stroke-width:0.98px;"/>
            <path d="M47.402,243.109L60.684,237.766L124.041,243.109L172.59,238.529L177.933,241.888L173.659,276.544L174.575,289.978L179.002,302.039L180.376,313.031L180.424,326.972L190.681,450.3L193.067,456.025L159.67,463.419L117.925,464.374L44.692,449.822L48.747,352.496L56.858,311.467L59.243,310.035L63.201,294.175L63.298,265.905L47.402,243.109Z" style="fill:none;stroke:black;stroke-width:1px;"/>
            <path d="M122.24,480.745L107.584,507.156L112.927,506.851L116.133,511.889L128.652,513.721L123.919,498.76L120.56,495.706L122.24,480.745Z" style="fill:none;stroke:black;stroke-width:0.98px;"/>
            <path d="M79.295,500.104L73.081,455.86L117.965,464.257L159.949,463.035L177.658,459.676L158.422,505.477L148.499,508.836L141.476,509.446L137.201,514.637L128.652,513.568L124.377,499.218L120.56,495.859L122.087,480.592L107.889,507.004L95.37,510.362L76.745,506.698L79.295,500.104Z" style="fill:none;stroke:black;stroke-width:0.98px;"/>
            <path d="M59.188,452.501L63.615,495.554L76.897,507.004L78.729,500.134L73.233,455.86L59.188,452.501Z" style="fill:none;stroke:black;stroke-width:0.98px;"/>
        </g>
        <g id="silver">
            <path d="M137.536,142.118L153.518,147.366L167.592,159.054L193.594,177.184L205.521,189.35L219.834,201.992L226.99,221.076L228.66,233.957L211.485,247.554L189.061,248.509L180.712,240.16L172.84,238.251L125.131,243.261L85.772,239.205L60.486,237.774L47.604,242.784L33.292,228.232L15.162,196.506L10.869,156.908L19.933,137.585L48.081,128.759L73.606,139.017L90.781,141.402L105.094,147.127L124.654,147.843L137.536,142.118Z" style="fill:none;stroke:black;stroke-width:1px;"/>
            <path d="M127.517,196.029C123.224,192.809 120.466,188.209 119.406,182.909C119.215,181.951 117.461,177.937 118.452,176.945C120.726,174.672 121.532,173.606 125.37,173.606" style="fill:none;stroke:black;stroke-width:1px;"/>
            <path d="M178.804,239.921C178.804,236.363 173.98,234.355 172.125,231.572C171.169,230.139 169.206,228.892 167.831,227.517C163.766,223.451 160.367,220.553 156.142,217.736C151.042,214.336 148.033,209.565 143.261,206.525C140.598,204.828 137.902,202.176 135.15,200.8C134.669,200.559 132.526,199.379 132.526,198.891" style="fill:none;stroke:black;stroke-width:1px;"/>
            <path d="M144.454,176.23C147.993,176.23 153.473,175.578 156.858,176.707C162.078,178.447 166.902,179.718 172.125,180.762C174.688,181.275 177.039,182.734 179.52,183.147C182.71,183.679 185.571,184.88 188.584,186.01C190.521,186.736 192.873,186.959 194.309,188.395" style="fill:none;stroke:black;stroke-width:1px;"/>
            <path d="M70.505,148.797C70.505,151.442 73.534,153.105 75.037,155.476C76.175,157.272 78.066,159.388 78.854,160.963C80.278,163.812 82.111,167.082 84.34,169.312C84.777,169.749 85.298,171.298 85.616,171.936C86.506,173.715 88.194,175.589 89.111,177.422C89.407,178.014 89.226,178.968 89.588,179.331C89.997,179.739 90.033,181.955 90.781,181.955" style="fill:none;stroke:black;stroke-width:1px;"/>
            <path d="M44.503,177.899C45.222,182.93 48.744,185.095 51.421,189.111C53.526,192.269 56.589,195.159 59.055,197.937C59.998,199.001 61.096,201.057 62.394,201.754C64.115,202.678 65.877,203.706 67.642,204.855C70.236,206.544 72.208,208.45 75.037,209.864C76.329,210.51 78.143,212.011 79.569,212.011" style="fill:none;stroke:black;stroke-width:1px;"/>
            <path d="M103.185,226.563C108.314,226.563 113.256,228.195 118.214,229.187C119.899,229.524 121.742,229.081 123.462,229.425C126.347,230.002 129.083,230.856 132.049,230.856C135.774,230.856 138.573,230.977 142.068,232.288C143.091,232.671 144.359,232.98 145.408,233.242C145.611,233.293 146.871,233.48 146.362,233.48" style="fill:none;stroke:black;stroke-width:1px;"/>
            <path d="M25.42,181.955C25.42,185.338 28.189,188.463 29.714,191.258C33.453,198.114 36.91,205.611 42.595,211.296C43.707,212.408 45.196,213.109 46.412,213.92C48.374,215.228 49.647,217.349 51.66,218.691C52.253,219.086 54.522,219.923 54.522,220.36" style="fill:none;stroke:black;stroke-width:1px;"/>
        </g>
        <g id="gold">
            <path d="M56.908,31.672L54.522,36.204L57.146,60.058L59.293,78.903L60.724,95.363L54.999,108.722L46.889,120.41L47.604,129.236L61.44,134.007L74.083,139.732L92.451,142.118L105.332,148.558L124.416,148.081L137.536,142.356L136.104,136.87L129.902,92.978L128.471,80.335L128.232,70.554L114.397,19.744L106.763,13.781L101.754,16.405L96.267,12.588L87.441,16.405L82.67,12.588L76.707,18.313L71.22,18.075L67.642,22.368L64.541,22.845L56.908,31.672Z" style="fill:none;stroke:black;stroke-width:1px;"/>
            <path d="M90.542,72.224L105.094,70.316L109.865,76.279" style="fill:none;stroke:black;stroke-width:1px;"/>
            <path d="M118.214,76.757C119.161,74.861 121.328,74.358 122.507,73.178C122.954,72.731 126.324,72.944 126.324,72.463" style="fill:none;stroke:black;stroke-width:1px;"/>
            <path d="M116.305,81.05C116.305,82.832 118.25,85.178 118.929,86.537C119.168,87.014 119.645,87.731 119.645,88.207C119.645,88.458 120.135,88.922 119.883,88.922C118.655,88.922 117.756,88.684 116.544,88.684" style="fill:none;stroke:black;stroke-width:1px;"/>
            <path d="M108.91,98.226C110.536,98.226 113.918,98.227 114.874,97.271C115.091,97.054 116.679,97.271 117.021,97.271L123.462,97.271" style="fill:none;stroke:black;stroke-width:1px;"/>
            <path d="M64.78,81.05L81.001,64.591L101.754,57.911L122.984,60.535" style="fill:none;stroke:black;stroke-width:1px;"/>
            <path d="M70.266,87.968C68.916,87.293 67.626,87.014 65.972,87.014C65.746,87.014 64.685,86.87 64.541,87.014C62.911,88.644 62.255,94.4 63.587,97.271C64.007,98.177 64.926,98.519 65.257,99.18C67.786,104.239 71.701,107.052 78.138,107.052" style="fill:none;stroke:black;stroke-width:1px;"/>
            <path d="M78.854,97.987L103.901,146.889L118.929,139.732L129.187,137.824L135.866,141.402" style="fill:none;stroke:black;stroke-width:1px;"/>
        </g>
    </g>
</svg>
