<?xml version="1.0" encoding="UTF-8" standalone="no"?>
<!-- Uploaded to: SVG Repo, www.svgrepo.com, Generator: SVG Repo Mixer Tools -->

<svg
   height="800px"
   width="800px"
   version="1.1"
   id="_x32_"
   viewBox="0 0 512 512"
   xml:space="preserve"
   sodipodi:docname="dna.svg"
   inkscape:version="1.3.2 (091e20e, 2023-11-25)"
   xmlns:inkscape="http://www.inkscape.org/namespaces/inkscape"
   xmlns:sodipodi="http://sodipodi.sourceforge.net/DTD/sodipodi-0.dtd"
   xmlns="http://www.w3.org/2000/svg"
   xmlns:svg="http://www.w3.org/2000/svg"><defs
   id="defs4" /><sodipodi:namedview
   id="namedview4"
   pagecolor="#ffffff"
   bordercolor="#000000"
   borderopacity="0.25"
   inkscape:showpageshadow="2"
   inkscape:pageopacity="0.0"
   inkscape:pagecheckerboard="0"
   inkscape:deskcolor="#d1d1d1"
   inkscape:zoom="0.6924252"
   inkscape:cx="392.82221"
   inkscape:cy="391.37801"
   inkscape:window-width="1328"
   inkscape:window-height="847"
   inkscape:window-x="0"
   inkscape:window-y="25"
   inkscape:window-maximized="0"
   inkscape:current-layer="_x32_" />
<style
   type="text/css"
   id="style1">
	.st0{fill:#000000;}
</style>

<rect
   style="fill:#ffffff;fill-opacity:1;stroke-width:0.64"
   id="rect5"
   width="217.53606"
   height="552.4425"
   x="254.6169"
   y="-276.87482"
   ry="0"
   transform="rotate(45)" /><g
   id="g4"
   style="fill:#239000;fill-opacity:1">
	<path
   class="st0"
   d="M351.815,128.59c-1.797-18.117-1.44-34.865,2.855-50.696c2.162-7.924,5.319-15.645,9.774-23.276   c4.473-7.649,10.264-15.209,17.77-22.715l12.327-12.328L374.975,0l-12.336,12.319c-11.554,11.553-20.056,23.72-25.98,36.34   c-8.929,18.962-11.989,38.893-11.767,58.842c0.187,19.967,3.504,40.041,7.321,60.204c2.49,13.136,4.642,25.775,5.843,37.844   c1.805,18.117,1.441,34.874-2.864,50.696c-2.152,7.916-5.31,15.644-9.774,23.284c-4.474,7.64-10.264,15.191-17.77,22.698v0.009   h0.009l-5.417,5.416c-1.449,1.441-2.882,2.82-4.349,4.145l-88.637-88.637c-4.376,4.82-8.068,9.748-11.216,14.915l85.134,85.124   c-3.762,2.402-7.534,4.482-11.331,6.261c-4.207,1.984-8.449,3.611-12.772,4.91l-71.365-71.365   c-1.708,7.16-2.624,14.835-2.793,23.355l52.207,52.199c-4.535,0.4-9.16,0.542-13.883,0.516   c-10.575-0.106-21.603-1.228-33.112-2.979c0.48,2.632,0.943,5.158,1.414,7.622c1.147,5.967,2.285,12.238,3.335,18.722   c3.94,0.552,7.862,1.014,11.784,1.405c20.003,1.984,40.041,1.743,59.572-3.558c9.766-2.641,19.345-6.564,28.639-12.007   c9.285-5.434,18.303-12.398,26.949-21.043l5.407-5.425c11.554-11.536,20.047-23.711,25.997-36.34   c8.921-18.963,11.971-38.876,11.767-58.834c-0.205-19.967-3.514-40.05-7.32-60.204C355.159,153.288,353.015,140.659,351.815,128.59   z"
   id="path1"
   style="fill:#239000;fill-opacity:1" />
	<path
   class="st0"
   d="M492.42,117.463l-12.319,12.318c-1.458,1.45-2.89,2.829-4.349,4.145L387.106,45.28   c-4.367,4.83-8.058,9.766-11.207,14.915l85.124,85.134c-3.762,2.41-7.516,4.482-11.322,6.261c-4.207,1.983-8.458,3.61-12.771,4.909   l-71.365-71.356c-1.708,7.15-2.624,14.826-2.784,23.346l52.198,52.199c-4.536,0.409-9.16,0.543-13.884,0.516   c-10.574-0.098-21.603-1.227-33.112-2.988c0.48,2.633,0.933,5.177,1.422,7.64c1.13,5.967,2.269,12.228,3.327,18.713   c3.94,0.551,7.853,1.014,11.775,1.406c20.012,1.982,40.059,1.751,59.573-3.558c9.765-2.641,19.353-6.555,28.647-12.006   c9.276-5.425,18.295-12.399,26.957-21.053l12.31-12.327L492.42,117.463z"
   id="path2"
   style="fill:#239000;fill-opacity:1" />
	<path
   class="st0"
   d="M136.1,451.805L50.984,366.69c3.745-2.428,7.516-4.509,11.313-6.279c4.216-1.984,8.458-3.62,12.772-4.91   l71.365,71.366c1.708-7.151,2.624-14.836,2.784-23.356L97.038,351.33c4.536-0.4,9.152-0.569,13.874-0.534   c10.566,0.098,21.604,1.245,33.086,2.998c-0.462-2.641-0.924-5.194-1.396-7.649c-1.138-5.959-2.268-12.238-3.326-18.722   c-3.932-0.516-7.844-0.987-11.767-1.379c-20.021-2.01-40.076-1.779-59.599,3.531c-9.729,2.669-19.344,6.582-28.638,12.016   c-9.276,5.425-18.295,12.389-26.949,21.052L0.005,374.961l19.576,19.585l12.318-12.327c1.45-1.45,2.9-2.828,4.359-4.145   l88.646,88.638C129.261,461.892,132.969,456.956,136.1,451.805z"
   id="path3"
   style="fill:#239000;fill-opacity:1" />
	<path
   class="st0"
   d="M173.953,306.46c-1.788-18.116-1.441-34.873,2.855-50.686c2.161-7.942,5.31-15.653,9.783-23.293   c4.464-7.64,10.263-15.208,17.77-22.715l5.416-5.408l-0.009-0.017c1.441-1.45,2.891-2.82,4.358-4.128l88.629,88.629   c4.367-4.821,8.076-9.766,11.198-14.906l-85.116-85.115c3.753-2.428,7.533-4.51,11.322-6.28c4.216-1.974,8.458-3.62,12.772-4.91   l71.365,71.357c1.717-7.151,2.624-14.818,2.784-23.338l-52.181-52.19c4.527-0.4,9.152-0.569,13.874-0.524   c10.558,0.098,21.604,1.245,33.086,2.98c-0.462-2.633-0.924-5.177-1.396-7.64c-1.138-5.968-2.277-12.23-3.326-18.713   c-3.923-0.534-7.844-1.004-11.767-1.396c-20.029-1.993-40.076-1.761-59.599,3.548c-9.73,2.659-19.344,6.573-28.638,12.007   c-9.276,5.434-18.295,12.389-26.949,21.052l0.009,0.009l-5.416,5.416c-11.544,11.544-20.047,23.711-25.98,36.341   c-8.929,18.962-11.989,38.884-11.767,58.824c0.188,19.976,3.504,40.059,7.311,60.213c2.499,13.137,4.651,25.774,5.852,37.835   c1.796,18.135,1.441,34.873-2.864,50.704c-2.152,7.916-5.31,15.644-9.766,23.285c-4.474,7.64-10.282,15.182-17.779,22.698   l-12.318,12.327L137.034,512l12.336-12.318c11.544-11.544,20.047-23.72,25.988-36.341c8.921-18.962,11.98-38.875,11.767-58.833   c-0.205-19.976-3.522-40.041-7.329-60.195C177.297,331.167,175.153,318.538,173.953,306.46z"
   id="path4"
   style="fill:#239000;fill-opacity:1" />
</g></svg>
