<?xml version="1.0" encoding="UTF-8" standalone="no"?>
<!DOCTYPE svg PUBLIC "-//W3C//DTD SVG 1.1//EN" "http://www.w3.org/Graphics/SVG/1.1/DTD/svg11.dtd">
<svg width="100%" height="100%" viewBox="0 0 500 750" version="1.1" xmlns="http://www.w3.org/2000/svg" xmlns:xlink="http://www.w3.org/1999/xlink" xml:space="preserve" xmlns:serif="http://www.serif.com/" style="fill-rule:evenodd;clip-rule:evenodd;stroke-linecap:round;stroke-linejoin:round;">
    <g id="Layer_1" transform="matrix(0.895296,0.445472,-0.445472,0.895296,53.6981,-335.79)">
        <g id="path4294" transform="matrix(1,0,0,1,-17.5713,2.25633)">
            <path d="M683.775,764.358C697.167,790.311 686.988,822.201 661.035,835.593C635.085,848.985 603.192,838.809 589.8,812.856C576.408,786.906 586.587,755.013 612.537,741.621C638.49,728.226 670.383,738.408 683.775,764.358" style="fill:rgb(142,143,142);fill-rule:nonzero;"/>
        </g>
        <g id="path4296" transform="matrix(1,0,0,1,-17.5713,2.25633)">
            <path d="M683.775,764.358C697.167,790.311 686.988,822.201 661.035,835.593C635.085,848.985 603.192,838.809 589.8,812.856C576.408,786.906 586.587,755.013 612.537,741.621C638.49,728.226 670.383,738.408 683.775,764.358Z" style="fill-opacity:0;fill-rule:nonzero;stroke:rgb(26,25,25);stroke-width:30px;"/>
        </g>
        <g id="path4298" transform="matrix(1,0,0,1,-17.5713,2.25633)">
            <path d="M528.162,742.206C502.455,692.391 474.096,661.149 422.076,643.716C361.779,623.517 302.325,594.333 271.008,533.649C218.055,431.043 258.681,304.749 361.749,251.559C464.814,198.372 591.288,238.431 644.238,341.04C675.819,402.234 665.67,468.414 645.726,529.374C628.719,581.352 638.826,623.085 664.533,672.906" style="fill:rgb(249,224,35);fill-rule:nonzero;"/>
        </g>
        <g id="path4300" transform="matrix(1,0,0,1,-17.5713,2.25633)">
            <path d="M528.162,742.206C502.455,692.391 474.096,661.149 422.076,643.716C361.779,623.517 302.325,594.333 271.008,533.649C218.055,431.043 258.681,304.749 361.749,251.559C464.814,198.372 591.288,238.431 644.238,341.04C675.819,402.234 665.67,468.414 645.726,529.374C628.719,581.352 638.826,623.085 664.533,672.906" style="fill-opacity:0;fill-rule:nonzero;stroke:rgb(26,25,25);stroke-width:30px;stroke-linecap:butt;stroke-linejoin:miter;"/>
        </g>
        <g id="path4302" transform="matrix(1,0,0,1,-17.5713,2.25633)">
            <path d="M677.397,662.607C681.192,669.951 676.869,679.725 667.746,684.435L533.724,753.597C524.598,758.31 514.128,756.168 510.336,748.821L505.494,739.437C501.702,732.09 506.025,722.316 515.148,717.609L649.173,648.444C658.296,643.737 668.763,645.876 672.558,653.223L677.397,662.607" style="fill:rgb(255,255,254);fill-rule:nonzero;"/>
        </g>
        <g id="path4304" transform="matrix(1,0,0,1,-17.5713,2.25633)">
            <path d="M677.397,662.607C681.192,669.951 676.869,679.725 667.746,684.435L533.724,753.597C524.598,758.31 514.128,756.168 510.336,748.821L505.494,739.437C501.702,732.09 506.025,722.316 515.148,717.609L649.173,648.444C658.296,643.737 668.763,645.876 672.558,653.223L677.397,662.607Z" style="fill-opacity:0;fill-rule:nonzero;stroke:rgb(26,25,25);stroke-width:23.54px;"/>
        </g>
        <g id="path4306" transform="matrix(1,0,0,1,-17.5713,2.25633)">
            <path d="M695.973,698.595C699.762,705.942 695.442,715.716 686.319,720.426L552.294,789.588C543.171,794.298 532.701,792.159 528.909,784.812L524.067,775.431C520.275,768.081 524.598,758.31 533.724,753.597L667.746,684.435C676.869,679.725 687.339,681.867 691.131,689.211L695.973,698.595" style="fill:rgb(255,255,254);fill-rule:nonzero;"/>
        </g>
        <g id="path4308" transform="matrix(1,0,0,1,-17.5713,2.25633)">
            <path d="M695.973,698.595C699.762,705.942 695.442,715.716 686.319,720.426L552.294,789.588C543.171,794.298 532.701,792.159 528.909,784.812L524.067,775.431C520.275,768.081 524.598,758.31 533.724,753.597L667.746,684.435C676.869,679.725 687.339,681.867 691.131,689.211L695.973,698.595Z" style="fill-opacity:0;fill-rule:nonzero;stroke:rgb(26,25,25);stroke-width:23.54px;"/>
        </g>
        <g id="path4310" transform="matrix(1,0,0,1,-17.5713,2.25633)">
            <path d="M714.546,734.586C718.338,741.936 714.015,751.71 704.895,756.42L570.873,825.582C561.747,830.295 551.271,828.15 547.482,820.803L542.64,811.425C538.851,804.075 543.171,794.298 552.294,789.588L686.319,720.426C695.442,715.716 705.915,717.861 709.707,725.208L714.546,734.586" style="fill:rgb(255,255,254);fill-rule:nonzero;"/>
        </g>
        <g id="path4312" transform="matrix(1,0,0,1,-17.5713,2.25633)">
            <path d="M714.546,734.586C718.338,741.936 714.015,751.71 704.895,756.42L570.873,825.582C561.747,830.295 551.271,828.15 547.482,820.803L542.64,811.425C538.851,804.075 543.171,794.298 552.294,789.588L686.319,720.426C695.442,715.716 705.915,717.861 709.707,725.208L714.546,734.586Z" style="fill-opacity:0;fill-rule:nonzero;stroke:rgb(26,25,25);stroke-width:23.54px;"/>
        </g>
        <g id="path4314" transform="matrix(1,0,0,1,-17.5713,2.25633)">
            <path d="M568.278,567.813C563.91,560.22 564.015,525.639 568.335,506.508C578.259,462.591 564.231,423.462 530.007,421.755C491.508,419.829 482.355,458.553 498.738,480.48C512.64,499.092 534.699,486.273 529.107,463.674C524.955,446.892 500.439,420.342 463.407,437.649L455.412,441.777C419.853,461.934 427.287,497.295 438.558,510.402C453.738,528.054 476.967,517.503 469.854,495.387C461.472,469.329 424.605,454.356 403.875,486.846C385.434,515.733 409.197,549.837 450.744,567.192C468.84,574.755 497.085,594.705 500.742,602.667" style="fill-opacity:0;fill-rule:nonzero;stroke:rgb(26,25,25);stroke-width:14.42px;"/>
        </g>
    </g>
</svg>
