<svg viewBox="0 0 1605 189.8" aria-hidden="true" xmlns:xlink="http://www.w3.org/1999/xlink" xmlns="http://www.w3.org/2000/svg"><defs><path id="a" d="M42 46q32 2 52 10t24 13 10 17v548h-4q-10 3-72 3H25v46h207l3-3q2-1 87-126t171-251l85-125v420q-6 10-10 15t-24 14-52 10h-17v46h8q15-3 117-3 106 0 115 3h9v-46h-17q-73-4-85-39l-1-296V6l-7-6h-14q-15 0-18 3T481 150 282 443 171 605V345l1-259q11-36 85-40h17V0h-9q-15 3-115 3Q48 3 33 0h-8v46z"/><path id="b" d="M109 429q-27 0-43 18t-16 44q0 71 53 123t132 52q91 0 152-56t62-145q0-43-20-82t-48-68-80-74q-36-31-100-92l-59-56 76-1q157 0 167 5 7 2 24 89v3h40v-3q-1-3-13-91T421 3V0H50v31q0 7 6 15t30 35q29 32 50 56 9 10 34 37t34 37 29 33 28 34 23 30 21 32 15 29 13 32 7 30 3 33q0 63-34 109t-97 46q-33 0-58-17t-35-33-10-19q0-1 5-1 18 0 37-14t19-46q0-25-16-42t-45-18"/><path id="c" d="M56 237v13q0 13 14 20h299v150l1 150q10 13 19 13 13 0 20-15V270h298q15-8 15-20t-15-20H409V-68q-8-14-18-14h-4q-12 0-18 14v298H70q-14 7-14 20z"/><path id="d" d="M127 463q-27 0-42 17t-16 44q0 55 48 98t116 43q35 0 44-1 74-12 113-53t40-89q0-52-34-101t-94-71l-3-2q0-1 9-3t29-9 38-21q82-53 82-140 0-79-62-138T238-22q-80 0-138 43T42 130q0 28 18 45t45 18q28 0 46-18t18-45q0-11-3-20t-7-16-11-12-12-8-10-4-8-3l-4-1q51-45 124-45 55 0 83 53 17 33 17 101v20q0 95-64 127-15 6-61 7l-42 1-3 2q-2 3-2 16 0 18 8 18 28 0 58 5 34 5 62 42t28 112v8q0 57-35 79-22 14-47 14-32 0-59-11t-38-23l-11-12h3q3-1 8-2t10-5 12-7 10-11 8-15 3-20q0-22-14-39t-45-18"/><path id="e" d="M128 622q-7 7-11 9t-16 3-43 3H25v46h11q21-3 144-3 135 0 144 3h11v-46h-33q-40-1-51-3t-18-12l-1-122V378h285v244q-7 7-11 9t-16 3-43 3h-33v46h11q21-3 144-3 135 0 144 3h11v-46h-33q-40-1-51-3t-18-12V61q6-10 17-12t52-3h33V0h-11q-21 3-144 3-135 0-144-3h-11v46h33q42 1 51 3t19 12v271H232V197l1-136q6-10 17-12t52-3h33V0h-11q-21 3-144 3Q45 3 36 0H25v46h33q42 1 51 3t19 12z"/><path id="f" d="M55 256q1 8 7 14h867q15-9 15-20t-15-20H148l17-15q16-14 31-30t35-40 39-58 33-71q6-17 3-21-2-6-18-6-9 0-12 1t-7 6-5 14-11 26-22 39q-59 98-162 160-10 7-12 10t-2 11"/><path id="g" d="M84 237v13q0 13 14 20h581q15-8 15-20t-15-20H98q-14 7-14 20z"/><path id="h" d="M691 500q0 11 20 11 9 0 12-1t7-6 5-14 11-26 22-39q28-47 67-86t62-54 36-22q8-5 9-7t2-11-7-15H70q-14 7-14 20t14 20h782q-50 38-90 94t-55 91-16 45"/></defs><path fill="#fff" stroke-width="18.5" d="M1.3.1h1601.5v189.3H1.3z"/><g stroke="currentColor" fill="currentColor" stroke-width="0"><g data-mml-node="math"><g data-mml-node="TeXAtom" data-mjx-texclass="ORD"><g data-mml-node="TeXAtom" data-mjx-texclass="ORD"><g data-mml-node="mi" transform="matrix(.18028 0 0 -.18788 7.6 147.6)"><use data-c="4E" xlink:href="#a"/></g></g><g data-mml-node="msub"><g data-mml-node="TeXAtom" data-mjx-texclass="ORD"><g data-mml-node="TeXAtom" data-mjx-texclass="ORD"><g data-mml-node="mpadded"><g data-mml-node="mn" transform="matrix(.12746 0 0 -.13283 148.8 175.8)"><use data-c="32" xlink:href="#b"/></g></g></g></g></g><g data-mml-node="mo" transform="matrix(.18028 0 0 -.18788 261.6 147.6)"><use data-c="2B" xlink:href="#c"/></g><g data-mml-node="mn" transform="matrix(.18028 0 0 -.18788 441.9 147.6)"><use data-c="33" xlink:href="#d"/></g><g data-mml-node="TeXAtom" data-mjx-texclass="ORD"><g data-mml-node="mi" transform="matrix(.18028 0 0 -.18788 562.1 147.6)"><use data-c="48" xlink:href="#e"/></g></g><g data-mml-node="msub"><g data-mml-node="TeXAtom" data-mjx-texclass="ORD"><g data-mml-node="TeXAtom" data-mjx-texclass="ORD"><g data-mml-node="mpadded"><g data-mml-node="mn" transform="matrix(.12746 0 0 -.13283 703.3 175.8)"><use data-c="32" xlink:href="#b"/></g></g></g></g></g><g data-mml-node="TeXAtom" data-mjx-texclass="REL"><g data-mml-node="TeXAtom" data-mjx-texclass="REL"><g data-mml-node="mover"><g data-mml-node="TeXAtom" data-mjx-texclass="OP"><g data-mml-node="TeXAtom" data-mjx-texclass="ORD"><g data-mml-node="mpadded"><g data-mml-node="TeXAtom" data-mjx-texclass="ORD"><g data-mml-node="mo" transform="matrix(.18028 0 0 -.18788 826.1 147.6)"><use data-c="21BD" xlink:href="#f"/></g></g><g data-mml-node="TeXAtom" data-mjx-texclass="ORD"><g data-mml-node="mo" transform="matrix(.18028 0 0 -.18788 946.2 147.6)"><use data-c="2212" xlink:href="#g"/></g></g></g></g></g><g data-mml-node="TeXAtom" data-mjx-texclass="ORD"><g data-mml-node="mstyle"><g data-mml-node="TeXAtom" data-mjx-texclass="ORD"><g data-mml-node="mo" transform="matrix(.18023 0 0 -.18782 826.1 110)"><use data-c="2212" xlink:href="#g"/></g></g><g data-mml-node="TeXAtom" data-mjx-texclass="ORD"><g data-mml-node="mo" transform="matrix(.18023 0 0 -.18782 906.1 110)"><use data-c="21C0" xlink:href="#h"/></g></g></g></g></g></g></g><g data-mml-node="mn" transform="matrix(.18028 0 0 -.18788 1136.5 147.6)"><use data-c="32" xlink:href="#b"/></g><g data-mml-node="TeXAtom" data-mjx-texclass="ORD"><g data-mml-node="mi" transform="matrix(.18028 0 0 -.18788 1256.8 147.6)"><use data-c="4E" xlink:href="#a"/><use data-c="48" xlink:href="#e" transform="translate(750)"/></g></g><g data-mml-node="msub"><g data-mml-node="TeXAtom" data-mjx-texclass="ORD"><g data-mml-node="TeXAtom" data-mjx-texclass="ORD"><g data-mml-node="mpadded"><g data-mml-node="mn" transform="matrix(.12746 0 0 -.13283 1533.1 175.8)"><use data-c="33" xlink:href="#d"/></g></g></g></g></g></g></g></g></svg>