<?xml version="1.0" encoding="utf-8"?>
<!-- Generator: Adobe Illustrator 24.1.0, SVG Export Plug-In . SVG Version: 6.00 Build 0)  -->
<svg version="1.1" id="Layer_1" xmlns="http://www.w3.org/2000/svg" xmlns:xlink="http://www.w3.org/1999/xlink" x="0px" y="0px"
	 viewBox="0 0 3051.3 718.7" style="enable-background:new 0 0 3051.3 718.7;" xml:space="preserve">
<style type="text/css">
	.st0{fill:#CC3300;}
	.st1{fill:none;}
	.st2{fill:none;stroke:#CC3300;stroke-width:40;stroke-miterlimit:10;}
</style>
<g id="Layer_2_1_">
	<g id="Layer_1-2">
		<g id="Layer_2-2">
			<g>
				<path class="st0" d="M2558.5,96.8c10-0.3,22.5-0.6,37.5-0.8c15-0.2,32.5-0.2,52.5,0s37.5,0.3,52.5,0.5s27.5,0.3,37.5,0.3
					l3.8,2.1v1.3c0,0.6,0.1,1.2,0.2,1.8c0.2,0.6,0.4,1.2,0.7,1.8c0.3,0.5,0.6,0.9,0.9,1.3c-1.4,1.8-3.2,3.3-5.2,4.4
					c-2.5,1.3-5.4,1.9-8.2,1.8c-3.3,0-6.2-0.1-8.7-0.3c-2-0.2-4.1-0.1-6.1,0.3h-116.3c-3.1,0.3-7,0.5-11.5,0.5h-15.7
					c-5.3-0.1-10.5,0.3-15.7,1c-3.9,0.6-7.7,1.4-11.5,2.6c-1.4,3.3-2.3,6.8-2.6,10.4c-0.4,4.8-0.2,9.7,0.7,14.5
					c0.9,5.5,1.8,10.4,2.6,14.5c0.7,3.4,1.1,6.9,1.2,10.4c2.6,11.5,4.4,23.2,5.6,35c1.6,14,1.9,30.3,0.9,48.8
					c-0.7,16.2-2.3,32.3-4.7,48.3c-2.2,13.7-4.1,25-5.6,34c-0.3,0.7-0.7,1.4-1.2,2.1s-1,1.3-1.6,1.8s-1.2,0.9-1.6,1.3
					c-0.4,0.3-0.8,0.6-1.2,1h-5.6c-0.3-0.4-0.6-0.8-0.9-1.3c-0.3-0.6-0.6-1.2-0.9-1.8s-0.6-1.2-0.9-1.8c-0.3-0.5-0.6-0.9-0.9-1.3
					c0.6-5.9,1.6-13.3,3-22.3s3-19.5,4.7-31.7c1.7-12.1,2.8-22.7,3.3-31.7c0.5-7.4,0.5-14.9,0.2-22.3c-0.6-5.2-1.3-11.7-2.1-19.5
					s-1.7-16.9-2.8-27.2c-1.1-10.4-2.2-19.5-3.3-27.2c-1.1-7.8-2.1-14.3-3-19.5c-0.6-3.6-0.4-7.3,0.5-10.9c0.9-4.5,3.4-9,7.5-13.5
					s8.1-7.3,12.2-8.3C2552.7,96.3,2556,96.1,2558.5,96.8z M2566,125.8c0.3-0.4,0.6-0.8,0.9-1.3c0.4-0.6,0.8-1.1,1.2-1.6
					s1-0.9,1.6-1c0.6-0.2,1.3-0.3,1.9-0.3c2.2-0.3,5.2-0.8,9.1-1.3c4.7-0.4,9.4,0.1,13.8,1.6c5,1.4,9.5,4.3,12.9,8.3
					c3.1,3.6,5.6,7.8,7.3,12.2v6.2h15c0.3-0.3,0.7-0.8,1.2-1.3s1-1.1,1.6-1.8s1.2-1.3,1.6-1.8s0.9-0.9,1.2-1.3l1.9-8.3l-1.9-6.2
					l1.9-6.2h7.5l3.8,4.2c0.7,2.9,1.1,5.8,1.2,8.8c0.2,3.8-0.8,8.2-2.8,13.2c-1.7,4.5-4.4,8.5-8,11.7c-2.7,2.4-5.8,4.4-9.1,5.7
					h-13.2v8.3c2.2-0.7,5.3-0.7,9.4,0s8.4,3,13.1,7s7.8,8.2,9.4,12.7s2.2,8.3,1.9,11.4v22.9c-0.4,0.4-0.8,0.7-1.2,1
					c-0.5,0.3-1,0.7-1.6,1s-1.1,0.6-1.6,1c-0.4,0.3-0.8,0.6-1.2,1h-1.4c-0.8,0-1.5-0.1-2.3-0.3c-0.8-0.1-1.6-0.4-2.3-0.8
					c-0.5-0.3-1-0.6-1.4-1l-1.9-4.2v-31.1l-7.5-6.2h-11.4c-0.3,2.9-0.5,5.9-0.5,8.8c0,3.5,0.1,7.4,0.2,11.9c0.2,4,0.1,7.9-0.2,11.9
					c-0.2,3-0.7,5.9-1.4,8.8c-0.7,0.8-1.6,1.4-2.6,1.8c-1.3,0.5-2.7,0.6-4,0.3c-1.5-0.2-2.8-0.9-4-1.8c-0.9-0.7-1.8-1.5-2.6-2.3V188
					h-3.5c-1.6,0-3.1,0.1-4.7,0.3c-1.4,0.1-2.8,0.4-4.2,0.8c-0.9,0.2-1.8,0.6-2.6,1c-1.8,2-3.2,4.3-4.2,6.7
					c-1.4,3.2-2.1,6.6-2.1,10.1c-0.2,3.5-0.1,7.1,0.2,10.6c0.3,3.1,0.5,5.7,0.5,7.8l-1.9,4.2l-5.6,2.1l-5.6-2.1v-33.2
					c0.8-3.6,2.2-7,4.2-10.1c2.4-3.8,5.8-7,9.8-9.1c4.4-2.4,8.3-3.7,11.7-3.9c2.7-0.2,5.4-0.1,8,0.3v-8.3h-30
					c-0.6-0.7-1.3-1.5-2.1-2.3c-0.8-0.9-1.5-1.9-2.1-2.9c-0.6-0.9-1-1.9-1.2-2.9c-0.2-0.8-0.2-1.5-0.2-2.3l3.8-4.2
					c2.2-0.7,4.5-1.2,6.8-1.3c3-0.2,6.1-0.2,9.1,0s6.1,0,9.1-0.5c2.4-0.4,4.7-1.2,6.8-2.3c-1-2.5-2.6-4.8-4.7-6.5
					c-2.6-2-5.7-3.2-8.9-3.4c-3.3-0.3-6.5-0.4-9.8-0.3c-2.2,0.2-4.4,0.1-6.6-0.3c-0.4-0.4-0.8-0.7-1.2-1c-0.5-0.3-1-0.7-1.6-1
					s-1.1-0.6-1.6-1c-0.4-0.3-0.8-0.6-1.2-1v-6.2L2566,125.8z M2567.8,298.1v-47.7c0-0.3-0.1-0.9-0.2-1.6c-0.2-0.7-0.3-1.6-0.5-2.6
					c-0.2-0.9-0.2-1.7,0-2.6c0.1-0.6,0.4-1.1,0.7-1.6c0.7,0,1.4-0.1,2.1-0.3c0.9-0.2,1.8-0.5,2.6-0.8c0.9-0.3,1.8-0.6,2.6-0.8
					c0.7-0.2,1.4-0.3,2.1-0.3l3.8,4.2v70.6c0.3,0.3,0.8,0.8,1.4,1.3s1.5,1.2,2.6,2.1s2.1,1.7,3,2.6s1.7,1.6,2.3,2.3l24.4-2.1v-66.4
					c-0.3-0.7-0.5-1.5-0.7-2.3c-0.2-1-0.2-1.9,0-2.9s0.3-2,0.5-2.9c0.2-0.8,0.2-1.5,0.2-2.3l3.8-4.2h1.4c0.8,0,1.5,0.1,2.3,0.3
					c0.8,0.1,1.6,0.4,2.3,0.8c0.5,0.3,1,0.6,1.4,1l1.9,2.1v39.5h88.1c0.5,0,0.9-0.1,1.4-0.3c0.6-0.2,1.5-0.4,2.6-0.8
					c1.1-0.3,2.1-0.6,3-0.8c0.8-0.2,1.5-0.3,2.3-0.3c0.3-0.7,0.8-1.6,1.4-2.9c0.6-1.2,1.3-2.7,2.1-4.4c0.7-1.4,1.2-2.9,1.6-4.4
					c0.3-0.9,0.4-1.9,0.5-2.9c0-1.1-0.2-2.3-0.5-3.4c-0.3-1.3-1-2.4-1.9-3.4c-0.8-0.9-1.7-1.7-2.8-2.3c-0.9-0.5-1.7-0.9-2.3-1.3
					c-4.1-0.7-9.1-1.2-15-1.6c-5.9-0.3-12.8-0.4-20.6-0.3c-7.8,0.2-14.7,0.3-20.6,0.3s-10.9-0.2-15-0.5c-0.3-0.3-0.6-0.7-0.9-1
					s-0.6-0.7-0.9-1s-0.6-0.7-0.9-1s-0.6-0.7-0.9-1V246l1.9-4.2c4.2-1.2,8.4-2,12.7-2.6c5.7-0.7,11.5-1,17.3-0.8
					c6.6,0.2,12.3,0.4,17.3,0.8c5,0.3,9.2,0.5,12.7,0.5h11.2c5,1,9.9,4.2,14.8,9.3c4.8,5.2,7.1,12.3,6.8,21.3s-3,15.7-8.2,20.2
					s-10.2,6.9-15.2,7.3h-90l-1.9,22.8c6.2,0,14.1-0.1,23.4-0.3c9.4-0.2,20.3-0.3,32.8-0.5s23.4-0.2,32.8,0s17.2,0.4,23.4,0.8
					c0.6,0.7,1.2,1.5,1.6,2.3c0.5,0.9,0.8,1.9,0.9,2.9c0.2,1,0.3,2,0.5,2.9c0.2,0.8,0.4,1.6,0.7,2.3c-0.3,0.3-0.6,0.7-0.9,1
					s-0.6,0.7-0.9,1s-0.6,0.7-0.9,1s-0.6,0.7-0.9,1c-8.8,0-19.6,0.1-32.6,0.3s-28,0.4-45,0.8c-17,0.3-31.9,0.6-44.5,0.8
					c-12.7,0.2-23.2,0.3-31.6,0.3c-2.3-0.9-4.4-2.1-6.3-3.6c-2.6-2.1-4.9-4.6-6.6-7.5c-1.8-2.8-3.2-5.9-4.2-9.1
					c-0.6-2.2-1.2-4.4-1.6-6.7v-9.8C2568,299.5,2567.8,298.8,2567.8,298.1z M2665.3,186c1.8-2.6,3.8-5.1,6.1-7.3
					c2.5-2.4,5.6-4.2,8.9-5.2c2.9-1,5.9-1.3,8.9-1c2.5,0.3,4.5,0.7,6.1,1v-8.3h-30c-0.6-0.7-1.3-1.5-1.9-2.3
					c-0.6-0.9-1.1-1.9-1.4-2.9c-0.3-0.9-0.5-1.9-0.5-2.9v-2.3l1.9-4.2c0.4-0.4,0.8-0.7,1.2-1c0.6-0.4,1.2-0.6,1.9-0.8
					c0.8-0.2,1.5-0.3,2.3-0.3h26.5v-6.3c-0.6-0.3-1.3-0.8-2.1-1.3s-1.6-1.1-2.3-1.8c-0.8-0.7-1.4-1.3-1.9-1.8
					c-0.4-0.4-0.8-0.8-1.2-1.3h-22.5l-3.8-6.2v-4l3.8-6.2c3.4-0.8,6.8-1.3,10.3-1.3c4.7-0.2,10.1,1.2,16.2,4.2
					c6.1,2.9,10.4,6.9,12.9,11.9c2.4,4.4,3.7,9.3,3.8,14.3h13.1c0.8-0.5,1.5-1,2.1-1.6c0.9-0.8,1.6-1.6,2.3-2.6
					c0.8-1,1.4-1.9,1.9-2.6s0.9-1.2,1.2-1.6v-14.5l0.9-2.1c0.3-0.7,0.7-1.3,1.2-1.8s1-0.9,1.6-1.3c0.6-0.3,1.2-0.7,1.9-1h3.8
					l3.8,2.1c1,3.8,1.5,7.8,1.4,11.7c0,5-1.5,10.4-4.5,16.1s-6.5,9.5-10.5,11.4c-4.1,1.9-7.7,2.7-10.8,2.3c-0.5,0-0.9,0.1-1.4,0.3
					c-0.6,0.2-1.5,0.4-2.6,0.8c-1.1,0.3-2.1,0.6-3,0.8c-0.8,0.2-1.5,0.3-2.3,0.3v8.3c2.5-0.8,5.1-1.2,7.7-1.3
					c3.3-0.2,7,0.8,11.2,2.9c3.9,1.8,7.2,4.6,9.8,8c2.1,2.8,3.7,5.8,4.9,9.1c0,1.7,0.1,3.9,0.2,6.5c0.2,2.6,0.4,5.7,0.7,9.3
					s0.5,6.9,0.7,9.9c0.2,2.9,0.2,5.4,0.2,7.5c-0.4,0.4-0.8,0.7-1.2,1c-0.5,0.3-1,0.7-1.6,1s-1.1,0.6-1.6,1c-0.4,0.3-0.8,0.6-1.2,1
					h-3.8l-3.8-2.1c-0.7-2.7-1-5.5-0.9-8.3V207c0.1-4-0.5-8-1.9-11.7c-1-2.7-2.6-5.2-4.7-7.3h-13.1v34.5c0,0.5-0.1,1.2-0.2,2.1
					c-0.2,0.9-0.4,1.7-0.7,2.6c-0.3,0.9-0.6,1.6-0.9,2.3c-0.8,0-1.5,0.1-2.3,0.3c-0.9,0.2-2,0.3-3,0.5c-0.9,0.2-1.7,0.2-2.6,0
					c-0.5-0.1-1-0.4-1.4-0.8l-3.8-4.2v-37.4h-13.1c-0.4,0.4-0.9,0.7-1.4,1c-0.6,0.3-1.3,0.8-2.1,1.3c-0.7,0.4-1.3,1-1.6,1.8
					c-0.3,0.7-0.5,1.4-0.5,2.1c-0.3,1.7-0.6,3.9-0.9,6.5c-0.3,3.1-0.5,6.2-0.5,9.3c0,3.6,0.2,6.9,0.5,9.9c0.3,2.9,0.6,5.4,0.9,7.5
					c-0.7,0.8-1.5,1.5-2.3,2.1c-0.9,0.7-1.9,1.2-3,1.6c-0.8,0.3-1.7,0.4-2.6,0.5h-1.4l-5.6-4.2v-28.8c0-1.7,0.2-3.5,0.5-5.2
					c0.2-1.6,0.7-3.2,1.4-4.7C2664.1,187.7,2664.7,186.8,2665.3,186L2665.3,186z"/>
				<path class="st0" d="M2766.6,109.2l5.6-8.3h5.6l3.8,6.2V134c5,0.3,11.2,0.5,18.5,0.5s15.9-0.3,25.5-0.8
					c9.7-0.5,18.2-0.9,25.5-1.3c7.3-0.3,13.5-0.5,18.5-0.5l-1.9-14.5l1.9-2.1l-1.9-10.4l1.9-4.2c0.4,0,0.8-0.1,1.2-0.3
					c0.6-0.2,1.3-0.5,1.9-0.8c0.8-0.3,1.6-0.6,2.3-0.8c0.7-0.2,1.4-0.3,2.1-0.3l5.6,6.2v26.9c4.7,0.3,10.6,0.5,17.8,0.5
					s15.6-0.3,25.3-0.8s18.1-0.9,25.3-1.3c7.2-0.3,13.1-0.5,17.8-0.5v-27l5.6-6.2h3.8l5.6,4.2c0,4.5,0.1,10.2,0.2,17.1
					c0.2,6.9,0.3,15,0.5,24.4c0.2,9.3,0.2,17.5,0,24.4s-0.4,12.6-0.7,17.1c-1.4,4.4-3.7,8.3-6.8,11.7c-3.3,3.7-7.8,6-13.6,7
					c-4.9,1-10,1.2-15,0.8c-3.2-0.4-6.4-0.7-9.6-0.8c-3.1,0.3-7,0.7-11.7,1s-10.1,0.6-16.2,0.8s-11.3,0.3-15.7,0.3h-10.8V223
					l3.8,8.3c4.4,0,9.8-0.1,16.4-0.3s14.1-0.3,22.7-0.5s16-0.2,22.3,0c6.2,0.2,11.4,0.4,15.5,0.8c4.7,1.4,9.2,4.5,13.6,9.3
					s6.3,11.3,5.9,19.5c-0.5,8.1-3,14.4-7.7,18.9s-9.2,7.3-13.6,8.3h-15.2c-6.1,0-13.1,0.1-21.1,0.3c-8,0.2-14.8,0.4-20.6,0.8
					c-5.8,0.3-10.5,0.7-14.3,1l-7.5,6.2c0.3,2.1,0.5,4.6,0.7,7.5s0.2,6.3,0.2,10.1s0.1,7.2,0.2,10.1c0.2,2.9,0.4,5.4,0.7,7.5
					l-5.6,6.2h-3.8l-5.6-4.2v-37.4c0.5-3.7,1.7-7.2,3.5-10.4c2.2-4,5.7-7.3,9.8-9.3c4.5-2.4,8.6-3.5,12.2-3.1
					c2.9,0.1,5.6,0.8,8.2,2.1c3.1-0.3,7.1-0.7,12-1c4.8-0.3,10.5-0.6,17.1-0.8c6.6-0.2,12.3-0.3,17.1-0.3h12l7.5-8.3v-8.4l-3.8-8.3
					c-4-0.8-8-1.3-12-1.6c-4.8-0.3-10.5-0.4-17.1-0.3c-6.6,0.2-12.3,0.3-17.1,0.3s-8.8-0.2-12-0.5c-2.2,0.3-5.2,0.8-9.1,1.3
					c-4.5,0.5-9.1,0-13.4-1.3c-4.6-1.1-8.6-3.8-11.5-7.5c-2.6-3.3-4.4-7.1-5.4-11.2v-16.6l-1.9-6.2c-4.7,0-10.5,0.2-17.6,0.5
					c-7,0.3-15.2,0.8-24.6,1.3s-17.6,0.8-24.6,0.8s-12.9-0.2-17.6-0.5c-0.4-0.4-0.8-0.7-1.2-1c-0.5-0.3-1-0.6-1.6-0.8
					c-0.5-0.2-1.1-0.3-1.6-0.3h-1.2c-0.6-1-1.4-2.3-2.3-3.9s-2-3.3-3-5.2c-1.1-1.9-2-3.5-2.6-4.7s-1.1-2.2-1.4-2.9v-22.9l-1.9-16.6
					l1.9-4.2l-1.9-27v-7.4L2766.6,109.2z M2869.7,148.7l-86.2,2.1c-0.3,1.7-0.6,4-0.9,6.7c-0.3,3.4-0.5,6.7-0.5,10.1
					c0,4,0.2,7.5,0.5,10.6s0.6,5.7,0.9,7.8c3.7,1.9,7.6,3.3,11.7,4.2c5.4,1.1,10.9,1.4,16.4,1c6.2-0.3,11.7-0.7,16.4-1
					c3.9-0.3,7.8-0.3,11.7,0h30L2869.7,148.7z M2909.1,190.2c3.1-0.3,7-0.7,11.7-1s10.2-0.6,16.4-0.8s11.7-0.3,16.4-0.3h11.7
					l5.6-8.3v-33.2c-5-0.3-11.2-0.6-18.5-0.8s-15.9-0.2-25.5,0c-9.7,0.2-18.2,0.3-25.5,0.5s-13.5,0.3-18.5,0.3v41.5
					c0.3,0.3,0.8,0.6,1.2,0.8c0.6,0.2,1.3,0.3,1.9,0.3c0.8,0,1.6,0.1,2.3,0.3c0.7,0.1,1.5,0.4,2.1,0.8h18.7L2909.1,190.2z"/>
				<path class="st0" d="M2534,393.6l-5.6-26.6l1.9-4.1l7.5-2c1.5,1.2,2.8,2.6,4,4.1c1.6,1.9,2.8,4.1,3.8,6.4c1,2.2,1.8,4.5,2.3,6.9
					c0.4,2,0.9,3.7,1.2,5.1l80.6,2V367l5.6-6.1h3.8l3.8,6.1c0,1,0.1,2.3,0.2,3.8c0.2,1.5,0.3,3.3,0.5,5.4c0.2,1.8,0.2,3.6,0,5.4
					c-0.1,1.3-0.4,2.6-0.7,3.8h80.5c0.3-1,0.7-2.3,1.2-3.8s1-3.3,1.6-5.4c0.6-2,1.2-3.8,1.6-5.4c0.5-1.5,0.9-2.8,1.2-3.8l7.5-6.1
					h1.9l5.6,6.1c-0.3,1.7-0.9,3.9-1.6,6.6c-0.8,2.7-1.6,6-2.6,10c-0.9,3.4-1.4,7-1.6,10.5c-0.2,2.6-0.1,5.1,0.2,7.7
					c0.6,3.1,1.6,7.1,3,12.3c1.5,5.7,2.2,11.7,2.1,17.6c0,6.6-1.5,12-4.5,16.1c-2.6,3.8-6.1,6.9-10.1,9.2c-1.2,0.8-2.4,1.4-3.8,1.8
					c-1.8,0.6-3.7,0.9-5.6,1c-2.2,0.2-4.1,0.3-5.6,0.5c-1.3,0.1-2.6,0.4-3.8,0.8h-67.5v16.3c4.7,0.3,10.6,0.5,17.6,0.5
					s15.2-0.1,24.6-0.3s17.6-0.1,24.6,0.3c7,0.3,12.9,0.9,17.6,1.5c4.7,3.4,8.8,7.5,12,12.3c3.6,5.1,5,11.3,4.2,18.6
					c-0.6,6.8-2.9,13.4-6.6,19.1c-3.6,5.4-6.8,9.9-9.6,13.3c-0.3,0-0.6,0.1-0.9,0.3c-0.3,0.2-0.5,0.5-0.7,0.8s-0.2,0.7-0.2,1
					c2.6,2.9,5.1,6,7.3,9.2c2.9,4.2,5.3,8.7,7,13.5c1.8,4.5,3.1,9.2,3.8,14c0.4,3.4,0.7,6.8,0.7,10.2l-7.5,6.1l-7.5-10.2
					c-0.3-1.7-0.7-3.8-1.2-6.4c-0.6-3-1.5-6-2.6-8.9c-1.1-3.1-2.6-6.1-4.5-8.9c-1.5-2.2-3.1-4.4-4.9-6.4c-1.9,2.7-4.4,6.5-7.5,11.2
					c-3.6,5.4-7.7,10.6-12.2,15.3c-5,5.4-9.7,9.2-14.1,11.2s-8.1,3.1-11.3,3.1h-136.9l-5.6-6.1v-4.1l5.6-6.1h135
					c3.1,0.2,6.1-0.4,8.9-1.8c3.4-1.5,7-4.6,10.8-9.2c3.3-4,6.3-8.3,8.9-12.8c2.2-3.9,3.9-6.9,5.2-8.9c-0.6-0.3-1.5-0.8-2.6-1.3
					c-1.3-0.6-2.6-1-4-1.3c-1.3-0.3-2.7-0.4-4-0.3c-0.9,0.1-1.8,0.4-2.6,0.8h-15c-7.8-0.3-17.6-0.6-29.3-0.8s-25.4-0.3-41-0.3
					s-29.3-0.1-41-0.3s-21.5-0.4-29.3-0.8l-5.6-6.1v-4.1l5.6-4.1h138.9c2.2-0.3,4.9-0.7,8.2-1c3.8-0.3,7.7-0.3,11.5,0
					c3.9,0.2,7.8,0.9,11.5,2c2.8,0.8,5.6,1.8,8.2,3.1c0.9-1.4,2.1-3.1,3.5-5.1s3-4.4,4.9-7.1s3.5-5.1,4.9-7.1s2.6-3.7,3.5-5.1v-6.1
					l-3.8-8.2c-5.4-0.8-10.9-1.3-16.4-1.5c-6.6-0.3-14.1-0.4-22.7-0.3c-8.6,0.2-16,0.3-22.3,0.3s-11.4-0.2-15.5-0.5
					c-6.6,0-14.7-0.1-24.4-0.3s-20.9-0.3-33.5-0.5c-12.7-0.2-23.7-0.2-33.1,0s-17.2,0.4-23.4,0.8l-5.6-8.2l5.6-8.2h95.8v-16.3h-61.9
					c-3.1,0.8-6.4,1.1-9.6,1c-4.2,0-9-1.4-14.3-4.1s-9.1-6.1-11.5-10.2c-2.3-4.1-3.7-7.8-4-11.2c-0.3-3-0.3-5.9,0-8.9
					c0.4-4.2,1.1-8.4,2.1-12.5c1.1-4.8,2-8.9,2.6-12.5C2533.6,399.5,2533.9,396.6,2534,393.6z M2541.5,434.4l5.6,8.2
					c0.4,0.4,0.9,0.7,1.4,1c0.8,0.4,1.7,0.7,2.6,0.8c1,0.2,2,0.3,3,0.3h75.5v-44.9c-4.7-0.3-10.5-0.5-17.3-0.5
					c-6.9,0-14.8,0.2-23.7,0.5s-16.6,0.5-23.2,0.5s-12-0.2-16.4-0.5c0.3,2.2,0.3,4.4,0,6.6c-0.5,3.4-1.2,6.7-2.3,10
					c-1.3,3.9-2.3,7.4-3.3,10.5C2542.6,429.3,2542,431.8,2541.5,434.4L2541.5,434.4z M2680.3,444.6c2.2,0,4.9-0.1,8.2-0.3
					s7.2-0.3,11.7-0.5s8.6-0.2,12.2,0s6.6,0.4,9.1,0.8l7.5-6.1V437c0-0.7,0.1-1.5,0.2-2.6c0.1-0.9,0.4-1.8,0.7-2.6
					c0.2-0.6,0.5-1.1,0.9-1.5c-0.6-1.7-1.4-3.8-2.3-6.4s-1.9-5.5-2.8-8.9c-0.8-2.9-1.5-5.9-1.9-8.9c-0.3-2.1-0.4-4.3-0.5-6.4h-80.7
					v44.9H2680.3L2680.3,444.6z"/>
				<path class="st0" d="M2770.3,379.3c0.5-1.9,1.3-3.8,2.3-5.6c1.5-2.8,3.5-5.3,5.9-7.4c2-2.2,4.5-3.8,7.3-4.9
					c1.7-0.6,3.5-0.8,5.2-0.5h123.9c4.3,0.8,8.6,0.9,12.9,0.5c5.2-0.3,11.2-0.7,18.1-1c6.1-0.4,12.2,0.3,18.1,2
					c4.7,1.4,9,3.7,12.9,6.6c1.1,1.6,2.1,3.3,3,5.1c1.2,2.3,2.1,4.6,2.8,7.1c0.7,2.3,1.2,4.7,1.4,7.1c0.2,1.7,0.2,3.4,0.2,5.1v151
					c-0.3,3.1-0.4,6.1-0.2,9.2c0.2,4.4,0.1,8.9-0.2,13.3c-0.2,4.6-1.2,9.1-3,13.3c-1.5,3.4-3.5,6.5-5.9,9.2
					c-0.9,0.7-2.1,1.5-3.5,2.6c-1.4,1-3,2-4.9,3.1c-1.5,0.9-3.2,1.6-4.9,2c-1.1,0.3-2.3,0.4-3.5,0.5h-146.7c-3.9,0.7-7.8,1-11.7,0.8
					c-5-0.2-10.4-1.9-16.2-5.1c-5.8-3.2-9.8-7.1-12-11.7c-2-3.9-3.1-8.1-3.3-12.5c0-10.6-0.1-23.7-0.2-39.6
					c-0.2-15.8-0.2-34.3-0.2-55.4s0.2-39.6,0.7-55.4C2769.1,403,2769.7,389.8,2770.3,379.3z M2897.8,377.2c-5.9-0.3-13.4-0.7-22.3-1
					s-19.3-0.6-31.2-0.8s-22.3-0.3-31.2-0.3h-22.3l-5.6,4.1c-0.7,1.7-1.4,3.4-1.9,5.1c-0.7,2.3-1.1,4.7-1.4,7.1
					c-0.3,2.4-0.5,4.7-0.5,7.1v29.6c6.6,0.3,14.7,0.6,24.4,0.8s20.9,0.3,33.8,0.3c12.8,0,24.1,0.1,33.8,0.3s17.8,0.4,24.4,0.8V377.2
					z M2914.7,526.3c-1.9-3.7-4.1-8.4-6.6-14c-2.8-6.4-5.1-13-7-19.7c-2-6.4-3.4-13-4.2-19.7c-0.5-4.6-0.8-9.3-0.9-14l1.9-12.3
					c-4.4-0.7-9.8-1.3-16.4-1.8s-14.2-0.8-23-0.8s-16.4,0.1-23,0.3s-12,0.3-16.4,0.3h-37.5v128.7c2.3,2.8,5.2,5.2,8.4,6.9
					c3.8,1.9,8,2.8,12.2,2.6c4.7-0.2,8.8-0.5,12.2-1c2.8-0.5,5.6-0.6,8.4-0.3c4.1,0,9.1,0.1,15,0.3s12.7,0.3,20.4,0.5
					s14.3,0.2,19.9,0s10.3-0.4,14.1-0.8L2914.7,526.3z M2819,461c4.3,0.3,8.6,0.1,12.9-0.5c6-0.7,12-1.2,18.1-1.3
					c6.2-0.3,12.4,0.8,18.1,3.3c4.8,2.1,9.1,5.1,12.9,8.7c1.4,2.9,2.6,5.8,3.5,8.9c1.2,4.1,1.8,8.3,1.9,12.5c0.2,4.2,0,8.4-0.5,12.5
					c-0.5,3.6-0.9,6.6-1.2,8.9c-1.2,6.1-4.5,11.7-9.2,15.8c-2.3,2.3-5,4.1-8,5.4c-1.7,0.7-3.5,1.2-5.4,1.3h-41.3
					c-3.4,0.2-6.7-0.4-9.8-1.8c-3.8-1.5-7.3-4.6-10.6-9.2c-3.3-4.6-5.4-8.8-6.3-12.8c-0.8-2.9-1.2-5.9-1.4-8.9
					c-0.3-3.9-0.3-7.8,0-11.7c0.3-5.1,1.9-10.6,4.7-16.6s6.2-10,10.3-12C2811.9,461.5,2815.6,460.6,2819,461z M2792.8,554.9l3.8-2
					c4.7-0.7,10.6-1.3,17.8-1.8s15.6-0.8,25.3-0.8s18.1,0.1,25.3,0.3s13.1,0.3,17.8,0.3l3.8,6.1v1.3c0,0.6-0.1,1.2-0.2,1.8
					c-0.2,0.6-0.4,1.2-0.7,1.8c-0.3,0.4-0.6,0.9-0.9,1.3l-1.9,2c-4.7,0.3-10.6,0.6-17.6,0.8s-15.2,0.2-24.6,0s-17.6-0.3-24.6-0.5
					s-12.9-0.3-17.6-0.3c-0.7-0.4-1.3-0.8-1.9-1.3c-0.6-0.5-1.2-1.1-1.6-1.8c-0.5-0.7-0.9-1.3-1.2-1.8c-0.3-0.4-0.6-0.9-0.9-1.3
					v-4.1H2792.8z M2794.7,395.6c4.6-1.2,9.3-1.9,14.1-2.3c6.6-0.5,13.1-0.6,19.7-0.3c7.5,0.3,14.1,0.6,19.7,0.8
					c4.7,0.2,9.4,0.1,14.1-0.3h3.8c1.6,0,3.5,0.1,5.9,0.3c2.1,0.1,4.2,0.4,6.3,0.8c1.9,0.3,3.4,0.7,4.7,1l3.8,4.1v4.1
					c-0.3,0.3-0.7,0.8-1.2,1.3s-1,1.1-1.6,1.8s-1.2,1.3-1.6,1.8c-0.4,0.4-0.8,0.8-1.2,1.3h-80.7c-0.6-0.3-1.3-0.8-2.1-1.3
					s-1.5-1.1-2.1-1.8c-0.5-0.5-0.9-1.1-1.2-1.8c-0.2-0.4-0.2-0.9-0.2-1.3v-6.9C2794.9,396.4,2794.7,396,2794.7,395.6L2794.7,395.6z
					 M2869.7,516.1c0.7-2.1,1.3-4.2,1.6-6.4c0.5-2.9,0.7-5.9,0.7-8.9c0-3.4-0.1-6.4-0.2-8.9c-0.2-2.6-0.2-4.7-0.2-6.4
					c-0.3-0.7-0.7-1.5-1.2-2.6c-0.6-1.1-1.2-2.2-1.9-3.3c-0.7-1-1.4-1.9-2.3-2.8c-0.6-0.6-1.3-1.1-2.1-1.5h-46.9
					c-2.5,1.7-4.6,3.9-6.3,6.4c-2,2.9-3.3,6.8-3.8,11.7c-0.5,4.4-0.3,8.9,0.5,13.3c0.8,3.9,1.5,7.1,2.1,9.4c0.3,0,0.6,0.1,0.9,0.3
					c0.3,0.2,0.5,0.5,0.7,0.8s0.2,0.7,0.2,1c2.7,1.2,5.5,2,8.4,2.6c4,0.7,8.1,1,12.2,0.8c4.7-0.2,8.8-0.4,12.2-0.8
					c3.4-0.3,6.2-0.5,8.4-0.5h11.2L2869.7,516.1z M2907.2,581.5c3.1,0,7,0.1,11.7,0.3s10.2,0.3,16.4,0.5s11.7,0.2,16.4,0
					s8.6-0.4,11.7-0.8c1.7-0.8,3.1-2,4-3.6c1.2-2.1,1.7-4.5,1.6-6.9c0-2.9-0.1-5.4-0.2-7.4c-0.2-1.5-0.1-3.1,0.2-4.6
					c-2.2-0.7-5-1.5-8.4-2.6c-4.2-1.3-8.3-2.9-12.2-4.9c-4.3-2-8.4-4.5-12.2-7.4c-3-2.3-5.8-4.9-8.4-7.7L2907.2,581.5z
					 M2910.9,428.3c3.4,0.3,7.7,0.7,12.7,1s10.8,0.6,17.3,0.8c6.6,0.2,12.3,0.3,17.3,0.3h12.7v-44.9c-2-3.1-4.6-5.7-7.7-7.7
					c-3.7-2.1-7.9-3.1-12.2-2.8c-4.8,0.2-9.1,0.4-12.7,0.8c-2.9,0.4-5.9,0.2-8.7-0.5h-3.5c-1.6,0-3.3,0.1-4.9,0.3
					c-1.7,0.1-3.3,0.4-4.9,0.8c-1.2,0.3-2.4,0.6-3.5,1c-0.3,1.4-0.6,3.2-0.9,5.4c-0.7,5.2-0.7,10.6,0,15.8c0.3,2.2,0.6,4,0.9,5.4
					h5.9c2.3,0,5.1-0.1,8.2-0.3c2.7-0.1,5.5-0.4,8.2-0.8c2.3-0.3,4.3-0.7,5.9-1l3.8-4.1c0-0.7-0.1-1.5-0.2-2.6
					c-0.2-1-0.3-2.1-0.5-3.3c-0.2-0.9-0.2-1.9,0-2.8c0.1-0.5,0.3-1.1,0.7-1.5c0.6-0.3,1.4-0.8,2.3-1.3c1.1-0.5,2.3-0.9,3.5-1
					c1.4-0.2,2.7,0,4,0.5c1.2,0.5,2.3,1.1,3.3,1.8c0.9,3.4,0.8,7.5-0.5,12.3s-4.5,9.1-9.6,13c-5.2,3.9-10.1,6-14.8,6.4
					c-4.7,0.3-8.3,0-10.8-1c-0.7,0.4-1.5,0.7-2.3,1c-1.1,0.4-2.2,0.6-3.3,0.8c-1.1,0.2-2.2,0.3-3.3,0.3h-2.3L2910.9,428.3
					L2910.9,428.3z M2924.1,508l3.8-2c1.9-2.7,4.3-6.3,7.3-10.7s6.7-9.6,11.3-15.6c3.9-5.3,8.2-10.3,12.7-15.1
					c3.2-3.4,6.6-6.6,10.1-9.7c0.4-0.4,0.7-0.9,0.9-1.5c0.3-0.8,0.6-1.7,0.7-2.6c0.2-0.9,0.2-1.7,0.2-2.6v-1.5
					c-3.4-0.3-7.7-0.7-12.7-1s-10.8-0.6-17.3-0.8c-6.6-0.2-12.3-0.3-17.3-0.3h-12.7c0.3,3.4,0.5,7.7,0.5,12.8
					c0.1,6.1,0.5,12.1,1.2,18.1c0.6,6.4,2.2,12.6,4.5,18.6C2919,499,2921.3,503.7,2924.1,508L2924.1,508z M2971,522.2l-1.9-6.1
					l1.9-40.8c-2.8,2.7-5.9,6-9.4,10c-3.8,4.3-7.3,8.8-10.6,13.5c-3.6,5.1-6.6,9.6-9.1,13.5c-2.5,3.9-4.7,7.2-6.6,10
					c1.9,1.4,4.2,3.1,7,5.1s6.1,4.3,9.8,6.6c3.1,2.1,6.4,3.9,9.8,5.6c2.8,1.4,5.2,2.4,7,3.1L2971,522.2z"/>
			</g>
		</g>
		<rect x="-16.5" y="121.9" class="st1" width="2446.1" height="644.5"/>
		<g>
			<path d="M1972.2,406.2c-2.7-3.7-4.9-7.7-6.4-12c-4.9-5.1-7.3-8.4-7.3-10c0-1,0.6-2.8,1.8-5.6c-2.2-2-3.2-4-3.2-6.2
				c0-1.6,0.2-3.1,0.6-4.7c0.4-2,0.4-4.1,0-6.2c-0.8-3.9-1.3-7.8-1.5-11.7c0-0.4,1.4-9.2,4.1-26.4c0.5-3.3,0.8-6.6,0.9-10
				c0-32-10.1-61.5-30.2-88.5c5.7,0,12.6,2.4,20.8,7.3c14.6,9,24.9,19.7,30.8,32.2c4.3,9.6,7.6,14.4,10,14.4c0.6,0,8-8.9,22.3-26.7
				c29.5-12.9,45-19.8,46.6-20.8c10.5-7,16-21.4,16.4-43.1l0.6-63l0.6-10.8c0-0.2-4-5.3-12-15.2c-2.3-3.3-5.2-6.2-8.5-8.5
				c-2.7-1.9-5.3-4.1-7.6-6.4l-0.6-0.6c-0.2-0.1-0.3-0.4-0.3-0.6l0.3-0.3c2-3.9,5.6-5.9,10.8-5.9c13.7,0,25.7,3.3,36,10
				c12.5,7.8,19.7,13.7,21.7,17.6c0.4,1,1.1,5.4,2.1,13.2l0.3,1.8l-0.3,1.5l-0.3,4.1c-2.5,12.1-3.9,19.8-4.1,23.1
				c-1,21.7-1.8,38.1-2.3,49.2c16.6-11.3,35.4-17,56.5-17c4.9,0,8.5,0.8,10.8,2.3l9.4,6.7c7.2,0.4,11.2,0.9,12,1.5
				c0.4,0.2,4.7,4.2,12.9,12c6.8,6.1,10.8,10.1,12,12c2.8,4.5,4.3,9.7,4.4,14.9c-0.1,5-1.1,10-2.9,14.6c-0.4,1-3.5,4.9-9.4,11.7
				l-12.9,22l-15.8,23.7l-1.8,4.7l-7.3,12c-0.2,5.3-2,11.3-5.3,18.2c-1.6,3.3-12.4,10.2-32.5,20.5c-13.5,5.1-20.8,8.4-22,10
				c-2.1,2.9-3.4,6.4-3.5,10c-0.1,3-0.7,6-1.8,8.8l-1.8,9.4l-3.2,16.1l1.8,14.1c0,1.4-0.7,3.5-2.1,6.4c-2,3.9-2.8,6.3-2.6,7
				l1.8,12.3l-1.5,9.1c0,2.3,1.7,5.1,5,8.2c1.2,1.2,7.5,5.1,19,11.7c5.6,5,12,9.1,18.8,12.3c23,10.5,34.7,15.8,34.9,15.8l58.3,12.9
				c1.8,0.4,11.3,4,28.7,10.8c31.8,12.7,54.2,26.9,67.1,42.5c7,8.4,10.5,13.2,10.5,14.4c0,4.5-2.1,6.7-6.4,6.7
				c-2.8-0.1-5.5-0.6-8.2-1.5c-8-2.5-20-5.3-36-8.2s-27.1-4.4-33.1-4.4c-6.4,0-13.8,1.8-22,5.3c-9.4,3.7-14.8,5.7-16.4,5.9
				l-15.5,1.2l-17.9,2.3c-2.2-0.2-6.1-2.1-11.7-5.6c-15.6-7.4-26.5-13.3-32.5-17.6c-2.2-1.6-10.3-7.4-24.3-17.6
				c-24-21.3-36.8-32.3-38.4-33.1c-2.9-1.8-5.1-2.6-6.4-2.6c-1.4,0-10.9,7.8-28.7,23.4c-6.8,6.1-18.2,11.6-34,16.7
				c-2.3,0.8-11.5,1.8-27.5,2.9l-8.8,2.3l-23.4-0.6c-1.8,0-8.1,0.8-19,2.3c-2.1,0.3-4.3,0.5-6.4,0.6c-15.6,0-32.4-5.4-50.4-16.1
				c-6.3-3.7-11-12-14.4-24.9c10.9,7.2,19.8,12,26.7,14.4c6.2,2,14.8,2.9,25.8,2.9c39.5,0,73.5-14.1,102.2-42.2
				c7-6.8,10.5-12.6,10.5-17.3c0-3.3-6.6-10.3-19.9-20.8c-4.9-3.7-7.8-5.9-8.8-6.4c-0.2-0.2-5.8-2.3-16.7-6.4l-8.8-6.2l-17.6-1.5
				l-31.9-10.3h-68l-12.9,0.3c0.4,1.8-9.6,5.5-29.9,11.1c-0.8,0.2-1.6,0.3-2.3,0.3c-3.3,0-5-1.5-5-4.4c0-1.6,1.7-3.6,5-6.2
				c5.9-4.4,12.3-8.1,19-10.8c27.1-11.3,47.7-17,61.5-17L1972.2,406.2z M2054,428.8l2.9,1.5c0.4-0.8,2-2.2,5-4.4
				c2.1-1.6,3.8-7,5-16.4c0.5-3.7,1.2-7.5,2.1-11.1c0.3-1.3,0.5-2.5,0.6-3.8c0-7.4-2.7-11.1-8.2-11.1c-2.2,0-7.6,1.8-16.4,5.3
				c-10.9,4.3-18,6.5-21.1,6.7l-17,1.2c-1.4,0.2-2.9,1.7-4.7,4.4c-2,2.9-2.9,4.9-2.9,5.9c0,2.7,6.4,5.9,19.3,9.4l26.7,11.1
				c2.2,0.9,4.4,1.6,6.7,2.1L2054,428.8z M2073.3,334.7c0.6-5.9,1.1-10.3,1.5-13.2c2-18.4,2.9-29.3,2.9-32.8
				c0-5.1-0.3-11.3-0.9-18.8c-2.9,0.2-5.3,0.3-7,0.3h-4.7c-17.4-0.8-28-1.2-31.9-1.2c-3.1,0-7.4,1-12.9,2.9c-0.2,2-4.6,7.6-13.2,17
				c-1.8,2-2.6,5.4-2.6,10.3c0,8.2,1.3,20.4,3.8,36.6c2,11.9,4.8,17.9,8.5,17.9c2.3,0,11.5-2.3,27.5-7
				C2057.6,340.7,2067.3,336.7,2073.3,334.7L2073.3,334.7z M2113.7,297.5c1.4,0.8,2.6,6.2,3.8,16.1c4.7-1.2,7.9-2.7,9.7-4.7
				c0.8-1,4.8-8.5,12-22.6c10.7-15.2,17-25,18.8-29.3c3.9-10.2,5.9-18.6,5.9-25.2c0-4.1-1.7-8-4.7-10.8c-2.2-2.3-4.2-3.5-6.2-3.5
				s-5.3,1.6-10,4.7c-5.8,4.1-10.5,9.5-13.8,15.8c-1.2,2.2-4,6.5-8.5,13.2c-0.2,0.2-2.1,9.2-5.6,27l-2.9,14.1
				c-0.3,0.5-0.5,0.9-0.6,1.5c0.3,0.7,0.7,1.4,1.2,2.1L2113.7,297.5z"/>
			<path d="M1244,531.7c3.5,2.9,6.1,5.2,7.6,6.7c3.7,3.5,6.3,5.3,7.9,5.3h0.3c1,0,2-0.8,3.2-2.3c5.7-8.4,10.6-17.4,14.6-26.7
				l24-52.7l36-102.8l23.1-77.1c10.9-49.4,17.4-76,19.3-79.7c1-2.1,4.1-6.8,9.4-14.1l7.6-11.1l19.3-16.7l4.4-5.6l9.1,4.1l-6.7-5.6
				l-12.3-6.2c-5.5-7.2-8.7-11.4-9.7-12.6c-4.8-5.3-9.3-11-13.2-17c5,0.7,10.1,1.1,15.2,1.2c3.7-0.2,7.4-0.6,11.1-1.2
				c2.1-0.5,4.3-0.8,6.4-0.9c1.8,0.1,3.6,0.4,5.3,0.9c2.4,0.7,4.9,1.1,7.3,1.5c0.4,0,22.6-5.7,66.5-17c29.9-7.8,45-11.7,45.4-11.7
				c9.4-1,16.2-2.2,20.5-3.8l19-3.2l10-2.3l6.2,0.3c21.1,1,32.9,2.1,35.4,3.2c2.9,1.4,10.7,6.9,23.4,16.7c5,3.7,7.8,9.6,7.6,15.8
				c0,6.3-3.4,11.3-10.3,15.2c-4.5,2.7-8.4,4.1-11.7,4.1l-47.8,0.9l-7.3,3.2l-20.5,4.4l-8.8,2.6h-6.2l-35.7,8.8
				c-15.8,0.6-26.2,1.1-31.1,1.5c-7.4,0.8-14.6,1.4-21.4,1.8c-0.8,1.2-6.4,3.6-17,7.3l-16.7,8.5c-7.8,3.9-12.5,6.4-14.1,7.3
				c-1.9,1.3-3.5,3-4.7,5c-0.8,1.4-4.4,8.1-10.8,20.2l-0.3,11.1l-0.6,10l7,38.7l-5.9,29c0.2,2.3,1.7,3.5,4.4,3.5
				c6.1,0,16.3-1.6,30.8-4.7c3.5-0.6,13.1-5.3,28.7-14.1c3.9-2.3,5.9-6.6,5.9-12.9c0-7.2-2-12.5-5.9-15.8c-1.1-1.3-2.7-2-4.4-2.1
				c-2.1,0.1-4.2,0.6-6.2,1.5c-10,3.9-25,7.4-45.1,10.5c42.6-26.2,69.3-46.9,80.3-62.1c2.5-3.5,4.1-5.7,4.7-6.4
				c4.3-4.5,6.6-7.1,7-7.9c0-0.2,0.1-5.2,0.3-14.9c0.2-6.1,2.6-9.1,7.3-9.1c3.1,0,10,3.6,20.5,10.8c10,6.6,15.6,10.8,17,12.6
				c3.9,5.2,6,11.6,5.9,18.2c0,6.3-1,10.6-2.9,13.2c-0.8,0.8-7.7,5.7-20.8,14.6c-17.6,4.5-29,8-34.3,10.5c1.2,1.6,5.2,5.1,12,10.5
				l5.6,10.5h8.5l10.3,0.6l14.4-4.4l9.7,2.3c3.6-0.3,7.2-0.4,10.8-0.3c2.5,0,16.1-4.7,40.7-14.1c3.9-1.6,6.2-3.8,7-6.7l0.3-1.2
				c0-0.2-1.9-4.2-5.6-12c-1.4-2.7-4.5-5.7-9.4-8.8c-3.5-2.1-6.3-3.2-8.5-3.2c-1.2,0-8,1.4-20.5,4.1c-4.4,1-8.9,1.5-13.5,1.5
				c16-7,28.6-14.6,37.8-22.6c12.9-10.9,20.4-17.6,22.6-19.9c2.4-2.9,4.1-6.5,4.7-10.3c2.7-0.2,5.2-1.7,7.3-4.4
				c3.1-3.9,4.7-6.8,4.7-8.8c0-2.3-1.7-5.5-5-9.4c9.4-4.3,17-6.4,22.9-6.4c3.1,0,5.4,0.4,6.7,1.2c0.4,0.2,3.8,3.1,10.3,8.8
				c3.7,1.6,8.2,4.7,13.5,9.4c5.1,4.5,7.6,9.4,7.6,14.6c0.1,5-1.3,9.9-4.1,14.1c-1.8,2.3-6.9,5.1-15.5,8.2c-2,0.8-5.4,2.2-10.3,4.4
				c-8.8,4.1-19.4,7.5-31.9,10.3c12.1,7.8,20.1,13.4,24,16.7l1.2,0.9l19-1.8c6.8,0.4,13.4,2,19.6,4.7c5.3,2.5,7.9,5.4,7.9,8.5
				c0,6.4-7.3,11.6-22,15.5c-8.4,2.2-13.4,4.2-14.9,6.2c0,0.2-2.2,11-6.7,32.5l-5,18.8c1.4,2.7,6.7,4.1,16.1,4.1
				c6.6,0.2,15.3,2.5,26.1,7c1.3,0.8,2.3,2,2.6,3.5c3.7,0.8,6.9,3.4,9.7,7.9c5.3,8.8,7.9,14.8,7.9,18.2c0,6.3-5.5,13.1-16.6,20.5
				s-23.4,12.7-36.5,15.5c-10,2-15.6,3.4-17,4.4l-14.4,10.3c-2.3,1.4-4.9,2.4-7.6,2.9h-0.6l-11.7-2.3l-64.2,17.9
				c-21.1,5.7-32.5,8.8-34.3,9.4c-1,0.6-5.8,3.8-14.4,9.7c-9.4,5.1-14.3,7.9-14.6,8.5c-0.5,1.3-0.8,2.7-0.9,4.1
				c0,1,4.2,9.6,12.6,25.8c4.1,17.2,6.2,26.2,6.2,27c0,1.4-2.7,10.5-8.2,27.5c-9.4,12.3-14.1,18.8-14.1,19.3c0,1.6,2.1,3.1,6.3,4.5
				c4,1.4,8.2,2.2,12.5,2.2l12.3-0.6l77.1-2.1l12.3-0.9l8.8,0.6c0.1,0,0.3-0.1,0.3-0.2c0,0,0,0,0-0.1c0.3-1,0.8-2,1.5-2.9
				c-6.3-8-10.4-14.5-12.3-19.3c-6.4-15.8-10.8-23.9-13.2-24.3l-5.6-0.9l-0.6,0.3c-4.3,1.2-8.7,1.6-13.2,1.5
				c-6.4-0.4-12.3-3.5-17.6-9.4c-8-9.2-12-18.4-12-27.5l3.5-25.2v-11.1c0-7.8,2.4-11.7,7.3-11.7c1.7,0.2,3.3,0.8,4.7,1.8
				c2.5,1.4,7.4,9.5,14.6,24.3c3.5,7.2,8.1,12.6,13.8,16.1c2.3,1.6,4,2.3,5,2.3c2.1,0,14.1-9.9,35.7-29.6
				c22.5-20.3,44.3-30.5,65.6-30.5c21.7,0,39.8,7.7,54.5,23.1c10.7,11.3,16.1,21.1,16.1,29.3c0,4.5-2.5,9.2-7.6,14.1
				c-7.8,7.6-20.3,12.3-37.5,14.1l-65,6.7c2.5-2.7,5.5-5,8.8-6.7c22.9-15.8,34.3-29.8,34.3-41.9c0-5.1-2.1-9.5-6.4-13.2
				s-10.3-5.6-17.9-5.6c-17,0-32.3,9.2-46,27.5c-11.3,15.2-17,27.6-17,37.2c0,7.8,3.8,16.7,11.4,26.7c5.3,6.4,14.3,13.2,27,20.2
				c5.8,3,12,4.9,18.5,5.9l17.6,4.7c10.9,2.5,16.4,6.9,16.4,13.2c0,5.9-3.5,12.5-10.5,19.9c-4.1,4.1-7,6.5-8.8,7.3
				c-5.5,2-21.6,2.9-48.3,2.9l-73.5,0.3c-33.8,0-52.2,0.2-55.1,0.6c-14.5,1.2-24.4,1.8-29.9,1.8c-11.5,0-21.1-3.7-28.7-11.1
				c-5.7-5.7-8.5-12.2-8.5-19.6c-0.1-5,0.9-10,2.9-14.6l10-20.8c1.8-3.7,5.8-15.2,12-34.6c1.8-5.9,4.1-18.4,7-37.5
				c0.2-1.4,2.3-4.8,6.4-10.3c3.5-4.5,5.3-7.8,5.3-10l-3.8-11.4l-2.3-12.6c-0.4-1.8-0.6-3.7-0.6-5.6c0-1.7,0.2-3.3,0.6-5
				c0.3-1,0.5-2.1,0.6-3.2c-0.1-1-0.4-2-0.9-2.9c-0.7-1.5-1.3-3.1-1.8-4.7l1.5-11.4c0-0.6-1.9-1.2-5.6-1.8c-0.4,1.6-3,3.1-7.9,4.7
				c-1.4,0.4-6.9,5.8-16.7,16.1c-9.2,11.3-15.4,18-18.8,19.9c-3.7,2.3-7.1,3.5-10.3,3.5c-1.8,0.1-3.5-0.4-5-1.5
				c-5.3-4.1-7.9-11.4-7.9-22c0-10,2.8-18.1,8.5-24.3c2-2.1,10.6-7.2,26.1-15.2c2.5-1.6,11-10.2,25.5-25.8c4.9-5.3,7.3-9.6,7.3-12.9
				c0-1.4-0.8-2.1-2.3-2.1c-0.5,0-1,0.1-1.5,0.3c-23,6.6-35.5,10-37.5,10c-5.7,0-13.6-5.4-23.7-16.1l-6.2,11.1l-24.3,70.9
				l-19.9,63.3c-9.2,24.6-15.3,39.4-18.5,44.2c-13.9,22.5-22.6,35.8-26.1,40.1c-6.5,7.7-12.4,15.9-17.6,24.6c-1.2,2-2.9,3.6-5,4.7
				c-0.4,0.4-4.5,1.2-12.3,2.3l-8.2,3.5c-2-0.2-3.9-2-5.7-5.3c-1.8-3-2.7-6.5-2.8-10c0-2.3,1.2-5.6,3.5-9.7l-10.5-18.5L1244,531.7z
				 M1485.1,440.5l19.3-9.4l75-24.6c21.9-7.2,32.7-12.5,32.5-15.8c0-0.5-0.1-1-0.3-1.5c-2.3-11.7-3.5-20.1-3.5-25.2
				c0-3.5,0.2-7.7,0.6-12.6c-5.9,3.9-15.2,9.5-28.1,16.7c-15.6,10.7-24.1,16.3-25.5,16.7c-2.5,1-5.2,1.6-7.9,1.8
				c-3.5,0-6.7-1.6-9.7-4.7c-3.1-3.3-4.7-6.8-4.7-10.5c0-4.9,2.4-9.9,7.3-14.9c2.7-3.1,10.8-7.9,24.3-14.4
				c1.8-0.8,7.2-5.6,16.4-14.4c3.2-3.3,6.7-6.5,10.3-9.4c10.7-9.2,16.6-16.9,17.6-23.1c1-5.5,2.3-9.2,4.1-11.1l0.6-1.8
				c0.4-0.2,0.6-0.4,0.6-0.6l-0.3-0.3l-1.5-1.8l-31.1,9.7l-31.9,4.1c-0.8,0-4.8,3.6-12,10.8c-1.4,1.4-6.4,8.8-15.2,22.3l-17.9,20.2
				c-0.2,0.2-1,5.1-2.3,14.6l-9.1,59.5L1485.1,440.5z M1511.8,314l31.1-22.3c-0.9-0.3-1.7-0.5-2.6-0.6c-1,0-6.9,2.2-17.9,6.7
				c-4.1,1.8-6.5,3.4-7.3,5C1513.5,306.4,1512.4,310.2,1511.8,314L1511.8,314z M1641,379c0.8-0.4,1.7-0.9,2.6-1.5
				c5.7-2.8,10.6-6.9,14.4-12c4.9-6.6,7.3-13,7.3-19c0-6.6-3-10-9.1-10c-6.4,0-10.4,4.1-12,12.3C1644,350,1642.9,360.1,1641,379
				L1641,379z"/>
			<path d="M668.9,162c0.6-0.8,1.1-1.2,1.5-1.2c0.2,0,6.1,3.6,17.6,10.8c13.3,8.4,20.5,13.8,21.7,16.1c6.1,2.9,10.8,9.3,14.4,19
				c8-20.1,17.8-35.9,29.3-47.5c13.1-13.1,24.1-20.5,33.1-22.3l62.4-12.9l25.2-7.6c28.9-8.6,54.4-12.9,76.5-12.9
				c21.1,0,36.3,2.6,45.7,7.9c6.4,3.9,13.5,6.8,20.8,8.5c2.7,0.8,10.9,8.1,24.6,22c4.8,4.9,8.7,10.7,11.4,17l5,12.6
				c4.7,10.4,7,15.8,7,16.4c0,2.7-1.3,6.1-3.8,10l-9.7,14.1c-1.4,1.8-3,6.6-5,14.6c0.6,1.3,1.1,2.7,1.5,4.1c0,1-1.9,7.3-5.6,19
				c-1.1,4.7-1.6,9.5-1.5,14.4l1.8,57.1l0.9,2.6l9.7,102l4.7,36l0.6,14.9l1.8,38.4l-1.8,19.3l-0.3,12l-7.9,19
				c-7,16.4-10.6,24.7-10.8,24.9l-9.7,7.6c-14.8,12.7-23.5,19-26.1,19c-3.9,0-7.4-3.7-10.5-11.1c-3.1-7.4-6.4-12.9-10-16.4
				l-27.5-29.3c-1.4-1.6-5.7-8.5-12.9-20.8c-1.8-2.9-7.1-4.4-16.1-4.4c-6.9,0.1-13.7,0.7-20.5,1.8l-59.8,8.8l-13.8,2.6l-68.8,9.7
				l-38,8.2c-2.7,0-7.7-1.9-14.9-5.6c-8.8-4.5-13.2-8.7-13.2-12.6c0.1-1.3,0.4-2.6,0.9-3.8c-3.3-2.5-5.4-6.4-6.2-11.7
				c-1.2-6.3-2.7-12.6-4.7-18.8c-6.6-24.2-10-43.8-10-58.9c0-7,0.4-15.9,1.2-26.7c1.4-19.9,2.2-36.6,2.6-50.1l2.3-107.5l3.2-43.7
				c-0.2-2.9-0.5-8.7-0.9-17.3c-0.2-2.7-1.6-6.5-4.1-11.4l-3.5-13.8C676.8,176.4,673.4,168.8,668.9,162z M728.1,342.8
				c-3.3,2.2-5,4.8-5,7.9l1.5,60.9c0,1.6-1,4.2-2.9,7.9c1.8,2.5,2.6,4,2.6,4.4l-3.5,21.7l0.3,0.3c1.6,1.7,3.8,2.6,6.2,2.6
				c2.5,0,5.9-1.9,10-5.6c9-8.6,14.5-13.5,16.7-14.6l-0.3-0.9l-5.9-7l0.6-18.8c0-0.6-1.8-3.6-5.3-9.1c-0.8-1.4-6.1-16.8-15.8-46.3
				C727.4,345.1,727.7,343.9,728.1,342.8L728.1,342.8z M881.3,409.9c1-0.5,2.1-0.8,3.2-0.9c2.1,0,3.2,1.2,3.2,3.5
				c0,3.5-1.4,7.6-4.1,12.3c0.6-0.3,1.3-0.5,2.1-0.6c1-0.1,1.9,0.6,2.1,1.5c0,0.2,0,0.3,0,0.5c-0.5,1.3-1.1,2.6-1.8,3.8
				c-2.7,5.3-7.8,9.3-15.2,12l-92.9,32.8c-19.5,7-32,10.5-37.5,10.5c-3.5,0-9-2.1-16.4-6.4c0.2,2.5,1.2,9.3,2.9,20.2
				c1.8,13.1,3.5,20.3,5.3,21.7c2,1.4,5.4,2.1,10.3,2.1c1,0,2-0.1,2.9-0.3l85.3-12.6l70.9-8.8c17.6-2.1,28.8-3.2,33.7-3.2
				c10,0,20.2,7,30.8,21.1c2.1,2.7,3.2,5.4,3.2,7.9c0.1,2.6-1.4,4.9-3.8,5.9l-0.6,0.6l0.6,0.6l1.2,1.5l8.5,4.7
				c3.7,5.7,10.8,8.5,21.4,8.5h0.9c2.3,0,3.9-0.5,4.7-1.5c1-1.2,2-14.2,2.9-39c-23.2-10.7-37.1-17.9-41.6-21.4
				c-10.1-7.6-19.6-15.9-28.4-24.9c-3.3-3.7-9.8-13.2-19.3-28.4l-6.4-7.9c-4.9-9.6-8-14.7-9.4-15.5c-3.5-2.4-7.7-3.7-12-3.8
				C883.6,406.4,881.5,407.5,881.3,409.9L881.3,409.9z M834.1,400.2c-0.6,1.8-4.1,4.6-10.5,8.5l-20.2,7l-6.7,4.1L768.2,433L745,450
				c-1.6,1-2.3,2.1-2.3,3.2c0,1.2,0.3,1.8,0.9,1.8h0.3c1-0.9,2.2-1.4,3.5-1.5h1.2c0.4,0.1,0.8,0.2,1.2,0.3c0.2,0,8-2.1,23.4-6.4
				l27.2-9.4l12.9-4.4c5.5-1.8,11.2-3.8,17.3-6.2c8-3.3,12.4-5,13.2-5c7.6-1.6,11.8-2.5,12.6-2.9c2.3-1.2,5.4-4.4,9.1-9.7l-15.5,4.1
				c1.8-3.1,6.4-6.9,14.1-11.4c0.6-0.4,0.9-1.6,0.9-3.5c0-4.3-0.4-11.3-1.2-21.1c2.7,4.7,4.3,8.5,4.7,11.4c0.8,5.5,2.1,8.2,4.1,8.2
				c0.8,0,1.9-0.9,3.2-2.6c6.1-6.8,9.1-12,9.1-15.5c0-1.8-1.6-7-4.7-15.8l-5.6-20.8l-6.7-13.8l-2.3-9.7c-4.1-10.5-6.7-17.5-7.9-20.8
				c-2.3-6.4-4.7-9.7-7-9.7l-24,7.6l-10,2.1c-15.8,3.7-24.6,5.6-26.4,5.6c-3.3,0-9-2.2-17-6.7c-15-7.4-23.6-12.6-25.8-15.5
				c-2.7-3.9-4.2-9.7-4.4-17.3l8.5,2.1l0.9,0.6V267c0.6-1,1.9-1.7,3.8-2.1c2.5-0.4,12.4-2.5,29.6-6.4l43.9-14.9l10.8-4.4l-1.8-4.1
				l-1.2-7.9l-6.2-11.4l-0.6-6.2c-3.4-2.6-6.4-5.8-8.8-9.4c0-0.2-5.6-6.3-16.7-18.5c-1.8-2-3.9-4.6-6.4-7.9
				c-7.6-10.3-12.8-15.5-15.5-15.5h-0.3c-2,0-12.1,6.8-30.5,20.5l-7.9,12.9L738,202c-1.6,2.3-5.3,24.1-11.1,65.3l-1.5,34
				c-0.6,6.8-0.9,10.4-0.9,10.5c0,4.9,5.3,10.9,15.8,18.2c2,1.3,3.8,2.8,5.6,4.4c7,5.9,11.3,8.8,12.9,8.8c2,0,5.7-2.3,11.1-7
				c5.9-4.9,13.8-10.1,23.7-15.5l22.6-12.6c3.2-1.6,6.7-2.4,10.3-2.3c3.1,0,8.5,3.2,16.1,9.7c5.9,4.9,10.1,8.4,12.6,10.5
				c2.6,2.3,4.1,5.6,4.1,9.1c-0.1,2.8-0.4,5.7-0.9,8.5c0,1.2-0.1,3.6-0.3,7.3c-0.6,8-3.4,12.9-8.5,14.6l-0.9,0.3l0.9,0.6
				c1,0.4,3.2,6.2,6.7,17.3c0.2,0.6-1.1,2.3-3.8,5.3C849.2,392.1,843.1,395.9,834.1,400.2L834.1,400.2z M823,342.2
				c-0.4-0.2-0.8-0.3-1.2-0.3h-0.6c-0.7-0.2-1.4-0.3-2.1-0.3c-1,0-7.6,3.9-19.9,11.7c-14.1,9-22.3,14.4-24.6,16.3s-3.5,3.7-3.5,5.4
				c0,2.2,1.1,4.3,3.2,6.4c2.7,2.5,5.2,3.8,7.3,3.8c3.9,0,10.9-3.8,21.1-11.4C810,368.2,816.7,357.6,823,342.2L823,342.2z
				 M822.1,163.8c11.3,2.5,18.6,6.6,22,12.3c1.8,2.9,3.9,5.6,6.4,7.9c15,25.8,23.1,38.7,24.3,38.7c1.8,0,4.9-0.9,9.4-2.6
				c3-1.1,6.2-1.7,9.4-1.8c12.1,0,22.6,4.6,31.3,13.8c6.6,6.8,10,13.5,10,19.9c-0.1,2.3-1,4.5-2.6,6.2c-0.4,0.4-3.9,2-10.5,4.7
				l-10,5.6c-9.8,2.7-15.5,4.5-17.1,5.3c-1.6,0.6-2.5,2.1-2.5,3.8l1.5,8.8l1.8,16.1c8.6,28.1,13.9,42.4,15.8,42.8
				c0.4,0,0.7,0.2,0.9,0.6c2-3.1,6.1-8,12.3-14.6c3.5-3.9,6.1-8.5,7.6-13.5c2-5.3,2.9-9,2.9-11.1c0-3.1-1.3-7.1-3.8-12
				c-1.6-2.9-2.2-4.8-2.1-5.6c0.6-2.3,1.8-3.8,3.5-4.4l1.5-0.3c0.2,0,2.1,0.8,5.9,2.3l19.3,11.1c4.1,1.4,6.2,3.8,6.2,7.3
				c0,4.5-1.6,10.4-4.7,17.6c-3.1,7.5-5.7,15.1-7.9,22.9c-1.4,5.1-2.2,7.9-2.3,8.5l-19.3,27.8c-1.3,1.8-2,3.9-2.1,6.2
				c0,11.9,11.4,31.5,34.3,58.9c10.5,12.7,24.1,24.6,40.7,35.7l0.9-6.4l-7.3-123L992.9,247c-0.6-12.9-0.9-20.8-0.9-23.7
				c0.1-3.6,0.5-7.3,1.2-10.8c4.5-26.4,6.7-40.5,6.7-42.5c0-8.2-5-16.7-14.9-25.5c-7.6-6.6-15.2-10-22.9-10c-2.5,0-6.1,0.8-10.5,2.3
				l-52.7,18.5c-16.2,5.7-33.2,8.5-50.4,8.5c-4.6,0.1-9.3-0.4-13.8-1.5c-2.5-0.6-5-1-7.6-1.2C825.7,161.1,824,162,822.1,163.8
				L822.1,163.8z M915,184.3l-0.6-2.6c7.4,2.3,20.5,4.7,39.3,7c4.5,0.6,10.7,3.4,18.8,8.5c5.5,3.5,9,6.7,10.5,9.7
				c0,0.4,0.9,3.8,2.6,10.3c1.8,5.9,2.6,9.3,2.6,10.3c0,4.3-2,8.1-5.9,11.4c-3.1,2.9-7.2,4.4-11.4,4.4c-2.5,0-5.5-1.2-8.8-3.5
				c-7.6-5.5-14.9-8.2-22-8.2h-5c8.8-2.1,13.2-5,13.2-8.5c-0.3-0.8-0.7-1.6-1.2-2.3l-8.2-10l-0.3-0.3c0.8-0.2,1.2-0.6,1.2-1.2
				c0-0.4-0.1-0.8-0.3-1.2C930.4,204.7,922.2,196.8,915,184.3L915,184.3z"/>
			<path d="M69.9,242.9V235c1.8,0.6,8.1,6.2,19,17c15,12.7,25,22.5,29.9,29.3c5.9,8.2,10.2,12.3,12.9,12.3c1.2,0,2.2-0.5,2.9-1.5
				c1-0.8,4.7-9.9,11.1-27.2c6.1-16.2,24.8-29.4,56.2-39.6l52.1-17c1.4-0.6,3.9-6.9,7.6-19l0.3-60.4l0.3-10.3
				c0.1-3.8-1.4-7.4-4.1-10c-1-0.8-11.5-5.5-31.6-14.1c11.7-9.4,19.7-14.9,24-16.7c5.9-2.5,10.5-3.8,14.1-3.8
				c12.1,0,25.5,5.7,40.1,17c1.7,1.3,2.7,3.4,2.6,5.6c0.5-0.5,1.1-0.8,1.8-0.9c4.5,0,8,6.1,10.5,18.2l3.2,10.5
				c0,0.4-1.1,4.2-3.2,11.4c-0.5,1.4-0.7,2.9-0.9,4.4l0.9,32.2c0,3.7-0.7,6.6-2.1,8.8c-0.4,0.4-0.6,0.7-0.6,0.9s0.2,0.5,0.6,0.9
				c0.4,0.6,0.6,2.4,0.6,5.6c0.2,2.5,1.6,3.4,4.1,2.6l10.3-2.6c47.8-12.7,72.3-18.9,73.2-18.8c14.1,1.4,22.2,3.7,24.3,7l0.6,0.6
				c0.2,0,0.5-0.2,0.9-0.6c1.6-2.5,4.4-3.9,7.3-3.8c0.6,0,1.6,0.6,2.9,1.8c3.2,2.5,6.5,4.9,10,7c3.6,2.2,6.8,5.1,9.4,8.5l9.4,5.3
				c4.5,7.6,7.7,12.3,9.7,14.1c5.9,5.1,8.8,10.3,8.8,15.5c0,8.4-2.2,17.7-6.7,27.8c-1,2.3-11.1,11.1-30.5,26.4
				c-18.8,17-29.2,26.2-31.3,27.5c-1.4,1-11.7,6.4-31.1,16.4c-2.7,1.4-5.9,4.7-9.4,10c-2,2.9-2.9,4.8-2.9,5.6
				c0.1,0.8,0.4,1.6,0.9,2.3c3.7,6.3,5.6,11.1,5.6,14.6c0,5.5-1.1,10-3.2,13.6c-2.2,3.6-4.9,5.4-8.2,5.4h-7.9
				c-5.7,0-16.5,1.5-32.5,4.4c-11.7,2.2-17.6,5.9-17.6,11.1v5.6l-5,5.3l-2.6,30.2l-4.1,42.2v28.7c-0.2,1-1.1,3.7-2.6,8.2
				c2.3,2,3.5,3.5,3.5,4.7c0,0.3-0.1,0.6-0.3,0.9c-1.8,6.4-2.6,10.2-2.6,11.1l0.6,11.7v1.8c0,19.5-7.5,41.8-22.6,66.8
				c-5.9,11.5-9.5,17.3-10.8,17.3c-5.1,0-7.6-7.3-7.6-22c0-1.8,0.1-9.3,0.3-22.6c0.2-14.8-0.6-26.3-2.3-34.3
				c-1.6-6.8-2.3-11.1-2.3-12.9l0.3-140.9c-1.3,0.6-2.7,1-4.1,1.2c-2-0.3-4-0.8-5.9-1.5c-1.8-0.7-3.7-1.1-5.6-1.2
				c-3.9,0.1-7.9,0.6-11.7,1.5c-10.2,2.3-17.5,3.5-22,3.5c-5.3,0-10.5-0.9-15.5-2.6c-4.9-1.8-8.6-2.6-11.1-2.6
				c-2.3,0-3.6,0.4-3.8,1.2l-5.6,27.2c-0.6,3.1-3.5,4.7-8.8,4.7c-8.6,0-22.6-8.9-41.9-26.7c-4.5-4.1-9.8-13.1-15.8-27
				c-5.1-11.7-7.8-18.3-8.2-19.6l-18.8-86.7L69.9,242.9z M255.3,258.7h-15.5c-3.2-0.4-6.3-1-9.4-1.8c-1.6-0.5-3.3-0.8-5-0.9
				c-3.9,0-9.5,1-16.7,2.9c-3.9,1.2-8.3,2.3-13.2,3.5c-4.3,0.8-9.9,3.8-16.7,9.1c-8.8,6.4-13.6,10.9-14.4,13.5
				c-1.8,5.7-2.6,18.2-2.6,37.5c0,12.5,1.7,20.7,5,24.6c1,1.2,3.7,2.5,8.2,4.1c6.6,3.1,10.6,4.7,12,4.7c1.9-0.1,3.8-0.5,5.6-1.2
				c2.5-1,9.3-2,20.2-2.9l11.4-4.1l8.8-1.2l10.8-4.4c4.3-0.6,6.7-1.2,7.3-1.8c2.9-2.5,4.4-4.5,4.4-5.9l-0.6-15.2
				c0-0.2,0.8-4.6,2.3-13.2l1.5-7l-0.3-16.7l0.3-9.4V267C258.8,261.5,257.6,258.7,255.3,258.7L255.3,258.7z M331.2,312
				c0.6-2.9,5.3-7.2,14.1-12.9c1.6-1.2,11.3-12.8,29.3-34.9l7-11.7l5.6-5.9l4.1-8.2c7.6-10.5,11.4-17.5,11.4-20.8
				c0-2.3-1.2-4.5-3.5-6.4c-2-2-4.8-3.2-7.6-3.2c-6.6,0-21.7,7.7-45.1,23.1c-12.1,5.3-19.3,9.4-21.7,12.3c-3.5,4.1-5.9,10.7-7,19.9
				c-1.2,9.8-2.1,16.1-2.9,19c-0.5,1.9-0.8,3.9-0.9,5.9c0,0.8,0.1,1.6,0.3,2.3c0.8,2.7,1.4,5.4,1.8,8.2c-0.3,1.7-0.8,3.4-1.5,5
				c-0.9,2-1.4,4.2-1.5,6.4c0,5.7,2.1,8.5,6.2,8.5c1.3-0.7,2.6-1.5,3.8-2.3C324.2,315.4,326.9,314,331.2,312L331.2,312z"/>
		</g>
		<rect x="2494.7" y="67.7" class="st2" width="520.1" height="560.9"/>
	</g>
</g>
</svg>
