<svg xmlns="http://www.w3.org/2000/svg" viewBox="0 0 1000 1000" height="1000" width="1000"><defs><clipPath id="a" clipPathUnits="userSpaceOnUse"><path d="M 0,1280 H 1280 V 0 H 0 Z"/></clipPath></defs><g clip-path="url(#a)" transform="matrix(1.3333333,0,0,-1.3333333,0,999.99995)" fill="#4a6da7"><path d="M 0,-3.6035157e-5 H 750.00002 V 749.99998 H 0 Z"/><g transform="translate(-17.87037)" fill="#fff"><path d="m 489.10008,215.95495 c 0,12.76765 1.97538,24.81965 5.89686,35.78351 3.89337,10.93575 9.38965,20.54033 16.31783,28.54141 6.89891,7.97298 15.27246,14.3284 24.81964,18.86539 9.5185,4.52294 20.19598,6.8134 31.7613,6.8134 11.40837,0 21.48498,-1.70364 29.97273,-5.067 7.94429,-3.17771 15.73043,-7.81544 23.17339,-13.76969 l -11.10734,-14.80043 c -5.49627,4.36599 -11.42184,8.20196 -17.61972,11.43648 -7.04239,3.63569 -15.43,5.48223 -24.93384,5.48223 -7.97298,0 -15.58754,-1.84654 -22.62992,-5.48223 -6.98499,-3.63568 -13.15417,-8.83094 -18.36407,-15.44405 -5.19585,-6.57035 -9.30415,-14.44259 -12.26693,-23.41702 -2.96278,-8.95978 -4.45149,-18.95148 -4.45149,-29.70041 0,-10.9498 1.48871,-21.08439 4.45149,-30.11563 2.96278,-9.07515 7.14253,-16.9187 12.42446,-23.34557 5.29541,-6.44093 11.63677,-11.53662 18.86481,-15.14361 7.25731,-3.63569 15.24375,-5.48164 23.76079,-5.48164 7.9724,0 15.08623,1.44537 21.15526,4.30801 5.95426,2.80524 10.52054,5.59642 13.5694,8.2734 l 0.75841,0.67232 V 204.905 h -41.68095 v 15.94536 h 59.67314 v -74.97429 c -2.67698,-2.44741 -5.69716,-4.86671 -9.00312,-7.18528 -3.62163,-2.54814 -7.78674,-4.83802 -12.38171,-6.79876 -4.58033,-1.96132 -9.70414,-3.59293 -15.20042,-4.85265 -5.43948,-1.24508 -11.37967,-1.8606 -17.66306,-1.8606 -11.90909,0 -22.85889,2.16162 -32.57768,6.44093 -9.67602,4.26525 -18.12103,10.43444 -25.03458,18.33538 -6.92759,7.91558 -12.32373,17.54886 -16.03086,28.6275 -3.76453,11.12141 -5.65382,23.68877 -5.65382,37.37236"/><path d="M 348.49875,303.41049 V 127.72634 h 18.77896 V 201.069 h 35.45441 l 46.24738,-73.34266 h 22.77239 l -48.83731,76.13333 3.10553,0.73088 c 5.58237,1.31656 10.90757,3.30581 15.80297,5.9254 4.86613,2.59087 9.13124,5.88306 12.69491,9.7618 3.55014,3.86464 6.41277,8.53084 8.51701,13.87017 2.10362,5.35281 3.17759,11.43594 3.17759,18.09182 0,8.81688 -1.64537,16.50325 -4.8805,22.87276 -3.23452,6.38408 -7.65847,11.70865 -13.14011,15.83042 -5.56831,4.17975 -12.03754,7.32932 -19.20876,9.34743 -7.27079,2.0615 -14.98608,3.12014 -22.90107,3.12014 z m 18.77896,-16.48845 h 37.51589 c 12.09475,0 22.08559,-3.13503 29.67146,-9.3183 7.75804,-6.28394 11.6946,-15.07244 11.6946,-26.12238 0,-10.93574 -3.95135,-19.49504 -11.7375,-25.43524 -7.58645,-5.81137 -18.24987,-8.75982 -31.66173,-8.75982 h -35.48272 z"/><path d="m 330.43475,625.10715 h 35.78351 l 41.4953,-196.09566 57.125,186.23398 h 28.11214 l 54.16223,-186.23398 c 2.67639,9.73342 43.69907,196.09566 43.69907,196.09566 h 34.33813 l -62.8936,-258.13012 h -28.84185 l -55.07817,192.9607 -60.91881,-192.9607 h -28.48402 z"/><path d="m 241.19015,306.21574 c -11.19345,0 -21.59961,-2.16107 -30.87505,-6.44097 -9.28951,-4.26526 -17.36132,-10.40597 -24.01717,-18.20677 -6.71325,-7.85815 -11.98057,-17.44786 -15.70176,-28.51242 -3.73583,-11.12141 -5.62511,-23.60276 -5.62511,-37.10068 0,-13.39725 1.68854,-25.82142 5.00915,-36.94282 3.32061,-11.10735 8.25922,-20.76856 14.67145,-28.74154 6.39816,-7.94367 14.38507,-14.22735 23.76066,-18.67943 9.37501,-4.43687 20.31093,-6.69831 32.52046,-6.69831 11.69417,0 22.34311,2.26144 31.61797,6.69831 9.30356,4.43741 17.30563,10.76369 23.77526,18.80813 6.52701,8.1018 11.59397,17.82068 15.05748,28.89935 3.49278,11.15008 5.26737,23.63184 5.26737,37.1573 0,13.4839 -1.8461,25.89318 -5.49643,36.85703 -3.66379,10.92111 -8.90348,20.44023 -15.55934,28.25508 -6.65527,7.8008 -14.7143,13.94151 -23.90307,18.20677 -9.21806,4.2799 -19.48062,6.44097 -30.50187,6.44097 z m -0.25738,-16.47469 c 8.34487,0 16.11669,-1.88902 23.05893,-5.62426 6.92759,-3.73643 12.89664,-8.98971 17.73406,-15.60225 4.79527,-6.54107 8.63086,-14.37182 11.3506,-23.28884 2.69103,-8.88833 4.0509,-18.73565 4.0509,-29.2708 0,-10.90706 -1.40271,-21.05508 -4.19331,-30.18706 -2.77713,-9.16066 -6.69941,-17.11914 -11.59423,-23.67488 -4.93815,-6.62716 -10.90747,-11.82294 -17.73492,-15.47267 -6.8421,-3.65034 -14.39893,-5.51019 -22.41465,-5.51019 -8.37356,0 -16.11701,1.90303 -23.0452,5.63884 -6.89889,3.69251 -12.91053,8.94645 -17.86274,15.58767 -4.92411,6.58442 -8.78916,14.55717 -11.46555,23.70321 -2.70568,9.07457 -4.06549,19.22267 -4.06549,30.15784 0,10.56388 1.31727,20.41151 3.92222,29.25711 2.61959,8.90296 6.4414,16.70437 11.35145,23.21676 4.96627,6.54107 10.96385,11.72346 17.86275,15.44526 6.95688,3.73524 14.70034,5.62426 23.04518,5.62426 z"/><path d="m 160.59063,388.51881 14.21303,26.29371 c 8.04442,-6.34078 16.14565,-11.39314 24.30427,-15.15767 8.15921,-3.76452 16.84726,-5.66846 26.10806,-5.66846 12.91055,0 22.75876,4.69512 29.58621,14.07071 6.81339,9.34632 10.23415,22.07121 10.23415,38.14483 v 178.89058 h 33.2213 V 446.93223 c 0,-25.07733 -5.71062,-45.08765 -17.16174,-60.05967 -11.45054,-14.97143 -29.35722,-22.45773 -53.69019,-22.45773 -15.10028,0 -27.81112,2.30451 -38.14541,6.92759 -10.363,4.62367 -19.91018,10.34894 -28.66968,17.17639"/></g><path d="m 106.98,155.49471 h 27.0527 V 128.45664 H 106.98 Z" fill="#fff"/></g></svg>