<svg xmlns="http://www.w3.org/2000/svg" xml:space="preserve" overflow="visible" viewBox="0 0 424.474 393.852"><g clip-rule="evenodd" fill-rule="evenodd"><path fill="#E4E5E6" d="M220.68 1.09c6.092.032 11.286 2.835 16.8 4.8 28.895 10.295 58.001 19.905 87.36 30.24 28.99 10.205 57.657 20.632 87.359 30.48 3.714 1.231 10.081 3.22 11.04 5.76 1.308 3.463-1.201 9.746-2.88 13.68-21.963 51.458-43.995 102.54-66.24 154.08-1.692 3.923-3.543 7.843-5.279 11.76-2.613 5.895-3.687 12.348-8.641 15.84 4.721-7.142 7.407-15.405 10.8-23.28 21.947-50.934 44.382-102.73 66.721-154.32 2.088-4.822 5.725-9.534 5.04-15.84-.388-3.565-6.539-5.342-11.04-6.96-29.435-10.578-59.238-20.751-88.8-30.96-25.705-8.876-50.154-17.506-76.32-26.4-5.788-1.967-12.64-4.421-18.96-6.72-2.54-.928-4.47-1.951-6.96-2.16z"/><path fill="#E4E5E6" d="M337.08 267.49c-.937-1.247-1.195-3.666-.72-6 .307-1.501 2.336-3.526 0-4.8-1.347-.734-2.636.063-4.08.479-12.278-7.241-25.194-13.845-37.68-20.88 4.216-4.167-1.234-5.649-5.04-7.68-32.573-17.38-66.797-35.912-98.88-52.8-1.3 2.14-1.601 5.279-6 4.32-.147-1.187-.375-2.325 0-3.36-8.246-3.915-15.574-8.746-24-12.48-.159-.467.676-2.323 0-3.36-2.184-1.919-3.654 1.157-4.56.72-.153-1.661.648-3.297 1.2-4.8 4.094-11.161 8.911-22.667 13.2-34.32 13.229-35.939 26.705-72.311 40.8-108.72 2.032-5.249 2.646-12.87 10.32-11.76 3.753.543 8.193 3.03 12.479 4.56 21.11 7.534 42.14 13.979 62.88 21.6 24.342 8.944 49.677 16.953 75.12 26.16 11.789 4.266 24.979 8.791 37.44 13.2 5.2 1.84 12.126 3.308 12.479 7.92.295 3.844-2.811 9.07-4.56 12.96-5.486 12.202-10.442 24.06-15.6 36.24-6.808 16.078-14.41 32.641-21.12 48.24-10.266 23.862-20.856 48.839-31.2 72.96-1.646 3.838-3.66 8.03-5.28 12-.736 1.806-1.533 4.131-2.64 6-.84 1.43-2.14 4.09-4.56 3.6zM216.84 6.37c.186 1.481 1.38 2.269 4.079 1.68 3.59-3.791-4.68-6.532-4.08-1.68zM396.6 74.29c-27.434-9.44-53.639-19.193-81.12-28.8-26.712-9.337-54.441-18.719-81.36-28.56-4.44-1.623-9.533-3.873-12.96-3.6-1.321 1.204-2.734 5.743-3.84 8.64-3.552 9.313-7.013 18.535-10.32 27.12-9.222 23.941-18.566 47.665-27.6 72-3.183 8.574-6.595 18.297-10.08 27.36-.908 2.363-3.637 7.206-3.12 9.36.459 1.915 7.486 4.895 9.84 6.24 3.409 1.948 7.466 3.736 10.8 5.52 21.202 11.346 43.06 23.183 63.36 33.84 24.88 13.062 48.948 26.703 73.92 39.601 1.638.845 9.139 5.593 11.28 5.04 1.88-.486 3.853-7.081 5.04-9.841 21.313-49.542 42.231-99.201 63.36-148.08 1.525-3.53 3.667-7.17 3.84-11.28-3.26-2.38-7.29-3.271-11.04-4.56zm-91.68-41.76c-.146.575-.346 1.095-.24 1.92 3.602 1.198 7.037 2.563 10.56 3.84.238-.723.85-1.071.721-2.16-3.62-1.257-6.76-2.993-11.04-3.6zm110.4 42.24c-.585 3.445 6.171 4.372 5.28-.72-1.54-1.624-4.92-1.395-5.28.72z"/><path d="M220.92 8.05c-2.699.588-3.894-.199-4.079-1.68-.6-4.852 7.67-2.111 4.08 1.68zm-3.36-1.92c.309 1.642 3.345 1.616 3.12-.48-.3-.82-1.121-1.119-2.4-.96.14.85-.84.59-.72 1.44z"/><path fill="#E4E5E6" d="M218.28 4.69c1.279-.159 2.101.14 2.4.96.225 2.096-2.812 2.122-3.12.48-.12-.85.86-.59.72-1.44z"/><path d="M407.64 78.85c-.173 4.11-2.314 7.75-3.84 11.28-21.129 48.879-42.047 98.538-63.36 148.08-1.188 2.76-3.16 9.354-5.04 9.841-2.142.553-9.643-4.195-11.28-5.04-24.972-12.897-49.04-26.539-73.92-39.601-20.3-10.657-42.158-22.494-63.36-33.84-3.333-1.784-7.391-3.572-10.8-5.52-2.354-1.345-9.381-4.325-9.84-6.24-.517-2.154 2.212-6.998 3.12-9.36 3.485-9.063 6.897-18.786 10.08-27.36 9.034-24.335 18.378-48.059 27.6-72 3.307-8.585 6.768-17.807 10.32-27.12 1.105-2.897 2.519-7.437 3.84-8.64 3.427-.272 8.52 1.977 12.96 3.6 26.919 9.841 54.648 19.223 81.36 28.56 27.481 9.607 53.687 19.36 81.12 28.8 3.75 1.289 7.78 2.18 11.04 4.56zM221.16 14.77c-18.102 47.498-36.689 94.51-54 142.8 6.477 4.528 13.649 7.801 20.64 11.52 49.021 26.08 97.952 52.579 147.12 78.24 2.483-2.879 3.328-6.674 4.801-10.08 10.547-24.399 21.237-48.797 31.439-73.439 11.65-28.14 24.697-55.793 35.761-84.24-3.217-2.473-7.342-3.24-11.04-4.56-3.852-1.375-7.672-2.721-11.521-4.08-46.321-16.362-92.021-33.059-138.72-48.96-6.775-2.307-16.989-6.358-23.76-7.92a1.24 1.24 0 0 0-.72.72z"/><path fill="#455560" d="M221.88 14.05c6.771 1.562 16.984 5.613 23.76 7.92 46.699 15.901 92.398 32.598 138.72 48.96 3.849 1.359 7.669 2.706 11.521 4.08 3.698 1.32 7.823 2.087 11.04 4.56-11.063 28.447-24.11 56.1-35.761 84.24-10.202 24.643-20.893 49.04-31.439 73.439-1.473 3.406-2.317 7.201-4.801 10.08-49.168-25.661-98.099-52.16-147.12-78.24-6.991-3.719-14.163-6.992-20.64-11.52 17.311-48.29 35.898-95.302 54-142.8.14-.346.38-.586.72-.72zm4.32 62.64c-2.911.533-5.922.325-8.64 1.68 20.159-3.201 42.688-7.4 62.88-11.04 4.632-.835 9.395-.829 13.68-2.64-22.69 3.913-45.58 7.911-67.92 12zm-24 12.24c38.881-6.849 80.586-13.321 119.76-20.64 1.197-.224 3.398-.156 2.64-.96-40.18 7.301-82.1 13.814-122.4 21.6zm148.32 17.04c-19.742 3.707-40.88 7.019-60.72 10.8-1.637.312-3.67.32-5.04 1.44 22.018-3.996 45.306-7.989 66.72-12 3.143-.589 6.445-.508 9.36-1.92-3.66.61-6.71 1-10.32 1.68zm-110.16 23.04c-2.517.377-5.19.391-7.44 1.68 20.355-3.742 41.035-6.612 61.44-10.56 20.482-3.962 41.222-6.46 61.2-11.04-38.31 5.94-77.28 14.24-115.2 19.92zm2.88 46.08c25.645-4.276 51.303-8.538 76.32-13.44-25.67 4.25-51.35 8.49-76.32 13.44zm91.92-7.68c-20.379 3.58-41.294 7.228-60.96 10.8-1.305.237-3.283-.063-4.319 1.2 23.071-4.059 46.764-8.256 69.6-12.48 2.205-.408 4.769-.155 6.72-1.44-3.87.52-7.18 1.24-11.04 1.92zm-45.84 5.04c-16.841 2.728-33.523 5.585-49.68 8.4-1.847.321-3.846-.127-5.521 1.2 24.575-4.108 49.408-7.836 73.2-12.48-6.4.7-11.91 1.89-18 2.88z"/><path d="M315.96 36.13c.129 1.089-.482 1.438-.721 2.16-3.522-1.277-6.958-2.642-10.56-3.84-.105-.825.095-1.345.24-1.92 4.28.607 7.42 2.343 11.04 3.6zm-1.2.96c-2.127-1.874-6.346-2.934-9.12-3.36 3 1.16 6.05 2.276 9.12 3.36z"/><path fill="#E4E5E6" d="M305.64 33.73c2.774.426 6.993 1.486 9.12 3.36-3.07-1.084-6.12-2.2-9.12-3.36z"/><path d="M294.12 64.69c-4.285 1.811-9.048 1.805-13.68 2.64-20.191 3.64-42.721 7.839-62.88 11.04 2.718-1.354 5.729-1.146 8.64-1.68 22.34-4.089 45.23-8.087 67.92-12zM324.6 67.33c.759.804-1.442.736-2.64.96-39.175 7.319-80.88 13.791-119.76 20.64 40.3-7.786 82.22-14.299 122.4-21.6zM420.6 74.05c.891 5.092-5.865 4.166-5.28.72.36-2.115 3.74-2.344 5.28-.72zm-1.68 2.64c.377-.583.895-1.025.72-2.16-2.42-2.509-5.26 2.643-.72 2.16z"/><path fill="#E4E5E6" d="M419.64 74.53c.175 1.135-.343 1.578-.72 2.16-4.54.483-1.7-4.669.72-2.16z"/><path d="M360.84 104.29c-2.915 1.412-6.218 1.331-9.36 1.92-21.414 4.011-44.702 8.004-66.72 12 1.37-1.12 3.403-1.128 5.04-1.44 19.84-3.782 40.978-7.093 60.72-10.8 3.61-.68 6.66-1.07 10.32-1.68zM355.56 109.09c-19.979 4.58-40.718 7.078-61.2 11.04-20.405 3.948-41.085 6.818-61.44 10.56 2.25-1.289 4.924-1.303 7.44-1.68 37.92-5.68 76.89-13.98 115.2-19.92z"/><path fill="#E4E5E6" d="M159.96 161.65c.149.929.199.988-.24 1.68-.955.155-.965-.635-1.92-.479-.45-1.65 1.26-1.61 2.16-1.2z"/><path d="M319.56 161.65c-25.018 4.902-50.676 9.164-76.32 13.44 24.97-4.95 50.65-9.19 76.32-13.44zM151.08 162.61c-.049.751.162 1.762-.24 2.16-.389.36-1.771.36-2.16 0-1.22-1.87 1.03-3.55 2.4-2.16zm-1.92 1.2c.315.308.885.308 1.2 0 .041-.601-.369-.751-.72-.96-.12.35-.35.61-.48.96z"/><path fill="#E4E5E6" d="M149.64 162.85c.351.208.761.359.72.96-.315.308-.885.308-1.2 0 .13-.35.36-.61.48-.96z"/><path d="M346.2 165.49c-1.951 1.285-4.515 1.032-6.72 1.44-22.836 4.224-46.528 8.421-69.6 12.48 1.036-1.263 3.015-.963 4.319-1.2 19.666-3.573 40.581-7.221 60.96-10.8 3.86-.68 7.17-1.4 11.04-1.92z"/><path fill="#E4E5E6" d="M150.6 172.21c-1.283 1.677-3.496 2.424-5.04 3.84-4.355-2.205-8.607-4.513-12.72-6.96 1.421-1.459 3.75-2.01 5.28-3.36 4.24 2.08 8.31 4.34 12.48 6.48zM141.72 175.57c-1.923.609-3.27 1.812-5.04 2.88-1.366.824-3.624 2.825-5.04 2.88-1.661.065-3.692-2.024-5.28-2.88-1.96-1.057-3.738-1.723-5.28-2.88 3.072-2.368 7.213-3.667 10.32-6 3.68 1.77 7.32 3.56 10.32 6z"/><path d="M307.32 169.57c-23.792 4.644-48.625 8.372-73.2 12.48 1.675-1.327 3.674-.878 5.521-1.2 16.156-2.815 32.839-5.673 49.68-8.4 6.09-.99 11.6-2.18 18-2.88zM164.28 170.29c.393.82.281 2.067-.24 2.64-.751-.049-1.762.162-2.16-.24-1.04-1.42.05-3.01 2.4-2.4zm-.96 1.92c.202-.279.317-.644.24-1.2h-.96c-.04.69-.02 1.31.72 1.2z"/><path fill="#E4E5E6" d="M162.6 171.01h.96c.077.557-.039.921-.24 1.2-.74.11-.76-.51-.72-1.2zM162.12 178.69c-1.356 1.523-3.301 2.459-4.8 3.84-3.922-1.598-6.804-4.236-10.8-5.76 1.245-1.635 3.527-2.233 4.8-3.84 3.88 1.64 6.88 4.16 10.8 5.76zM153.48 182.05c-3.685 1.835-7.2 3.84-10.8 5.76-3.572-1.629-6.583-3.817-10.08-5.52 2.834-2.686 6.847-4.193 10.08-6.48 3.71 1.98 7.92 3.44 10.8 6.24zM135.72 185.41c-3.752 1.848-7.057 4.143-10.8 6-5.502-2.818-10.521-6.119-15.84-9.12 3.163-2.357 7.123-3.917 10.32-6.24 5.78 2.79 11.3 5.83 16.32 9.36zM295.08 232.69c.215 1.415-.543 1.856-.96 2.64-1.333.066-1.778-.385-2.88 0-33.918-18.323-68.029-36.448-102-54.72.544-1.216 1.45-2.07 1.68-3.6 34.76 18.52 69.69 36.87 104.16 55.68zM183.24 178.21c.545.255.092 1.508.24 2.16-.966.074-1.435.646-1.68 1.44-.462-.338-.965-.634-1.68-.72.62-1.38 2.26-1.75 3.12-2.88zM173.4 184.93c-1.06 1.821-3.281 2.479-4.8 3.84-3.604-1.676-6.997-3.563-10.32-5.52 1.103-1.697 3.335-2.266 4.56-3.84 3.83 1.53 6.9 3.83 10.56 5.52zM290.76 236.05c-.062 1.138-1.814.586-2.88.72-.621.339-1.145.775-.96 1.92-32.884-17.163-65.208-35.639-98.161-53.04-2.072-1.094-4.577-2.094-6-4.08 1.981-.686 2.845-.166 5.28-.72 33.99 18.66 68.52 36.77 102.72 55.2zM154.44 182.05c3.067 2.052 6.428 3.812 9.84 5.52-3.028 2.651-6.648 4.712-10.08 6.96-3.123-2.477-7.382-3.817-10.32-6.48 3.73-1.8 7.54-3.51 10.56-6zM126.36 193.33c-3.52 2.56-7.496 4.665-11.28 6.959-5.698-4.062-12.239-7.281-18-11.28 3.44-2.32 7.252-4.267 11.04-6.24 6.16 3.44 11.88 7.33 18.24 10.56zM147.48 191.41c-3.117 2.723-7.595 4.086-11.04 6.48-3.927-1.354-6.549-4.011-10.32-5.521 2.97-2.789 7.273-4.246 10.56-6.72 3.58 1.94 6.97 4.07 10.8 5.76zM185.16 191.89c-1.776 1.024-3.202 2.398-4.8 3.6-3.86-1.74-7.134-4.066-10.8-6 1.78-.99 3.096-3.541 5.04-3.6 1.304-.039 3.807 1.969 5.52 2.88 2.05 1.09 3.96 2.01 5.04 3.12zM176.04 194.29c-3.015 2.584-6.741 4.459-10.08 6.72-3.697-1.743-7.007-3.873-10.56-5.761 2.924-1.918 6.164-5.199 9.36-6.72 1.385-.659 4.914 2.107 6.24 2.88 1.82 1.06 3.4 1.94 5.04 2.88zM119.4 203.89c-2.57 1.853-5.12 3.489-8.16 5.52-.846.565-2.206 1.663-2.88 1.68-1.457.037-4.655-2.644-6.24-3.6-5.989-3.613-13.163-7.887-18-11.52 3.997-2.003 7.711-4.289 11.52-6.48 8.14 4.59 15.88 9.56 23.76 14.4zM197.4 198.37c-1.354 1.606-3.347 2.573-5.04 3.84-3.672-2.007-7.318-4.041-11.04-6 1.289-1.671 3.316-2.604 4.8-4.08 3.91 1.93 7.49 4.2 11.28 6.24zM159.48 198.61c-3.355 2.404-7.063 4.457-10.56 6.72-3.985-2.095-7.815-4.345-11.76-6.479 3.234-2.687 7.633-4.208 11.28-6.48 4.08 1.68 7.26 4.26 11.04 6.24zM137.64 200.05c-3.57 2.51-7.298 4.861-11.52 6.72-3.146-2.215-7.042-3.679-9.84-6.24 3.807-1.953 7.319-4.201 10.8-6.48 3.92 1.61 6.91 4.13 10.56 6zM188.76 201.25c-3.519 2.321-7.154 4.525-10.8 6.721-3.836-2.084-7.748-4.093-11.04-6.721 3.608-1.752 6.678-4.041 9.84-6.239 4.34 1.74 7.87 4.3 12 6.24zM92.525 202.45c-1.527 1.615-3.732 2.558-6 3.84-1.83 1.035-4.545 3.341-6.48 3.36-3.323.033-6.646-5.048-9.84-5.76 3.984-2.656 8.579-4.701 12.72-7.2 3.357 1.76 6.1 4.14 9.6 5.76zM170.52 204.85c-3.364 2.556-7.467 4.373-11.04 6.72-3.506-1.534-6.273-3.807-9.6-5.52 3.203-2.638 7.268-4.412 10.56-6.961 3.28 2.01 6.79 3.77 10.08 5.76zM210.36 205.57c-1.077 1.803-3.06 2.7-4.56 4.08-4.494-1.905-8.173-4.627-12.48-6.72 1.407-1.474 3.472-2.288 4.8-3.841 4.46 1.79 8.13 4.35 12.24 6.48zM150.36 207.25c-3.55 2.69-8.228 4.253-12 6.721-3.789-1.972-7.135-4.385-10.8-6.48 3.514-2.405 7.424-4.416 11.04-6.72 4.04 2.05 7.78 4.39 11.76 6.48zM201.48 208.45c-3.227 2.533-6.983 4.537-10.56 6.72-4.273-1.887-7.93-4.39-12-6.479 3.223-2.617 7.417-4.264 10.56-6.96 4.04 2.2 7.88 4.6 12 6.72zM93.245 203.17c3.642 2.118 7.092 4.428 10.8 6.48-3.936 2.784-8.67 4.771-12.72 7.439-3.914-1.605-6.557-4.482-10.32-6.239 3.476-3.17 8.717-4.57 12.245-7.68zM68.045 203.89c4.003 1.916 7.666 4.174 10.8 6.96-.746.448-1.738-.562-2.16-1.2-3.164-1.64-6.381-3.22-8.64-5.76zM131.16 210.61c-3.353 3.047-7.867 4.933-11.52 7.68-3.632-1.808-6.796-4.084-10.08-6.239 2.896-3.104 7.16-4.841 10.56-7.44 4.16 1.53 7.15 4.21 11.04 6zM255.96 327.73c-21.841 17.119-42.752 35.168-64.08 52.8-5.544 1.791-9.93-2.616-13.44-5.28-9.753-7.401-19.872-15.027-29.76-22.319-19.763-14.576-40.377-30.12-59.521-44.4 5.286-.446 1.005-3.734-1.92-6-2.334-1.808-7.242-5.622-6.24-.72-17.709-12.556-38.905-28.367-58.08-42.96-4.688-3.568-9.392-7.146-14.64-10.8-2.305-1.605-5.501-3.112-5.28-5.761.175-2.094 2.482-2.466 3.36-4.319 20.509-10.611 40.11-22.13 60.24-33.12h.48c62.921 41.01 126.29 81.57 188.88 122.88zM53.64 236.29c13.797.305 27.227.05 43.2-.239-13.572-.17-28.062-.11-43.2.24zm25.92.48c-16.434 0-37.061.438-50.16.479-.261.098-.178.198.24.24 8.877.887 18.618 0 28.08 0H85.8c-1.768-.69-4.051-.72-6.24-.72zm-59.76 2.64c13.611.101 35.56-.064 54 0-21.469-1-31.312-.11-54 0zm49.2 1.92c-.27.051-.374.267-.48.48 8.777.248 18.427-.12 29.76 0-8.994-1.11-19.857-.17-29.28-.48zm97.675 38.4c-.212-1.043-3.136-2.899-4.56-3.84-11.978-7.91-25.358-16.468-36-24-2.824-.241-5.804-.27-7.92.72-3.73 1.743-7.303 4.702-11.04 6.96-11.355 6.862-23.469 13.533-33.84 20.64a20.957 20.957 0 0 0-1.2 4.32c.51.609.711 1.529 1.2 2.16 9.988 7.78 23.159 16.916 33.6 24.96 1.573 1.212 3.125 3.171 4.56 3.84 2.274 1.06 5.939.541 7.44-.24 4.581-2.384 9.266-6.451 14.16-8.88.517-.202-.09-1.529.48-1.68 10.328-6.712 20.064-14.017 30.72-20.4.76-1.49 2.91-2.09 2.4-4.56zm20.4 32.4c10.398-.397 18 .354 28.8 0 .818-.027 1.625-.418 2.16-.24-1.096-.363-1.596.02-2.879 0-13.51-.214-27.49-.037-40.32.24 3.65.59 8.62.14 12.24 0zm-35.28 1.2c2.585 1.227 9.246.24 13.68.24 5.077 0 9.14-.115 11.76-.24h29.04c.422-.138 1.41.29 1.44-.239h-27.36c-9.527.098-21.291-.226-28.32.239-.06-.03-.17.03-.24 0zm38.16 4.32c.307.014.333.308.72.24h22.32c2.534 0 5.593.585 6.96-.721-9.84.32-20.95-.64-30 .48zm-48.72 4.32c-.876-.001-2.511-.421-3.36.479 19.94.172 35.6-.308 54.72-.24-17.23-1.12-35.64-.22-51.36-.24zM182.76 211.81c-2.899 2.941-6.897 4.782-10.08 7.439-4.145-2.415-8.826-4.294-12.24-7.439 3.986-1.773 7.36-4.159 11.04-6.24 3.99 1.86 7.28 4.41 11.28 6.24zM222.6 212.29c-1.622 1.095-2.729 3.866-4.561 4.08-1.433.168-4.031-1.902-5.76-2.88-2.196-1.242-4.108-2.244-5.52-3.12 1.353-1.607 3.202-2.718 4.8-4.08 3.75 1.93 7.28 4.08 11.04 6zM161.64 214.21c-3.068 2.853-7.122 4.719-10.56 7.2-3.945-2.215-7.845-4.475-11.76-6.72 3.471-2.689 8.276-4.044 11.76-6.72 3.76 1.85 7.01 4.2 10.56 6.24zM213.72 215.41c-1.324 1.492-3.105 2.344-5.04 3.601-1.413.917-3.677 3.25-5.28 3.359-1.727.118-4.193-2.224-5.76-3.12-2.164-1.238-3.906-2.065-5.76-3.119 3.029-2.812 7.172-4.508 10.56-6.961 3.85 2 7.6 4.08 11.28 6.24zM114.84 216.61c-3.651 3.068-8.097 5.343-12 8.16-3.679-2.321-7.693-4.308-10.8-7.2 4.217-2.423 8.691-4.589 12.72-7.2 3.61 1.83 6.78 4.1 10.08 6.24zM142.68 217.57c-2.125 2.233-5.014 3.353-7.92 5.28-1.093.725-2.591 2.383-3.6 2.399-1.542.026-3.937-2.326-5.28-3.119-1.979-1.169-3.641-1.979-5.28-3.12 3.332-2.908 7.701-4.779 11.28-7.44 4.06 1.54 6.84 4.36 10.8 6zM194.76 219.25c-3.06 2.62-6.608 4.752-9.6 7.44-4.09-2.069-7.859-4.461-11.76-6.72 3.252-2.293 6.774-5.22 10.08-7.2.784-.47 5.109 2.225 6.24 2.88 1.99 1.15 3.81 2.17 5.04 3.6zM237.48 220.69c-1.223 1.737-3.386 2.534-4.561 4.32-4.68-2.521-9.11-5.289-13.92-7.681 1.056-1.824 3.036-2.725 4.32-4.319 5.11 2.18 9.38 5.19 14.16 7.68zM174.12 221.65c-3.322 2.838-7.469 4.852-11.28 7.2-3.557-2.283-7.235-4.445-10.8-6.72 3.164-2.757 7.305-4.535 10.56-7.2 4.19 1.9 7.96 4.2 11.52 6.72zM226.92 222.61c-2.896 3.023-6.799 5.04-10.319 7.44-4.199-2.042-7.96-4.521-12-6.721.685-1.563 2.896-2.268 4.56-3.359a140.81 140.81 0 0 0 5.52-3.84c4.38 1.87 8.02 4.46 12.24 6.48zM129.96 225.73c-3.772 3.348-8.612 5.628-12.96 8.4-4.754-2.606-8.715-6.006-13.44-8.641 3.809-2.911 8.185-5.255 12-8.16 5.09 2.51 9.55 5.65 14.4 8.4zM155.4 225.73c-3.607 2.713-7.582 5.059-11.52 7.439-4.069-2.33-8.301-4.499-11.76-7.439 4.019-2.381 7.768-5.032 11.76-7.44 3.72 2.6 8.29 4.35 11.52 7.44zM208.44 226.69c-1.322 1.603-3.086 2.469-5.04 3.84-1.379.968-3.669 3.49-5.28 3.601-1.836.125-4.347-2.363-6-3.36-2.196-1.325-4.079-2.276-6-3.36 2.851-2.683 6.289-5.412 9.36-7.68.782-.577 5.738 2.682 6.96 3.359 2.26 1.25 4.14 2.45 6 3.6zM250.68 227.89c-1.358 1.842-3.316 3.083-5.28 4.319-3.75-2.41-7.863-4.456-11.76-6.72 1.3-1.58 3.212-2.548 4.56-4.08 4.59 1.73 8.19 4.45 12.48 6.48zM186.12 228.37c-2.063 2.932-7.231 5.045-10.32 7.92a122.506 122.506 0 0 1-11.52-6.96c3.497-2.503 7.352-4.648 11.04-6.96 3.88 1.73 6.97 4.23 10.8 6zM240.84 230.53c-3.216 2.705-6.902 4.938-10.32 7.44-4.493-2.227-8.581-4.859-12.96-7.2 3.431-2.489 6.908-4.933 10.56-7.2 4.41 2.15 8.33 4.79 12.72 6.96zM168.6 233.17c-3.862 2.699-8.128 4.992-12 7.681-4.271-1.97-7.494-4.986-11.76-6.96 3.882-2.599 7.779-5.182 11.76-7.681 4.12 2.2 7.98 4.66 12 6.96zM195.48 266.29c-4.375 3.545-9.254 6.586-14.16 9.601-20.954-13.766-42.191-27.25-63.12-41.04 3.911-3.13 8.563-5.517 12.96-8.16 21.69 12.95 42.96 26.33 64.32 39.6zM222.36 234.37c-3.508 2.732-7.437 5.044-11.04 7.681-4.305-2.096-8.024-4.776-12.24-6.961 3.033-2.967 7.051-4.948 10.32-7.68 4.66 1.98 8.36 4.93 12.96 6.96zM265.56 236.05a26.873 26.873 0 0 1-4.8 4.319c-4.855-2.345-9.246-5.153-14.16-7.439 1.833-1.112 3.238-3.943 5.28-4.08 1.72-.116 4.881 2.428 6.96 3.6 2.61 1.47 4.96 2.66 6.72 3.6zM199.8 236.77c-3.403 2.677-7.204 4.956-11.04 7.2-4.364-2.037-8.111-4.689-12.24-6.96 3.265-2.896 7.237-5.083 10.8-7.681 4.43 2.21 8.46 4.82 12.48 7.44zM254.76 238.21c-3.085 2.995-7.133 5.028-10.561 7.681-4.408-2.232-8.562-4.718-12.72-7.2 2.961-2.88 6.971-4.709 10.08-7.44 4.74 1.99 8.63 4.82 13.2 6.96zM181.56 241.09a174.35 174.35 0 0 1-12.24 7.921c-3.813-2.667-8.134-4.826-12-7.44 3.77-2.791 8.096-5.023 12-7.68 4.44 2.05 8.07 4.89 12.24 7.2zM235.8 242.29c-3.194 2.966-6.986 5.334-10.32 8.16-4.403-2.557-8.827-5.093-13.2-7.68 3.168-2.912 7.344-4.817 10.561-7.681 4.8 1.93 8.51 4.93 12.96 7.2z"/><path d="M96.845 236.05c-15.973.289-29.403.544-43.2.239 15.138-.35 29.628-.41 43.2-.24zM85.805 237.49h-28.08c-9.461 0-19.202.887-28.08 0-.418-.042-.501-.143-.24-.24 13.099-.041 33.726-.479 50.16-.479 2.189 0 4.472.03 6.24.72z"/><path fill="#E4E5E6" d="M279.96 243.97c-.643.883-1.674 1.468-2.641 2.159-.91.651-2.005 1.869-2.88 1.921-1.455.085-4.673-2.343-6.479-3.36-2.459-1.385-4.513-2.727-6.24-3.601 1.341-1.618 3.213-2.706 4.56-4.319 4.86 2.11 8.95 4.97 13.68 7.2zM214.2 244.93c-3.647 2.672-7.557 5.083-11.28 7.68-4.644-2.236-8.598-5.162-12.96-7.68 3.074-3.087 7.355-4.965 11.04-7.44 4.8 2.08 8.61 5.15 13.2 7.44zM289.56 237.49c-.259.542-.901.699-1.2 1.2-1.08-.41.06-1.56 1.2-1.2z"/><path d="M73.805 239.41c-18.44-.064-40.389.101-54 0 22.688-.11 32.531-1 54 0z"/><path fill="#E4E5E6" d="M268.68 245.89c-3.018 3.062-6.982 5.178-10.32 7.92-4.669-2.131-8.777-4.822-13.2-7.2 3.141-2.94 7.273-4.887 10.561-7.68 4.6 2.05 8.36 4.93 12.96 6.96z"/><path d="M98.285 241.81c-11.333-.12-20.982.248-29.76 0 .106-.214.21-.43.48-.48 9.423.31 20.286-.63 29.28.48z"/><path fill="#E4E5E6" d="M194.52 248.77c-3.136 3.504-7.748 5.532-11.28 8.64-4.566-2.233-8.401-5.198-12.72-7.68 3.571-3.149 8.258-5.182 12-8.16 4.04 2.37 8 4.81 12 7.2zM249.24 250.21c-3.255 2.905-6.892 5.429-10.56 7.921-4.335-2.226-8.572-4.549-12.24-7.44 3.549-2.451 6.84-5.16 10.32-7.68 4.28 2.29 8.58 4.55 12.48 7.2zM1.085 244.69c2.181.698 1.249 4.511 1.44 7.2-1.306-1.57-1.299-4.46-1.44-7.2zM294.84 252.13c-1.293 1.748-3.37 2.711-4.801 4.32-5.272-2.087-9.651-5.068-14.399-7.68 1.267-1.773 3.631-2.449 5.04-4.08 5.08 2.13 9.2 5.21 14.16 7.44zM227.4 252.61c-3.412 2.908-7.151 5.488-10.8 8.16-4.522-2.198-8.505-4.935-12.72-7.44 3.21-3.029 7.778-4.701 10.8-7.92 4.46 2.18 8.31 4.97 12.72 7.2z"/><path fill="#E4E5E6" d="M2.765 246.61c.85-.13.59.85 1.44.72v7.92c-2.407-.95-1.112-5.61-1.44-8.64zM283.32 254.53c-3.645 2.436-6.747 5.413-10.56 7.68-4.502-2.698-9.601-4.8-13.44-8.159 3.525-2.315 6.911-4.77 10.08-7.44 4.73 2.55 9.74 4.82 13.92 7.92zM4.685 248.05c9.248 6.032 17.219 13.341 26.4 19.439v2.88c.994.034.25-1.67.48-2.399 1.34.18.906 2.133.96 3.6.701-.259-.221-2.142.48-2.4 2.06 1.461.449 6.592.96 9.601-10.03-7.25-20.123-14.438-29.28-22.561v-8.16zm.72 4.8c1.205-.306.983-3.692 0-3.601v3.6z"/><path d="M306.84 248.29c2.967-.886 6.21.045 6.479 2.4.53 4.621-8.981 5.147-9.12.479-.03-1.19.98-2.38 2.64-2.88zm4.56 2.64c-.176-1.963-4.849-2.116-5.28.239.73 2.22 5.48 1.98 5.28-.24zM5.405 249.25c.983-.092 1.205 3.295 0 3.601v-3.6z"/><path fill="#E4E5E6" d="M208.68 257.41c-3.7 3.101-8.111 5.489-12 8.4-4.359-2.441-8.21-5.391-12.72-7.68 3.611-3.109 7.915-5.525 11.52-8.641 4.45 2.6 8.87 5.22 13.2 7.92zM306.12 251.17c.432-2.355 5.104-2.202 5.28-.239.2 2.22-4.55 2.46-5.28.24zM264.36 259.09c-3.781 2.378-7.099 5.221-10.8 7.68-5.011-2.189-9.003-5.397-13.92-7.68 3.179-3.142 7.28-5.36 10.56-8.4 4.91 2.62 10.14 4.91 14.16 8.4zM295.56 252.85c4.588 2.771 9.876 4.844 13.92 8.16-1.791 1.169-3.104 2.816-4.8 4.08-4.729-2.712-9.977-4.904-13.92-8.4 1.87-1.01 3.28-2.49 4.8-3.84zM241.32 261.01c-3.315 3.004-6.84 5.8-10.56 8.399-4.515-2.445-8.611-5.309-13.2-7.68 2.964-3.356 7.265-5.376 10.56-8.4 4.66 2.31 8.73 5.19 13.2 7.68zM133.08 303.97c-14.962-9.998-29.526-20.395-43.92-30.96 8.11-5.256 17.541-10.901 26.16-16.08 2.362-1.42 5.704-4.297 9.84-3.12 1.477.42 3.419 2.141 5.28 3.359 8.872 5.811 16.277 10.544 25.44 16.801 2.347 1.603 9.463 4.961 9.12 7.68-.261 2.072-6.015 4.386-7.92 5.76-7.96 5.75-16.1 11.14-24 16.56zM298.44 262.69c-2.873 3.127-6.36 5.64-9.6 8.4-5.388-2.293-9.86-5.501-14.88-8.16 3.153-3.006 7.05-5.27 10.319-8.16 4.84 2.53 9.43 5.3 14.16 7.92zM336.36 257.89c-.036 1.194.36 1.43-.24 2.16-.926-.439-2.42-1.572-2.159-2.4.75-.63 1.79-.01 2.4.24zM222.36 265.57c-3.116 3.604-7.607 5.832-11.28 8.88-4.624-2.337-9.771-5.429-13.2-8.16 3.534-3.186 8.231-5.209 11.76-8.399 4.16 2.65 8.58 5.03 12.72 7.68zM265.56 259.09c4.44 2.839 9.115 5.444 13.92 7.92-3.427 3.133-7.504 5.615-11.04 8.64-4.791-2.569-9.289-5.432-13.92-8.16 3.46-3.03 7.46-5.51 11.04-8.4z"/><path d="M332.28 263.65c-.874 1.245-3.383 1.129-4.56.24-.118-.842-.358-1.562-.24-2.641 1.56-2.21 6.33-1.17 4.8 2.4zm-3.84-.72c.611.429.894 1.187 2.16.96.811-.767 1.455-1.489.72-2.641-1.3-.53-3.28-.24-2.88 1.68z"/><path fill="#E4E5E6" d="M331.32 261.25c.735 1.151.091 1.874-.72 2.641-1.267.227-1.549-.531-2.16-.96-.4-1.92 1.58-2.21 2.88-1.68zM325.32 269.17c-1.291 1.989-3.428 3.132-5.28 4.561-5.119-2.32-9.379-5.501-14.399-7.92 1.199-1.841 3.308-2.772 4.56-4.561 5.44 2.25 9.72 5.64 15.12 7.92zM256.68 269.89c-3.501 3.06-7.727 5.394-11.28 8.399-4.585-2.614-9.202-5.197-13.439-8.159 3.238-3.082 6.891-5.749 10.56-8.4 4.76 2.68 9.44 5.44 14.16 8.16zM319.08 274.45c-3.149 3.01-6.65 5.67-9.84 8.641-6.757-3.403-12.82-7.5-19.439-11.04 2.734-3.346 6.437-5.724 9.6-8.641 6.7 3.54 13.21 7.28 19.68 11.04zM334.92 265.09c.279-.039.428.053.48.239-.255 10.037-9.55 15.396-16.56 21.12-12.19 9.955-24.109 20.502-36.24 30.72-16.503 13.902-32.836 27.531-48.48 40.561-.284-2.366-.657-6.896.24-8.88 1.075.605.193 3.167.48 4.56 1.465-1.095-.785-5.904 1.68-6 .024 2.301-.146 5.506 0 7.44.963-1.649-.447-5.111.24-7.44.406-1.375 3.986-3.606 6-5.279 22.795-18.945 44.802-36.877 67.439-55.921 5.802-4.88 12.306-10.193 18.48-15.359 2.36-1.97 4.8-3.69 6.24-5.76zm-12 13.2c-22.666 18.56-45.151 38.205-67.681 56.16-1.515 1.208-4.39 2.364-3.84 5.04 2.462.281 4.095-1.819 5.76-3.12a207.625 207.625 0 0 0 5.04-4.08c21.354-17.795 43.015-35.617 64.32-53.04 1.555-1.271 4.375-2.335 4.08-5.04-2.9-.51-5.53 2.32-7.68 4.08zM237.24 274.45c-2.399 2.166-6.156 4.684-8.64 6.48-.59.427-2.594 2.597-3.36 2.64-.756.042-3.717-2.365-4.56-2.88-3.134-1.913-5.812-3.48-8.88-5.521 3.898-2.901 7.674-5.926 11.76-8.64 4.99 2.22 8.85 5.55 13.68 7.92zM212.76 277.09c-4.344 3.655-9.054 6.946-13.68 10.319-5.499-3.461-10.742-7.178-16.32-10.56 1.149-2.033 4.012-3.063 6.24-4.561 2.244-1.506 4.306-3.582 6.72-4.56.085-.315.423-.378.48-.72 5.82 3.06 11.23 6.53 16.56 10.08zM294.36 275.65c-2.922 3.479-6.99 5.81-10.08 9.12-5.343-2.497-9.77-5.911-15.12-8.4 3.386-3.175 7.559-5.562 11.04-8.64 4.94 2.43 9.43 5.3 14.16 7.92zM34.445 270.37h.72c.995 1.405.25 4.551.48 6.721 1.087-.913.184-3.816.48-5.521 2.565 1.536.148 6.5 1.2 9.36-1.016.444-1.767-1.207-2.88-1.44v-9.12zM271.32 278.53c-3.32 3.08-6.816 5.983-10.32 8.88-5.237-2.521-9.693-5.826-14.88-8.399 3.45-3.11 7.738-5.383 11.28-8.4 5.11 2.17 9.17 5.4 13.92 7.92zM38.045 281.65c.559-2.241.081-5.52.24-8.16 3.826 2.09 7.073 5.102 10.56 7.68 24.243 17.929 48.668 36.474 72.48 55.2 1.742.339 2.435 1.726 3.84 2.4v2.88c.994.034.25-1.67.48-2.4 1.523-.003.788 2.252.96 3.601 1.011-.029.238-1.842.48-2.641 2.359 1.481.708 6.972 1.2 10.32-29.277-21.684-58.03-43.889-86.88-66v-2.88c-.87.17-.331 1.749-.48 2.64-.999-.601-.246-2.954-.48-4.319-1.053.307-.208 2.511-.48 3.6-.599-.681-1.57-.99-2.16-1.68v-8.88c.552 1.45.094 5.99.245 8.64zm52.8 34.08c-4.735-3.738-8.366-6.594-12.96-10.08-2.677-2.032-5.883-5.138-8.88-4.32-1.332 1.161-.285 2.813.24 4.08 7.088 4.431 13.504 9.697 19.92 14.641 2.05 1.579 4.54 4.29 7.68 3.6 1.649-4.17-3.281-5.77-6-7.92zM131.88 304.45c-1.783 1.513-4.319 2.953-6.96 4.561-2.358 1.435-4.928 3.466-7.2 4.319-4.389 1.65-7.628-1.326-10.56-3.6-9.521-7.386-19.22-14.766-29.52-22.32-1.797-1.318-3.975-3.098-4.08-4.319-.532-6.182 13.702-1.604 18.72-3.36-4.72-.56-10.479-.08-15.6-.24 2.929-2.591 6.511-4.528 9.84-6.72 15.41 10.27 30.08 21.29 45.36 31.68zm-46.795-22.56c1.921-.158 4.478.317 6-.24-2.729-.31-4.031-.38-6 .24zm31.675 20.16c2.251-.869 6.786.545 8.64-.721h-9.36c-.16.65.5.46.72.72zm-10.56 1.2h21.12c-6.02-.8-15.34-.79-21.12 0zm5.04 1.68c2.414-.307 6.062.622 7.68-.48-2.43.29-6.03-.59-7.68.48z"/><path d="M330.6 274.21c.295 2.705-2.525 3.77-4.08 5.04-21.306 17.423-42.966 35.245-64.32 53.04a209.579 209.579 0 0 1-5.04 4.08c-1.665 1.301-3.298 3.401-5.76 3.12-.55-2.676 2.325-3.832 3.84-5.04 22.529-17.955 45.015-37.601 67.681-56.16 2.15-1.76 4.78-4.59 7.68-4.08zm-1.68.72c-.37.469-1.383.698-1.681.96-23.737 20.837-51.295 41.706-75.12 62.64 3.856-1.733 6.868-4.812 10.08-7.439 20.998-17.172 42.164-34.808 62.88-51.841 1.58-1.299 3.771-2.274 4.561-4.319h-.72z"/><path fill="#E4E5E6" d="M329.64 274.93c-.789 2.045-2.98 3.021-4.561 4.319-20.716 17.033-41.882 34.669-62.88 51.841-3.212 2.627-6.224 5.706-10.08 7.439 23.825-20.934 51.383-41.803 75.12-62.64.298-.262 1.311-.491 1.681-.96h.72zM251.4 283.09c-3.863 3.256-7.68 6.56-12 9.359-4.424-2.696-8.515-5.726-13.2-8.16 3.467-3.493 8.053-5.867 11.761-9.12 4.67 2.46 8.93 5.31 13.44 7.92zM308.04 283.81c-3.405 3.074-7.096 5.864-10.56 8.88-4.325-2.235-8.11-5.01-12.48-7.2 2.979-3.421 7.062-5.739 10.08-9.12 4.59 2.21 8.8 4.81 12.96 7.44zM227.4 285.97c-4.415 3.665-8.825 7.335-13.44 10.8-5.056-2.464-9.143-5.897-13.92-8.64 4.27-3.811 9.338-6.822 13.68-10.561 4.61 2.76 9.18 5.54 13.68 8.4zM296.28 293.17c-2.876 3.765-7.089 6.191-10.56 9.36-7.85-4.87-16.024-9.415-23.76-14.399 2.962-3.278 6.801-5.68 9.84-8.881 8.76 4.05 16.35 9.25 24.48 13.92z"/><path d="M91.085 281.65c-1.522.558-4.079.082-6 .24 1.969-.62 3.271-.55 6-.24z"/><path fill="#E4E5E6" d="M285 303.01c-3.944 3.335-7.793 6.767-12 9.84-10.87-6.409-21.476-13.085-32.159-19.681 3.399-3.479 7.659-6.101 11.279-9.359 11.49 5.87 21.64 13.09 32.88 19.2zM242.52 295.33c-1.963 1.957-4.471 3.37-6.48 5.28-4.697-2.902-9.287-5.913-14.159-8.64 1.808-2.032 4.193-3.486 6.239-5.28 5.2 2.49 9.38 5.98 14.4 8.64zM234.84 300.85c-.896 2.08-4.277 3.712-6.24 5.52-4.829-2.61-9.023-5.856-13.68-8.64 1.42-2.34 4.181-3.339 6-5.28 4.8 2.65 9.19 5.69 13.92 8.4zM257.16 304.21c-1.462 2.299-4.025 3.495-6 5.28-5.044-2.396-9.177-5.703-14.16-8.16 1.602-2.239 4.379-3.302 6.24-5.279 4.92 2.44 9.11 5.61 13.92 8.16zM81.965 300.13c.279-.039.427.053.48.239 1.698.575 3.051 2.217 4.56 3.36 1.336 1.013 3.711 1.774 3.6 3.6-3.226-.863-6.123-4.11-8.88-6.239-.102-.5.164-.63.24-.96z"/><path d="M96.845 323.65c-3.14.69-5.63-2.021-7.68-3.6-6.416-4.943-12.832-10.21-19.92-14.641-.525-1.267-1.572-2.919-.24-4.08 2.997-.817 6.203 2.288 8.88 4.32 4.594 3.486 8.225 6.342 12.96 10.08 2.719 2.15 7.649 3.75 6 7.92zm-27.6-21.36c.635 3.686 4.27 4.37 6.72 6.24 3.145 3.016 6.852 5.468 10.56 7.92 1.46 1.38 3.6 3.339 5.52 4.8 1.034.787 3.083 2.542 4.32 1.2-1.336.245-.433-.784-.72-1.2-.527-.762-2.162-1.906-3.12-2.64-4.621-3.535-11.068-7.85-15.6-11.28-1.78-1.347-5.785-4.444-5.52-5.279-.751.05-1.762-.16-2.16.24zM116.04 301.33h9.36c-1.854 1.266-6.389-.148-8.64.721-.22-.26-.88-.07-.72-.72z"/><path fill="#E4E5E6" d="M249.96 310.21c-1.877 2.283-4.508 3.812-6.72 5.761-4.879-2.642-9.278-5.762-13.68-8.88 1.808-2.033 4.343-3.338 6.24-5.28 5.04 2.48 9.57 5.47 14.16 8.4zM71.405 302.05c-.265.835 3.74 3.933 5.52 5.279 4.532 3.431 10.979 7.745 15.6 11.28.958.733 2.593 1.878 3.12 2.64.287.416-.617 1.445.72 1.2-1.236 1.342-3.286-.413-4.32-1.2-1.92-1.461-4.06-3.42-5.52-4.8-3.708-2.452-7.416-4.904-10.56-7.92-2.45-1.87-6.085-2.555-6.72-6.24.398-.4 1.409-.19 2.16-.24z"/><path d="M127.32 303.25H106.2c5.78-.79 15.1-.8 21.12 0zM118.92 304.45c-1.618 1.103-5.267.174-7.68.48 1.65-1.07 5.25-.19 7.68-.48z"/><path fill="#E4E5E6" d="M272.04 313.33c-1.459 2.222-3.915 3.444-5.76 5.28-5.077-2.522-9.39-5.811-14.399-8.4 1.998-1.762 4.184-3.336 6.239-5.04 5.09 2.28 8.95 5.78 13.92 8.16zM265.08 319.33c-2.107 2.293-4.572 4.228-7.199 6-4.914-2.606-9.244-5.796-13.92-8.64 2.301-1.939 4.649-3.83 6.96-5.76 5.08 2.44 9.64 5.41 14.16 8.4z"/><path d="M174.84 312.13c12.83-.277 26.811-.454 40.32-.24 1.284.02 1.784-.363 2.879 0-.535-.178-1.342.213-2.16.24-10.8.354-18.401-.397-28.8 0-3.62.14-8.59.59-12.24 0zM152.04 313.33c7.029-.465 18.792-.142 28.32-.239h27.36c-.03.529-1.018.102-1.44.239h-29.04c-2.62.125-6.683.24-11.76.24-4.435 0-11.095.986-13.68-.24.07.03.18-.03.24 0zM219.96 317.17c-1.367 1.306-4.427.721-6.96.721h-22.32c-.388.067-.414-.227-.72-.24 9.05-1.12 20.16-.16 30-.48zM192.6 322.21c-19.12-.067-34.78.412-54.72.24.849-.9 2.484-.48 3.36-.479 15.72.02 34.13-.88 51.36.24z"/><path fill="#E4E5E6" d="M128.76 341.65c.739-.179.461.659 1.2.48v6.72c.993-1.167.25-4.07.48-6 2.073 1.606.439 6.92.96 10.08-.993-.527-1.915-1.126-2.64-1.92v-9.36z"/><path fill="#E4E5E6" d="M131.88 344.05c1.084 2.035.186 6.054.48 8.88.559-2.241.081-5.52.24-8.16 17.178 12.021 33.439 24.961 50.16 37.439.023 3.463-.08 5.718 0 8.881-4.61-1.567-8.212-5.202-12-8.16-11.376-8.885-23.405-17.599-35.04-26.4v-3.12c-1.294-.095.335 2.735-.96 2.641-.675-1.005.206-3.566-.48-4.561-.554.727-.084 2.476-.24 3.601-3.63-.77-1.66-7.13-2.16-11.04zM233.16 350.05c-.172 2.071 1.009 5.337.24 7.92-.536 1.802-5.118 4.731-7.2 6.479-2.726 2.29-5.045 4.485-7.2 6.24-8.164 6.649-14.874 12.597-22.8 18.72v-8.88c12.371-9.709 23.998-20.162 36.48-29.76v6.479c1.15-1.5.06-5.66.48-7.2z"/><path fill="#E4E5E6" d="M195.24 381.25c.593 3.474 2.314 9.867-2.4 10.32.135-3.14-.09-6.059.24-8.64.688.032-.208 1.647.48 1.68.729-.391-.42-2.66.96-2.4.157 1.523-.316 3.677.24 4.801.67-1.41-.16-4.33.48-5.76zM183.72 382.93c1.211 1.27-.1 5.061.72 6.72.558-1.603.082-4.238.24-6.24.756-.115.543.737 1.44.48-.108 2.365.066 5.407 0 8.399-1.237.117-2.012-.229-2.64-.72.32-3.63.14-4.91.24-8.64zM191.64 383.65c.792 2.693-.013 6.24.48 8.16-1.217 1.381-4.034 1.259-5.76.479.308-2.571-.624-6.384.48-8.159 1.024.095.229 2.011.48 2.88 1.011-.029.238-1.842.48-2.641h1.68c.159 2.162-.318 4.958.24 6.721.559-1.842.082-4.719.24-6.96.43-.29 1.4-.04 1.68-.48zM328.44 268.69c-1.229-2.104-3.811-2.549-5.76-3.6-13.484-7.27-27.345-15.537-41.04-23.04-7.891-4.323-15.894-8.562-23.76-12.961-39.057-21.838-78.768-43.167-118.08-64.799 2.974-1.954 5.668-4.02 11.04-3.36 2.874.353 5.812 2.181 8.64 3.6 7.473 3.751 16.781 8.99 23.52 12.48-1.059 1.661-3.261 2.179-4.32 3.84 17.896 10.216 36.076 20.02 54.239 30 18.093 9.94 36.552 19.395 54.721 29.28 2.01-.871 3.193-2.566 4.56-4.08 11.091 6.05 21.799 11.961 33.601 18.239 3.794 2.019 12.293 5.663 8.399 10.801-.906 1.195-3.017 2.477-4.56 3.84-4.119 3.637-9.386 7.583-13.44 11.04-35.447 30.224-71.341 58.646-107.04 88.8-2.655 2.242-5.609 4.743-8.88 7.439-2.791 2.302-6.981 6.262-9.36 6.96-4.46 1.311-6.995-1.446-10.08-3.6-4.964-3.465-10.565-8.238-15.12-11.52-7.211-5.196-13.846-10.972-20.16-15.36-14.277-9.926-27.539-20.167-40.56-30.24-27.146-20.999-53.936-40.694-80.64-60.96 25.84 18.182 52.323 39.158 80.16 59.521 13.432 9.825 26.289 20.279 40.08 30 6.612 4.66 13.206 9.984 20.16 14.88 4.758 3.349 9.861 7.843 14.88 11.52 2.761 2.023 5.914 5.438 11.28 4.32 2.588-.539 6.052-4.446 8.4-6.48 7.99-6.923 16.713-13.42 24.48-19.92 11.045-9.242 21.389-18.053 32.159-26.88.898-.709 1.241-.012 1.921-.24-1.155-1.963-3.473-2.927-5.28-4.079-20.476-13.057-41.243-26.641-61.68-40.08-7.424-4.883-14.822-9.893-22.32-14.641-28.29-17.912-56.386-36.005-84.48-54.479-1.647-1.083-3.764-2.37-4.8-3.841 7.933 4.23 15.047 9.623 22.56 14.4 7.439 4.73 14.901 9.522 22.08 14.641 45.259 28.182 88.884 57.993 133.92 86.399 23.276-18.724 46.046-37.953 68.88-57.12-45.211-26.07-91.704-50.854-137.28-76.56 12.416 6.278 24.699 13.334 36.96 20.16 16.908 9.412 34.031 18.532 51.12 27.84 16.97 9.24 33.56 19.31 50.88 27.84zM148.68 164.77c.389.36 1.771.36 2.16 0 .402-.398.191-1.409.24-2.16-1.37-1.39-3.62.29-2.4 2.16zm13.2 7.92c.398.402 1.409.191 2.16.24.521-.572.633-1.82.24-2.64-2.35-.61-3.44.98-2.4 2.4zm142.32 78.48c.139 4.668 9.65 4.142 9.12-.479-.27-2.355-3.513-3.286-6.479-2.4-1.66.5-2.67 1.69-2.64 2.88zm23.28 10.08c-.118 1.078.122 1.799.24 2.641 1.177.889 3.686 1.005 4.56-.24 1.53-3.57-3.24-4.61-4.8-2.4z"/><path d="M336.12 268.21c-1.637 7.224-5.531 9.613-11.04 14.16-20.619 17.021-39.724 34.249-60.479 51.36-17.529 14.451-34.412 29.095-52.32 43.68-4.281 3.487-8.543 7.409-12.96 11.04-2.332 1.917-5.284 4.819-8.64 5.28-4.808.66-7.729-1.517-11.28-2.64-28.57-22.827-59.058-44.506-89.04-67.921-14.38-11.229-29.542-22.566-44.64-33.84-7.114-5.312-14.438-11.282-22.32-17.04-1.789-1.307-3.586-2.784-5.52-4.319-7.963-6.321-19.196-10.428-17.76-25.44.833-3.089 5.084-4.695 9.36-6.96 21.036-11.142 41.919-23.514 62.4-34.8 21.714-11.966 41.414-22.688 62.64-34.8 1.463-.834 3.052-1.528 4.56-2.4 3.707-2.143 9.892-5.639 15.6-2.4 20.364-52.757 39.84-106.4 60.24-159.12 6.305-4.937 15.11.295 21.6 2.64 12.312 4.447 25.4 8.604 37.68 12.72 15.962 5.349 32.537 12.016 49.44 17.52 25.2 8.207 49.339 17.392 74.88 25.92 3.633 1.213 8.004 2.998 12.24 4.56 4.35 1.604 10.105 2.682 12 4.56 1.202 1.192 1.858 3.193 1.68 6.24-.234 4.004-2.538 8.732-4.32 12.96-18.558 44.038-38.39 88.249-56.88 132.48-5.07 12.131-10.389 23.964-15.6 36-1.668 3.853-3.175 7.88-6.24 10.8-1.51.81-4.12 1.07-5.28-.24zM227.64 3.25c6.32 2.298 13.172 4.752 18.96 6.72 26.166 8.894 50.615 17.523 76.32 26.4 29.562 10.208 59.365 20.382 88.8 30.96 4.501 1.618 10.652 3.396 11.04 6.96.685 6.306-2.952 11.018-5.04 15.84-22.339 51.592-44.773 103.39-66.721 154.32-3.393 7.875-6.079 16.139-10.8 23.28 4.954-3.492 6.027-9.945 8.641-15.84 1.736-3.917 3.587-7.837 5.279-11.76 22.245-51.544 44.277-102.62 66.24-154.08 1.679-3.934 4.188-10.217 2.88-13.68-.959-2.54-7.326-4.529-11.04-5.76-29.702-9.848-58.369-20.275-87.359-30.48-29.359-10.335-58.466-19.945-87.36-30.24-5.514-1.964-10.708-4.768-16.8-4.8 2.49.209 4.42 1.232 6.96 2.16zm114 260.64c1.106-1.869 1.903-4.194 2.64-6 1.62-3.97 3.635-8.162 5.28-12 10.344-24.121 20.935-49.099 31.2-72.96 6.71-15.599 14.312-32.162 21.12-48.24 5.157-12.181 10.113-24.039 15.6-36.24 1.749-3.89 4.854-9.116 4.56-12.96-.354-4.612-7.279-6.08-12.479-7.92-12.461-4.409-25.651-8.934-37.44-13.2-25.443-9.207-50.778-17.215-75.12-26.16-20.74-7.622-41.77-14.066-62.88-21.6-4.286-1.53-8.727-4.017-12.479-4.56-7.674-1.11-8.288 6.511-10.32 11.76-14.095 36.409-27.571 72.781-40.8 108.72-4.29 11.653-9.106 23.159-13.2 34.32-.551 1.502-1.353 3.139-1.2 4.8.906.437 2.376-2.639 4.56-.72.676 1.037-.159 2.893 0 3.36 8.426 3.734 15.754 8.565 24 12.48-.375 1.035-.147 2.173 0 3.36 4.399.959 4.7-2.18 6-4.32 32.083 16.888 66.307 35.42 98.88 52.8 3.806 2.03 9.256 3.513 5.04 7.68 12.485 7.035 25.401 13.639 37.68 20.88 1.444-.416 2.733-1.214 4.08-.479 2.336 1.273.307 3.299 0 4.8-.476 2.334-.217 4.753.72 6 2.42.49 3.72-2.17 4.56-3.6zm-64.08-23.04c-17.089-9.308-34.212-18.428-51.12-27.84-12.261-6.826-24.544-13.882-36.96-20.16 45.576 25.705 92.069 50.489 137.28 76.56-22.834 19.167-45.604 38.396-68.88 57.12-45.037-28.406-88.661-58.218-133.92-86.399-7.179-5.118-14.641-9.91-22.08-14.641-7.513-4.777-14.627-10.17-22.56-14.4 1.037 1.471 3.153 2.758 4.8 3.841 28.094 18.475 56.19 36.567 84.48 54.479 7.498 4.748 14.896 9.758 22.32 14.641 20.437 13.439 41.205 27.023 61.68 40.08 1.808 1.152 4.125 2.116 5.28 4.079-.68.229-1.022-.469-1.921.24-10.771 8.827-21.114 17.638-32.159 26.88-7.768 6.5-16.49 12.997-24.48 19.92-2.348 2.034-5.812 5.941-8.4 6.48-5.366 1.118-8.519-2.297-11.28-4.32-5.02-3.677-10.123-8.171-14.88-11.52-6.954-4.896-13.547-10.22-20.16-14.88-13.792-9.721-26.648-20.175-40.08-30-27.837-20.362-54.32-41.339-80.16-59.521 26.704 20.266 53.494 39.961 80.64 60.96 13.021 10.073 26.283 20.314 40.56 30.24 6.313 4.389 12.948 10.164 20.16 15.36 4.555 3.281 10.156 8.055 15.12 11.52 3.085 2.153 5.62 4.91 10.08 3.6 2.379-.698 6.569-4.658 9.36-6.96 3.271-2.696 6.226-5.197 8.88-7.439 35.699-30.154 71.592-58.576 107.04-88.8 4.055-3.457 9.321-7.403 13.44-11.04 1.543-1.363 3.653-2.645 4.56-3.84 3.894-5.138-4.605-8.782-8.399-10.801-11.802-6.278-22.51-12.189-33.601-18.239-1.366 1.514-2.55 3.209-4.56 4.08-18.169-9.886-36.628-19.34-54.721-29.28-18.163-9.98-36.344-19.784-54.239-30 1.059-1.661 3.261-2.18 4.32-3.84-6.739-3.49-16.047-8.729-23.52-12.48-2.828-1.419-5.767-3.248-8.64-3.6-5.372-.659-8.066 1.406-11.04 3.36 39.313 21.632 79.024 42.961 118.08 64.799 7.866 4.399 15.869 8.638 23.76 12.961 13.695 7.503 27.556 15.771 41.04 23.04 1.949 1.051 4.53 1.495 5.76 3.6-17.32-8.53-33.91-18.6-50.88-27.84zm-119.76-78c.955-.155.965.635 1.92.479.439-.691.39-.75.24-1.68-.9-.41-2.61-.45-2.16 1.2zm-19.68 2.88c-1.531 1.35-3.859 1.9-5.28 3.36 4.113 2.447 8.365 4.755 12.72 6.96 1.544-1.416 3.757-2.163 5.04-3.84-4.17-2.14-8.24-4.4-12.48-6.48zm-6.72 3.84c-3.107 2.333-7.248 3.632-10.32 6 1.542 1.157 3.32 1.823 5.28 2.88 1.588.856 3.619 2.945 5.28 2.88 1.417-.055 3.674-2.056 5.04-2.88 1.77-1.068 3.117-2.271 5.04-2.88-3-2.44-6.64-4.23-10.32-6zm19.92 3.36c-1.272 1.607-3.555 2.206-4.8 3.84 3.996 1.523 6.877 4.162 10.8 5.76 1.499-1.381 3.444-2.316 4.8-3.84-3.92-1.6-6.92-4.12-10.8-5.76zm-8.64 2.88c-3.233 2.287-7.246 3.794-10.08 6.48 3.497 1.703 6.508 3.891 10.08 5.52 3.6-1.92 7.115-3.925 10.8-5.76-2.88-2.8-7.09-4.26-10.8-6.24zm-23.28.24c-3.197 2.323-7.157 3.883-10.32 6.24 5.319 3.001 10.338 6.302 15.84 9.12 3.743-1.857 7.047-4.152 10.8-6-5.02-3.53-10.54-6.57-16.32-9.36zm71.52.96c-.23 1.53-1.136 2.384-1.68 3.6 33.971 18.271 68.082 36.396 102 54.72 1.102-.385 1.547.066 2.88 0 .417-.783 1.175-1.225.96-2.64-34.47-18.81-69.4-37.16-104.16-55.68zm-10.8 4.08c.714.086 1.217.382 1.68.72.246-.795.714-1.367 1.68-1.44-.148-.651.305-1.904-.24-2.16-.86 1.13-2.5 1.5-3.12 2.88zm-17.28-1.68c-1.225 1.575-3.457 2.143-4.56 3.84 3.323 1.957 6.716 3.844 10.32 5.52 1.519-1.361 3.74-2.02 4.8-3.84-3.66-1.69-6.73-3.99-10.56-5.52zm25.2 1.44c-2.436.554-3.299.034-5.28.72 1.423 1.986 3.928 2.986 6 4.08 32.953 17.401 65.277 35.877 98.161 53.04-.185-1.145.339-1.581.96-1.92 1.065-.134 2.817.418 2.88-.72-34.2-18.43-68.73-36.54-102.72-55.2zm-44.16 7.2c2.938 2.663 7.197 4.003 10.32 6.48 3.432-2.248 7.052-4.309 10.08-6.96-3.412-1.708-6.772-3.468-9.84-5.52-3.02 2.49-6.83 4.2-10.56 6zm-35.76-5.28c-3.788 1.973-7.6 3.92-11.04 6.24 5.761 3.999 12.302 7.218 18 11.28 3.784-2.295 7.76-4.399 11.28-6.959-6.36-3.23-12.08-7.12-18.24-10.56zm67.92 2.4c-.751-.139-1.673-1.353-2.16-.96.67.23 1.6 1.43 2.16.96zm-39.36.48c-3.287 2.474-7.59 3.931-10.56 6.72 3.771 1.51 6.393 4.167 10.32 5.521 3.445-2.395 7.923-3.757 11.04-6.48-3.83-1.69-7.22-3.82-10.8-5.76zm43.44 3.12c-1.713-.912-4.216-2.919-5.52-2.88-1.944.059-3.26 2.61-5.04 3.6 3.666 1.934 6.94 4.26 10.8 6 1.598-1.202 3.024-2.576 4.8-3.6-1.08-1.11-2.99-2.03-5.04-3.12zm-9.12 2.64c-1.327-.772-4.855-3.539-6.24-2.88-3.196 1.521-6.436 4.801-9.36 6.72 3.553 1.888 6.863 4.018 10.56 5.761 3.339-2.261 7.065-4.136 10.08-6.72-1.64-.94-3.22-1.82-5.04-2.88zm-75.355-1.92c-3.809 2.192-7.523 4.478-11.52 6.48 4.837 3.633 12.011 7.906 18 11.52 1.585.956 4.783 3.637 6.24 3.6.674-.017 2.034-1.114 2.88-1.68 3.041-2.03 5.59-3.667 8.16-5.52-7.88-4.84-15.62-9.81-23.755-14.4zm93.595 2.88c-1.435-.647-3.237-2.199-4.56-2.16 1.54.55 3.28 2.16 4.56 2.16zm-3.12-.24c-1.484 1.476-3.511 2.409-4.8 4.08 3.722 1.959 7.368 3.993 11.04 6 1.693-1.267 3.687-2.233 5.04-3.84-3.79-2.04-7.37-4.31-11.28-6.24zm-37.68.24c-3.647 2.272-8.046 3.794-11.28 6.48 3.945 2.135 7.775 4.385 11.76 6.479 3.497-2.263 7.205-4.315 10.56-6.72-3.78-1.98-6.96-4.56-11.04-6.24zm-21.36 1.68c-3.481 2.279-6.993 4.527-10.8 6.48 2.798 2.562 6.694 4.025 9.84 6.24 4.222-1.858 7.95-4.21 11.52-6.72-3.65-1.87-6.64-4.39-10.56-6zm49.68.96c-3.162 2.198-6.232 4.487-9.84 6.239 3.292 2.628 7.204 4.637 11.04 6.721 3.646-2.195 7.281-4.399 10.8-6.721-4.13-1.94-7.66-4.5-12-6.24zm-93.835 1.68c-4.141 2.499-8.736 4.544-12.72 7.2 3.194.712 6.518 5.793 9.84 5.76 1.935-.02 4.65-2.325 6.48-3.36 2.268-1.282 4.473-2.225 6-3.84-3.5-1.62-6.243-4-9.6-5.76zm77.515 2.4c-3.292 2.549-7.357 4.323-10.56 6.961 3.327 1.713 6.094 3.985 9.6 5.52 3.573-2.347 7.676-4.164 11.04-6.72-3.29-1.99-6.8-3.75-10.08-5.76zm37.68 0c-1.329 1.553-3.393 2.367-4.8 3.841 4.307 2.093 7.986 4.814 12.48 6.72 1.5-1.38 3.483-2.277 4.56-4.08-4.11-2.13-7.78-4.69-12.24-6.48zm-59.52 1.68c-3.616 2.304-7.526 4.314-11.04 6.72 3.665 2.096 7.011 4.509 10.8 6.48 3.772-2.468 8.45-4.03 12-6.721-3.98-2.09-7.72-4.43-11.76-6.48zm50.88.96c-3.144 2.696-7.337 4.343-10.56 6.96 4.07 2.09 7.727 4.593 12 6.479 3.577-2.183 7.333-4.187 10.56-6.72-4.12-2.12-7.96-4.52-12-6.72zM81 210.85c3.763 1.757 6.406 4.634 10.32 6.239 4.05-2.669 8.784-4.655 12.72-7.439-3.708-2.053-7.158-4.362-10.8-6.48-3.523 3.11-8.764 4.51-12.235 7.68zm-4.32-1.2c.421.638 1.414 1.648 2.16 1.2-3.134-2.786-6.796-5.044-10.8-6.96 2.259 2.54 5.476 4.12 8.64 5.76zm43.435-5.04c-3.4 2.6-7.665 4.336-10.56 7.44 3.284 2.155 6.448 4.432 10.08 6.239 3.652-2.747 8.167-4.633 11.52-7.68-3.89-1.79-6.88-4.47-11.04-6zm-53.035.24h-.48c-20.13 10.99-39.731 22.509-60.24 33.12-.878 1.854-3.185 2.226-3.36 4.319-.221 2.648 2.975 4.155 5.28 5.761 5.249 3.653 9.952 7.231 14.64 10.8 19.175 14.593 40.371 30.404 58.08 42.96-1.002-4.902 3.906-1.088 6.24.72 2.925 2.266 7.206 5.554 1.92 6 19.144 14.28 39.757 29.824 59.521 44.4 9.888 7.292 20.007 14.918 29.76 22.319 3.51 2.664 7.896 7.071 13.44 5.28 21.328-17.632 42.239-35.681 64.08-52.8-62.6-41.31-125.97-81.87-188.88-122.88zm104.4.72c-3.68 2.081-7.054 4.467-11.04 6.24 3.414 3.146 8.095 5.024 12.24 7.439 3.183-2.657 7.181-4.498 10.08-7.439-4-1.83-7.29-4.38-11.28-6.24zm40.08.72c-1.598 1.362-3.448 2.473-4.8 4.08 1.412.876 3.324 1.878 5.52 3.12 1.729.978 4.327 3.048 5.76 2.88 1.832-.214 2.938-2.985 4.561-4.08-3.76-1.92-7.29-4.07-11.04-6zm-60.48 1.68c-3.484 2.676-8.29 4.03-11.76 6.72 3.915 2.245 7.815 4.505 11.76 6.72 3.438-2.481 7.492-4.348 10.56-7.2-3.55-2.04-6.8-4.39-10.56-6.24zm51.36 1.2c-3.388 2.453-7.531 4.149-10.56 6.961 1.854 1.054 3.596 1.881 5.76 3.119 1.566.896 4.033 3.238 5.76 3.12 1.603-.109 3.867-2.442 5.28-3.359 1.934-1.257 3.716-2.108 5.04-3.601-3.68-2.16-7.43-4.24-11.28-6.24zm-97.68 1.2c-4.028 2.611-8.502 4.777-12.72 7.2 3.107 2.893 7.121 4.879 10.8 7.2 3.903-2.817 8.349-5.092 12-8.16-3.3-2.14-6.47-4.41-10.08-6.24zm27.12 1.2c-3.579 2.661-7.948 4.532-11.28 7.44 1.639 1.141 3.301 1.951 5.28 3.12 1.343.793 3.737 3.146 5.28 3.119 1.009-.017 2.507-1.675 3.6-2.399 2.907-1.928 5.795-3.047 7.92-5.28-3.96-1.64-6.74-4.46-10.8-6zm57.84 4.08c-1.13-.655-5.456-3.35-6.24-2.88-3.306 1.98-6.828 4.907-10.08 7.2 3.901 2.259 7.67 4.65 11.76 6.72 2.992-2.688 6.54-4.82 9.6-7.44-1.23-1.43-3.05-2.45-5.04-3.6zm33.6-2.64c-1.284 1.595-3.265 2.495-4.32 4.319 4.81 2.392 9.24 5.16 13.92 7.681 1.175-1.786 3.338-2.583 4.561-4.32-4.78-2.49-9.05-5.5-14.16-7.68zm-60.72 1.92c-3.255 2.665-7.396 4.443-10.56 7.2 3.565 2.274 7.243 4.437 10.8 6.72 3.812-2.349 7.958-4.362 11.28-7.2-3.56-2.52-7.33-4.82-11.52-6.72zm52.08 1.2a140.81 140.81 0 0 1-5.52 3.84c-1.664 1.092-3.875 1.796-4.56 3.359 4.04 2.2 7.801 4.679 12 6.721 3.521-2.4 7.423-4.417 10.319-7.44-4.22-2.02-7.86-4.61-12.24-6.48zm-99.12 1.2c-3.815 2.905-8.191 5.249-12 8.16 4.725 2.635 8.686 6.034 13.44 8.641 4.348-2.772 9.188-5.053 12.96-8.4-4.85-2.75-9.31-5.89-14.4-8.4zm28.32.96c-3.992 2.408-7.741 5.06-11.76 7.44 3.459 2.94 7.69 5.109 11.76 7.439 3.938-2.381 7.913-4.727 11.52-7.439-3.23-3.09-7.8-4.84-11.52-7.44zm58.56 4.8c-1.222-.678-6.178-3.937-6.96-3.359-3.071 2.268-6.509 4.997-9.36 7.68 1.921 1.084 3.804 2.035 6 3.36 1.653.997 4.164 3.485 6 3.36 1.611-.11 3.901-2.633 5.28-3.601 1.954-1.371 3.718-2.237 5.04-3.84-1.86-1.15-3.74-2.35-6-3.6zm35.76-1.68c-1.348 1.532-3.26 2.5-4.56 4.08 3.896 2.264 8.01 4.31 11.76 6.72 1.964-1.236 3.922-2.478 5.28-4.319-4.29-2.03-7.89-4.75-12.48-6.48zm-62.88.96c-3.688 2.312-7.543 4.457-11.04 6.96a122.506 122.506 0 0 0 11.52 6.96c3.089-2.875 8.257-4.988 10.32-7.92-3.83-1.77-6.92-4.27-10.8-6zm52.8 1.2c-3.651 2.268-7.129 4.711-10.56 7.2 4.379 2.341 8.467 4.974 12.96 7.2 3.418-2.502 7.104-4.735 10.32-7.44-4.39-2.17-8.31-4.81-12.72-6.96zm-71.52 2.64c-3.981 2.499-7.878 5.082-11.76 7.681 4.266 1.974 7.49 4.99 11.76 6.96 3.872-2.688 8.138-4.981 12-7.681-4.02-2.3-7.88-4.76-12-6.96zm-25.44.48c-4.396 2.644-9.049 5.03-12.96 8.16 20.929 13.79 42.166 27.274 63.12 41.04 4.906-3.015 9.785-6.056 14.16-9.601-21.36-13.27-42.63-26.65-64.32-39.6zm78.24.72c-3.269 2.731-7.287 4.713-10.32 7.68 4.215 2.185 7.935 4.865 12.24 6.961 3.604-2.637 7.532-4.948 11.04-7.681-4.6-2.03-8.3-4.98-12.96-6.96zm49.44 5.04c-2.079-1.172-5.24-3.716-6.96-3.6-2.042.137-3.447 2.968-5.28 4.08 4.914 2.286 9.305 5.095 14.16 7.439a26.912 26.912 0 0 0 4.8-4.319c-1.76-.94-4.11-2.13-6.72-3.6zm-71.52-3.12c-3.562 2.598-7.535 4.785-10.8 7.681 4.129 2.271 7.876 4.923 12.24 6.96 3.836-2.244 7.637-4.523 11.04-7.2-4.02-2.62-8.05-5.23-12.48-7.44zm54.24 1.92c-3.109 2.731-7.119 4.561-10.08 7.44 4.157 2.482 8.312 4.968 12.72 7.2 3.428-2.652 7.476-4.686 10.561-7.681-4.57-2.14-8.46-4.97-13.2-6.96zm-72.24 2.64c-3.904 2.656-8.23 4.889-12 7.68 3.866 2.614 8.187 4.773 12 7.44a174.35 174.35 0 0 0 12.24-7.921c-4.17-2.31-7.8-5.15-12.24-7.2zm53.52 1.2c-3.217 2.863-7.393 4.769-10.561 7.681 4.373 2.587 8.797 5.123 13.2 7.68 3.334-2.826 7.126-5.194 10.32-8.16-4.45-2.27-8.16-5.27-12.96-7.2zm43.44 1.68c-1.347 1.613-3.219 2.701-4.56 4.319 1.728.874 3.781 2.216 6.24 3.601 1.807 1.018 5.024 3.445 6.479 3.36.875-.052 1.97-1.27 2.88-1.921.967-.691 1.998-1.276 2.641-2.159-4.73-2.23-8.82-5.09-13.68-7.2zm-65.28.72c-3.685 2.476-7.966 4.354-11.04 7.44 4.362 2.518 8.316 5.443 12.96 7.68 3.723-2.597 7.632-5.008 11.28-7.68-4.59-2.29-8.4-5.36-13.2-7.44zm87.36 1.2c.299-.501.941-.658 1.2-1.2-1.14-.36-2.28.79-1.2 1.2zm-32.64.24c-3.287 2.793-7.42 4.739-10.561 7.68 4.423 2.378 8.531 5.069 13.2 7.2 3.338-2.742 7.303-4.857 10.32-7.92-4.6-2.03-8.36-4.91-12.96-6.96zm-254.16 2.4c-.486 1.364 1.065 3.723.72 2.641.054-.454-.271-.53-.24-.96v-1.681c.374.02.167-.697 0-.24-.053.19-.201.28-.48.24zm180.96.24c-3.742 2.979-8.429 5.011-12 8.16 4.318 2.481 8.153 5.446 12.72 7.68 3.532-3.107 8.145-5.136 11.28-8.64-4-2.39-7.96-4.83-12-7.2zm54.24 1.44c-3.48 2.52-6.771 5.229-10.32 7.68 3.668 2.892 7.905 5.215 12.24 7.44 3.668-2.492 7.305-5.016 10.56-7.921-3.9-2.65-8.2-4.91-12.48-7.2zM2.52 251.89c-.191-2.689.741-6.502-1.44-7.2.141 2.74.134 5.63 1.44 7.2zm278.16-7.2c-1.409 1.631-3.773 2.307-5.04 4.08 4.748 2.611 9.127 5.593 14.399 7.68 1.431-1.609 3.508-2.572 4.801-4.32-4.96-2.23-9.08-5.31-14.16-7.44zm-66 .72c-3.022 3.219-7.59 4.891-10.8 7.92 4.215 2.506 8.198 5.242 12.72 7.44 3.648-2.672 7.388-5.252 10.8-8.16-4.41-2.23-8.26-5.02-12.72-7.2zM4.2 255.25v-7.92c-.85.13-.59-.85-1.44-.72.328 3.03-.967 7.69 1.44 8.64zm265.2-8.64c-3.169 2.671-6.555 5.125-10.08 7.44 3.84 3.359 8.938 5.461 13.44 8.159 3.812-2.267 6.915-5.244 10.56-7.68-4.18-3.1-9.19-5.37-13.92-7.92zm-264.72 9.6c9.158 8.123 19.25 15.311 29.28 22.561-.511-3.009 1.1-8.14-.96-9.601-.701.259.221 2.142-.48 2.4-.054-1.467.38-3.42-.96-3.6-.23.729.514 2.434-.48 2.399v-2.88c-9.182-6.099-17.153-13.407-26.4-19.439v8.16zm190.8-6.72c-3.605 3.115-7.909 5.531-11.52 8.641 4.51 2.289 8.361 5.238 12.72 7.68 3.889-2.911 8.3-5.3 12-8.4-4.33-2.7-8.75-5.32-13.2-7.92zm54.72 1.2c-3.279 3.04-7.381 5.259-10.56 8.4 4.917 2.282 8.909 5.49 13.92 7.68 3.701-2.459 7.019-5.302 10.8-7.68-4.02-3.49-9.25-5.78-14.16-8.4zm-234.96 3.36c-.816-.153-1.636-1.552-2.16-1.2.654.22 2.56 2.23 2.16 1.2zm275.52 2.64c3.943 3.496 9.19 5.688 13.92 8.4 1.696-1.264 3.009-2.911 4.8-4.08-4.044-3.316-9.332-5.389-13.92-8.16-1.52 1.35-2.93 2.83-4.8 3.84zm-62.64-3.36c-3.295 3.024-7.596 5.044-10.56 8.4 4.589 2.371 8.686 5.234 13.2 7.68 3.72-2.6 7.244-5.396 10.56-8.399-4.47-2.49-8.54-5.37-13.2-7.68zm56.16 1.44c-3.27 2.891-7.166 5.154-10.319 8.16 5.02 2.659 9.492 5.867 14.88 8.16 3.239-2.761 6.727-5.273 9.6-8.4-4.73-2.62-9.32-5.39-14.16-7.92zm-263.04 4.32c-.356-.771-1.744-1.767-2.16-1.681.756.52 1.296 1.26 2.16 1.68zm312.72-1.44c-.261.828 1.233 1.961 2.159 2.4.601-.73.204-.966.24-2.16-.61-.25-1.65-.87-2.4-.24zm-124.32.24c-3.529 3.19-8.227 5.214-11.76 8.399 3.43 2.731 8.577 5.823 13.2 8.16 3.672-3.048 8.164-5.275 11.28-8.88-4.14-2.65-8.56-5.03-12.72-7.68zm44.88 9.6c4.631 2.729 9.129 5.591 13.92 8.16 3.536-3.024 7.613-5.507 11.04-8.64-4.805-2.476-9.479-5.081-13.92-7.92-3.58 2.89-7.58 5.37-11.04 8.4zm-230.4-6.48c-.513-.448-1.054-.867-1.68-1.2.189.62 1.327 1.54 1.68 1.2zm286.08.24c-1.252 1.788-3.36 2.72-4.56 4.561 5.021 2.419 9.28 5.6 14.399 7.92 1.853-1.429 3.989-2.571 5.28-4.561-5.4-2.28-9.68-5.67-15.12-7.92zm-67.68.48c-3.669 2.651-7.321 5.318-10.56 8.4 4.237 2.962 8.854 5.545 13.439 8.159 3.554-3.006 7.779-5.34 11.28-8.399-4.72-2.72-9.4-5.48-14.16-8.16zm56.88 1.68c-3.163 2.917-6.865 5.295-9.6 8.641 6.619 3.54 12.683 7.637 19.439 11.04 3.189-2.971 6.69-5.631 9.84-8.641-6.47-3.76-12.98-7.5-19.68-11.04zm29.28 7.44c-6.175 5.166-12.679 10.479-18.48 15.359-22.638 19.044-44.645 36.976-67.439 55.921-2.014 1.673-5.594 3.904-6 5.279-.688 2.329.723 5.791-.24 7.44-.146-1.935.024-5.14 0-7.44-2.465.096-.215 4.905-1.68 6-.287-1.393.595-3.954-.48-4.56-.897 1.983-.524 6.514-.24 8.88 15.645-13.029 31.978-26.658 48.48-40.561 12.131-10.218 24.05-20.765 36.24-30.72 7.01-5.725 16.305-11.083 16.56-21.12-.053-.187-.201-.278-.48-.239-1.44 2.07-3.88 3.79-6.24 5.76zm-105.12-4.32c-4.086 2.714-7.862 5.738-11.76 8.64 3.069 2.04 5.747 3.607 8.88 5.521.843.515 3.804 2.922 4.56 2.88.767-.043 2.771-2.213 3.36-2.64 2.483-1.797 6.24-4.314 8.64-6.48-4.83-2.37-8.69-5.7-13.68-7.92zm-27.36.48c-.057.342-.395.404-.48.72-2.414.978-4.476 3.054-6.72 4.56-2.229 1.497-5.091 2.527-6.24 4.561 5.579 3.382 10.822 7.099 16.32 10.56 4.626-3.373 9.335-6.664 13.68-10.319-5.33-3.55-10.74-7.02-16.56-10.08zm84 .72c-3.481 3.078-7.654 5.465-11.04 8.64 5.351 2.489 9.777 5.903 15.12 8.4 3.09-3.311 7.158-5.642 10.08-9.12-4.73-2.62-9.22-5.49-14.16-7.92zM34.44 279.49c1.113.233 1.864 1.885 2.88 1.44-1.052-2.86 1.365-7.824-1.2-9.36-.296 1.704.607 4.607-.48 5.521-.23-2.17.515-5.315-.48-6.721h-.72v9.12zm222.96-8.88c-3.542 3.018-7.83 5.29-11.28 8.4 5.187 2.573 9.643 5.878 14.88 8.399 3.504-2.896 7-5.8 10.32-8.88-4.75-2.52-8.81-5.75-13.92-7.92zm-219.6 2.4v8.88c.59.689 1.561.999 2.16 1.68.271-1.089-.573-3.293.48-3.6.234 1.365-.519 3.719.48 4.319.149-.891-.39-2.47.48-2.64v2.88c28.85 22.111 57.603 44.316 86.88 66-.491-3.349 1.159-8.839-1.2-10.32-.242.799.531 2.611-.48 2.641-.172-1.349.563-3.604-.96-3.601-.23.73.514 2.435-.48 2.4v-2.88c-1.405-.675-2.098-2.062-3.84-2.4-23.812-18.727-48.237-37.271-72.48-55.2-3.487-2.578-6.734-5.59-10.56-7.68-.159 2.641.319 5.919-.24 8.16-.146-2.65.312-7.19-.235-8.64zm200.16 2.16c-3.708 3.253-8.294 5.627-11.761 9.12 4.686 2.435 8.776 5.464 13.2 8.16 4.32-2.8 8.137-6.104 12-9.359-4.51-2.61-8.77-5.46-13.44-7.92zm57.12 1.2c-3.019 3.381-7.101 5.699-10.08 9.12 4.37 2.19 8.155 4.965 12.48 7.2 3.464-3.016 7.154-5.806 10.56-8.88-4.16-2.63-8.37-5.23-12.96-7.44zm-81.36 1.2c-4.341 3.738-9.41 6.75-13.68 10.561 4.777 2.742 8.864 6.176 13.92 8.64 4.615-3.465 9.025-7.135 13.44-10.8-4.5-2.86-9.07-5.64-13.68-8.4zm58.08 1.68c-3.039 3.201-6.878 5.603-9.84 8.881 7.735 4.984 15.91 9.529 23.76 14.399 3.471-3.169 7.684-5.596 10.56-9.36-8.13-4.67-15.72-9.87-24.48-13.92zm-19.68 4.56c-3.62 3.259-7.88 5.88-11.279 9.359 10.684 6.596 21.289 13.271 32.159 19.681 4.207-3.073 8.056-6.505 12-9.84-11.24-6.11-21.39-13.33-32.88-19.2zm-24 2.88c-2.046 1.794-4.432 3.248-6.239 5.28 4.872 2.727 9.462 5.737 14.159 8.64 2.01-1.91 4.518-3.323 6.48-5.28-5.02-2.66-9.2-6.15-14.4-8.64zm-7.2 5.76c-1.818 1.941-4.58 2.94-6 5.28 4.657 2.783 8.851 6.029 13.68 8.64 1.963-1.808 5.345-3.439 6.24-5.52-4.73-2.71-9.12-5.75-13.92-8.4zm22.32 3.6c-1.861 1.978-4.639 3.04-6.24 5.279 4.983 2.457 9.116 5.765 14.16 8.16 1.975-1.785 4.538-2.981 6-5.28-4.81-2.55-9-5.72-13.92-8.16zm-161.52 5.04c2.758 2.129 5.654 5.376 8.88 6.239.111-1.825-2.264-2.587-3.6-3.6-1.509-1.144-2.862-2.785-4.56-3.36-.053-.187-.201-.278-.48-.239-.076.33-.342.46-.24.96zm154.08.72c-1.897 1.942-4.433 3.247-6.24 5.28 4.401 3.118 8.801 6.238 13.68 8.88 2.212-1.948 4.843-3.478 6.72-5.761-4.59-2.93-9.12-5.92-14.16-8.4zm22.32 3.36c-2.056 1.704-4.241 3.278-6.239 5.04 5.01 2.59 9.322 5.878 14.399 8.4 1.845-1.836 4.301-3.059 5.76-5.28-4.97-2.38-8.83-5.88-13.92-8.16zm-7.2 5.76c-2.311 1.93-4.659 3.82-6.96 5.76 4.676 2.844 9.006 6.033 13.92 8.64 2.627-1.772 5.092-3.707 7.199-6-4.52-2.99-9.08-5.96-14.16-8.4zm-122.16 40.08c.726.794 1.647 1.393 2.64 1.92-.521-3.16 1.113-8.474-.96-10.08-.23 1.93.513 4.833-.48 6v-6.72c-.739.179-.461-.659-1.2-.48v9.36zm5.28 4.08c.155-1.125-.314-2.874.24-3.601.686.994-.195 3.556.48 4.561 1.295.095-.334-2.735.96-2.641v3.12c11.635 8.802 23.664 17.516 35.04 26.4 3.788 2.958 7.39 6.593 12 8.16-.08-3.163.023-5.418 0-8.881-16.721-12.479-32.981-25.418-50.16-37.439-.159 2.641.318 5.919-.24 8.16-.294-2.826.604-6.845-.48-8.88.5 3.91-1.47 10.27 2.16 11.04zm98.64 2.16v-6.479c-12.482 9.598-24.109 20.051-36.48 29.76v8.88c7.926-6.123 14.636-12.07 22.8-18.72 2.155-1.755 4.475-3.95 7.2-6.24 2.082-1.748 6.664-4.678 7.2-6.479.769-2.583-.412-5.849-.24-7.92-.42 1.54.67 5.7-.48 7.2zm-37.92 29.76c-.556-1.124-.083-3.277-.24-4.801-1.38-.26-.23 2.01-.96 2.4-.688-.032.208-1.647-.48-1.68-.331 2.581-.105 5.5-.24 8.64 4.714-.453 2.993-6.847 2.4-10.32-.64 1.43.19 4.35-.48 5.76zm-11.28 4.56c.628.491 1.403.837 2.64.72.066-2.992-.108-6.034 0-8.399-.897.257-.684-.596-1.44-.48-.159 2.002.317 4.638-.24 6.24-.82-1.659.491-5.45-.72-6.72-.1 3.73.08 5.01-.24 8.64zm6.48-7.44c-.159 2.241.318 5.118-.24 6.96-.558-1.763-.081-4.559-.24-6.721h-1.68c-.242.799.531 2.611-.48 2.641-.251-.869.544-2.785-.48-2.88-1.104 1.775-.172 5.588-.48 8.159 1.726.779 4.543.901 5.76-.479-.493-1.92.312-5.467-.48-8.16-.28.44-1.25.19-1.68.48z"/><path fill="#E4E5E6" d="M173.88 184.21c.487-.393 1.409.821 2.16.96-.56.47-1.49-.73-2.16-.96zM184.68 190.21c1.322-.039 3.125 1.513 4.56 2.16-1.28 0-3.02-1.61-4.56-2.16zM2.045 241.09c.167-.457.374.26 0 .24v1.681c-.031.43.293.506.24.96.345 1.082-1.206-1.276-.72-2.641.279.04.427-.05.48-.24zM13.085 252.85c.524-.352 1.344 1.047 2.16 1.2.4 1.03-1.506-.98-2.16-1.2z"/><path d="M164.28 284.29c-10.656 6.384-20.392 13.688-30.72 20.4-.57.15.037 1.478-.48 1.68-4.895 2.429-9.579 6.496-14.16 8.88-1.501.781-5.166 1.3-7.44.24-1.436-.669-2.987-2.628-4.56-3.84-10.441-8.044-23.612-17.18-33.6-24.96-.489-.631-.689-1.551-1.2-2.16.26-1.579.678-3.002 1.2-4.32 10.371-7.106 22.484-13.777 33.84-20.64 3.737-2.258 7.31-5.217 11.04-6.96 2.117-.989 5.097-.961 7.92-.72 10.642 7.532 24.022 16.09 36 24 1.424.94 4.348 2.797 4.56 3.84.51 2.47-1.64 3.07-2.4 4.56zm-7.2 3.12c1.905-1.374 7.659-3.688 7.92-5.76.343-2.719-6.773-6.077-9.12-7.68-9.163-6.257-16.568-10.99-25.44-16.801-1.861-1.219-3.803-2.939-5.28-3.359-4.136-1.177-7.478 1.7-9.84 3.12-8.619 5.179-18.05 10.824-26.16 16.08 14.394 10.565 28.958 20.962 43.92 30.96 7.9-5.42 16.04-10.81 24-16.56zm-54.96-23.52c5.558-3.242 11.132-6.469 16.32-10.08-5.57 3.23-11.14 6.45-16.32 10.08zm-4.555 2.64c.826-.374 1.581-.818 2.16-1.439-.837.36-1.721.68-2.16 1.44zm-5.28 3.12c.824-.542 2.851-1.142 2.64-1.92-.7.82-2.035 1.01-2.64 1.92zm-3.12 2.16c.583-.862 2.819-1.335 2.64-2.16-.583.86-2.819 1.33-2.64 2.16zm-2.64.96c-3.329 2.191-6.911 4.129-9.84 6.72 5.12.16 10.879-.319 15.6.24-5.018 1.757-19.252-2.821-18.72 3.36.105 1.222 2.283 3.001 4.08 4.319 10.3 7.555 19.999 14.935 29.52 22.32 2.932 2.273 6.171 5.25 10.56 3.6 2.272-.854 4.842-2.885 7.2-4.319 2.641-1.607 5.177-3.048 6.96-4.561-15.28-10.39-29.95-21.41-45.355-31.68zm-2.4 20.4c-3.265-2.176-6.722-5.437-9.84-6.96 3.154 2.29 6.806 5.35 9.84 6.96zm2.4 1.68c-.923-.046-1.635-1.553-2.16-1.2.562.41 1.532 1.65 2.16 1.2zm1.92 1.92c.064-.746-1.84-1.671-1.44-1.2.451.43.903.86 1.44 1.2zm4.08 2.64c-.904.087-1.87-1.996-2.16-.96.908-.02 1.448 1.58 2.16.96zM111 313.81c1.719 2.321 7.739 1.426 8.4-.48-1.61 1.8-6.88 1.22-8.4.48z"/><path fill="#E4E5E6" d="M118.44 253.81c-5.188 3.611-10.762 6.838-16.32 10.08 5.18-3.63 10.75-6.85 16.32-10.08zM19.085 257.41c.416-.086 1.804.909 2.16 1.681-.864-.42-1.404-1.16-2.16-1.68zM22.445 259.81c.626.333 1.167.752 1.68 1.2-.353.34-1.491-.58-1.68-1.2zM99.725 265.09c-.579.621-1.333 1.065-2.16 1.439.439-.76 1.323-1.08 2.16-1.44zM94.925 267.73c.211.778-1.816 1.378-2.64 1.92.605-.91 1.94-1.1 2.64-1.92zM91.805 269.65c.179.825-2.057 1.298-2.64 2.16-.179-.83 2.057-1.3 2.64-2.16zM74.285 286.21c3.118 1.523 6.576 4.784 9.84 6.96-3.034-1.61-6.686-4.67-9.84-6.96zM84.365 293.65c.525-.353 1.237 1.154 2.16 1.2-.628.45-1.598-.79-2.16-1.2zM87.005 295.57c-.4-.471 1.504.454 1.44 1.2-.537-.34-.989-.77-1.44-1.2zM90.365 298.45c.29-1.036 1.256 1.047 2.16.96-.712.62-1.252-.98-2.16-.96zM119.4 313.33c-.661 1.906-6.681 2.802-8.4.48 1.52.74 6.79 1.32 8.4-.48z"/></g></svg>