<?xml version="1.0" encoding="UTF-8" standalone="no"?>
<!DOCTYPE svg PUBLIC "-//W3C//DTD SVG 1.1//EN" "http://www.w3.org/Graphics/SVG/1.1/DTD/svg11.dtd">
<svg width="100%" height="100%" viewBox="0 0 255 101" version="1.1" xmlns="http://www.w3.org/2000/svg" xmlns:xlink="http://www.w3.org/1999/xlink" xml:space="preserve" xmlns:serif="http://www.serif.com/" style="fill-rule:evenodd;clip-rule:evenodd;stroke-linejoin:round;stroke-miterlimit:2;">
    <g id="layer1" transform="matrix(1,0,0,1,-370.83,-488.84)">
        <g transform="matrix(1.01938,0,0,1.06214,369.832,487.091)">
            <rect x="0.979" y="1.647" width="250.152" height="94.15" style="fill:white;"/>
        </g>
        <path id="path2834" d="M513.49,589.19C513.401,589.106 489.478,588.755 460.328,588.41L407.328,587.784L403.272,584.971C399.431,582.307 388.03,577.843 385.067,577.843C382.453,577.843 376.834,572.598 373.838,567.36C370.974,562.354 370.828,561.547 370.828,550.662C370.828,542.296 371.213,538.704 372.263,537.284C373.575,535.51 373.695,535.78 373.668,540.438C373.603,551.77 380.452,561 390.701,563.391C397.26,564.921 405.683,568.759 407.63,571.105C408.618,572.295 418.194,572.556 467.173,572.727L525.539,572.931L527.255,570.313C528.198,568.874 530.769,565.816 532.967,563.519C536.81,559.504 536.95,559.126 536.59,553.709C536.137,546.88 531.162,536.144 526.718,532.404C522.855,529.154 521.607,529.134 522.827,532.343C523.367,533.764 523.393,534.843 522.886,534.843C522.395,534.843 521.788,534.28 521.536,533.593C521.197,532.67 520.766,532.635 519.888,533.457C518.582,534.681 519.057,535.334 524.732,540.109C529.193,543.863 529.792,547.938 526.288,550.695C524.119,552.401 522.196,552.842 516.942,552.841C508.036,552.839 503.447,550.592 503.008,546.018C502.757,543.395 503.277,542.189 505.476,540.299C507.009,538.982 509.515,537.386 511.045,536.752C514.675,535.249 514.593,533.17 510.873,532.352C509.215,531.988 507.649,530.856 507.305,529.773C506.767,528.079 505.719,527.842 498.746,527.842L490.8,527.842L492.444,531.592C495.189,537.853 496.737,542.258 496.783,543.937C496.907,548.443 487.485,551.315 481.831,548.495C479.135,547.149 478.358,547.14 475.299,548.419C473.389,549.216 471.827,550.468 471.827,551.201C471.827,551.933 470.927,553.347 469.827,554.342C468.302,555.722 467.827,557.422 467.827,561.497L467.827,566.842L454.973,566.842C442.715,566.842 441.996,566.729 439.473,564.39C436.897,562.003 436.827,561.621 436.827,550.049C436.827,542.732 437.366,536.369 438.229,533.501C439,530.939 439.563,528.811 439.479,528.773C437.865,528.042 433.682,528.267 433.159,529.113C432.775,529.735 432.355,537.84 432.226,547.123C432.017,562.15 431.79,564.154 430.159,565.39C427.413,567.471 413.436,567.283 408.025,565.092L403.702,563.342L404.457,558.842C404.872,556.367 405.238,551.65 405.269,548.36C405.315,543.6 404.994,542.314 403.697,542.06C402.506,541.827 401.887,542.763 401.394,545.542C400.334,551.52 399.787,552.842 398.373,552.842C396.516,552.842 393.799,546.665 394.491,544.017C394.898,542.46 394.296,541.038 392.447,539.19C389.412,536.155 389.288,535.523 391.327,533.485C393.111,531.7 393.326,527.842 391.641,527.842C390.989,527.842 389.457,526.903 388.236,525.756L386.016,523.671L385.309,526.006C384.489,528.716 377.53,534.284 374.634,535.785C373.529,536.357 377.001,534.339 379.066,532.183C383.253,527.812 384.938,521.812 384.137,514.126C383.556,508.552 384.187,505.885 386.799,502.873C387.914,501.587 388.826,499.945 388.826,499.224C388.826,497.529 392.007,495.841 395.202,495.841C396.58,495.841 397.986,495.391 398.326,494.841C398.666,494.291 400.155,493.877 401.635,493.92C403.116,493.964 403.771,494.224 403.092,494.498C402.303,494.818 402.953,495.919 404.898,497.555C406.573,498.964 407.702,500.724 407.413,501.477C407.034,502.464 407.826,502.841 410.276,502.841C414.939,502.841 416.826,501.956 416.826,499.77C416.826,497.547 413.778,495.726 408.326,494.693C404.359,493.941 404.365,493.937 409.062,494.264C411.667,494.445 414.929,495.334 416.312,496.24C418.657,497.777 418.826,498.436 418.826,506.031C418.826,515.682 419.819,515.834 420.421,506.277C421.042,496.401 423.358,493.237 431.959,490.512C435.175,489.493 441.81,492.06 445.332,495.685C448.429,498.874 448.826,499.883 448.826,504.562L448.826,509.841L470.326,509.837L470.576,506.089C470.728,503.793 471.6,501.698 472.826,500.681C474.136,499.594 474.826,497.801 474.826,495.488C474.826,490.763 477.65,488.841 484.594,488.841C488.912,488.841 490.381,489.305 492.372,491.296C493.744,492.668 494.826,494.92 494.826,496.402C494.826,498.068 495.795,499.815 497.432,501.103C499.588,502.799 499.944,503.73 499.495,506.497L498.952,509.841L515.189,509.841C524.12,509.841 531.854,510.225 532.376,510.694C532.899,511.163 535.576,512.135 538.326,512.855C542.545,513.959 557.698,521.102 561.25,523.661C561.842,524.087 564.801,525.478 567.826,526.753C570.851,528.027 574.016,529.411 574.859,529.829C577.812,531.291 582.638,531.955 583.239,530.982C583.572,530.444 582.501,529.71 580.86,529.349C576.349,528.358 571.492,521.689 571.492,516.483C571.492,514.201 572.056,511.281 572.744,509.995C576.5,502.976 598.678,499.476 612.601,503.705C620.12,505.989 622.546,508.012 624.504,513.635C626.501,519.368 626.12,521.154 622.075,525.021C617.868,529.042 614.892,530.781 611.01,531.485C607.638,532.096 607.179,532.595 608.642,534.058C610.013,535.429 610.235,540.471 608.96,541.259C608.483,541.553 608.301,542.877 608.554,544.201C608.807,545.524 608.504,546.922 607.881,547.307C605.889,548.539 597.716,548.715 582.826,547.848C565.669,546.849 562.146,545.742 546.312,536.377C540.27,532.803 534.509,529.871 533.51,529.86C532.511,529.85 530.799,529.363 529.705,528.777C526.052,526.822 525.831,528.303 529.237,531.909C535.6,538.645 537.851,544.717 539.066,558.418L540.161,570.776L535.731,575.559C533.294,578.19 530.465,582.22 529.446,584.515L527.592,588.687L520.621,589.015C516.787,589.195 513.578,589.273 513.488,589.189L513.488,589.189L513.49,589.19ZM526.375,581.843C526.401,579.368 526.241,576.781 526.018,576.093C525.7,575.112 513.052,574.843 467.22,574.843L408.827,574.843L408.827,585.789L423.077,586.072C430.915,586.228 457.352,586.353 481.827,586.349L526.327,586.343L526.375,581.843L526.375,581.843L526.375,581.843ZM406.485,580.593C406.208,579.906 405.981,580.468 405.981,581.843C405.981,583.218 406.208,583.781 406.485,583.093C406.762,582.406 406.762,581.281 406.485,580.593ZM404.427,579.114C404.095,578.782 403.858,579.373 403.902,580.427C403.95,581.592 404.187,581.829 404.506,581.031C404.795,580.309 404.759,579.446 404.427,579.114L404.427,579.114L404.427,579.114ZM397.529,572.593C397.29,571.356 397.095,572.368 397.095,574.843C397.095,577.318 397.29,578.331 397.529,577.093C397.767,575.856 397.767,573.831 397.529,572.593ZM395.707,575.593C395.619,573.881 395.481,573.765 395.131,575.106C394.274,578.393 392.823,575.75 392.823,570.901C392.823,566.435 392.619,566.038 390.079,565.552C386.241,564.818 385.823,565.326 385.823,570.726C385.823,575.378 385.911,575.515 389.573,576.541C395.246,578.129 395.833,578.038 395.707,575.593L395.707,575.593ZM404.512,573.093C404.261,572.131 404.055,572.918 404.055,574.843C404.055,576.768 404.261,577.556 404.512,576.593C404.764,575.631 404.764,574.056 404.512,573.093ZM402.485,571.593C402.208,570.906 401.981,571.468 401.981,572.843C401.981,574.218 402.208,574.781 402.485,574.093C402.763,573.406 402.763,572.281 402.485,571.593ZM395.512,568.093C395.261,567.131 395.055,567.918 395.055,569.843C395.055,571.768 395.261,572.556 395.512,571.593C395.764,570.631 395.764,569.056 395.512,568.093ZM537.822,566.784C537.822,564.617 537.372,562.843 536.822,562.843C536.272,562.843 535.822,564.895 535.822,567.402C535.822,570.187 536.211,571.721 536.822,571.343C537.372,571.003 537.822,568.952 537.822,566.784ZM377.482,562.584C377.208,561.907 377.001,562.703 377.021,564.353C377.042,566.003 377.266,566.557 377.519,565.584C377.773,564.611 377.756,563.261 377.482,562.584L377.482,562.584ZM374.634,553.633L373.34,551.353L373,554.272C372.814,555.878 373.26,559.253 373.993,561.772L375.326,566.353L375.627,561.133C375.8,558.145 375.375,554.939 374.634,553.633ZM429.076,563.68C430.039,563.187 430.826,562.424 430.826,561.985C430.826,560.43 429.541,559.936 427.85,560.842C425.002,562.366 421.235,562.73 417.175,561.875C408.488,560.045 405.826,559.787 405.826,560.774C405.826,562.438 409.076,563.67 415.375,564.392C418.648,564.766 421.505,565.241 421.724,565.445C422.243,565.93 426.837,564.827 429.076,563.681L429.076,563.68ZM465.605,551.525L465.884,537.709L462.75,534.781C460.254,532.45 458.706,531.853 455.155,531.853C446.179,531.853 444.458,534.888 443.426,552.535L442.714,564.717L446.02,565.164C447.839,565.41 452.927,565.55 457.326,565.475L465.326,565.34L465.605,551.524L465.605,551.525ZM425.934,553.104C426.04,546.43 426.512,532.578 426.72,530.045C426.779,529.325 427.277,529.014 427.827,529.354C428.377,529.694 428.827,529.211 428.827,528.282C428.827,526.886 428.176,526.7 425.077,527.212C423.015,527.553 420.54,527.837 419.577,527.843C418.615,527.849 417.827,528.529 417.827,529.354C417.827,531.587 414.722,531.169 414.117,528.854C412.788,523.773 412.009,528.106 411.646,542.604C411.39,552.798 411.617,558.613 412.289,559.089C412.86,559.493 416.14,559.83 419.577,559.839L425.827,559.854L425.934,553.104L425.934,553.104ZM428.757,542.937C428.796,536.658 428.607,531.74 428.338,532.009C428.069,532.278 427.694,538.295 427.503,545.381C427.313,552.466 427.501,557.384 427.922,556.309C428.342,555.233 428.718,549.216 428.757,542.937ZM471.487,544.007C472.28,537.395 472.24,534.358 471.306,530.162C470.909,528.374 470.184,528.006 467.372,528.162L463.926,528.353L465.877,531.661C466.95,533.48 467.828,536.742 467.828,538.911C467.828,541.079 468.278,542.853 468.828,542.853C469.378,542.853 469.828,544.177 469.828,545.794C469.828,547.412 469.378,549.014 468.828,549.353C468.278,549.693 467.842,550.957 467.859,552.162C467.928,556.922 470.68,550.736 471.487,544.007L471.487,544.007ZM410.146,541.353C410.455,535.853 410.331,529.778 409.87,527.853C409.281,525.393 409.002,528.486 408.93,538.27C408.874,545.925 408.998,551.999 409.206,551.77C409.414,551.541 409.837,546.854 410.146,541.353ZM524.966,548.805L527.327,546.757L524.327,547.271C522.677,547.554 519.752,548.046 517.827,548.366C515.878,548.689 512.221,548.304 509.577,547.498C504.191,545.856 503.108,547.203 508.077,549.363C513.162,551.573 522.117,551.278 524.966,548.805L524.966,548.805ZM399.816,546.603C399.824,546.191 398.931,545.853 397.831,545.853C395.567,545.853 395.268,546.89 397.026,548.648C397.951,549.574 398.398,549.562 399.01,548.598C399.445,547.913 399.807,547.016 399.816,546.603L399.816,546.603ZM488.748,547.486C488.519,547.284 486.531,546.845 484.331,546.51C481.543,546.085 480.937,546.175 482.331,546.807C484.251,547.676 489.607,548.244 488.748,547.486ZM519.09,545.867C520.597,545.855 520.67,545.568 519.599,543.853C518.094,541.442 512.831,541.054 512.831,543.353C512.831,544.178 512.381,544.853 511.831,544.853C511.281,544.853 510.824,543.841 510.816,542.603C510.804,540.776 510.616,540.635 509.816,541.853C508.941,543.187 508.722,543.187 507.847,541.853C507.003,540.569 506.86,540.604 506.847,542.101C506.829,544.165 512.412,546.935 515.331,546.309C516.431,546.074 518.123,545.875 519.09,545.867L519.09,545.867ZM605.832,545.274C605.832,544.116 605.322,543.845 604.082,544.343C597.92,546.821 586.946,545.471 582.944,541.743C581.828,540.704 580.248,539.853 579.433,539.853C578.617,539.853 577.672,539.403 577.332,538.853C576.992,538.303 575.608,537.853 574.257,537.853C572.082,537.853 561.181,532.725 539.536,521.519L532.739,518.001L515.036,517.838C505.299,517.749 491.131,517.567 483.552,517.434C474.093,517.268 470.095,517.516 470.802,518.223C472.561,519.982 472.051,524.828 470.083,525.064C469.12,525.179 482.508,525.517 499.833,525.814L531.333,526.354L536.833,529.136C539.858,530.666 544.133,532.999 546.333,534.321C562.296,543.912 571.016,546.166 594.083,546.658C604.393,546.878 605.833,546.709 605.833,545.274L605.832,545.274ZM523.289,542.784C522.432,541.397 521.831,541.656 521.831,543.412C521.831,544.27 522.289,544.689 522.848,544.343C523.407,543.998 523.605,543.296 523.289,542.784L523.289,542.784ZM480.698,536.845C482.421,532.99 483.832,529.39 483.832,528.845C483.832,528.299 481.309,527.853 478.225,527.853C473.251,527.853 472.707,528.051 473.407,529.603C473.842,530.566 474.304,534.053 474.435,537.353C474.719,544.533 474.535,543.853 476.198,543.853C476.949,543.853 478.974,540.699 480.698,536.845L480.698,536.845ZM597.708,542.949C598.64,542.359 597.585,541.956 594.458,541.707C589.267,541.294 588.81,541.509 592.078,542.822C594.989,543.992 596.024,544.016 597.708,542.949L597.708,542.949ZM405.328,538.853C405.668,538.303 405.271,537.853 404.446,537.853C403.621,537.853 402.668,538.303 402.328,538.853C401.988,539.403 402.385,539.853 403.21,539.853C404.035,539.853 404.988,539.403 405.328,538.853ZM514.828,538.853C514.828,538.303 513.928,537.853 512.828,537.853C511.728,537.853 510.828,538.303 510.828,538.853C510.828,539.403 511.728,539.853 512.828,539.853C513.928,539.853 514.828,539.403 514.828,538.853ZM520.328,538.853C520.668,538.303 520.244,537.853 519.387,537.853C518.529,537.853 517.828,538.303 517.828,538.853C517.828,539.403 518.251,539.853 518.769,539.853C519.286,539.853 519.988,539.403 520.328,538.853ZM605.396,538.189C606.184,537.887 606.821,537.125 606.813,536.496C606.771,533.379 605,532.802 594.775,532.58C586.191,532.393 584.322,532.616 584.1,533.853C583.667,536.265 585.326,537.992 588.949,538.901C592.249,539.73 602.542,539.284 605.396,538.189L605.396,538.189ZM394.826,536.353C394.826,535.528 394.376,534.853 393.826,534.853C393.276,534.853 392.826,535.528 392.826,536.353C392.826,537.178 393.276,537.853 393.826,537.853C394.376,537.853 394.826,537.178 394.826,536.353ZM399.013,537.17C398.291,536.881 397.429,536.917 397.097,537.249C396.764,537.582 397.355,537.818 398.409,537.774C399.574,537.726 399.811,537.49 399.013,537.17L399.013,537.17L399.013,537.17ZM490.075,537.191C489.388,536.914 488.263,536.914 487.575,537.191C486.888,537.469 487.45,537.696 488.825,537.696C490.2,537.696 490.763,537.469 490.075,537.191ZM516.487,533.603C516.21,532.916 515.983,533.478 515.983,534.853C515.983,536.228 516.21,536.791 516.487,536.103C516.765,535.416 516.765,534.291 516.487,533.603ZM580.18,535.369C580.811,533.724 579.342,532.756 573.325,530.85C571.125,530.153 562.575,526.113 554.325,521.872C545.954,517.569 536.894,513.656 533.825,513.017C527.985,511.802 497.825,510.85 497.825,511.881C497.825,512.216 496.362,513.218 494.575,514.108C491.444,515.666 491.949,515.73 508.325,515.855C532.281,516.039 533.619,516.195 539.825,519.532C558.567,529.611 563.958,532.332 569.325,534.42C576.355,537.156 579.393,537.422 580.181,535.368L580.18,535.369ZM405.82,531.294C405.82,528.478 405.443,527.853 403.745,527.853C402.008,527.853 401.719,528.383 401.973,531.103C402.518,536.934 405.82,537.098 405.82,531.294L405.82,531.294ZM443.82,535.476C443.82,535.268 443.033,534.481 442.07,533.726C440.484,532.482 440.449,532.517 441.693,534.103C442.999,535.769 443.82,536.299 443.82,535.476L443.82,535.476ZM449.82,530.28C452.367,529.455 453.635,529.475 459.82,530.441L463.32,530.988L460.32,527.968C457.827,525.458 456.424,524.909 452.02,524.719C447.243,524.514 446.406,524.807 443.52,527.698C440.373,530.85 440.357,530.913 442.559,531.492C443.863,531.835 444.522,532.555 444.137,533.217C443.774,533.842 444.341,533.619 445.398,532.722C446.455,531.824 448.445,530.726 449.82,530.28L449.82,530.28ZM488.008,530.17C487.286,529.881 486.424,529.917 486.092,530.249C485.759,530.582 486.35,530.818 487.404,530.774C488.569,530.726 488.806,530.489 488.008,530.17L488.008,530.17L488.008,530.17ZM519.82,529.353C519.82,528.306 518.765,527.853 516.32,527.853C513.876,527.853 512.82,528.306 512.82,529.353C512.82,530.401 513.876,530.853 516.32,530.853C518.765,530.853 519.82,530.401 519.82,529.353ZM510.82,528.853C510.82,528.303 510.37,527.853 509.82,527.853C509.27,527.853 508.82,528.303 508.82,528.853C508.82,529.403 509.27,529.853 509.82,529.853C510.37,529.853 510.82,529.403 510.82,528.853ZM466.82,526.089C466.82,525.806 466.051,525.011 465.11,524.323C463.669,523.27 463.587,522.661 464.588,520.463C465.242,519.028 465.45,517.792 465.049,517.717C464.648,517.642 458.654,517.497 451.729,517.396L439.137,517.211L435.338,520.4C430.918,524.111 431.344,525.854 436.669,525.854C440.068,525.854 440.396,525.613 440.36,523.142C440.329,521.048 440.97,520.2 443.175,519.413C445.588,518.552 446.29,518.715 447.71,520.469C448.827,521.849 451.008,522.727 454.209,523.088C456.858,523.387 459.695,524.3 460.513,525.117C461.889,526.494 466.82,527.253 466.82,526.089L466.82,526.089ZM405.11,523.853C405.593,522.007 405.141,521.853 399.227,521.853C393.487,521.853 392.82,522.062 392.82,523.853C392.82,525.627 393.487,525.853 398.704,525.853C403.746,525.853 404.662,525.568 405.11,523.853ZM428.944,523.241C431.44,520.982 431.31,519.398 428.525,518.129C426.511,517.211 425.84,517.549 423.025,520.901C421.263,523.001 419.82,525.033 419.82,525.417C419.82,526.689 427.035,524.969 428.944,523.241ZM418.915,521.103L422.217,517.353L419.411,517.027C415.095,516.524 408.894,519.452 408.835,522.02C408.822,522.602 413.169,524.555 414.966,524.774C415.322,524.818 417.099,523.166 418.915,521.103L418.915,521.103ZM445.698,523.95C447.003,523.124 446.492,520.836 445.011,520.869C443.367,520.905 441.621,522.722 442.251,523.742C443.072,525.07 443.855,525.117 445.698,523.95L445.698,523.95ZM606.738,523.796C610.718,523.151 614.712,521.712 617.238,520.016C620.818,517.612 621.316,516.81 621.316,513.462C621.316,510.112 620.889,509.427 617.816,507.843C607.465,502.509 585.606,502.596 576.943,508.006C573.843,509.942 573.643,514.9 576.536,518.097C581.54,523.627 593.673,525.916 606.738,523.797L606.738,523.796ZM390.818,522.514C390.818,521.777 389.665,520.649 388.255,520.006C386.223,519.081 385.84,519.099 386.41,520.096C388.568,523.868 390.818,525.103 390.818,522.514L390.818,522.514L390.818,522.514ZM470.318,522.853C470.658,522.303 470.261,521.853 469.436,521.853C468.611,521.853 467.658,522.303 467.318,522.853C466.978,523.403 467.375,523.853 468.2,523.853C469.025,523.853 469.978,523.403 470.318,522.853ZM436.041,517.645C437.467,515.497 438.038,515.435 456.58,515.395C467.07,515.372 475.99,515.016 476.402,514.603C476.815,514.191 476.232,513.853 475.108,513.853C473.984,513.853 472.481,513.151 471.768,512.292C470.665,510.963 467.863,510.777 452.896,511.042C435.57,511.349 435.281,511.39 432.61,513.93C430.077,516.339 430.01,516.616 431.574,518.18C433.752,520.358 434.282,520.294 436.042,517.645L436.041,517.645ZM406.958,515.939C409.771,513.659 409.066,512.429 405.684,513.715C403.126,514.687 388.973,513.685 386.865,512.382C386.019,511.859 385.739,512.201 385.982,513.46C386.53,516.306 390.678,517.822 397.958,517.839C403.024,517.85 405.156,517.4 406.958,515.939L406.958,515.939ZM415.412,515.241C417.582,514.696 417.819,514.106 417.819,509.245C417.819,506.28 417.534,503.853 417.185,503.853C416.836,503.853 414.859,504.36 412.791,504.98C409.377,506.003 409.096,506.348 409.739,508.73C410.127,510.173 410.329,512.63 410.186,514.19C409.984,516.39 410.271,516.894 411.465,516.436C412.312,516.111 414.088,515.573 415.412,515.241L415.412,515.241ZM430.939,512.239C432.44,510.8 433.427,508.995 433.132,508.226C432.837,507.457 433.151,506.159 433.83,505.341C435.824,502.938 439.246,503.587 441.636,506.82C444.681,510.938 446.819,509.885 446.819,504.269C446.819,498.001 442.706,495.592 434.706,497.177C430.185,498.072 428.192,500.235 427,505.54C426.095,509.57 426.453,514.853 427.631,514.853C427.949,514.853 429.438,513.677 430.939,512.239L430.939,512.239ZM491.569,513.223C492.806,512.891 493.819,512.26 493.819,511.819C493.819,510.726 479.606,510.085 478.166,511.114C477.487,511.598 476.8,511.406 476.495,510.645C476.155,509.797 475.95,509.931 475.898,511.037C475.846,512.133 476.778,512.866 478.569,513.137C483.106,513.825 489.175,513.865 491.569,513.223L491.569,513.223L491.569,513.223ZM406.195,510.956C408.447,509.087 408.353,506.414 406.069,507.377C405.106,507.783 401.988,508.334 399.139,508.602C394.952,508.996 393.388,508.683 390.984,506.971C387.222,504.293 386.819,504.318 386.819,507.232C386.819,508.9 387.641,509.932 389.569,510.686C394.978,512.8 403.801,512.943 406.195,510.956L406.195,510.956ZM439.819,508.322C439.819,507.48 439.114,506.52 438.252,506.189C436.371,505.468 434.32,507.237 435.265,508.766C436.284,510.415 439.819,510.07 439.819,508.322L439.819,508.322ZM494.351,507.404C498.163,505.812 498.463,505.116 496.496,502.427C495.258,500.733 494.975,500.721 492.046,502.236C488.19,504.23 482.22,504.311 478.592,502.418C476.167,501.153 475.628,501.188 473.722,502.731L471.579,504.466L473.991,506.046C475.317,506.915 477.284,507.85 478.361,508.124C482.498,509.175 491.033,508.791 494.351,507.404L494.351,507.404ZM404.558,505.137C404.806,504.394 403.616,504.205 400.943,504.564C398.752,504.858 395.505,504.591 393.727,503.971C390.071,502.696 389.57,502.832 390.769,504.773C392.506,507.583 403.644,507.877 404.558,505.137L404.558,505.137ZM404.623,500.521C404.187,497.511 398.947,496.199 393.672,497.779C390.541,498.717 389.848,499.285 390.74,500.18C392.648,502.099 397.772,503.457 401.471,503.025C404.315,502.693 404.874,502.249 404.623,500.521L404.623,500.521ZM489.819,500.353C489.819,499.22 488.597,498.853 484.819,498.853C480.173,498.853 478.86,499.56 480.486,501.187C480.853,501.553 483.103,501.853 485.486,501.853C488.671,501.853 489.819,501.456 489.819,500.353L489.819,500.353ZM434.819,494.894L440.319,492.926L434.819,492.905C428.604,492.881 426.244,493.911 427.142,496.252C427.48,497.133 427.294,497.853 426.729,497.853C426.164,497.853 425.996,498.33 426.356,498.913C426.781,499.6 427.418,499.426 428.165,498.418C428.8,497.562 431.794,495.977 434.819,494.894L434.819,494.894L434.819,494.894ZM491.951,495.194C494.057,492.658 490.645,490.459 484.742,490.548C476.072,490.679 474.082,495.137 481.974,496.751C486.33,497.642 490.454,496.998 491.951,495.194ZM480.019,562.653C476.343,558.977 482.838,555.953 487.341,559.245C488.958,560.428 489.043,560.879 487.909,562.245C486.342,564.134 481.738,564.372 480.019,562.653L480.019,562.653ZM485.373,560.623C483.236,559.427 479.705,560.546 481.708,561.785C482.441,562.238 483.942,562.373 485.044,562.084C486.848,561.613 486.88,561.467 485.373,560.623L485.373,560.623Z" style="fill-rule:nonzero;"/>
    </g>
</svg>
