<?xml version="1.0" encoding="UTF-8" standalone="no"?>
<!DOCTYPE svg PUBLIC "-//W3C//DTD SVG 1.1//EN" "http://www.w3.org/Graphics/SVG/1.1/DTD/svg11.dtd">
<svg width="100%" height="100%" viewBox="0 0 500 500" version="1.1" xmlns="http://www.w3.org/2000/svg" xmlns:xlink="http://www.w3.org/1999/xlink" xml:space="preserve" xmlns:serif="http://www.serif.com/" style="fill-rule:evenodd;clip-rule:evenodd;stroke-linejoin:round;stroke-miterlimit:2;">
    <g id="atomic" transform="matrix(1,0,0,1,-1,93)">
        <g transform="matrix(1,0,0,1,0,-35.813)">
            <path d="M258.284,93.753C380.667,93.753 479.879,192.964 479.879,315.347C479.879,362.469 465.158,406.149 440.08,442.06L76.491,442.06C51.413,406.149 36.692,362.469 36.692,315.347C36.692,192.964 135.902,93.753 258.284,93.753" style="fill:rgb(209,237,255);"/>
        </g>
        <g transform="matrix(1,0,0,1,0,140.808)">
            <path d="M341.91,163.547C354.076,163.547 364.656,175.211 370.073,192.384C374.486,187.11 379.814,184.025 385.555,184.025C400.778,184.025 413.12,205.717 413.12,232.476C413.12,245.21 410.323,256.793 405.753,265.439L365.355,265.439C364.468,263.762 363.648,261.976 362.903,260.092C361.583,262.065 360.169,263.855 358.674,265.439L325.151,265.439C316.001,255.757 309.899,238.385 309.899,218.562C309.899,188.179 324.231,163.547 341.91,163.547M111.29,147.16C116.08,147.16 120.686,148.697 124.984,151.527C133.101,117.227 149.594,93.753 168.617,93.753C184.302,93.753 198.263,109.707 207.23,134.525C212.981,127.043 219.938,122.661 227.434,122.661C247.199,122.661 263.221,153.088 263.221,190.622C263.221,228.156 247.199,258.582 227.434,258.582C221.684,258.582 216.252,256.004 211.438,251.427C210.169,256.353 208.722,261.037 207.12,265.439L72.762,265.439C70.134,254.686 68.661,242.662 68.661,229.968C68.661,184.235 87.747,147.16 111.29,147.16M434.253,224.088C441.796,224.088 447.91,232.972 447.91,243.933C447.91,254.891 441.796,263.776 434.253,263.776C426.714,263.776 420.6,254.891 420.6,243.933C420.6,232.972 426.714,224.088 434.253,224.088" style="fill:rgb(167,191,28);"/>
        </g>
        <g transform="matrix(1,0,0,1,0,185.781)">
            <path d="M341.91,145.266C354.076,145.266 364.656,153.873 370.073,166.548C374.486,162.655 379.814,160.378 385.555,160.378C400.778,160.378 413.12,176.389 413.12,196.138C413.12,205.535 410.323,214.085 405.753,220.466L365.355,220.466C364.468,219.229 363.648,217.911 362.903,216.521C361.583,217.976 360.169,219.297 358.674,220.466L325.151,220.466C316.001,213.32 309.899,200.499 309.899,185.869C309.899,163.444 324.231,145.266 341.91,145.266M111.29,133.171C116.08,133.171 120.686,134.304 124.984,136.393C133.101,111.078 149.594,93.753 168.617,93.753C184.302,93.753 198.263,105.528 207.23,123.843C212.981,118.323 219.938,115.089 227.434,115.089C247.199,115.089 263.221,137.546 263.221,165.246C263.221,192.949 247.199,215.406 227.434,215.406C221.684,215.406 216.252,213.502 211.438,210.124C210.169,213.759 208.722,217.217 207.12,220.466L72.762,220.466C70.134,212.531 68.661,203.656 68.661,194.286C68.661,160.533 87.747,133.171 111.29,133.171M434.253,189.947C441.796,189.947 447.91,196.505 447.91,204.593C447.91,212.683 441.796,219.239 434.253,219.239C426.714,219.239 420.6,212.683 420.6,204.593C420.6,196.505 426.714,189.947 434.253,189.947" style="fill:rgb(148,171,19);"/>
        </g>
        <g transform="matrix(0.898903,0.438148,0.438148,-0.898903,-63.2527,354.949)">
            <path d="M230.21,302.758L360.12,302.758L360.121,128.584L230.208,65.261L230.21,302.758Z" style="fill:rgb(77,68,65);"/>
        </g>
        <g transform="matrix(1,0,0,1,0,80.816)">
            <path d="M276.336,102.849L393.113,159.769L316.8,316.335L286.376,316.335L329.128,228.624C339.514,205.46 335.051,178.331 317.79,159.716C302.396,143.114 279.482,136.152 257.766,140.947L276.336,102.849Z" style="fill:rgb(51,45,42);"/>
        </g>
        <g transform="matrix(0.898906,0.438141,0.438141,-0.898906,-92.9346,323.72)">
            <rect x="264.527" y="279.798" width="142.009" height="19.463" style="fill:rgb(153,139,134);"/>
        </g>
        <g transform="matrix(1,0,0,1,0,116.673)">
            <path d="M307.338,151.638C285.232,140.863 258.577,150.049 247.803,172.155C237.028,194.261 246.212,220.914 268.318,231.69C290.424,242.466 317.079,233.281 327.854,211.175C338.629,189.069 329.444,162.413 307.338,151.638M293.355,180.324C287.093,177.272 279.541,179.875 276.489,186.138C273.436,192.399 276.038,199.951 282.301,203.004C288.563,206.057 296.115,203.455 299.167,197.192C302.221,190.93 299.618,183.376 293.355,180.324M269.186,192.973C268.983,190.11 269.438,187.354 270.422,184.85L262.283,181.663L252.08,177.667C250.063,182.811 249.126,188.472 249.54,194.351C249.951,200.23 251.668,205.704 254.386,210.516L263.93,205.136L271.544,200.844C270.222,198.5 269.385,195.835 269.186,192.973M298.282,207.156C295.904,208.762 293.289,209.745 290.629,210.146L291.938,218.788L293.581,229.621C299.044,228.796 304.415,226.777 309.3,223.481C314.185,220.184 318.066,215.96 320.876,211.201L311.443,205.626L303.919,201.177C302.552,203.493 300.662,205.551 298.282,207.156M296.017,174.864C298.596,176.122 300.755,177.894 302.433,179.998L309.263,174.541L317.822,167.703C314.378,163.384 309.943,159.745 304.646,157.161C299.348,154.579 293.748,153.328 288.224,153.276L288.11,164.232L288.021,172.973C290.712,172.999 293.438,173.607 296.017,174.864M312.112,141.844C339.627,155.255 351.06,188.433 337.649,215.947C324.237,243.464 291.06,254.896 263.544,241.484C236.028,228.073 224.596,194.896 238.009,167.38C251.419,139.866 284.597,128.431 312.112,141.844" style="fill:rgb(255,204,0);"/>
        </g>
        <g transform="matrix(1,0,0,1,0,-118.456)">
            <path d="M387.836,300.518L325.686,270.224L282.243,292.127L339.796,320.179L397.349,348.232L387.836,300.518Z" style="fill:rgb(77,68,65);"/>
        </g>
        <g transform="matrix(1,0,0,1,0,-247.086)">
            <path d="M376.473,430.484L391.063,425.456L424.363,357.138L477.931,353.379L430.561,450.559L386.11,465.876L376.473,430.484ZM331.636,408.629L326.607,394.038L359.906,325.72L329.868,281.21L282.501,378.39L297.818,422.84L331.636,408.629Z" style="fill:rgb(51,45,42);"/>
        </g>
        <g transform="matrix(0.898895,0.438164,0.438164,-0.898895,-125.295,297.526)">
            <rect x="367.182" y="309.265" width="17.817" height="126.944" style="fill:rgb(77,68,65);"/>
        </g>
        <g transform="matrix(1,0,0,1,0,139.76)">
            <path d="M318.251,191.996C319.21,190.751 320.086,189.452 320.876,188.114L320.308,187.778L318.251,191.996ZM303.799,221.648L311.185,206.493C318.144,202.214 324.01,195.973 327.854,188.088C331.912,179.761 333.139,170.79 331.909,162.264C334.278,154.511 335.1,146.477 334.449,138.592C344.553,154.335 346.444,174.816 337.649,192.86C330.598,207.328 318.081,217.344 303.799,221.648" style="fill:rgb(245,164,14);"/>
        </g>
        <g transform="matrix(1,0,0,1,0,242.034)">
            <path d="M6,164.213L493.289,164.213C461.477,156.958 467.649,148.869 435.218,144.857C423.04,143.35 411.75,137.704 403.238,128.866C389.787,114.901 367.928,113.443 352.742,125.499C333.678,140.633 306.603,140.282 287.938,124.658C262.666,103.502 229.762,93.753 197.045,97.727C174.664,100.445 153.433,109.169 135.608,122.975C124.872,131.29 110.983,134.376 97.736,131.391C82.208,127.892 65.974,132.666 54.814,144.015C41.956,157.09 23.487,162.281 6,164.213" style="fill:rgb(166,69,13);"/>
        </g>
        <g transform="matrix(1,0,0,1,0,277.264)">
            <path d="M6,128.983L493.289,128.983C461.477,125.356 467.649,121.312 435.218,119.304C423.04,118.55 411.75,115.729 403.238,111.31C389.787,104.327 367.928,103.597 352.742,109.627C333.678,117.194 306.603,117.017 287.938,109.206C262.666,98.629 229.762,93.753 197.045,95.741C174.664,97.099 153.433,101.461 135.608,108.365C124.872,112.521 110.983,114.066 97.736,112.573C82.208,110.822 65.974,113.21 54.814,118.884C41.956,125.422 23.487,128.016 6,128.983" style="fill:rgb(138,54,5);"/>
        </g>
    </g>
</svg>
