<?xml version="1.0" encoding="UTF-8" standalone="no"?>
<!DOCTYPE svg PUBLIC "-//W3C//DTD SVG 1.1//EN" "http://www.w3.org/Graphics/SVG/1.1/DTD/svg11.dtd">
<svg width="100%" height="100%" viewBox="0 0 100 205" version="1.1" xmlns="http://www.w3.org/2000/svg" xmlns:xlink="http://www.w3.org/1999/xlink" xml:space="preserve" xmlns:serif="http://www.serif.com/" style="fill-rule:evenodd;clip-rule:evenodd;stroke-linejoin:round;stroke-miterlimit:2;">
    <g transform="matrix(1.03179,0,0,1.12251,0.00250636,-0.279673)">
        <g id="Layer1">
            <rect x="-0.079" y="0.249" width="96.919" height="182.626" style="fill:white;"/>
        </g>
    </g>
    <g id="layer1" transform="matrix(1,0,0,1,-342.437,-324.972)">
        <path id="path4646" d="M361.043,324.973C360.385,324.992 359.76,325.268 359.302,325.74C350.605,334.437 345.577,346.574 345.577,358.874C345.577,371.174 350.605,383.312 359.302,392.009C359.778,392.498 360.433,392.774 361.115,392.774C362.505,392.774 363.648,391.63 363.648,390.241C363.648,389.559 363.373,388.904 362.884,388.428C355.17,380.713 350.643,369.784 350.643,358.874C350.643,347.964 355.17,337.035 362.884,329.321C363.375,328.844 363.652,328.189 363.652,327.505C363.652,326.115 362.508,324.972 361.119,324.972C361.093,324.972 361.068,324.972 361.043,324.973ZM423.83,324.973C423.805,324.972 423.781,324.972 423.756,324.972C422.366,324.972 421.223,326.115 421.223,327.505C421.223,328.189 421.5,328.844 421.99,329.321C429.704,337.035 434.231,347.964 434.231,358.874C434.231,369.784 429.704,380.713 421.99,388.428C421.504,388.904 421.23,389.557 421.23,390.237C421.23,391.627 422.373,392.77 423.763,392.77C424.443,392.77 425.096,392.496 425.573,392.009C434.27,383.312 439.297,371.174 439.297,358.874C439.297,346.574 434.27,334.437 425.573,325.74C425.114,325.268 424.489,324.992 423.831,324.973C423.831,324.973 423.83,324.973 423.83,324.973ZM372.602,336.531C371.944,336.551 371.319,336.826 370.86,337.298C365.189,342.969 361.924,350.853 361.924,358.874C361.924,366.894 365.189,374.779 370.86,380.451C371.337,380.937 371.989,381.212 372.67,381.212C374.06,381.212 375.203,380.068 375.203,378.679C375.203,377.998 374.929,377.345 374.443,376.869C369.755,372.181 366.989,365.504 366.989,358.874C366.989,352.244 369.755,345.568 374.443,340.88C374.933,340.403 375.21,339.747 375.21,339.063C375.21,337.674 374.067,336.53 372.677,336.53C372.652,336.53 372.627,336.531 372.602,336.531ZM412.272,336.531C412.247,336.531 412.222,336.53 412.197,336.53C410.807,336.53 409.664,337.674 409.664,339.063C409.664,339.747 409.941,340.403 410.431,340.88C415.12,345.568 417.885,352.244 417.885,358.874C417.885,365.504 415.12,372.181 410.431,376.869C409.945,377.345 409.671,377.998 409.671,378.679C409.671,380.068 410.814,381.212 412.204,381.212C412.885,381.212 413.538,380.937 414.014,380.451C419.685,374.779 422.951,366.894 422.951,358.874C422.951,350.853 419.685,342.969 414.014,337.298C413.555,336.826 412.93,336.551 412.273,336.531C412.272,336.531 412.272,336.531 412.272,336.531ZM392.437,346.313C389.117,346.313 385.903,347.645 383.555,349.993C381.207,352.341 379.876,355.553 379.876,358.874C379.876,362.194 381.207,365.408 383.555,367.756C384.089,368.291 384.67,368.769 385.285,369.194L343.118,526.565C343.057,526.784 343.027,527.011 343.027,527.239C343.027,528.628 344.17,529.772 345.56,529.772C346.71,529.772 347.722,528.989 348.011,527.876L348.164,527.307L392.437,483.034L436.711,527.307L436.863,527.876C437.152,528.989 438.165,529.772 439.315,529.772C440.704,529.772 441.848,528.628 441.848,527.239C441.848,527.011 441.817,526.784 441.756,526.565L399.589,369.194C400.204,368.769 400.785,368.291 401.32,367.756C403.668,365.408 404.998,362.194 404.998,358.874C404.998,355.553 403.668,352.341 401.32,349.993C398.972,347.645 395.758,346.313 392.437,346.313ZM392.437,351.379C394.368,351.379 396.372,352.209 397.737,353.574C399.102,354.939 399.932,356.944 399.932,358.874C399.932,360.804 399.102,362.81 397.737,364.175C396.372,365.54 394.368,366.37 392.437,366.37C390.507,366.37 388.502,365.54 387.137,364.175C385.772,362.81 384.942,360.804 384.942,358.874C384.942,356.944 385.772,354.939 387.137,353.574C388.502,352.209 390.507,351.379 392.437,351.379ZM389.995,371.194C390.794,371.354 391.613,371.436 392.437,371.436C393.262,371.436 394.081,371.354 394.881,371.194L395.016,371.698L392.436,374.277L389.858,371.699L389.993,371.194L389.995,371.194ZM396.151,375.935L396.904,378.744L395.123,376.963L396.151,375.935ZM388.724,375.935L389.751,376.962L387.972,378.741L388.724,375.935ZM392.437,379.649L398.783,385.994L392.437,392.34L386.091,385.994L392.437,379.649ZM399.968,390.181L403.515,403.417L395.123,395.026L399.968,390.181ZM384.907,390.181L389.751,395.025L381.36,403.415L384.907,390.181ZM392.437,397.712L405.394,410.668L392.437,423.625L379.481,410.668L392.437,397.712ZM406.58,414.855L414.966,446.154L395.123,426.311L406.58,414.855ZM378.295,414.855L389.751,426.31L369.91,446.151L378.295,414.855ZM392.437,428.998L416.769,453.329L392.437,477.661L368.105,453.329L392.437,428.998ZM417.999,457.473L434.744,519.968L395.123,480.347L417.999,457.473ZM366.876,457.473L389.751,480.346L350.131,519.967L366.876,457.473Z" style="fill:rgb(42,42,42);fill-rule:nonzero;"/>
    </g>
</svg>
