<?xml version="1.0" encoding="UTF-8" standalone="no"?>
<!DOCTYPE svg PUBLIC "-//W3C//DTD SVG 1.1//EN" "http://www.w3.org/Graphics/SVG/1.1/DTD/svg11.dtd">
<svg width="100%" height="100%" viewBox="0 0 300 272" version="1.1" xmlns="http://www.w3.org/2000/svg" xmlns:xlink="http://www.w3.org/1999/xlink" xml:space="preserve" xmlns:serif="http://www.serif.com/" style="fill-rule:evenodd;clip-rule:evenodd;stroke-linejoin:round;stroke-miterlimit:2;">
    <g transform="matrix(0.21907,0,0,0.217335,-5.16813,-1.64588)">
        <g id="Layer1">
            <rect x="23.591" y="7.573" width="1369.2" height="1245" style="fill:white;"/>
        </g>
    </g>
    <g transform="matrix(0.217865,0,0,0.217865,0,0)">
        <path d="M1181.34,375.675C1149.32,375.112 1117.37,377.835 1085.37,377.641C1069.32,377.543 1054.3,381.543 1040.74,312.742C1039.82,308.079 1040.69,306.634 1045.42,305.916C1049.21,305.34 1052.95,304.156 1056.72,303.985C1061.89,303.75 1063.39,300.584 1064.57,296.515C1067.56,286.201 1068.57,275.639 1068.88,264.958C1070.24,218.518 1058.5,218.58 1098.49,209.397C1137.27,200.493 1131.76,213.344 1142.05,197.561C1147.44,189.3 1139.03,188.447 1140.56,183.809C1142.12,179.056 1139.17,178.289 1124.46,178.669C1071.78,180.033 1074.96,179.437 1073.69,182.288C1071.55,187.113 1066.82,189.843 1061.37,188.673C1055.1,187.324 1063.05,197.402 1048.57,195.573C1027.08,192.861 1031.85,213.263 1020.04,202.088C1016.83,199.046 1010.6,188.884 1007.7,193.124C1004.45,197.873 1014.94,197.347 1019.23,210.287C1022.04,218.749 1019.66,225.635 1013.89,231.777C1009.33,236.622 1009.07,236.776 1013.21,241.459C1020.45,249.645 1007.98,248.351 1012.83,253.722C1031.19,274.073 1023.09,292.609 1013.44,298.538C1008.48,301.588 1012.98,314.479 1009.38,333.57C996.112,404.048 922.821,404.195 876.141,407.946C822.545,412.252 815.112,408.185 811.952,414.852C808.532,422.07 804.657,422.85 799.724,431.167C791.122,445.671 809.474,446.66 806.862,454.495C803.88,463.441 787.247,456.324 787.244,460.645C787.243,461.803 789.138,461.651 790.258,461.682C805.107,462.089 811.703,459.276 810.141,477.147C809.908,479.815 809.167,482.143 805.638,481.683C805.042,481.605 804.193,481.754 804.037,482.526C803.594,484.71 815.077,488.402 821.923,482.169C895.906,414.81 911.05,448.036 992.064,428.176C996.885,426.994 1001.7,425.552 1006.72,425.164C1008.97,424.991 1011.23,424.638 1012.21,427.261C1013.21,429.966 1012.24,432.278 1009.83,433.703C1004.93,436.613 999.518,438.419 993.995,439.538C930.61,452.374 901.625,440.692 868.849,460.161C843.776,475.054 842.396,479.572 825.854,493.888C814.531,503.686 804.194,495.814 808.075,503.793C812.93,513.775 787.33,507.533 833.452,523.428C898.635,545.891 937.23,584.091 948.037,658.488C948.621,662.508 950.357,663.781 954.193,663.774C1083.34,663.546 1046.67,644.863 1144.98,702.75C1166.32,715.315 1181.16,737.145 1180.87,764.773C1179.77,866.78 1180.43,887.426 1178.98,936.746C1178.45,954.526 1203.57,952.762 1210.55,986.364C1221.73,1040.23 1216.94,1042.67 1225.02,1046.11C1231.69,1048.94 1237.38,1065.12 1238.78,1071.9C1240.92,1082.29 1237.13,1088.57 1226.92,1091.42C1177.24,1105.3 1136.28,1092.81 1133.68,1104.92C1131.47,1115.25 1129.37,1120.71 1113.97,1121.62C1067.78,1124.34 1062.36,1117.11 1061.2,1105.74C1060.56,1099.44 1061.09,1099.7 1054.37,1099.6C1007.21,1098.9 960.039,1098.81 912.884,1098.82C912.883,1098.82 517.932,1099.66 517.931,1099.66C514.361,1099.61 512.373,1100.69 511.307,1104.02C503.766,1127.6 485.674,1124.23 458.146,1123.54C442.108,1123.13 436.446,1115.63 434.874,1104.42C434.302,1100.34 432.794,1099.39 428.962,1099.1C418.091,1098.29 375.877,1098.11 342.056,1087.59C309.686,1077.52 340.519,1031.71 359.565,982.465C370.532,954.108 367.591,955.587 377.169,933.252C377.59,932.27 378.788,931.207 377.519,930.207C376.509,929.411 375.381,930.026 374.278,930.569C360.416,937.39 346.069,943.106 331.683,948.676C264.221,974.794 262.311,968.966 261.572,976.931C258.959,1005.07 262.191,1015.75 256.982,1032.4C254.582,1040.07 241.452,1060.65 229.251,1070.78C190.6,1102.87 134.801,1058.22 159.61,1012.37C169.554,993.995 178.056,993.136 176.894,984.692C175.635,975.539 182.107,971.846 180.286,966.438C175.887,953.375 187.008,950.12 182.498,942.329C173.883,927.446 191.187,925.427 183.973,917.78C165.773,898.488 200.984,893.433 188.775,892.163C187.046,891.983 177.503,893.789 175.242,881.963C174.296,877.017 177.553,871.612 182.394,869.46C187.45,867.213 192.853,867.782 198.139,867.334C199.853,867.189 201.687,867.683 203.271,866.59C190.927,865.247 187.024,866.203 181.046,864.066C168.764,859.676 171.192,845.364 179.814,841.562C180.974,841.05 182.696,841.236 182.866,839.489C183.057,837.522 181.123,837.836 180.074,837.269C172.284,833.054 169.561,823.521 174.733,816.047C177.043,812.708 176.727,810.76 174.339,807.988C164.572,796.65 176.414,790.395 170.753,783.952C160.295,772.046 172.058,765.33 167.576,757.764C158.956,743.213 170.121,739.15 165.96,733.613C162.642,729.198 161.939,724.145 162.827,718.897C164.05,711.676 158.912,713.224 148.281,702.193C132.3,685.612 139.723,669.576 135.683,661.037C133.524,656.474 132.532,651.569 133.945,646.47C134.53,644.358 134.928,642.264 133.511,640.236C127.38,631.461 133.396,624.331 129.06,616.209C122.933,604.731 130.888,602.141 126.418,591.953C121.74,581.29 127.421,574.47 124.395,568.499C117.773,555.437 127.05,547.618 123.365,539.006C117.214,524.631 128.14,519.093 122.754,512.698C112.346,500.342 125.037,493.048 118.75,484.543C107.361,469.135 124.011,462.666 118.152,453.559C112.289,444.445 113.527,434.715 121.039,426.644C124.92,422.474 125.192,422.247 121.764,418.14C113.628,408.394 114.743,394.478 127.922,386.12C132.693,383.094 134.309,383.414 125.965,376.944C112.384,366.411 116.709,341.034 152.656,339.177C153.955,339.11 155.933,340.179 156.51,338.077C157.046,336.126 155.096,335.652 153.915,334.91C127.717,318.453 125.838,286.956 168.73,292.568C176.396,293.571 185.413,295.851 180.209,291.428C163.254,277.016 156.301,272.908 154.869,261.333C150.709,227.709 219.095,257.5 221.858,252.617C223.987,248.855 190.404,226.357 183.726,217.754C173.838,205.015 186.792,192.766 197.447,196.802C216.465,204.005 258.447,214.071 257.619,206.497C256.303,194.444 237.198,209.277 234.848,198.171C232.203,185.668 222.022,197.81 201.615,177.032C188.426,163.603 203.576,134.84 240.603,158.151C243.42,159.925 246.11,161.824 249.693,161.737C258.12,161.533 257.625,161.542 258.748,155.08C259.792,149.07 263.813,147.961 268.089,152.063C270.111,154.002 269.283,153.581 291.576,153.21C293.233,153.182 301.841,151.668 299.535,147.591C296.458,142.15 307.838,141.833 314.833,131.785C315.26,131.171 316.197,130.714 316.97,130.572C324.095,129.26 316.553,123.626 323.586,118.361C327.062,115.759 330.423,113.228 334.747,112.069C349.217,108.189 358.305,119.022 358.273,120.022C358.084,125.937 362.68,127.799 366.626,130.611C381.855,141.464 383.797,139.743 382.877,144.222C382.238,147.33 386.272,147.345 389.558,147.065C439.132,142.83 449.664,150.068 453.952,139.642C457.464,131.101 468.637,139.538 471.145,129.977C471.735,127.73 478.301,127.892 481.528,127.985C501.601,128.558 496.567,110.335 512.121,124.275C514.081,126.032 514.459,129.683 517.254,130.023C519.663,130.316 521.141,127.303 523.419,126.288C527.875,124.303 533.4,125.171 536.572,129.106C538.252,131.191 540.004,131.954 542.53,131.862C574.107,130.706 573.453,127.286 576.121,110.032C577.428,101.581 574.836,103.8 615.851,103.545C616.851,103.539 921.843,94.255 939.545,92.492C944.467,92.002 945.015,93.263 945.118,98.789C945.321,109.632 952.627,117.131 963.611,117.19C990.71,117.336 986.659,111.687 996.622,114.59C1017.61,120.705 1015.32,90.772 1028.57,103.873C1039.13,114.323 1053.73,103.816 1055.93,110.969C1058.7,119.966 1070.23,108.586 1073.49,121.495C1074.11,123.91 1076.43,124.508 1078.76,124.37C1097.23,123.281 1115.76,123.842 1134.19,121.879C1141.5,121.1 1133.06,117.225 1140.46,113.233C1152.61,106.679 1151.91,102.066 1159.31,101.754C1165.43,101.496 1158.94,88.429 1174.55,87.856C1185.11,87.469 1190.56,85.692 1195.43,96.445C1198.93,104.17 1201.75,97.667 1207.09,102.956C1216.45,112.248 1223.86,110.619 1222.12,116.963C1221.42,119.53 1222.9,121.797 1223.97,124.024C1231.71,140.128 1231.78,156.414 1225.2,172.875C1223.43,177.302 1219.05,178.733 1222.55,183.063C1223.17,183.836 1221.76,185.057 1221.14,186.038C1219.36,188.832 1219.54,191.918 1221.09,194.608C1227.49,205.737 1229.36,203.685 1232.14,203.757C1241.39,203.996 1263.69,203.204 1271.59,207.919C1275.86,210.464 1280.2,211.753 1285.16,212.112C1291.9,212.599 1296.8,219.116 1296.19,227.484C1295.38,238.724 1296.54,277.382 1300.69,288.021C1301.98,291.335 1305.05,293.841 1304.7,297.976C1304.47,300.677 1327.09,296.874 1324.93,307.847C1321.91,323.145 1319.92,338.73 1306.99,361.433C1298.08,377.087 1288.24,374.552 1220.34,375.635C1207.34,375.845 1194.34,375.675 1181.34,375.675ZM386.461,822.955C386.592,822.954 386.722,822.954 386.853,822.953C386.853,747.608 386.021,747.522 389.923,736.333C394.1,724.355 400.229,713.322 406.201,702.188C419.972,676.514 440.795,663.079 470.405,663.961C483.56,664.353 496.743,663.792 509.898,664.175C537.217,664.971 564.532,665.855 591.867,665.972C595.466,665.988 597.219,665.304 597.479,661.15C598.274,648.464 600.768,635.919 605.212,624.115C621.415,581.071 650.119,551.613 680.199,537.105C689.447,532.645 739.681,513.11 740.681,512.867C746.637,511.424 735.907,508.578 739.025,502.705C740.761,499.434 738.679,498.738 736.409,498.656C712.449,497.797 693.74,446.144 625.244,439.901C609.757,438.489 532.085,430.05 537.361,415.348C538.554,412.023 541.379,413.16 543.743,413.31C546.737,413.5 549.664,414.014 552.577,414.86C612.805,432.352 664.825,423.006 705.598,463.007C726.714,483.723 732.619,484.91 738.348,485.343C740.365,485.496 741.629,484.192 742.02,482.606C742.518,480.588 740.549,480.809 739.341,480.649C737.036,480.343 735.905,479.473 736.999,468.105C737.974,457.973 747.024,464.372 743.458,458.059C737.672,447.815 750.181,451.398 750.71,441.999C751.451,428.838 738.312,429.339 735.844,417.307C734.972,413.056 730.62,413.814 725.482,413.816C612.572,413.857 541.166,420.346 532.763,316.512C532.589,314.361 532.774,312.277 530.096,311.214C521.336,307.737 510.397,291.122 528.343,269.906C535.302,261.679 519.496,261.833 526.985,252.951C530.623,248.636 526.172,246.351 523.281,243.339C514.952,234.662 513.837,223.535 523.915,212.193C525.114,210.843 525.589,209.229 524.512,207.616C523.224,205.688 521.556,206.794 520.032,207.31C514.22,209.279 513.052,225.98 502.072,217.13C497.651,213.567 492.914,212.705 487.641,213.089C478.434,213.76 474.722,215.275 473.72,212.69C470.252,203.742 459.009,211.644 457.127,205.023C455.836,200.479 452.721,199.886 448.668,200.087C354.391,204.754 393.228,203.77 382.877,212.673C377.822,217.02 384.794,219.419 385.962,222.134C390.355,232.343 406.287,219.073 429.347,235.809C441.867,244.895 468.188,269.272 470.478,276.04C474.515,287.971 482.136,297.612 489.905,307.179C497.877,316.995 492.934,319.321 497.215,321.448C501.393,323.525 499.371,327.31 502.364,327.618C505.457,327.936 505.988,330.362 506.199,332.66C506.426,335.129 508.009,353.339 505.565,354.205C497.121,357.195 511.286,369.455 492.794,377.914C484.906,381.522 476.594,383.877 468.18,385.86C445.415,391.225 436.641,389.681 431.159,393.471C423.669,398.65 415.313,400.85 406.429,401.897C399.948,402.661 398.239,406.799 402.258,411.986C404.424,414.781 404.875,417.312 402.883,420.119C397.654,427.486 410.718,429.55 402.84,436.772C401.084,438.381 400.696,440.042 401.067,442.084C403.327,454.525 405.699,468.579 421.157,473.21C436.896,477.926 455.864,474.569 457.385,472.499C460.804,467.848 465.936,467.085 470.925,465.882C493.579,460.419 493.409,451.046 496.829,446.645C505.903,434.967 525.131,458.547 530.497,545.023C531.715,564.65 531.299,584.347 530.58,604.003C530.19,614.65 529.401,625.306 526.854,635.707C525.424,641.547 523.433,647.211 519.004,651.599C513.845,656.71 509.954,656.211 506.134,650.145C505.227,648.705 504.667,647.176 504.096,645.616C502.492,641.238 499.502,638.797 494.894,637.396C489.848,635.863 484.768,635.612 479.649,635.093C475.546,634.677 471.239,634.73 468.255,631.045C467.468,630.073 466.233,629.955 465.067,629.83C455.281,628.781 445.817,626.254 436.272,623.961C419.046,619.822 403.464,612.018 388.769,602.61C310.694,552.625 326.173,448.727 316.808,430.176C309.063,414.834 321.652,408.709 310.188,408.01C301.309,407.469 292.729,405.843 284.707,401.745C282.829,400.785 280.873,399.766 278.58,399.794C271.749,399.878 234.63,398.55 215.986,391.566C204.371,387.215 211.572,358.057 204.712,360.719C195.673,364.226 107.604,355.186 174.819,373.695C190.904,378.124 207.537,370.167 207.296,388.05C207.118,401.295 195.762,401.587 182.789,398.986C172.372,396.897 142.421,401.573 142.232,405.028C142.037,408.593 151.024,410.196 154.749,409.821C168.788,408.41 180.881,406.23 194.019,409.321C207.045,412.386 209.519,430.636 194.458,436.973C193.086,437.55 190.495,437.331 190.507,438.459C190.526,440.161 218.087,446.652 200.681,464.815C196.751,468.916 196.751,468.916 200.833,472.923C206.416,478.403 206.934,484.489 202.291,490.697C198.008,496.423 194.878,496.176 200.421,499.279C209.763,504.51 209.233,517.044 201.973,523.373C195.861,528.701 217.769,532.591 204.572,551.922C200.251,558.252 213.693,560.896 208.134,573.755C204.126,583.027 216.496,585.301 210.364,599.316C207.149,606.666 219.788,609.78 213.431,622.134C209.91,628.976 220.547,627.679 216.583,642.735C213.784,653.366 231.802,662.76 208.246,678.837C207.4,679.414 205.641,679.503 205.998,681.027C207.134,685.866 246.962,687.333 243.949,704.737C242.085,715.506 232.143,715.496 221.096,717.551C220.172,717.723 218.494,717.517 218.615,718.554C218.782,719.983 220.473,719.38 221.503,719.391C226.677,719.446 231.792,719.552 236.741,721.504C245.071,724.79 248.513,735.672 242.986,742.597C240.813,745.32 241.153,746.307 243.991,748.194C249.413,751.799 250.391,760.834 246.49,766.104C245.404,767.571 242.974,768.324 243.046,770.183C243.134,772.451 246.355,771.837 247.421,773.574C247.846,774.266 248.511,774.809 248.959,775.49C254.883,784.501 250.299,794.093 239.227,796.036C236.342,796.542 233.428,797.099 230.802,798.542C234.047,800.422 236.964,798.586 245.859,799.091C258.342,799.8 261.547,820.724 235.738,821.683C234.62,821.725 232.668,821.503 232.627,822.506C232.576,823.731 234.434,823.403 235.462,823.442C250.662,824.026 260.743,834.579 251.305,846.625C248.387,850.35 248.435,850.299 252.115,853.821C253.557,855.201 254.749,856.882 256.842,857.289C258.721,857.654 259.246,858.984 259.254,860.57C259.345,878.745 246.07,872.495 255.828,881.845C261.521,887.3 262.799,895.3 258.835,902.262C254.661,909.591 270.672,913.067 260.809,932.972C260.075,934.453 260.028,935.687 260.424,937.223C263.412,948.794 263.263,948.437 274.762,944.549C358.275,916.31 312.492,934.607 381.677,900.32C384.506,898.918 384.967,897.096 385.017,894.43C385.463,870.607 385.972,846.781 386.461,822.955ZM789.39,221.404C789.389,221.369 789.388,221.333 789.386,221.298C592.46,228.153 672.372,225.185 635.008,226.336C625.883,226.617 635.361,233.582 629.199,233.668C598.394,234.099 597.646,234.774 598.812,231.458C600.23,227.426 597.638,226.916 584.976,228.424C575.021,229.61 582.485,212.196 568.461,207.031C565.503,205.941 562.185,204.455 559.722,207.565C557.376,210.526 560.228,212.816 561.647,215.103C566.962,223.668 566.634,234.2 560.716,241.713C556.759,246.737 556.618,246.843 560.443,251.956C565.747,259.046 552.461,261.33 559.295,266.834C569.465,275.024 571.498,280.205 572.198,285.073C575.607,308.789 562.417,307.032 563.408,316.779C570.739,388.848 604.546,382.176 729.809,383.284C732.908,383.311 735.168,382.294 737.046,379.785C749.845,362.686 766.4,352.048 786.043,359.988C807.608,368.706 804.235,380.209 815.121,379.953C931.485,377.213 985.871,375.971 980.92,303.206C980.781,301.164 979.61,299.813 978.164,298.669C966.084,289.117 964.183,267.552 977.589,256.424C986.182,249.292 970.437,250.021 976.973,243.271C982.251,237.821 982.11,237.148 976.81,231.63C966.285,220.67 970.847,206.493 981.115,198.238C984.017,195.905 983.539,191.56 978.251,192.659C963.32,195.762 948.064,196.319 948.81,211.685C949.125,218.168 947.804,215.958 912.782,217.137C871.649,218.521 830.52,219.975 789.39,221.404ZM242.83,231.759C241.546,231.805 239.8,230.982 239.085,232.238C237.9,234.317 248.087,243.135 251.372,251.568C253.679,257.488 253.921,257.453 258.629,252.712C288.285,222.847 296.155,241.828 305.627,226.654C311.432,217.354 303.235,216.624 304.466,211.927C306.497,204.18 290.49,206.837 285.124,206.927C276.182,207.077 282.578,226.284 260.705,230.64C253.889,231.997 245.406,231.667 242.83,231.759ZM199.401,273.004C198.65,272.87 197.785,272.238 197.314,273.422C196.789,274.74 197.634,275.301 200.884,277.638C227.54,296.801 226.179,304.541 228.566,296.838C234.186,278.703 239.433,277.526 234.03,277.444C222.32,277.266 210.852,275.22 199.401,273.004ZM173.218,318.151C172.786,319.38 177.037,322.049 178.038,322.621C211.581,341.804 209.769,343.022 212.968,328.955C214.2,323.536 212.711,324.767 188.5,320.001C185.106,319.334 173.991,315.951 173.218,318.151ZM153.954,435.488C150.889,435.809 138.296,438.973 139.029,442.566C139.293,443.861 142.562,444.743 146.397,443.26C153.881,440.364 164.938,440.75 167.393,438.483C166.34,437.838 168.801,438.415 153.954,435.488ZM144.275,471.785C143.45,467.841 138.335,473.465 141.781,473.448C142.943,473.443 144.134,473.348 144.275,471.785ZM143.562,499.327C137.918,500.745 146.063,503.424 145.901,500.584C145.845,499.601 144.488,499.536 143.562,499.327Z" style="fill-rule:nonzero;"/>
    </g>
</svg>
