<?xml version="1.0" encoding="UTF-8" standalone="no"?>
<!-- Created with Inkscape (http://www.inkscape.org/) -->

<svg
   version="1.0"
   width="285.90799"
   height="203.18874"
   id="svg2"
   sodipodi:docname="tv.svg"
   inkscape:version="1.3.2 (091e20e, 2023-11-25, custom)"
   xmlns:inkscape="http://www.inkscape.org/namespaces/inkscape"
   xmlns:sodipodi="http://sodipodi.sourceforge.net/DTD/sodipodi-0.dtd"
   xmlns:xlink="http://www.w3.org/1999/xlink"
   xmlns="http://www.w3.org/2000/svg"
   xmlns:svg="http://www.w3.org/2000/svg">
  <sodipodi:namedview
     id="namedview1"
     pagecolor="#ffffff"
     bordercolor="#000000"
     borderopacity="0.25"
     inkscape:showpageshadow="2"
     inkscape:pageopacity="0.0"
     inkscape:pagecheckerboard="0"
     inkscape:deskcolor="#d1d1d1"
     inkscape:zoom="4.2374396"
     inkscape:cx="143.01089"
     inkscape:cy="101.59437"
     inkscape:window-width="1920"
     inkscape:window-height="1057"
     inkscape:window-x="1912"
     inkscape:window-y="-8"
     inkscape:window-maximized="1"
     inkscape:current-layer="svg2" />
  <defs
     id="defs4">
    <linearGradient
       id="linearGradient921">
      <stop
         id="stop923"
         style="stop-color:#2a2e31;stop-opacity:1"
         offset="0" />
      <stop
         id="stop925"
         style="stop-color:#2a2e31;stop-opacity:0"
         offset="1" />
    </linearGradient>
    <linearGradient
       id="linearGradient885">
      <stop
         id="stop887"
         style="stop-color:#a1b0b9;stop-opacity:1"
         offset="0" />
      <stop
         id="stop889"
         style="stop-color:#f8f9fa;stop-opacity:1"
         offset="1" />
    </linearGradient>
    <linearGradient
       x1="462.98993"
       y1="831.82751"
       x2="747.6886"
       y2="831.82751"
       id="linearGradient918"
       xlink:href="#linearGradient885"
       gradientUnits="userSpaceOnUse"
       gradientTransform="translate(9.70622,-299.24151)" />
    <linearGradient
       x1="480.31351"
       y1="531.69031"
       x2="758.60413"
       y2="531.69031"
       id="linearGradient927"
       xlink:href="#linearGradient921"
       gradientUnits="userSpaceOnUse" />
    <linearGradient
       x1="462.98993"
       y1="831.82751"
       x2="747.6886"
       y2="831.82751"
       id="linearGradient935"
       xlink:href="#linearGradient885"
       gradientUnits="userSpaceOnUse"
       gradientTransform="translate(9.70622,-299.24151)" />
    <linearGradient
       x1="480.31351"
       y1="531.69031"
       x2="758.60413"
       y2="531.69031"
       id="linearGradient937"
       xlink:href="#linearGradient921"
       gradientUnits="userSpaceOnUse" />
  </defs>
  <g
     transform="translate(-472.69615,-430.99162)"
     id="layer1">
    <g
       id="g929">
      <path
         d="m 498.626,630.95167 c -1.45324,-2.71542 -1.39585,-9.86642 0.0865,-10.78259 0.64827,-0.40065 33.83578,-1.0721 73.75,-1.49212 39.91423,-0.42001 92.48383,-1.09209 116.82133,-1.49351 l 44.24998,-0.72986 0,6.59557 c 0,5.42531 -0.3105,6.68385 -1.75,7.09307 -0.9625,0.27362 -47.87498,0.76073 -104.24998,1.08245 -56.375,0.32172 -108.19604,0.85106 -115.15787,1.17631 -12.03281,0.56215 -12.71179,0.49058 -13.75,-1.44932 z M 484.34269,616.6096 c -6.60372,-1.35674 -6.50281,-0.76425 -7.24682,-42.54587 -0.37006,-20.78132 -1.06629,-58.4552 -1.54717,-83.71972 -0.93558,-49.15308 -0.87508,-49.96337 3.922,-52.53069 1.17665,-0.62973 24.03844,-1.42254 59.23964,-2.05436 31.52794,-0.56588 66.09853,-1.23582 76.82353,-1.48875 10.725,-0.25293 43.125,-0.84022 72,-1.30509 50.82784,-0.81829 52.63704,-0.78329 56.80184,1.09889 7.6225,3.4448 7.2795,1.25735 8.222,52.42768 0.4638,25.1833 0.9567,63.2418 1.0953,84.57444 l 0.2521,38.78661 -2.2098,2.21339 c -2.0606,2.06406 -3.3718,2.25026 -19.4356,2.76011 -35.60784,1.13016 -243.80677,2.62781 -247.91702,1.78336 z m 85.19118,-6.9029 c 33.275,-0.55988 63.425,-1.38598 67,-1.83576 3.575,-0.44978 5.4125,-0.87935 4.08333,-0.95461 -8.84039,-0.50051 11.52423,-3.27779 34.16667,-4.65956 10.31572,-0.62953 11.75,-0.52539 11.75,0.85315 0,0.86362 -0.78375,2.00882 -1.74167,2.5449 -0.95792,0.53608 -1.52042,1.19367 -1.25,1.46131 0.96334,0.95347 10.00506,1.04872 10.86919,0.11451 0.5034,-0.54423 0.54072,-18.06326 0.0872,-40.95113 -0.4359,-22 -1.10973,-58.37213 -1.4974,-80.82695 -0.75573,-43.77344 -0.83372,-44.32684 -5.64353,-40.04433 -2.06566,1.83919 -2.09085,2.31555 -1.4691,27.78161 0.34793,14.25068 0.37397,25.65169 0.0579,25.33559 -0.3161,-0.31611 -1.20709,-6.12576 -1.97997,-12.91033 -2.03032,-17.82272 -2.39524,-19.58627 -4.5695,-22.08277 l -1.96205,-2.25282 1.42863,3 c 1.61731,3.3962 3.07822,15.43954 4.79154,39.5 1.29257,18.15183 0.61087,65.34905 -1.09049,75.5 -1.05861,6.31607 -4.53851,12.33482 -9.07654,15.69855 -6.3616,4.71543 -37.6047,7.3106 -87.45421,7.26429 -34.70143,-0.0322 -42.63013,-0.3341 -59.85541,-2.27883 -11.15247,-1.25911 -21.10149,-2.88604 -22.6983,-3.71179 -1.5636,-0.80856 -4.06471,-3.07199 -5.55804,-5.02984 -2.42261,-3.17622 -2.91489,-5.25027 -4.56928,-19.25105 -1.01978,-8.63023 -2.12173,-24.46633 -2.44879,-35.19133 -0.66917,-21.94405 0.95872,-64.09547 2.64799,-68.56536 1.16085,-3.07166 5.35697,-7.99585 8.06852,-9.46848 2.24135,-1.21727 19.8203,-4.68294 29.91331,-5.89737 12.63647,-1.52047 49.55382,-4.05443 60.73064,-4.16847 5.67377,-0.0579 8.72129,-0.39599 7.26936,-0.80647 l -2.5,-0.70679 2.5,-0.67988 c 1.375,-0.37393 6.325,-0.71195 11,-0.75115 4.675,-0.0392 10.3,-0.44361 12.5,-0.89866 3.65822,-0.75668 3.35917,-0.85163 -3.5,-1.11125 -13.33791,-0.50486 -102.23464,0.0671 -111,0.71417 -5.2871,0.3903 -7.74402,0.89863 -6.5,1.34482 1.60685,0.57633 1.03778,0.99108 -2.8949,2.10989 -8.47855,2.41207 -8.85682,3.49619 -9.63542,27.61444 -0.88548,27.42886 0.5944,120.99381 1.97097,124.61447 0.63333,1.66577 2.23699,3.17066 4.05362,3.80394 3.49904,1.21977 3.93684,3.42185 0.8736,4.39409 -3.59548,1.14116 -0.0597,2.42883 6.63213,2.41533 3.3,-0.007 33.225,-0.47019 66.5,-1.03008 z m -10.05318,-15.0009 c 2.69425,-0.62091 5.7229,-2.28628 7.68462,-4.22555 1.78079,-1.76041 4.39222,-4.00925 5.80318,-4.99742 4.7842,-3.35066 1.93597,-10.65989 -4.18462,-10.73876 -3.49024,-0.045 -7.95643,-2.40993 -6.3851,-3.38106 0.62431,-0.38585 1.14917,-1.68748 1.16637,-2.89252 0.0172,-1.20504 1.13809,-4.44098 2.49086,-7.19098 1.35277,-2.75 2.4637,-5.60553 2.46873,-6.34563 0.005,-0.7401 0.83825,-2.5401 1.85161,-4 1.01336,-1.4599 3.15086,-5.12937 4.75,-8.15437 1.59914,-3.025 3.85649,-6.27018 5.01633,-7.21151 1.34748,-1.09363 2.34076,-3.40383 2.75131,-6.39911 0.35338,-2.57818 1.03324,-5.183 1.51081,-5.78849 1.70887,-2.16662 2.13406,-8.06389 0.77,-10.67977 -1.40451,-2.69346 -1.06851,-8.92112 0.48131,-8.92112 1.02797,0 0.16955,-9.79902 -1.31403,-15 -1.10809,-3.88463 -2.62435,-10.76574 -3.47602,-15.77493 -0.33189,-1.952 -1.42034,-3.71817 -2.6945,-4.37218 -1.17572,-0.6035 -3.29253,-2.17229 -4.70402,-3.48621 -3.34128,-3.11032 -11.76406,-6.00428 -19.99282,-6.8693 -8.23747,-0.86592 -35.46975,1.13705 -43.44084,3.19514 -3.3,0.85204 -6.75749,1.52502 -7.6833,1.4955 -2.23732,-0.0713 -4.84858,2.95821 -3.0667,3.55793 0.6875,0.2314 1.25,1.43322 1.25,2.67072 0,1.2375 0.25191,2.50191 0.5598,2.8098 0.30789,0.30789 0.74674,10.84538 0.97522,23.41666 0.22848,12.57128 0.67622,27.13187 0.99498,32.35687 0.53089,8.70207 1.11993,13.24072 4.51413,34.78214 0.89597,5.68632 0.87722,7.6077 -0.0855,8.76776 -3.18126,3.83318 1.8927,18.65366 7.26837,21.23015 5.35596,2.56704 36.42405,4.0581 44.71986,2.14624 z m 168.49682,-59.60082 c 2.7589,-1.31561 3.2723,-1.96278 2.3955,-3.01933 -0.7659,-0.92287 -2.2492,-1.14024 -4.7276,-0.69281 -4.5258,0.81705 -4.5008,0.79084 -3.1574,3.30102 1.3418,2.50708 1.1279,2.49106 5.4895,0.41112 z m -9.0354,-2.17699 c 0.4485,-0.72577 -5.6279,-3.14848 -7.8967,-3.14848 -1.60126,0 1.7461,2.90182 3.8111,3.30378 1.1975,0.23312 2.4883,0.48514 2.8683,0.56004 0.3801,0.0749 0.9279,-0.24701 1.2173,-0.71534 z m 8.8556,-8.74563 c 0.5755,-0.57548 -5.6402,-15.1659 -7.0766,-16.61121 -0.3872,-0.3896 -1.3462,-0.31143 -2.1312,0.17371 -1.1861,0.73305 -0.8468,2.24503 2.0084,8.94986 3.1781,7.46317 5.1613,9.52575 7.1994,7.48764 z m -6.4443,-39.65285 c -0.1757,-1.2375 -0.9945,-2.25 -1.8195,-2.25 -0.825,0 -1.6438,1.0125 -1.8196,2.25 -0.2459,1.7317 0.1732,2.25 1.8196,2.25 1.6463,0 2.0655,-0.5183 1.8195,-2.25 z m 8.6104,-0.63669 c 0.3014,-0.48768 -0.091,-1.41674 -0.8712,-2.06457 -1.1297,-0.93755 -1.6447,-0.75664 -2.5242,0.88669 -0.9432,1.76235 -0.8156,2.06457 0.8713,2.06457 1.0869,0 2.2227,-0.39901 2.5241,-0.88669 z m -3.9299,-11.11331 c 0.3399,-0.55 -0.075,-1 -0.922,-1 -0.863,0 -1.8123,-1.20877 -2.1596,-2.75 -1.3319,-5.91066 -3.8669,-13.40456 -4.1982,-12.41068 -0.192,0.57591 0.6292,4.67266 1.8249,9.10389 2.0362,7.54627 3.7678,9.78644 5.4549,7.05679 z m 8.5,-19.87755 c 0,-0.48266 -0.675,-1.43776 -1.5,-2.12245 -1.2165,-1.00961 -1.5,-0.96975 -1.5,0.21089 0,0.80068 0.3,1.75578 0.6666,2.12244 0.9497,0.94969 2.3334,0.82463 2.3334,-0.21088 z m -7,-5.12245 c 0,-0.55 -0.9266,-1 -2.0591,-1 -1.1324,0 -1.7809,0.45 -1.4409,1 0.3399,0.55 1.2664,1 2.059,1 0.7925,0 1.441,-0.45 1.441,-1 z m -11,-1 c 0,-0.55 -0.4235,-1 -0.941,-1 -0.5176,0 -1.2191,0.45 -1.559,1 -0.34,0.55 0.084,1 0.9409,1 0.8575,0 1.5591,-0.45 1.5591,-1 z m -235.00004,-5.55902 c 0,-0.24254 -0.45,-0.44098 -1,-0.44098 -0.55,0 -1,0.47656 -1,1.05902 0,0.58246 0.45,0.7809 1,0.44098 0.55,-0.33992 1,-0.81648 1,-1.05902 z m 257.23214,-8.16571 c -1.7974,-0.22256 -4.4974,-0.21797 -6,0.0102 -1.5027,0.22818 -0.032,0.41027 3.2679,0.40466 3.3,-0.006 4.5294,-0.1923 2.7321,-0.41486 z"
         id="path96"
         style="fill:#99a0a3" />
      <path
         d="m 719.69012,430.99281 c -11.05825,0.0163 -27.81188,0.20601 -53.6875,0.5 -40.15,0.45618 -98.42661,1.3635 -129.5,2 -60.08969,1.23087 -60.49919,1.24988 -63.125,6.15625 -0.90599,1.69213 -0.91127,20.5497 0,81.25 0.6526,43.47 1.32996,81.4576 1.5,84.4375 0.2639,4.62449 0.76338,5.83275 3.46875,8.25 l 3.1875,2.84375 2.6875,0.0313 c 0.0681,0.0616 0.11528,0.1229 0.1875,0.1875 l 2.46875,2.21875 9.0625,-0.0625 -0.25,4.46875 c -0.18717,3.27092 0.18764,5.90257 0.96875,6.84375 0.48329,0.58233 1.71329,0.92552 5.25,1.09375 l -0.15625,2.96875 110.8125,-0.75 c 60.9418,-0.40351 113.7375,-1.02891 117.3125,-1.375 l 6.5,-0.625 0.28125,-5.625 c 0.13258,-2.51809 0.0603,-4.14716 -0.25,-5.09375 l 0.1875,-3.40625 -4.53125,0.0937 -0.0625,-0.84375 19.90625,-0.28125 2.59375,-2.40625 2.625,-2.4375 -0.0625,-5.125 c 0.51514,-3.34849 0.36562,-10.5464 -0.0313,-30.21875 -0.34397,-17.05 -1.06383,-54.60811 -1.59375,-83.46875 -0.0732,-4.34481 -0.15603,-10.21699 -0.21875,-13.65625 l -0.6875,-36.5 -0.0313,-2.3125 -2.375,-2.34375 -2.34375,-2.34375 -1.71875,0 c -1.09817,-1.57626 -2.65146,-2.03053 -4.90625,-3 -2.46094,-1.0581 -5.03834,-1.49593 -23.46875,-1.46875 z m -164.21875,14.1875 c 5.23225,-0.0118 11.20111,-0.004 17.09375,0 -0.93074,0.33445 -1.41642,0.67601 -1.34375,1.03125 0.1375,0.67213 -0.1495,1.21875 -0.65625,1.21875 -5.86236,0 -41.91364,3.50514 -53.09375,5.15625 -16.49738,2.43638 -20.84198,4.18972 -24.625,9.90625 0.68242,-6.45331 1.23768,-8.16717 3.5625,-10.59375 2.59097,-2.7044 2.65053,-2.94943 0.875,-3.53125 -0.31843,-0.10434 -0.65704,-0.24512 -1.03125,-0.375 3.95036,-0.69635 11.90939,-1.46795 22.03125,-2.125 2.26442,-0.14699 4.57872,-0.30409 6.875,-0.46875 8.5174,-0.1104 18.31464,-0.19167 30.3125,-0.21875 z m 130.5,0.46875 3.15625,0 c 0.92458,18.55758 3.43553,158.81635 2.78125,159.875 -0.66982,1.08379 -2.49155,1.14402 -4.09375,0.125 -0.70234,-0.44671 -1.15731,-12.32907 -1.59375,-41.0625 0.0295,-0.86567 0.0668,-1.66253 0.0937,-2.5625 0.76271,-13.44846 1.1172,-29.78986 0.6875,-40.90625 -0.36243,-9.37611 -0.94789,-19.60763 -1.65625,-28.78125 -0.1486,-14.22416 -0.23489,-25.0859 -0.21875,-31.6875 0.2246,-0.2007 0.46318,-0.43193 0.75,-0.71875 1.51252,-1.51252 2,-3.3296 2,-7.625 l 0,-5.65625 -2.25,0.0625 c 0.0994,-0.49658 0.21293,-0.82194 0.34375,-1.0625 z m -170.25,20.84375 c 2.39037,-0.0146 4.92395,0.49108 6.875,1.5 1.65017,0.85331 3.86499,1.2779 4.9375,0.9375 1.36719,-0.43393 1.9375,-0.16142 1.9375,0.9375 0,0.86207 -0.5625,1.57705 -1.25,1.59375 -0.69372,0.0169 -0.47121,0.49682 0.5,1.0625 2.13499,1.24351 2.28024,3.86717 0.3125,6.46875 -2.13336,2.82056 -1.86019,3.72558 0.90625,3.03125 2.73316,-0.68598 4.36738,0.97637 2.65625,2.6875 -0.61208,0.61208 -1.125,3.02458 -1.125,5.34375 0,2.48371 -0.51372,4.37877 -1.25,4.625 -0.6875,0.22992 -1.25685,1.96534 -1.28125,3.84375 -0.0244,1.87842 -0.38729,4.41875 -0.8125,5.65625 -0.63809,1.85708 -0.42511,2.25 1.28125,2.25 2.48113,0 2.75611,1.81703 0.40625,2.71875 -2.70193,1.03683 -5.34375,4.1248 -5.34375,6.28125 0,1.54664 -0.66319,2 -2.9375,2 -1.61754,0 -3.23287,-0.47858 -3.59375,-1.0625 -0.36089,-0.58393 -1.74093,-1.46629 -3.0625,-1.96875 -1.98781,-0.75577 -2.40625,-1.60795 -2.40625,-4.9375 0,-2.81336 -0.41193,-4.03125 -1.40625,-4.03125 -1.59367,0 -4.04491,-6.33474 -3.25,-8.40625 0.28227,-0.73559 0.0535,-3.08952 -0.5,-5.21875 -3.38129,-13.0063 -2.68247,-20.27328 2.28125,-23.75 1.47023,-1.02981 3.73463,-1.54792 6.125,-1.5625 z m -23.3125,117.09375 c 1.52241,5.3541 3.82621,8.5346 7.5625,10.84375 1.40099,0.86586 2.92392,1.52616 5.25,2.125 3.17527,2.17821 8.28584,2.90373 21.65625,4.375 10.175,1.11964 24.125,2.46744 31,2.96875 14.37689,1.04834 36.49908,0.8645 57.71875,-0.0625 -8.71136,0.76284 -11.97081,1.48369 -7.03125,1.71875 1.52071,0.0724 0.92327,0.38348 -1.59375,0.875 -6.10791,1.19278 -96.22736,2.27799 -108.125,1.4375 -0.19859,-0.25644 -0.4955,-0.54514 -0.875,-0.875 0.49548,-0.40462 1.30469,-0.81515 2.25,-1.0625 2.64043,-0.69089 2.55452,-0.82471 -2.84375,-3.1875 -1.54607,-0.67671 -2.88832,-1.3951 -3.96875,-2.125 -0.26853,-1.67108 -0.45347,-4.0475 -0.6875,-7.8125 -0.11422,-1.83757 -0.22741,-5.06229 -0.3125,-9.21875 z m 190.84375,4.53125 0.0313,6.375 -4.28125,-0.25 c 1.65454,-1.73231 3.14319,-3.87563 4.25,-6.125 z m 70.40625,21.34375 c 0.0488,0.002 0.0921,0.0296 0.125,0.0625 0.26308,0.26308 -0.35252,1.23809 -1.34375,2.1875 -1.72194,1.64929 -1.73367,1.63756 -0.46875,-0.46875 0.63713,-1.06093 1.34607,-1.79224 1.6875,-1.78125 z m -263.5625,7.0625 12.15625,0.125 c 4.29137,0.0425 7.25586,0.0599 9.78125,0.0937 -11.78193,0.32379 -18.35535,0.29296 -21.9375,-0.21875 z"
         id="path98"
         style="fill:#656565;fill-opacity:1;stroke:none" />
      <path
         d="m 503.43452,624.43062 c -0.20168,-4.98491 -0.0179,-5.51049 2.07887,-5.94473 2.5194,-0.52178 154.23941,-2.0869 202.30011,-2.0869 l 30.00004,0 0.2534,4.62472 c 0.1528,2.78946 -0.244,5.02249 -1,5.62708 -1.3067,1.04496 -139.62451,3.29273 -200.83231,3.26367 l -32.57888,-0.0155 -0.22123,-5.46837 z m -17.94671,-12.84608 c -1.97103,-2.09807 -2.15935,-3.2901 -2.01427,-12.75 0.15929,-10.38711 0.28964,-10.03377 1.42355,3.85886 0.45872,5.62012 1.07717,7.74328 2.69445,9.25 1.1545,1.07557 1.64267,1.95559 1.08483,1.95559 -0.55783,0 -1.99268,-1.0415 -3.18856,-2.31445 z m 43.9759,1.87565 c 0.35762,-0.38223 36.35762,-1.09667 80,-1.58764 75.11214,-0.84501 117.83643,-1.78208 118.76643,-2.60491 0.2292,-0.20276 -6.4083,-0.36865 -14.75,-0.36865 -8.34164,0 -15.16664,-0.36 -15.16664,-0.8 0,-0.44 0.5207,-1.3207 1.15712,-1.95712 0.87615,-0.87615 0.85013,-20.89598 -0.10719,-82.45 -0.69536,-44.71108 -1.61437,-81.66869 -2.04224,-82.12801 -0.95619,-1.02647 -195.24509,-1.18495 -203.25769,-0.16579 -3.1625,0.40225 -5.75,1.12952 -5.75,1.61614 0,0.48663 0.3375,0.91134 0.75,0.9438 0.4125,0.0325 2.44354,0.18851 4.51342,0.34676 4.71531,0.3605 5.48583,1.10883 3.45376,3.35424 -3.66348,4.0481 -3.98965,10.04636 -4.1049,75.4899 -0.0617,35.06246 -0.42922,63.74996 -0.81659,63.75 -0.38737,4e-5 -0.83737,-3.03742 -1,-6.74992 l -0.29569,-6.75 -0.86674,9.72095 c -0.47671,5.34652 -0.52684,11.42152 -0.11139,13.5 l 0.75534,3.77905 0.93796,-3.43513 c 0.71206,-2.60781 1.15667,-3.08949 1.84608,-2 0.49947,0.78932 0.91501,2.19001 0.92344,3.11265 0.008,0.92264 1.43159,2.78593 3.1626,4.14065 l 3.14728,2.46312 -5.39092,2.58 c -4.23172,2.02523 -5.64724,2.31753 -6.58291,1.35936 -2.09899,-2.14949 -5.3763,-162.8798 -3.39656,-166.57898 1.0931,-2.04248 1.87402,-2.14625 16.861,-2.24057 8.64315,-0.0544 18.18982,-0.40296 21.21482,-0.7746 l 5.5,-0.67571 -7,-0.71829 c -3.85,-0.39505 -13.525,-0.79519 -21.5,-0.8892 -36.21824,-0.42691 32.79516,-1.77704 137.96947,-2.69915 117.67687,-1.03172 114.52527,-1.12821 116.56367,3.56886 0.4265,0.98285 1.1078,20.68699 1.514,43.78699 0.4061,23.1 1.0771,60.74256 1.491,83.65013 l 0.7525,41.65014 -2.4487,2.44873 -2.4488,2.44873 -32.4466,0.64524 c -54.34624,1.08075 -192.48863,1.95819 -191.79633,1.21823 z M 754.48474,608.244 c 1.5463,-1.39936 1.812,-3.13702 1.7202,-11.25 -0.06,-5.27725 -0.4435,-12.29501 -0.853,-15.59501 -0.5831,-4.69986 -0.7763,-2.72201 -0.8914,9.12756 -0.1711,17.6035 -0.1426,17.54839 -9.5485,18.46995 l -6.0985,0.59752 6.9212,0.15248 c 5.1966,0.11449 7.377,-0.25991 8.75,-1.5025 z m -19.3882,-74.0801 c 4.5943,-2.13292 9.8068,-8.57882 11.1044,-13.73218 1.1127,-4.41896 0.2165,-12.62821 -1.7806,-16.30964 -3.0801,-5.67795 -11.2669,-10.33444 -18.4604,-10.49994 -5.6743,-0.13054 -14.0683,3.32799 -15.7631,6.49478 -1.37848,2.57576 0.4072,2.2499 3.9343,-0.71793 3.3594,-2.8268 4.1824,-3.06342 4.1824,-1.20261 0,0.9693 1.6042,1.19524 6.3438,0.89345 5.958,-0.37937 6.5623,-0.21215 9.9351,2.74921 4.4379,3.89652 7.2069,10.65673 6.3142,15.41537 -2.0832,11.10402 -16.6231,15.12955 -25.5422,7.07163 -2.0863,-1.88488 -4.0201,-3.42705 -4.2971,-3.42705 -0.8296,0 -1.74224,5.86666 -1.152,7.4048 0.8788,2.29006 8.1558,6.85954 12.1885,7.65358 4.3902,0.86441 8.4851,0.29915 12.9927,-1.79347 z m -2.2847,-10.64004 c 1.815,-1.32718 1.7632,-1.64973 -1.4872,-9.25 -4.7328,-11.06673 -5.5709,-11.8797 -9.3775,-9.09624 -1.6377,1.19752 -1.5486,1.72084 1.4045,8.25 1.7343,3.83425 3.549,7.98387 4.0328,9.22137 1.0065,2.57478 2.724,2.85163 5.4274,0.87487 z m -22.83606,-11.87487 c -0.27741,-0.6875 -0.50439,-0.125 -0.50439,1.25 0,1.375 0.22698,1.9375 0.50439,1.25 0.27736,-0.6875 0.27736,-1.8125 0,-2.5 z m 4.27356,-9.25 c 0.011,-0.55 -0.8603,0.125 -1.9358,1.5 -1.0756,1.375 -1.9467,3.4 -1.9359,4.5 0.015,1.49238 0.506,1.11167 1.9359,-1.5 1.0538,-1.925 1.925,-3.95 1.9358,-4.5 z m 17.8463,-18.05305 c 7.6436,-3.19291 13.2179,-11.24265 13.2179,-19.08773 0,-5.65498 -1.8211,-9.75266 -3.657,-8.22896 -2.0197,1.67624 -1.6186,3.56018 0.907,4.25945 l 2.25,0.62297 -2.1511,1.74366 c -1.1831,0.95901 -2.4647,3.24402 -2.848,5.07779 -0.9791,4.68486 -8.0911,9.16587 -14.5475,9.16587 -6.5129,0 -10.4151,-1.60543 -13.3934,-5.51017 -2.77141,-3.6335 -3.20137,-7.35167 -1.4358,-12.41637 0.8323,-2.38758 0.8323,-3.51691 0,-4.34922 -1.786,-1.786 -1.32012,-2.72424 1.3527,-2.72424 1.5223,0 3.0931,-0.94032 4.0755,-2.43966 0.9321,-1.42258 2.1956,-2.21052 3.0307,-1.89004 0.7878,0.30228 2.5126,-0.15821 3.8329,-1.02331 2.1013,-1.37684 2.5519,-1.39054 3.6147,-0.10995 0.6678,0.80463 2.0434,1.46296 3.0569,1.46296 1.0135,0 3.4346,1.39768 5.3803,3.10596 3.7219,3.26793 6.5321,3.31084 6.5321,0.0997 0,-4.54023 -8.6107,-9.2057 -16.9902,-9.2057 -13.1043,0 -21.76795,9.14757 -20.8361,22 0.27448,3.78585 0.68334,4.55071 2.57626,4.81955 2.35405,0.33433 2.95634,1.62587 1.25,2.68045 -1.3383,0.82711 -1.2601,1.76203 0.32917,3.93548 1.10146,1.50634 1.70105,1.61871 3.49997,0.65595 1.8973,-1.01538 2.1709,-0.90531 2.1709,0.87339 0,1.11935 -0.5625,2.05015 -1.25,2.06845 -1.9724,0.0525 3.2592,3.96673 5.3017,3.96673 1.0066,0 2.1083,0.45 2.4483,1 0.938,1.51786 8.0961,1.19555 12.2821,-0.55305 z m 0.3628,-12.72071 c 0.7262,-1.13081 -3.5468,-17.52814 -4.9276,-18.90885 -0.5222,-0.52228 -2.0412,-0.45464 -3.6665,0.16327 -2.2315,0.84843 -2.6527,1.49201 -2.151,3.28716 0.343,1.2277 1.3591,5.15718 2.2579,8.73218 0.8989,3.575 2.0821,7.07266 2.6294,7.77258 1.0581,1.35294 4.7392,0.69539 5.8578,-1.04634 z m -98.06161,136.90024 c 0.22917,-0.20544 12.79167,-0.62487 27.91667,-0.93208 16.64996,-0.33817 25.92181,-0.21354 23.5,0.3159 -3.78452,0.82733 -52.3008,1.40876 -51.41667,0.61618 z m -61.58333,-8.77833 c -19.46096,-0.61653 -48.29327,-3.25983 -49.48526,-4.53675 -0.28311,-0.30328 1.28526,-0.28956 3.48526,0.0305 9.47527,1.37842 66.4425,1.89875 81.5,0.74441 18.88395,-1.44769 35.33503,-3.7948 39.8928,-5.6916 l 3.39279,-1.41198 -0.66146,-7.11705 c -0.3638,-3.91438 -0.90883,-7.51731 -1.21117,-8.00651 -0.30235,-0.48921 -2.14668,-1.55671 -4.09851,-2.37224 -2.98629,-1.24775 -3.44377,-1.83975 -2.88623,-3.73485 0.9592,-3.26032 1.6398,-8.46614 1.92865,-14.75207 0.13901,-3.025 1.00758,-7.2233 1.93015,-9.32956 0.92257,-2.10625 1.64978,-4.80625 1.61602,-6 -0.0338,-1.19374 0.37862,-4.90199 0.91641,-8.24055 0.98016,-6.0848 0.43454,-11.43633 -1.713,-16.80153 -0.83212,-2.07887 -0.84828,-3.23451 -0.0585,-4.18607 0.79015,-0.95208 0.77374,-1.90704 -0.0595,-3.46401 -0.63272,-1.18227 -0.92265,-2.37734 -0.64427,-2.65571 0.27837,-0.27838 -0.36017,-2.52715 -1.41898,-4.99726 -1.0589,-2.47012 -1.9252,-5.51047 -1.9252,-6.75634 0,-1.67547 -1.04141,-2.73483 -4,-4.06897 -2.2,-0.99206 -4.00411,-2.29791 -4.00914,-2.90187 -0.005,-0.60397 -1.11596,-3.34813 -2.46873,-6.09813 -1.35277,-2.75 -2.47366,-5.80246 -2.49086,-6.78324 -0.0702,-4.0053 -5.03168,-11.67634 -8.7901,-13.59065 -10.0141,-5.10059 -56.28931,-5.38938 -97.49117,-0.6084 -5.75877,0.66823 -6.39527,-0.9976 -0.94222,-2.46595 6.76058,-1.82044 28.33023,-3.93307 52.89712,-5.181 29.52977,-1.50002 72.41129,0.18579 93.49444,3.67558 4.62855,0.76614 12.2675,7.29732 13.71634,11.72723 3.53905,10.82085 6.06081,69.59732 4.23074,98.60914 -1.73765,27.5468 -3.8521,30.25897 -25.86954,33.18231 -25.92858,3.44263 -57.31088,4.77995 -88.77688,3.78312 z m -64.28182,-6.51123 c -5.6074,-2.76378 -7.32987,-6.33551 -8.76188,-18.16871 -3.40769,-28.15886 -4.22822,-56.40826 -2.53539,-87.28911 0.85696,-15.63293 1.3445,-17.73364 3.66812,-15.80521 1.15076,0.95505 1.41259,6.17378 1.41975,28.29855 0.005,14.92016 0.47624,33.42756 1.04759,41.12756 0.57135,7.7 1.04156,19.175 1.04491,25.5 0.003,6.325 0.44378,13.16704 0.97871,15.20453 1.43093,5.45021 5.37404,9.56419 10.75406,11.22007 l 4.66595,1.4361 -4.5,0.0469 c -2.475,0.0258 -5.97682,-0.68101 -7.78182,-1.57066 z m -25.06029,-14.33692 c 0,-1.375 0.22698,-1.9375 0.50439,-1.25 0.27741,0.6875 0.27741,1.8125 0,2.5 -0.27741,0.6875 -0.50439,0.125 -0.50439,-1.25 z m -1.02428,-30.69098 c 0.0958,-12.05079 0.35407,-15.39364 0.9124,-11.80902 1.15607,7.42232 1.12345,27.27724 -0.046,28 -0.65348,0.40387 -0.9537,-5.20668 -0.86639,-16.19098 z m 0.0243,-19.30902 c 0,-1.375 0.22698,-1.9375 0.50439,-1.25 0.27741,0.6875 0.27741,1.8125 0,2.5 -0.27741,0.6875 -0.50439,0.125 -0.50439,-1.25 z m -0.93754,-40.5 0.085,-20 0.92266,17.92364 c 0.61176,11.88425 0.58313,18.62328 -0.085,20 -0.70977,1.46256 -0.98252,-3.8359 -0.92266,-17.92364 z m -1.22037,-42.27432 c 0,-2.2592 0.46061,-4.39232 1.02359,-4.74026 0.67463,-0.41695 0.79765,0.84134 0.36084,3.69099 -0.87592,5.71427 -1.38443,6.09968 -1.38443,1.04927 z m 204.5,2.64033 c -1.65,-0.52915 -10.96015,-1.16985 -20.68922,-1.42379 -9.72908,-0.25394 -18.71906,-0.84266 -19.97775,-1.30828 -4.28856,-1.58644 8.73453,-2.36694 26.88026,-1.61098 l 17.28671,0.72018 0,2.37843 c 0,1.30814 -0.1125,2.33975 -0.25,2.29248 -0.1375,-0.0473 -1.6,-0.51889 -3.25,-1.04804 z"
         id="path92"
         style="fill:#373737;fill-opacity:1" />
      <path
         d="m 505.85016,627.49789 c -0.5962,-0.95504 -1.084,-3.04723 -1.084,-4.64931 l 0,-2.91287 12.25,-0.57013 c 6.7375,-0.31357 41.5,-0.80724 77.25,-1.09704 35.75,-0.2898 82.38335,-0.82572 103.62967,-1.19093 l 38.6297,-0.66404 0.4011,4.20606 c 0.2206,2.31333 0.1272,4.64921 -0.2075,5.19083 -0.387,0.62613 -36.63513,1.29831 -99.53081,1.8457 -54.40719,0.4735 -105.97186,1.0223 -114.58816,1.21954 -14.02627,0.32108 -15.77947,0.17687 -16.75,-1.37781 z m 196.28047,-24.98337 c 0.0609,-33.67908 -2.20109,-157.99903 -2.93937,-161.54713 l -0.4717,-2.26693 25.77327,0.26693 25.7733,0.26693 0.6452,13.5 c 1.2571,26.30633 3.0867,152.16776 2.2237,152.97822 -0.4779,0.44882 -5.3689,0.97483 -10.8689,1.16891 -9.6957,0.34213 -9.9934,0.2882 -9.7838,-1.77276 0.1189,-1.16909 -0.6949,-2.95017 -1.8085,-3.95796 -2.6699,-2.41618 -5.4077,-0.79464 -5.4077,3.20286 l 0,2.88073 -11.57251,0.2802 -11.57254,0.2802 0.01,-5.2802 z m 30.7133,-65.92163 c 5.4516,-1.63335 10.3434,-6.05595 13.332,-12.05334 4.5675,-9.16583 2.991,-18.45986 -4.3821,-25.83291 -9.3881,-9.38815 -22.669,-9.44605 -31.93606,-0.13922 -7.47198,7.50404 -8.99004,15.96455 -4.4862,25.00259 5.55357,11.14456 16.46986,16.31929 27.47236,13.02288 z m -10.0618,-9.88442 c -4.9715,-1.16621 -10.01597,-6.95391 -10.01597,-11.49158 0,-8.34004 5.66687,-14.4714 13.38197,-14.47883 9.6716,-0.009 16.4802,10.62046 12.4575,19.44921 -1.4412,3.16305 -2.4497,3.23605 -3.2037,0.23188 -0.3196,-1.27334 -2.157,-5.77334 -4.0832,-10 -2.9747,-6.52756 -3.87,-7.68483 -5.9455,-7.68483 -3.5315,0 -5.6071,0.99761 -5.6071,2.69499 0,2.11357 6.8595,17.46687 8.7368,19.55501 0.8653,0.9625 1.3153,1.75 1,1.75 -0.3153,0 -1.1725,0.17808 -1.905,0.39573 -0.7325,0.21765 -2.8996,0.0279 -4.8158,-0.42158 z m 10.7525,-41.52188 c 7.2815,-3.0424 12.8968,-10.83008 13.8967,-19.27302 0.8205,-6.92796 -3.7136,-16.89278 -9.3294,-20.50379 -8.5532,-5.49966 -16.8924,-5.88342 -24.97092,-1.14913 -15.26537,8.94611 -14.9306,29.8947 0.62682,39.22367 6.2348,3.7387 13.4223,4.35736 19.7768,1.70227 z m -13.2685,-9.80839 c -3.8633,-1.76508 -6.33373,-4.57742 -7.45495,-8.4869 -1.93903,-6.76101 3.36965,-15.67449 9.95495,-16.71491 l 3.5,-0.55296 -2.75,1.58738 c -3.3035,1.90691 -3.328,2.38027 -0.6347,12.26235 2.9184,10.7077 3.4542,11.55135 7.0051,11.03019 1.6184,-0.23753 2.5908,-0.0808 2.1611,0.34837 -1.5768,1.57433 -8.7831,1.89637 -11.7815,0.52648 z m 12.4483,-12.41287 c -1.34,-5.35206 -2.5845,-10.29351 -2.7656,-10.98101 -0.5814,-2.20695 2.3614,-1.33573 5.0666,1.5 1.4429,1.5125 3.1261,4.07981 3.7404,5.70513 1.3934,3.68697 0.4265,9.85827 -1.8703,11.93682 -1.6244,1.47006 -1.89,0.95026 -4.1711,-8.16094 z m -239.7301,141.61449 c 0.51953,-1.5586 2.66343,-1.8126 3.03183,-0.3592 0.1375,0.54247 -0.58933,1.14795 -1.61517,1.34551 -1.2146,0.23391 -1.70873,-0.11011 -1.41666,-0.98631 z m 234.0318,-0.0955 c 0.2292,-0.6875 1.0167,-1.25 1.75,-1.25 0.7334,0 1.5209,0.5625 1.75,1.25 0.2479,0.74359 -0.4611,1.25 -1.75,1.25 -1.2889,0 -1.9978,-0.50641 -1.75,-1.25 z m -78.519,-9.40594 c 0.67703,-0.27392 2.02703,-0.29059 3,-0.0371 0.97297,0.25354 0.41903,0.47766 -1.23097,0.49804 -1.65,0.0204 -2.44606,-0.18706 -1.76903,-0.46099 z m 15.24461,-2.40712 c 19.24393,-3.70405 19.98114,-4.80654 21.25667,-31.78911 1.39589,-29.52873 0.24838,-55.99879 -3.64456,-84.07061 -2.27299,-16.39039 -2.92024,-17.09668 -18.39465,-20.07274 -22.76387,-4.37797 -37.21882,-5.46084 -73.19304,-5.48311 -18.975,-0.0118 -31.35,-0.30298 -27.5,-0.64716 21.3669,-1.91017 79.48819,-0.47522 100.92545,2.49173 16.33297,2.26052 19.60939,5.92509 21.41611,23.95331 3.35505,33.47808 3.78121,71.55356 1.07612,96.14704 -1.77509,16.13836 -5.84425,19.57138 -24.81932,20.93923 l -7.59836,0.54775 10.47558,-2.01633 z M 500.33662,565.61457 c -2.04337,-12.13817 -3.06327,-48.67001 -1.91508,-68.59605 1.12261,-19.48218 2.34429,-11.16355 2.3534,16.02482 0.005,14.40504 0.46093,32.46237 1.01357,40.12741 0.62999,8.73793 0.65273,14.28849 0.061,14.88025 -0.59176,0.59176 -1.15608,-0.31706 -1.51286,-2.43643 z m -9.57046,-112.32123 c 0,-3.04195 1.41657,-5.47578 2.53571,-4.35664 0.7311,0.73109 -0.7792,7.79762 -1.66655,7.79762 -0.47804,0 -0.86916,-1.54844 -0.86916,-3.44098 z"
         id="path88"
         style="fill:#000000;fill-opacity:1" />
    </g>
  </g>
</svg>
