<svg xmlns="http://www.w3.org/2000/svg" xmlns:xlink="http://www.w3.org/1999/xlink" width="100%" height="100%" viewBox="0 0 371 119" fill-rule="evenodd" stroke-linejoin="round" stroke-miterlimit="2" xmlns:v="https://vecta.io/nano"><path d="M201.012 111.262c-2.504.574-3.825.204-5.28-1.481-1.661-1.923-1.866-5.232-.57-9.179.428-1.304.95-2.199 1.721-2.951 1.034-1.008 1.223-1.079 2.863-1.079 1.608 0 1.828.078 2.631.935 1.793 1.914 2.264 2.914 2.435 5.177.13 1.717.034 2.568-.489 4.328-.792 2.668-1.744 3.891-3.311 4.25zm-2.945-5.828c.943.455 1.297.414 1.938-.227.699-.699.755-2.205.116-3.118-1.036-1.479-3.249.09-2.883 2.043.117.623.425 1.107.829 1.302zm157.232-36.946c1.843.56 2.101.701 1.295.707a7.31 7.31 0 0 1-2.075-.375c-.587-.209-2.271-.6-3.742-.869l-4.987-1.045-2.83-.558c-.284 0-2.158-.392-4.164-.871-7.491-1.791-9.814-2.298-14.585-3.186a360.59 360.59 0 0 1-9.355-1.89l-9.779-2.125-6.908-1.557-3.462-.842-5.613-1.299-7.15-1.647c-1.875-.429-3.591-.963-3.814-1.186-.59-.59-.546-3.207.058-3.439.687-.264 6.43 1.056 15.368 3.532 3.087.855 6.325 1.685 7.196 1.843 1.556.284 4.661 1.143 8.923 2.469a146.69 146.69 0 0 0 5.037 1.432l4.462 1.191 11.658 3.094 9.211 2.451 8.635 2.319 6.621 1.851zm-107.15-26.074c-4.363 1.053-9.485 1.966-10.29 1.833-1.969-.325-2.553-1.034-2.826-3.431-.289-2.538-2.504-4.173-5.653-4.173-1.732 0-3.754.805-5.71 2.273l-.949.712-2.793-.632c-1.537-.347-4.056-.866-5.599-1.153s-3.226-.655-3.742-.818-4.045-.9-7.845-1.637-7.88-1.639-9.067-2.005-2.936-.821-3.886-1.01-3.605-.788-5.901-1.331l-16.983-3.87c-.871-.161-3.494-.748-5.829-1.304l-7.484-1.711-5.972-1.297c-1.504-.327-3.383-.703-4.174-.835-2.081-.347-12.565-2.739-17.271-3.941-2.217-.566-4.964-1.202-6.106-1.414s-2.891-.598-3.886-.859-2.717-.641-3.825-.845c-8.352-1.536-17.786-3.65-22.884-5.127-4.909-1.423-8.061-2.181-16.263-3.911L64.7 4.076c-1.673-.384-4.742-.924-6.819-1.199-2.524-.334-3.826-.629-3.925-.888-.082-.213-.023-.465.132-.561.395-.244 5.165.369 6.5.835.61.214 1.628.476 2.261.584L79.4 5.896l6.908 1.261c.554.085 2.109.359 3.454.61l5.613 1.022 13.385 2.46 7.053 1.288 11.514 2.133 4.605.872 9.067 1.739 9.067 1.726 4.606.84 4.605.859c2.691.494 5.089.973 9.499 1.897 1.425.298 4.016.797 5.757 1.109s4.138.781 5.325 1.044l6.045 1.305 8.347 1.859c2.454.567 5.498 1.216 6.765 1.442 3.784.675 7.819 1.492 12.089 2.446l5.325 1.151c.712.138 2.331.511 3.598.829l12.379 2.913c.254 0 3.272.66 6.707 1.466 6.439 1.513 10.706 2.765 10.706 3.144 0 .119-1.652.615-3.67 1.103zM83.04 77.502c-1.272 1.299-2.264 2.078-2.627 2.063-1.046-.044-2.944-1.099-3.867-2.149l-.903-1.029.578-.812c.443-.622.9-.859 1.95-1.009.754-.109 2.382-.512 3.617-.897 2.781-.867 3.197-.871 3.579-.034.409.898.134 1.356-2.327 3.867zm6.449-11.615c-.571.572-.936.609-6.57.667-3.411.036-6.26-.059-6.652-.221-.627-.258-.673-.405-.524-1.664.249-2.099 2.067-5.66 3.716-7.274 2.605-2.551 6.911-3.916 8.686-2.754 1.433.939 1.899 2.587 1.925 6.8.021 3.535-.025 3.89-.581 4.446zm53.333 18.524c-.63.838-.844.931-2.056.894-2.037-.063-7.88-.466-14.162-.976l-6.476-.483c-.475-.014-2.03-.13-3.454-.258s-6.218-.369-10.65-.537c-9.007-.341-10.487-.485-10.699-1.039-.081-.211.671-1.976 1.671-3.922l3.074-6.128c2.07-4.273 2.885-5.058 5.666-5.457 1.688-.242 7.204-1.563 10.079-2.413 1.106-.327 3.694-.929 5.752-1.338a148.86 148.86 0 0 0 6.477-1.443c4.586-1.174 14.679-3.539 17.271-4.047 3.995-.784 7.892-1.775 10.197-2.593 2.341-.831 2.874-.802 3.129.172.119.454-.06.849-.629 1.392-.437.417-1.56 2.313-2.497 4.213-1.822 3.696-8.045 15.579-9.252 17.668-.401.693-1.181 2.183-1.733 3.31s-1.321 2.47-1.708 2.985z" fill="#fff"/><use xlink:href="#B" fill="red"/><path d="M238 118.73c-3.003-.414-4.099-1.176-5.748-3.997-.669-1.143-.973-2.109-1.144-3.64-.129-1.147-.312-2.212-.408-2.366-.223-.362-3.224-.797-10.403-1.51l-6.983-.748c-.765-.11-1.378-.05-1.631.161-.224.185-.689 1.265-1.033 2.4-.872 2.87-1.772 4.531-3.114 5.743-2.123 1.918-3.503 2.281-7.401 1.947-3.155-.27-4.671-.978-6.183-2.887-1.222-1.542-2.298-4.968-2.285-7.269.011-1.733.435-4.221 1.155-6.765.339-1.196.306-1.329-1.055-4.236-1.631-3.484-1.573-3.447-5.579-3.554-1.504-.04-3.836-.2-5.181-.355s-5.426-.408-9.068-.561l-10.362-.547-10.075-.718c-3.482-.247-8.081-.641-10.218-.875l-10.506-1.02-8.347-.863c-.95-.148-4.123-.471-7.052-.717l-10.218-.86c-2.692-.227-6.642-.49-8.78-.584l-3.885-.172-2.13 2.154c-1.91 1.932-2.272 2.174-3.513 2.345-2.477.341-2.647-.463-.527-2.496 1.166-1.118 1.44-1.556 1.367-2.187-.08-.7-.27-.832-1.674-1.159-2.576-.601-6.925-2.1-8.333-2.872-.72-.395-2.055-1.358-2.965-2.141-1.824-1.567-2.811-1.958-4.948-1.958-1.462 0-4.26-.311-9.084-1.009l-5.469-.728a149.58 149.58 0 0 1-5.181-.737 37.38 37.38 0 0 0-4.984-.404c-2.834-.001-3.652-.283-3.652-1.261 0-.836.826-1.599 2.066-1.908.961-.239 1.895-.517 8.009-2.384 4.313-1.317 9.278-1.801 15.755-1.535 3.742.153 4.87.109 5.662-.222 1.046-.438 1.611-1.195 1.611-2.16 0-1.905 2.032-6.009 3.862-7.803 1.916-1.876 3.132-2.674 5.061-3.32 2.43-.813 4.288-.719 5.746.292 2.093 1.45 2.395 2.426 2.478 8.017.04 2.664.132 4.904.206 4.978s1.746.203 3.715.287c3.196.136 3.764.085 5.289-.476 2.173-.799 3.362-1.124 10.056-2.742 3.008-.728 5.987-1.494 6.62-1.703s2.835-.731 4.894-1.16 6.591-1.468 10.075-2.309l10.794-2.436c4.413-.896 10.391-2.224 11.226-2.494.785-.254-.46-.87-3.988-1.972l-14.147-4.618-9.355-3.054-6.044-1.869-5.469-1.672c-1.742-.524-4.073-1.286-5.182-1.693s-3.375-1.12-5.037-1.584c-3.54-.988-4.767-1.369-10.362-3.213-2.296-.756-5.648-1.794-7.451-2.306s-4.069-1.242-5.037-1.623c-2.58-1.016-7.203-2.307-9.676-2.702-1.746-.279-3.266-.262-7.951.092-6.389.482-7.207.412-10.51-.9-2.119-.842-14.117-4.897-18.384-6.215-1.187-.366-4.619-1.524-7.627-2.573-10.44-3.641-25.049-8.485-26.194-8.686C.456 8.327-.094 7.974.009 7.269c.069-.472.736-.878 2.968-1.809C13.092 1.241 18.396.327 24.565 1.74c.95.218 2.504.527 3.454.687l4.372.77 2.645.479 2.392-1.162C41.207.678 43.3.175 47.744.038c5.107-.158 9.461.187 13.521 1.072 2.94.641 7.991 1.609 13.097 2.51a80.65 80.65 0 0 1 3.023.598c.712.161 3.821.737 6.908 1.279l17.271 2.988c.871.135 2.231.393 3.023.575s2.799.572 4.461.868l19.286 3.591 30.512 5.758a314.39 314.39 0 0 1 8.348 1.6l7.771 1.576 15.544 3.281c2.612.637 6.347 1.39 15.112 3.046l12.089 2.462 10.794 2.569c.555.151 3.793.869 7.197 1.595 7.77 1.658 15.58 3.662 17.271 4.433 1.217.555 3.166.818 3.166.426 0-.097-.432-.777-.96-1.511-1.47-2.043-3.07-4.812-3.07-5.313 0-.69 1.157-1.346 2.376-1.346 1.396 0 2.877.62 4.366 1.828 1.187.963 5.583 3.894 6.643 4.428.316.16 1.223.383 2.015.496 3.116.444 6.196 2.629 9.068 6.433.649.86.927.981 2.874 1.248 2.233.307 10.842 2.403 16.122 3.925 5.306 1.53 9.011 2.408 11.082 2.627 1.109.118 2.298.366 2.644.552s.864.339 1.152.339 1.321.378 2.297.84c2.063.976 7.629 2.671 17.943 5.465l25.762 7.211c.475.141 1.616.407 2.535.59s2.79.712 4.156 1.174c1.887.637 3.013.839 4.684.839 2.022 0 2.23.056 2.566.684.271.505.285.836.054 1.266-.343.642-2.545 1.504-3.84 1.504-.454 0-1.629.184-2.612.408-3.117.712-6.381 1.32-7.084 1.32-1.096 0-2.906.636-2.906 1.022 0 .468.564.664 2.824.984 4.395.623 3.227 2.532-2.741 4.481-8.364 2.732-17.12 4.099-21.413 3.344-2.56-.45-8.12-1.317-14.074-2.194l-9.067-1.458-7.728-1.302c-5.321-.843-8.819-2.2-10.667-4.138-.49-.515-1.539-1.164-2.33-1.443s-2.087-.766-2.879-1.082c-1.731-.691-7.54-1.202-9.067-.798-.554.147-1.914.849-3.022 1.56-5.71 3.662-7.118 4.475-9.499 5.478l-4.462 1.889c-1.029.438-3.733 1.462-6.009 2.276-4.972 1.776-5.743 2.155-6.063 2.98-.136.349-.651 2.059-1.144 3.8l-1.208 4.126c-.482 1.49-.081 2.74 1.471 4.598 1.952 2.336 2.711 5.037 2.518 8.958-.186 3.799-1.024 6.3-2.715 8.108-2.128 2.274-4.402 2.866-8.726 2.269H238zm-36.988-7.468c1.567-.359 2.519-1.582 3.311-4.25.523-1.76.619-2.611.489-4.328-.171-2.263-.642-3.263-2.435-5.176-.803-.858-1.023-.936-2.631-.936-1.64 0-1.829.071-2.863 1.079-.771.752-1.293 1.647-1.721 2.951-1.296 3.947-1.091 7.256.57 9.179 1.455 1.685 2.776 2.055 5.28 1.481h0zm-2.945-5.828c-.404-.195-.712-.679-.829-1.302-.366-1.953 1.847-3.522 2.883-2.043.639.913.583 2.419-.116 3.118-.641.641-.995.682-1.938.227h0zm32.815-.531c.209-.334-.213-1.47-1.66-4.462-1.068-2.207-2.046-4.337-2.175-4.733-.608-1.875-1.725-4.19-2.182-4.525-.279-.204-.708-.311-.954-.239-.913.27-6.558.782-8.442.766-2.164-.019-2.909.416-3.262 1.904-.104.44-.483 1.512-.842 2.382-.584 1.419-.627 1.822-.409 3.886l.259 2.786c.034 1.06.744 1.296 4.526 1.506 2.031.112 4.665.339 5.852.503 6.472.898 8.832.955 9.289.226h0zm1.621-5.668c.975-3.362 2.242-9.123 2.096-9.533-.112-.314-.671-.354-2.759-.197-2.768.208-4.562.856-4.729 1.707-.177.907 3.96 9.966 4.551 9.966.152 0 .531-.875.841-1.943h0zm4.107-1.636c1.002-.544 1.938-1.17 2.079-1.392.164-.259-.016-1.354-.504-3.055-.418-1.458-.76-2.896-.76-3.196 0-.672-.523-1.036-.919-.64-.161.161-.464 1.05-.673 1.975a147.04 147.04 0 0 1-.978 3.95c-.652 2.478-.738 3.346-.332 3.346.146 0 1.085-.445 2.087-.988h0zm-40.974-2.082c1.592-.906 2.93-2.079 2.93-2.568 0-.61-2.921-.93-4.799-.527l-1.736.384c-.072.03.816 1.965 1.3 2.83.46.825.667.814 2.305-.119h0zm14.722-1.274c.697-1.307.851-1.837.608-2.08-.401-.402-6.336-.283-6.843.137-.44.365-.161 1.106.417 1.106.665 0 3.401 1.402 3.975 2.036.276.305.593.554.705.554s.624-.789 1.138-1.753h0zm33.496.53c1.381-3.912 2.29-7.444 1.991-7.743-.381-.38-3.539.114-5.542.868-1.54.579-1.697 1.097-1.051 3.464l.761 2.85c.346 1.336.909 1.734 2.497 1.766.819.017.956-.107 1.344-1.205h0zm-41.586-2.423c-.34-.41-1.066-.493-1.807-.209-.749.288-.518.839.48 1.146.731.225 1.013.196 1.29-.133.261-.309.271-.522.037-.804h0zm-2.119-7.304c10.375-1.058 15.744-2.088 25.618-4.914l9.315-2.57c1.799-.462 4.098-1.231 5.11-1.709s1.952-.869 2.09-.869c.675 0 4.061-1.269 7.536-2.823 2.129-.952 5.025-2.163 6.436-2.691 3.298-1.234 3.592-1.653 3.3-4.703-.115-1.205-.297-6.168-.403-11.027-.126-5.696-.307-8.973-.51-9.221-.397-.484-1.504-.352-5.241.625-12.521 3.274-20.545 4.705-25.906 4.622-2.908-.045-4.142-.393-6.459-1.824-1.356-.837-1.953-1.064-2.218-.844-.2.166-1.62 2.201-3.157 4.523-6.047 9.139-9.246 13.824-10.198 14.936-.301.352-.871 1.129-1.266 1.727a67.78 67.78 0 0 1-1.56 2.238c-.463.633-1.855 2.641-3.094 4.462s-2.861 4.092-3.607 5.048c-2.142 2.745-3.457 4.812-3.21 5.044.619.582 1.455.579 7.424-.03h0zm-57.327-.635c.387-.515 1.155-1.858 1.708-2.985s1.332-2.617 1.733-3.31c1.207-2.089 7.43-13.972 9.252-17.668.937-1.9 2.06-3.796 2.497-4.213.569-.543.748-.938.629-1.392-.255-.974-.788-1.003-3.129-.172-2.305.818-6.202 1.809-10.197 2.593-2.592.508-12.685 2.873-17.271 4.047a148.86 148.86 0 0 1-6.477 1.443c-2.058.409-4.646 1.011-5.752 1.338-2.875.85-8.391 2.171-10.079 2.413-2.781.399-3.596 1.184-5.666 5.457l-3.074 6.128c-1 1.946-1.752 3.711-1.671 3.922.212.554 1.692.698 10.699 1.039l10.65.537c1.424.128 2.979.244 3.454.258s3.389.232 6.476.483l14.162.976c1.212.037 1.426-.056 2.056-.894h0zM83.04 77.502c2.461-2.511 2.736-2.969 2.327-3.867-.382-.837-.798-.833-3.579.034-1.235.385-2.863.788-3.617.897-1.05.15-1.507.387-1.95 1.009l-.578.812.903 1.029c.923 1.05 2.821 2.105 3.867 2.149.363.015 1.355-.764 2.627-2.063h0zm276.72-7.699c0-.159-.267-.288-.592-.288s-.513.129-.415.288.364.287.592.287.415-.129.415-.287zm-4.461-1.315c-1.267-.385-4.246-1.218-6.621-1.851l-8.635-2.319-9.211-2.451-11.658-3.094-4.462-1.191a146.69 146.69 0 0 1-5.037-1.432c-4.262-1.326-7.367-2.185-8.923-2.469-.871-.158-4.109-.988-7.196-1.843-8.938-2.476-14.681-3.796-15.368-3.532-.604.232-.648 2.849-.058 3.439.223.223 1.939.757 3.814 1.186l7.15 1.647 5.613 1.299 3.462.842c.875.227 3.983.927 6.908 1.557l9.779 2.125a360.59 360.59 0 0 0 9.355 1.89c4.771.888 7.094 1.395 14.585 3.186 2.006.479 3.88.871 4.164.871s1.559.251 2.83.558 3.516.777 4.987 1.045 3.155.66 3.742.869a7.31 7.31 0 0 0 2.075.375c.806-.006.548-.147-1.295-.707h0zm-265.81-2.6c.556-.557.602-.912.581-4.447-.026-4.213-.492-5.861-1.925-6.8-1.775-1.162-6.081.203-8.686 2.754-1.649 1.614-3.467 5.175-3.716 7.274-.149 1.259-.103 1.406.524 1.664.392.162 3.241.257 6.652.221 5.634-.058 5.999-.095 6.57-.667v.001zm158.66-23.474c2.018-.488 3.67-.984 3.67-1.103 0-.379-4.267-1.631-10.706-3.144-3.435-.806-6.453-1.466-6.707-1.466-.416 0-6.226-1.367-12.379-2.913-1.267-.318-2.886-.691-3.598-.829s-3.109-.656-5.325-1.151c-4.27-.954-8.305-1.771-12.089-2.446-1.267-.226-4.311-.875-6.765-1.442l-8.347-1.859-6.045-1.305c-1.187-.263-3.584-.732-5.325-1.044l-5.757-1.109-9.499-1.897-4.605-.859-4.606-.84-9.067-1.726-9.067-1.739-4.605-.872-11.514-2.133-7.053-1.288-13.385-2.46-5.613-1.022-3.454-.61c-.554-.085-3.663-.652-6.908-1.261L62.849 2.847c-.633-.108-1.651-.37-2.261-.584-1.335-.466-6.105-1.079-6.5-.835-.155.096-.214.348-.132.561.099.259 1.401.554 3.925.888 2.077.275 5.146.815 6.819 1.199l8.511 1.852c8.202 1.73 11.354 2.488 16.263 3.911 5.098 1.477 14.532 3.591 22.884 5.127 1.108.204 2.83.584 3.825.845s2.744.647 3.886.859 3.889.848 6.106 1.414c4.706 1.202 15.19 3.594 17.271 3.941.791.132 2.67.508 4.174.835l5.972 1.297 7.484 1.711 5.829 1.304c1.574.291 9.01 1.985 16.983 3.87l5.901 1.331c.95.189 2.698.644 3.886 1.01s5.267 1.269 9.067 2.005l7.845 1.637c.516.163 2.199.532 3.742.818s4.062.806 5.599 1.153l2.793.632.949-.712c1.956-1.468 3.978-2.273 5.71-2.273 3.149 0 5.364 1.635 5.653 4.173.273 2.397.857 3.106 2.826 3.431.805.133 5.927-.78 10.29-1.833h0z" fill="#071176" fill-rule="nonzero"/><use xlink:href="#B" fill="#fff"/><defs ><path id="B" d="M200.149 85.046c-5.969.609-6.805.612-7.424.03-.247-.232 1.068-2.299 3.21-5.044l3.607-5.048 3.094-4.462 1.56-2.238 1.266-1.727c.952-1.112 4.151-5.797 10.198-14.936 1.537-2.322 2.957-4.357 3.157-4.523.265-.22.862.007 2.218.844 2.317 1.431 3.551 1.779 6.459 1.824 5.361.083 13.385-1.348 25.906-4.622 3.737-.977 4.844-1.109 5.241-.625.203.248.384 3.525.51 9.221l.403 11.027c.292 3.05-.002 3.469-3.3 4.703-1.411.528-4.307 1.739-6.436 2.691-3.475 1.554-6.861 2.823-7.536 2.823-.138 0-1.078.391-2.09.869s-3.311 1.247-5.11 1.709-5.99 1.618-9.315 2.57c-9.874 2.826-15.243 3.856-25.618 4.914z"/></defs></svg>