<?xml version="1.0" encoding="UTF-8" standalone="no"?>
<!DOCTYPE svg PUBLIC "-//W3C//DTD SVG 1.1//EN" "http://www.w3.org/Graphics/SVG/1.1/DTD/svg11.dtd">
<svg width="100%" height="100%" viewBox="0 0 4167 917" version="1.1" xmlns="http://www.w3.org/2000/svg" xmlns:xlink="http://www.w3.org/1999/xlink" xml:space="preserve" xmlns:serif="http://www.serif.com/" style="fill-rule:evenodd;clip-rule:evenodd;stroke-linejoin:round;stroke-miterlimit:2;">
    <g transform="matrix(2.1148,0,0,1.13291,-66.3919,-23.2023)">
        <rect x="37.128" y="24.084" width="1960.12" height="790.05" style="fill:white;"/>
    </g>
    <g transform="matrix(0.747102,0,0,0.747102,14.3134,-53.4039)">
        <g transform="matrix(1366.04,0,0,1366.04,176.011,1153.67)">
            <path d="M-0.016,-0.641L-0.016,-0.682C0.038,-0.679 0.086,-0.678 0.127,-0.678C0.171,-0.678 0.221,-0.679 0.278,-0.682L0.278,-0.641C0.243,-0.639 0.222,-0.637 0.215,-0.633C0.208,-0.629 0.204,-0.622 0.204,-0.613C0.204,-0.602 0.214,-0.549 0.235,-0.454L0.29,-0.199L0.415,-0.458C0.464,-0.559 0.499,-0.634 0.52,-0.682L0.563,-0.682L0.767,-0.175L0.849,-0.478C0.866,-0.543 0.875,-0.589 0.875,-0.613C0.875,-0.624 0.872,-0.631 0.865,-0.634C0.858,-0.637 0.835,-0.64 0.796,-0.641L0.796,-0.682C0.856,-0.679 0.894,-0.678 0.911,-0.678C0.931,-0.678 0.966,-0.679 1.016,-0.682L1.016,-0.641C0.989,-0.638 0.972,-0.634 0.965,-0.628C0.957,-0.622 0.95,-0.608 0.942,-0.584C0.931,-0.549 0.902,-0.447 0.855,-0.278L0.778,0.007L0.686,0.007L0.49,-0.486L0.365,-0.222C0.326,-0.14 0.291,-0.063 0.261,0.007L0.191,0.007C0.182,-0.033 0.155,-0.155 0.109,-0.359L0.058,-0.588C0.052,-0.611 0.047,-0.624 0.041,-0.629C0.034,-0.634 0.015,-0.638 -0.016,-0.641Z" style="fill:rgb(2,101,111);fill-rule:nonzero;"/>
        </g>
        <g transform="matrix(1366.04,0,0,1366.04,1542.05,1153.67)">
            <path d="M-0.016,-0.641L-0.016,-0.682C0.038,-0.679 0.086,-0.678 0.127,-0.678C0.171,-0.678 0.221,-0.679 0.278,-0.682L0.278,-0.641C0.243,-0.639 0.222,-0.637 0.215,-0.633C0.208,-0.629 0.204,-0.622 0.204,-0.613C0.204,-0.602 0.214,-0.549 0.235,-0.454L0.29,-0.199L0.415,-0.458C0.464,-0.559 0.499,-0.634 0.52,-0.682L0.563,-0.682L0.767,-0.175L0.849,-0.478C0.866,-0.543 0.875,-0.589 0.875,-0.613C0.875,-0.624 0.872,-0.631 0.865,-0.634C0.858,-0.637 0.835,-0.64 0.796,-0.641L0.796,-0.682C0.856,-0.679 0.894,-0.678 0.911,-0.678C0.931,-0.678 0.966,-0.679 1.016,-0.682L1.016,-0.641C0.989,-0.638 0.972,-0.634 0.965,-0.628C0.957,-0.622 0.95,-0.608 0.942,-0.584C0.931,-0.549 0.902,-0.447 0.855,-0.278L0.778,0.007L0.686,0.007L0.49,-0.486L0.365,-0.222C0.326,-0.14 0.291,-0.063 0.261,0.007L0.191,0.007C0.182,-0.033 0.155,-0.155 0.109,-0.359L0.058,-0.588C0.052,-0.611 0.047,-0.624 0.041,-0.629C0.034,-0.634 0.015,-0.638 -0.016,-0.641Z" style="fill:rgb(2,101,111);fill-rule:nonzero;"/>
        </g>
        <g transform="matrix(1366.04,0,0,1366.04,2908.08,1153.67)">
            <path d="M-0.016,-0.641L-0.016,-0.682C0.038,-0.679 0.086,-0.678 0.127,-0.678C0.171,-0.678 0.221,-0.679 0.278,-0.682L0.278,-0.641C0.243,-0.639 0.222,-0.637 0.215,-0.633C0.208,-0.629 0.204,-0.622 0.204,-0.613C0.204,-0.602 0.214,-0.549 0.235,-0.454L0.29,-0.199L0.415,-0.458C0.464,-0.559 0.499,-0.634 0.52,-0.682L0.563,-0.682L0.767,-0.175L0.849,-0.478C0.866,-0.543 0.875,-0.589 0.875,-0.613C0.875,-0.624 0.872,-0.631 0.865,-0.634C0.858,-0.637 0.835,-0.64 0.796,-0.641L0.796,-0.682C0.856,-0.679 0.894,-0.678 0.911,-0.678C0.931,-0.678 0.966,-0.679 1.016,-0.682L1.016,-0.641C0.989,-0.638 0.972,-0.634 0.965,-0.628C0.957,-0.622 0.95,-0.608 0.942,-0.584C0.931,-0.549 0.902,-0.447 0.855,-0.278L0.778,0.007L0.686,0.007L0.49,-0.486L0.365,-0.222C0.326,-0.14 0.291,-0.063 0.261,0.007L0.191,0.007C0.182,-0.033 0.155,-0.155 0.109,-0.359L0.058,-0.588C0.052,-0.611 0.047,-0.624 0.041,-0.629C0.034,-0.634 0.015,-0.638 -0.016,-0.641Z" style="fill:rgb(2,101,111);fill-rule:nonzero;"/>
        </g>
    </g>
    <g transform="matrix(0.878874,0,0,0.878874,1527.41,-994.085)">
        <g transform="matrix(291.667,0,0,291.667,2096.13,1464.09)">
            <path d="M0.004,-0.421L0.004,-0.461C0.044,-0.459 0.095,-0.458 0.157,-0.458C0.202,-0.458 0.242,-0.459 0.278,-0.461L0.278,-0.421L0.246,-0.419C0.229,-0.419 0.219,-0.417 0.214,-0.415C0.21,-0.412 0.208,-0.407 0.208,-0.401C0.208,-0.397 0.213,-0.373 0.225,-0.328L0.272,-0.151L0.37,-0.367C0.393,-0.417 0.408,-0.452 0.416,-0.474L0.468,-0.474C0.49,-0.413 0.536,-0.306 0.606,-0.151L0.649,-0.282C0.671,-0.348 0.682,-0.387 0.682,-0.398C0.682,-0.406 0.679,-0.411 0.673,-0.415C0.668,-0.417 0.648,-0.419 0.612,-0.421L0.612,-0.461C0.658,-0.459 0.694,-0.458 0.72,-0.458C0.748,-0.458 0.779,-0.459 0.815,-0.461L0.815,-0.421C0.79,-0.42 0.774,-0.418 0.768,-0.415C0.764,-0.412 0.76,-0.407 0.756,-0.401C0.747,-0.384 0.725,-0.326 0.69,-0.228C0.666,-0.156 0.641,-0.079 0.616,0.003L0.536,0.003C0.5,-0.09 0.455,-0.192 0.403,-0.304C0.346,-0.188 0.3,-0.086 0.266,0.003L0.185,0.003C0.171,-0.056 0.15,-0.136 0.121,-0.236C0.092,-0.337 0.075,-0.391 0.07,-0.401C0.067,-0.406 0.063,-0.41 0.06,-0.413C0.053,-0.416 0.035,-0.419 0.004,-0.421Z" style="fill-rule:nonzero;"/>
        </g>
        <g transform="matrix(291.667,0,0,291.667,2339.09,1464.09)">
            <path d="M0.04,-0.229C0.04,-0.306 0.058,-0.364 0.094,-0.403C0.138,-0.449 0.2,-0.472 0.282,-0.472C0.363,-0.472 0.423,-0.453 0.46,-0.416C0.497,-0.38 0.516,-0.321 0.516,-0.242C0.516,-0.16 0.495,-0.097 0.451,-0.053C0.408,-0.008 0.348,0.014 0.271,0.014C0.196,0.014 0.139,-0.007 0.099,-0.048C0.06,-0.09 0.04,-0.15 0.04,-0.229ZM0.175,-0.262C0.175,-0.175 0.186,-0.114 0.208,-0.077C0.226,-0.048 0.252,-0.034 0.286,-0.034C0.316,-0.034 0.34,-0.046 0.356,-0.07C0.373,-0.095 0.381,-0.138 0.381,-0.202C0.381,-0.29 0.371,-0.35 0.351,-0.384C0.334,-0.41 0.308,-0.424 0.273,-0.424C0.243,-0.424 0.219,-0.412 0.201,-0.387C0.184,-0.363 0.175,-0.321 0.175,-0.262Z" style="fill-rule:nonzero;"/>
        </g>
        <g transform="matrix(291.667,0,0,291.667,2501.31,1464.09)">
            <path d="M0.01,0.003L0.01,-0.037C0.043,-0.038 0.062,-0.04 0.067,-0.042C0.071,-0.044 0.074,-0.048 0.076,-0.052C0.08,-0.06 0.082,-0.077 0.083,-0.104C0.084,-0.151 0.084,-0.195 0.084,-0.234C0.084,-0.309 0.083,-0.354 0.082,-0.368C0.081,-0.376 0.078,-0.382 0.073,-0.385C0.068,-0.388 0.047,-0.391 0.01,-0.392L0.01,-0.43C0.076,-0.436 0.123,-0.444 0.151,-0.453L0.201,-0.472C0.206,-0.472 0.208,-0.469 0.208,-0.462L0.208,-0.456C0.207,-0.435 0.206,-0.406 0.206,-0.367C0.223,-0.383 0.241,-0.403 0.261,-0.428C0.276,-0.446 0.289,-0.458 0.3,-0.463C0.311,-0.469 0.326,-0.472 0.345,-0.472C0.355,-0.472 0.366,-0.47 0.376,-0.466C0.374,-0.434 0.372,-0.389 0.371,-0.333L0.349,-0.326C0.341,-0.338 0.333,-0.347 0.324,-0.352C0.315,-0.357 0.303,-0.36 0.289,-0.36C0.27,-0.36 0.253,-0.355 0.239,-0.345C0.225,-0.335 0.216,-0.323 0.212,-0.31C0.209,-0.3 0.208,-0.267 0.208,-0.21C0.208,-0.127 0.209,-0.079 0.211,-0.066C0.213,-0.056 0.216,-0.05 0.221,-0.047C0.228,-0.042 0.253,-0.039 0.294,-0.037L0.294,0.003L0.24,0.002C0.205,0.001 0.175,0 0.149,0C0.125,0 0.097,0.001 0.065,0.002L0.01,0.003Z" style="fill-rule:nonzero;"/>
        </g>
        <g transform="matrix(291.667,0,0,291.667,2614.81,1464.09)">
            <path d="M0.028,-0.651L0.028,-0.68C0.074,-0.686 0.111,-0.692 0.137,-0.699C0.164,-0.705 0.193,-0.715 0.224,-0.727L0.236,-0.716C0.231,-0.599 0.229,-0.437 0.229,-0.228C0.229,-0.186 0.23,-0.144 0.231,-0.101C0.232,-0.073 0.233,-0.057 0.236,-0.053C0.238,-0.049 0.242,-0.045 0.247,-0.042C0.253,-0.04 0.272,-0.038 0.305,-0.037L0.305,0.003L0.254,0.002C0.222,0.001 0.195,0 0.174,0L0.028,0.003L0.028,-0.037L0.064,-0.039C0.08,-0.039 0.091,-0.042 0.095,-0.048C0.1,-0.053 0.103,-0.073 0.104,-0.109C0.106,-0.158 0.106,-0.228 0.106,-0.319L0.106,-0.528C0.106,-0.591 0.104,-0.627 0.101,-0.635C0.099,-0.639 0.097,-0.642 0.093,-0.644C0.087,-0.648 0.066,-0.65 0.028,-0.651Z" style="fill-rule:nonzero;"/>
        </g>
        <g transform="matrix(291.667,0,0,291.667,2711.94,1464.09)">
            <path d="M0.397,-0.451L0.397,-0.535C0.397,-0.587 0.396,-0.618 0.394,-0.626C0.392,-0.632 0.389,-0.636 0.384,-0.639C0.379,-0.641 0.358,-0.643 0.318,-0.644L0.318,-0.679C0.396,-0.688 0.461,-0.703 0.513,-0.726L0.526,-0.714C0.523,-0.662 0.521,-0.612 0.52,-0.565L0.517,-0.182C0.517,-0.118 0.518,-0.078 0.521,-0.064C0.522,-0.056 0.525,-0.05 0.53,-0.046C0.535,-0.043 0.555,-0.04 0.59,-0.037L0.59,0.003C0.55,0.001 0.511,0 0.473,0C0.446,0 0.42,0.001 0.397,0.003L0.388,-0.002C0.392,-0.035 0.395,-0.062 0.397,-0.082C0.375,-0.065 0.34,-0.037 0.291,0.003C0.272,0.01 0.255,0.014 0.239,0.014C0.185,0.014 0.14,-0.006 0.104,-0.047C0.068,-0.087 0.05,-0.14 0.05,-0.207C0.05,-0.24 0.053,-0.269 0.061,-0.296C0.068,-0.323 0.077,-0.342 0.087,-0.356C0.097,-0.369 0.117,-0.386 0.146,-0.407C0.187,-0.436 0.217,-0.453 0.236,-0.461C0.254,-0.468 0.275,-0.472 0.297,-0.472C0.313,-0.472 0.329,-0.47 0.346,-0.467C0.362,-0.463 0.379,-0.458 0.397,-0.451ZM0.397,-0.346C0.382,-0.368 0.364,-0.384 0.345,-0.395C0.325,-0.406 0.304,-0.411 0.28,-0.411C0.246,-0.411 0.221,-0.399 0.203,-0.375C0.185,-0.351 0.176,-0.311 0.176,-0.255C0.176,-0.197 0.187,-0.153 0.209,-0.125C0.231,-0.096 0.259,-0.082 0.293,-0.082C0.316,-0.082 0.337,-0.088 0.357,-0.102C0.377,-0.115 0.388,-0.127 0.392,-0.138C0.395,-0.149 0.397,-0.191 0.397,-0.264L0.397,-0.346Z" style="fill-rule:nonzero;"/>
        </g>
        <g transform="matrix(291.667,0,0,291.667,2096.13,1755.76)">
            <path d="M0.004,-0.421L0.004,-0.461C0.044,-0.459 0.095,-0.458 0.157,-0.458C0.202,-0.458 0.242,-0.459 0.278,-0.461L0.278,-0.421L0.246,-0.419C0.229,-0.419 0.219,-0.417 0.214,-0.415C0.21,-0.412 0.208,-0.407 0.208,-0.401C0.208,-0.397 0.213,-0.373 0.225,-0.328L0.272,-0.151L0.37,-0.367C0.393,-0.417 0.408,-0.452 0.416,-0.474L0.468,-0.474C0.49,-0.413 0.536,-0.306 0.606,-0.151L0.649,-0.282C0.671,-0.348 0.682,-0.387 0.682,-0.398C0.682,-0.406 0.679,-0.411 0.673,-0.415C0.668,-0.417 0.648,-0.419 0.612,-0.421L0.612,-0.461C0.658,-0.459 0.694,-0.458 0.72,-0.458C0.748,-0.458 0.779,-0.459 0.815,-0.461L0.815,-0.421C0.79,-0.42 0.774,-0.418 0.768,-0.415C0.764,-0.412 0.76,-0.407 0.756,-0.401C0.747,-0.384 0.725,-0.326 0.69,-0.228C0.666,-0.156 0.641,-0.079 0.616,0.003L0.536,0.003C0.5,-0.09 0.455,-0.192 0.403,-0.304C0.346,-0.188 0.3,-0.086 0.266,0.003L0.185,0.003C0.171,-0.056 0.15,-0.136 0.121,-0.236C0.092,-0.337 0.075,-0.391 0.07,-0.401C0.067,-0.406 0.063,-0.41 0.06,-0.413C0.053,-0.416 0.035,-0.419 0.004,-0.421Z" style="fill-rule:nonzero;"/>
        </g>
        <g transform="matrix(291.667,0,0,291.667,2339.09,1755.76)">
            <path d="M0.167,-0.705C0.187,-0.705 0.205,-0.698 0.22,-0.683C0.235,-0.668 0.242,-0.65 0.242,-0.629C0.242,-0.608 0.235,-0.59 0.22,-0.575C0.205,-0.561 0.187,-0.553 0.166,-0.553C0.145,-0.553 0.127,-0.561 0.113,-0.575C0.098,-0.59 0.09,-0.608 0.09,-0.629C0.09,-0.65 0.098,-0.668 0.113,-0.683C0.127,-0.698 0.145,-0.705 0.167,-0.705ZM0.031,0.003L0.031,-0.037C0.068,-0.038 0.089,-0.04 0.094,-0.043C0.1,-0.047 0.104,-0.056 0.105,-0.071C0.108,-0.091 0.109,-0.137 0.109,-0.207C0.109,-0.237 0.109,-0.265 0.108,-0.291L0.106,-0.348C0.106,-0.367 0.104,-0.379 0.1,-0.383C0.096,-0.387 0.085,-0.39 0.067,-0.391L0.031,-0.392L0.031,-0.43C0.109,-0.436 0.174,-0.45 0.225,-0.472L0.237,-0.462C0.232,-0.4 0.229,-0.309 0.229,-0.19C0.229,-0.121 0.231,-0.079 0.233,-0.065C0.235,-0.055 0.237,-0.048 0.242,-0.045C0.246,-0.042 0.267,-0.04 0.306,-0.037L0.306,0.003C0.247,0.001 0.202,0 0.169,0C0.152,0 0.106,0.001 0.031,0.003Z" style="fill-rule:nonzero;"/>
        </g>
        <g transform="matrix(291.667,0,0,291.667,2436.22,1755.76)">
            <path d="M0.397,-0.451L0.397,-0.535C0.397,-0.587 0.396,-0.618 0.394,-0.626C0.392,-0.632 0.389,-0.636 0.384,-0.639C0.379,-0.641 0.358,-0.643 0.318,-0.644L0.318,-0.679C0.396,-0.688 0.461,-0.703 0.513,-0.726L0.526,-0.714C0.523,-0.662 0.521,-0.612 0.52,-0.565L0.517,-0.182C0.517,-0.118 0.518,-0.078 0.521,-0.064C0.522,-0.056 0.525,-0.05 0.53,-0.046C0.535,-0.043 0.555,-0.04 0.59,-0.037L0.59,0.003C0.55,0.001 0.511,0 0.473,0C0.446,0 0.42,0.001 0.397,0.003L0.388,-0.002C0.392,-0.035 0.395,-0.062 0.397,-0.082C0.375,-0.065 0.34,-0.037 0.291,0.003C0.272,0.01 0.255,0.014 0.239,0.014C0.185,0.014 0.14,-0.006 0.104,-0.047C0.068,-0.087 0.05,-0.14 0.05,-0.207C0.05,-0.24 0.053,-0.269 0.061,-0.296C0.068,-0.323 0.077,-0.342 0.087,-0.356C0.097,-0.369 0.117,-0.386 0.146,-0.407C0.187,-0.436 0.217,-0.453 0.236,-0.461C0.254,-0.468 0.275,-0.472 0.297,-0.472C0.313,-0.472 0.329,-0.47 0.346,-0.467C0.362,-0.463 0.379,-0.458 0.397,-0.451ZM0.397,-0.346C0.382,-0.368 0.364,-0.384 0.345,-0.395C0.325,-0.406 0.304,-0.411 0.28,-0.411C0.246,-0.411 0.221,-0.399 0.203,-0.375C0.185,-0.351 0.176,-0.311 0.176,-0.255C0.176,-0.197 0.187,-0.153 0.209,-0.125C0.231,-0.096 0.259,-0.082 0.293,-0.082C0.316,-0.082 0.337,-0.088 0.357,-0.102C0.377,-0.115 0.388,-0.127 0.392,-0.138C0.395,-0.149 0.397,-0.191 0.397,-0.264L0.397,-0.346Z" style="fill-rule:nonzero;"/>
        </g>
        <g transform="matrix(291.667,0,0,291.667,2614.38,1755.76)">
            <path d="M0.436,-0.091L0.45,-0.077L0.428,-0.03C0.405,-0.015 0.38,-0.005 0.353,0.003C0.326,0.01 0.297,0.014 0.267,0.014C0.196,0.014 0.14,-0.007 0.099,-0.048C0.059,-0.089 0.038,-0.147 0.038,-0.222C0.038,-0.269 0.044,-0.308 0.056,-0.339C0.066,-0.364 0.082,-0.385 0.104,-0.402C0.127,-0.418 0.152,-0.434 0.181,-0.449C0.211,-0.464 0.243,-0.472 0.277,-0.472C0.331,-0.472 0.375,-0.457 0.41,-0.427C0.444,-0.397 0.462,-0.349 0.462,-0.283C0.462,-0.275 0.461,-0.262 0.46,-0.246L0.38,-0.231C0.355,-0.229 0.32,-0.229 0.273,-0.229L0.167,-0.229C0.172,-0.172 0.189,-0.13 0.217,-0.102C0.246,-0.073 0.282,-0.059 0.327,-0.059C0.345,-0.059 0.364,-0.062 0.382,-0.067C0.4,-0.073 0.418,-0.08 0.436,-0.091ZM0.164,-0.28C0.193,-0.278 0.223,-0.276 0.252,-0.276C0.278,-0.276 0.305,-0.278 0.333,-0.28L0.333,-0.303C0.333,-0.343 0.326,-0.373 0.312,-0.391C0.297,-0.41 0.277,-0.419 0.252,-0.419C0.234,-0.419 0.219,-0.415 0.207,-0.406C0.194,-0.397 0.184,-0.385 0.178,-0.369C0.172,-0.354 0.167,-0.324 0.164,-0.28Z" style="fill-rule:nonzero;"/>
        </g>
        <g transform="matrix(291.667,0,0,291.667,2096.13,2047.43)">
            <path d="M0.004,-0.421L0.004,-0.461C0.044,-0.459 0.095,-0.458 0.157,-0.458C0.202,-0.458 0.242,-0.459 0.278,-0.461L0.278,-0.421L0.246,-0.419C0.229,-0.419 0.219,-0.417 0.214,-0.415C0.21,-0.412 0.208,-0.407 0.208,-0.401C0.208,-0.397 0.213,-0.373 0.225,-0.328L0.272,-0.151L0.37,-0.367C0.393,-0.417 0.408,-0.452 0.416,-0.474L0.468,-0.474C0.49,-0.413 0.536,-0.306 0.606,-0.151L0.649,-0.282C0.671,-0.348 0.682,-0.387 0.682,-0.398C0.682,-0.406 0.679,-0.411 0.673,-0.415C0.668,-0.417 0.648,-0.419 0.612,-0.421L0.612,-0.461C0.658,-0.459 0.694,-0.458 0.72,-0.458C0.748,-0.458 0.779,-0.459 0.815,-0.461L0.815,-0.421C0.79,-0.42 0.774,-0.418 0.768,-0.415C0.764,-0.412 0.76,-0.407 0.756,-0.401C0.747,-0.384 0.725,-0.326 0.69,-0.228C0.666,-0.156 0.641,-0.079 0.616,0.003L0.536,0.003C0.5,-0.09 0.455,-0.192 0.403,-0.304C0.346,-0.188 0.3,-0.086 0.266,0.003L0.185,0.003C0.171,-0.056 0.15,-0.136 0.121,-0.236C0.092,-0.337 0.075,-0.391 0.07,-0.401C0.067,-0.406 0.063,-0.41 0.06,-0.413C0.053,-0.416 0.035,-0.419 0.004,-0.421Z" style="fill-rule:nonzero;"/>
        </g>
        <g transform="matrix(291.667,0,0,291.667,2339.09,2047.43)">
            <path d="M0.436,-0.091L0.45,-0.077L0.428,-0.03C0.405,-0.015 0.38,-0.005 0.353,0.003C0.326,0.01 0.297,0.014 0.267,0.014C0.196,0.014 0.14,-0.007 0.099,-0.048C0.059,-0.089 0.038,-0.147 0.038,-0.222C0.038,-0.269 0.044,-0.308 0.056,-0.339C0.066,-0.364 0.082,-0.385 0.104,-0.402C0.127,-0.418 0.152,-0.434 0.181,-0.449C0.211,-0.464 0.243,-0.472 0.277,-0.472C0.331,-0.472 0.375,-0.457 0.41,-0.427C0.444,-0.397 0.462,-0.349 0.462,-0.283C0.462,-0.275 0.461,-0.262 0.46,-0.246L0.38,-0.231C0.355,-0.229 0.32,-0.229 0.273,-0.229L0.167,-0.229C0.172,-0.172 0.189,-0.13 0.217,-0.102C0.246,-0.073 0.282,-0.059 0.327,-0.059C0.345,-0.059 0.364,-0.062 0.382,-0.067C0.4,-0.073 0.418,-0.08 0.436,-0.091ZM0.164,-0.28C0.193,-0.278 0.223,-0.276 0.252,-0.276C0.278,-0.276 0.305,-0.278 0.333,-0.28L0.333,-0.303C0.333,-0.343 0.326,-0.373 0.312,-0.391C0.297,-0.41 0.277,-0.419 0.252,-0.419C0.234,-0.419 0.219,-0.415 0.207,-0.406C0.194,-0.397 0.184,-0.385 0.178,-0.369C0.172,-0.354 0.167,-0.324 0.164,-0.28Z" style="fill-rule:nonzero;"/>
        </g>
        <g transform="matrix(291.667,0,0,291.667,2484.93,2047.43)">
            <path d="M0.118,0.014L0.094,0.004C0.1,-0.074 0.103,-0.183 0.103,-0.323C0.103,-0.385 0.103,-0.434 0.102,-0.468L0.099,-0.594C0.099,-0.613 0.097,-0.626 0.094,-0.632C0.092,-0.636 0.087,-0.639 0.082,-0.641C0.077,-0.642 0.058,-0.643 0.024,-0.645L0.024,-0.68C0.042,-0.68 0.071,-0.684 0.11,-0.691C0.149,-0.699 0.178,-0.707 0.197,-0.715L0.219,-0.723C0.225,-0.723 0.228,-0.719 0.228,-0.711L0.227,-0.66C0.226,-0.643 0.225,-0.55 0.223,-0.383L0.282,-0.433C0.301,-0.448 0.317,-0.459 0.332,-0.464C0.347,-0.469 0.365,-0.472 0.386,-0.472C0.44,-0.472 0.484,-0.454 0.517,-0.419C0.55,-0.385 0.567,-0.339 0.567,-0.283C0.567,-0.255 0.562,-0.226 0.553,-0.197C0.544,-0.167 0.533,-0.143 0.519,-0.124C0.506,-0.106 0.488,-0.089 0.467,-0.075C0.44,-0.058 0.417,-0.042 0.398,-0.027C0.375,-0.01 0.357,0.001 0.341,0.006C0.326,0.011 0.307,0.014 0.285,0.014C0.263,0.014 0.243,0.011 0.224,0.005C0.205,-0 0.184,-0.01 0.16,-0.025C0.152,-0.019 0.138,-0.006 0.118,0.014ZM0.223,-0.332L0.223,-0.108C0.235,-0.09 0.25,-0.076 0.267,-0.067C0.284,-0.058 0.303,-0.054 0.324,-0.054C0.359,-0.054 0.387,-0.068 0.409,-0.095C0.43,-0.123 0.441,-0.166 0.441,-0.222C0.441,-0.276 0.43,-0.316 0.408,-0.343C0.386,-0.37 0.357,-0.384 0.322,-0.384C0.303,-0.384 0.285,-0.379 0.269,-0.371C0.252,-0.362 0.237,-0.349 0.223,-0.332Z" style="fill-rule:nonzero;"/>
        </g>
    </g>
</svg>
